<svg width="390" height="162" viewBox="0 0 390 162" fill="none" xmlns="http://www.w3.org/2000/svg">
<path d="M-41.9093 73.5205C-42.9344 77.0699 -45.6087 76.65 -47.7977 78.7786L-44.1895 79.9455C-43.4598 82.8992 -49.1549 84.3882 -52.7924 83.778L-54 86.0726L-51.9314 85.4672C-51.53 88.7285 -50.1072 86.0042 -49.0127 86.3362C-49.1461 87.6304 -49.2107 88.9355 -49.206 90.2419C-49.206 90.6179 -48.5603 91.1793 -48.1881 91.2184C-47.7321 91.2672 -47.2541 90.8571 -46.4989 90.5105C-48.469 92.8002 -48.469 92.8002 -48.0641 93.9768L-49.6986 95.3975C-49.352 96.2031 -49.0783 96.8329 -48.7719 97.5359L-45.4445 95.2462L-45.2366 95.7344L-46.9951 97.531L-45.8495 99.6206C-46.82 100.402 -47.6044 101.202 -48.4727 101.695C-49.7788 102.433 -50.0743 103.39 -49.1549 104.508L-46.6522 105.85L-44.828 103.634C-44.0983 110.024 -41.1796 108.413 -38.1003 107.452C-38.2937 108.648 -38.4652 109.634 -38.6075 110.62C-38.3192 111.47 -38.4396 112.343 -38.2901 113.115C-38.0274 114.501 -37.4765 117.021 -37.2685 116.986C-35.8894 116.694 -35.6523 118.49 -34.8022 118.993L-36.9912 122.679L-34.7 126.585L-35.0649 127.19L-33.7661 128.767L-36.3819 131.208C-36.3819 131.418 -36.3819 131.628 -36.3819 131.838L-33.7186 132.141C-33.7186 132.141 -33.5472 132.575 -33.4049 132.946L-34.5432 134.66C-32.8357 135.451 -31.6245 134.699 -30.6321 132.448L-28.6401 132.6L-30.8911 134.66L-30.1615 135.978L-31.8543 137.511C-31.0991 137.848 -30.7598 138.038 -30.4205 138.131C-30.0812 138.224 -29.647 138.253 -28.8955 138.361L-30.4752 139.889C-29.4318 141.842 -28.0965 141.47 -26.3562 138.78L-24.8202 139.557C-24.7945 139.872 -24.7199 140.177 -24.6011 140.452C-24.4824 140.727 -24.3222 140.966 -24.1307 141.153C-23.401 141.71 -22.4013 141.851 -21.8942 142.652C-21.2448 143.672 -20.7705 143.824 -19.9533 143.277C-17.217 141.436 -14.4296 142.154 -11.6495 142.823C-11.6495 143.013 -11.6495 143.209 -11.624 143.399H-14.488C-14.6631 144.375 -14.7908 145.078 -15.0644 146.592L-13.3789 145.449L-12.8645 146.26L-14.7981 149.56L-14.0064 150.102L-15.9984 154.096C-13.9444 154.311 -13.1709 152.372 -12.3063 150.937C-11.5766 149.751 -11.4233 149.565 -10.5477 150.639C-11.1096 151.879 -11.6422 153.08 -12.2041 154.315C-12.0655 154.525 -11.9305 154.74 -11.7918 154.955C-11.2008 154.35 -10.4857 153.881 -10.0516 153.1C-9.6174 152.319 -9.47511 151.22 -9.17594 150.171C-8.1471 151.904 -7.94643 151.952 -5.89239 151.147C-6.38128 153.954 -6.87381 156.761 -7.43566 159.964C-5.6589 159.539 -5.0861 157.938 -4.68478 156.268C-2.80951 157.157 -3.1707 153.92 -1.94849 153.422L-0.52197 154.189C-2.14915 155.336 -1.34286 156.141 -0.755467 156.63C-1.09112 158.397 -1.38664 159.935 -1.78431 162C0.229594 160.535 0.630921 158.607 0.448501 156.298L2.41498 154.682C2.23621 154.115 2.09757 153.666 1.95893 153.217L2.20702 152.836L4.18444 154.716L6.37348 152.47C6.3078 154.149 6.25308 155.556 6.18376 157.411C8.09187 155.775 7.85837 153.749 7.59933 152.187L9.40164 148.428C9.55487 148.52 10.062 149.111 10.3904 148.955C10.9668 148.677 11.9008 147.856 11.8497 147.412C11.6563 145.279 12.4298 145.074 13.3784 145.21L14.9253 140.46L19.7922 149.619C21.8828 146.104 20.7262 142.92 20.2556 139.601L27.1072 147.734C28.9314 145.371 26.4286 144.092 26.4214 142.032L31.1132 147.441C32.7039 146.616 31.6604 145.415 31.3978 144.512C31.0535 143.523 30.6521 142.571 30.1974 141.666L30.4601 141.178C31.4233 142.525 32.2843 142.012 33.4117 141.636C34.7689 141.182 36.3304 141.91 37.7897 142.032C38.9061 142.125 40.0262 141.993 41.1389 142.095C42.8281 142.247 44.5101 142.613 46.1993 142.715C48.8334 142.881 51.4675 142.916 54.1016 142.984C56.1229 143.033 58.155 143.213 60.1689 143.038C63.8622 142.634 67.5791 142.87 71.2272 143.741C72.4567 144.063 73.781 143.863 75.0397 143.702C76.5575 143.501 78.1846 142.413 79.5455 142.911C82.0264 143.833 84.3358 142.618 86.7036 142.53C89.4363 142.423 92.1434 140.953 94.9088 142.32C95.0621 142.393 95.2737 142.559 95.3758 142.471C97.7692 140.186 100.615 142.593 103.107 140.938C104.201 140.211 105.482 140.05 106.679 139.635C108.291 139.576 109.933 139.259 111.582 139.083C112.837 138.951 114.099 139.044 115.354 138.946C115.818 138.876 116.271 138.711 116.697 138.458C118.156 137.716 119.685 136.1 121.006 136.403C122.447 136.735 123.654 136.144 124.968 136.12C125.598 136.089 126.218 136.331 126.737 136.808C129.317 139.542 131.995 141.661 135.399 141.29C136.059 141.217 136.774 142.115 137.46 142.559C137.42 142.75 137.376 142.935 137.336 143.121L142.002 142.803L141.637 141.646C143.17 141.3 143.929 142.252 144.016 144.195C145.475 144.536 146.785 144.683 147.336 142.032C148.668 145.191 150.076 142.3 151.535 142.325L150.561 144.278C152.652 146.392 154.392 145.489 155.939 143.086C156.669 146.016 158.332 146.738 159.795 146.646C163.444 146.401 167.092 145.62 170.485 145.088C170.967 144.268 171.28 143.204 171.696 143.135C172.976 142.86 174.278 142.815 175.567 142.999C176.979 143.209 178.358 144.126 179.752 144.126C181.602 144.126 183.459 143.599 185.294 143.15C185.936 142.999 186.531 142.437 187.446 141.881L193.426 143.404L192.219 144.615L193.82 145.43L194.517 141.988C196.772 143.038 199.059 144.629 201.449 145.049C203.744 145.459 206.144 144.654 208.509 144.385V145.581L209.603 144.512L210.165 146.284C210.267 145.23 210.318 144.727 210.362 144.292C210.75 144.459 211.125 144.675 211.482 144.937C211.729 145.236 211.948 145.575 212.131 145.947C213.427 145.225 214.904 145.352 215.751 147.256C216.889 149.814 217.506 149.873 219.399 149.004C220.658 148.418 222.066 147.886 223.336 148.115C224.868 148.389 225.806 148.037 226.335 145.938C226.515 145.446 226.741 144.989 227.01 144.576L228.589 145.986L227.29 147.217C229.246 148.442 228.75 145.264 229.684 145.049L232.519 144.629C232.598 145.192 232.765 145.726 233.009 146.196C233.253 146.666 233.569 147.062 233.936 147.357C234.302 147.652 234.712 147.84 235.136 147.909C235.561 147.977 235.992 147.924 236.4 147.754C238.907 146.777 241.614 145.83 243.566 142.93C244.004 142.286 245.025 141.641 244.956 141.231C244.631 138.961 245.744 140.006 246.328 139.864C246.361 139.513 246.393 139.171 246.452 138.561C247.835 141.68 247.222 143.55 244.916 144.624C243.821 145.142 242.814 146.206 242.11 146.753C242.377 148.013 242.727 148.833 242.643 149.55C242.585 150.039 241.935 150.424 241.567 150.834C242.661 152.075 242.84 151.894 243.606 148.613L245.182 148.945L245.04 148.389L248.382 146.543C248.426 146.104 248.488 145.508 248.491 145.454C249.25 144.673 249.885 144.278 250.239 143.589C250.772 142.413 251.248 141.192 251.662 139.933L251.078 139.064L253.698 139.552L253.935 140.392C254.858 140.738 255.558 140.719 255.861 141.202C256.164 141.685 256.018 142.632 256.08 143.467C258.269 142.266 255.996 140.982 256.018 139.806L257.247 138.527C257.536 139.161 257.802 139.742 258.024 140.221C258.725 139.942 259.188 139.732 259.663 139.576C260.137 139.42 260.684 139.347 261.268 139.22L260.684 140.313C261.013 141.466 261.279 142.408 261.593 143.526L259.571 143.96C260.367 144.37 261.031 144.883 261.111 144.732C261.585 143.846 262.015 142.918 262.395 141.954C263.402 142.291 264.416 142.701 265.453 142.93C265.682 142.974 266.182 142.344 266.219 141.983C266.354 139.542 268.01 138.619 268.889 136.998C269.51 135.861 271.192 135.817 272.421 135.436C273.957 134.948 275.518 134.65 277.135 134.25L279.813 136.691L278.156 136.457L278.098 136.945L279.557 137.521C278.331 139.596 277.226 141.48 276 143.56C277.788 144.102 278.065 145.513 277.313 147.725C279.021 146.69 278.08 145.093 278.207 143.765C280.681 144.903 280.294 140.05 282.071 140.191C281.735 138.971 281.436 137.887 281.152 136.837C283.341 135.793 285.187 132.365 287.379 136.11C289.62 134.806 289.623 134.792 292.024 136.051C293.257 136.701 294.472 137.423 295.694 138.112L295.869 137.658L294.18 135.944L295.504 135.392C295.902 136.061 296.212 136.627 296.234 136.608C296.836 136.017 297.409 135.368 297.996 134.718L304.928 139.025L303.815 140.265C304.582 140.182 305.187 140.377 305.395 140.055C306.953 137.643 309.135 137.662 311.108 137.208C314.319 136.466 316.869 138.61 318.77 142.091C320.091 144.532 320.959 145.093 323.068 143.941L324.582 145.811L328.748 141.212C329.051 141.739 329.504 142.515 330.153 143.653L333.039 141.978L335.472 146.157L335.151 146.992L338.504 146.172L341.087 147.9L342.182 146.47L343.641 147.676C344.893 144.258 347.085 143.082 349.752 143.15C349.687 142.92 349.624 142.686 349.562 142.457H347.687C347.687 142.266 347.654 142.076 347.636 141.885C348.352 141.783 349.06 141.6 349.752 141.339C350.295 140.986 350.807 140.552 351.277 140.045L350.971 139.381L349.088 140.226C348.975 139.376 348.891 138.761 348.851 138.473C348.07 138.258 347.224 138.321 347.089 137.916C346.895 137.33 347.22 136.398 347.381 135.177C347.067 134.689 346.574 133.913 346.082 133.132L345.805 133.439C345.644 132.717 345.487 131.975 345.308 131.189L346.403 130.266L347.578 132.531C350.259 129.28 350.701 129.167 353.211 131.692C353.663 132.146 353.776 133.278 354.138 134.382C355.553 134.216 354.356 132.429 354.502 131.325H357.366C357.22 132.565 357.093 133.625 356.947 134.87L355.816 135.446L358.005 136.081L356.691 137.223C358.461 138.112 359.362 137.457 359.789 135.114L362.646 134.26C362.646 134.025 362.689 133.522 362.708 133.142C363.875 132.536 365.145 132.053 365.506 134.094C365.871 136.227 367.056 136.364 368.089 137.081C368.215 136.925 368.352 136.784 368.498 136.662C369.483 135.998 370.851 134.45 371.383 134.894C372.383 135.724 373.937 136.847 373.43 139.405C373.376 139.684 373.653 140.118 373.795 140.445C374.258 141.422 374.7 142.447 375.222 143.375C375.697 144.131 376.201 144.855 376.732 145.542C376.805 145.054 376.863 144.619 376.944 144.078C380.092 145.918 382.285 141.031 385.393 141.89C385.24 141.329 385.134 140.914 384.835 139.84C385.838 140.484 386.4 140.904 386.995 141.217C388.203 141.851 389.414 141.451 390.224 144.146C390.975 146.655 393.507 148.105 395.915 146.943C396.28 146.758 396.586 146.177 397.01 145.689C398.703 146.304 400.523 144.258 400.439 141.261C401.019 141.719 401.505 142.125 402.004 142.491C402.409 142.784 402.854 143.306 403.245 143.248C405.299 142.916 407.346 142.437 409.392 141.988C409.648 141.929 410.1 141.754 410.122 141.597C410.221 139.591 411.424 140.201 412.129 140.055C412.99 139.879 413.909 140.265 414.755 140.401C414.839 139.449 414.916 138.595 415.004 137.628C416.981 137.76 416.353 140.426 416.857 141.173L419.575 141.588C419.812 140.709 420.108 139.601 420.502 138.126H424.825C425.941 136.925 428.867 137.311 430.436 139.005L446.431 137.858L445.041 137.296C446.591 136.154 447.908 137.101 449.269 137.902C450.729 138.761 452.243 139.479 453.79 140.289C453.987 139.215 454.103 138.59 454.22 137.965L453.826 138.365L450.572 133.771C453.855 132.233 457.19 132.199 460.725 132.258C460.276 131.023 460.043 130.368 459.791 129.68L461.013 129.304L459.693 127.556L461.882 124.178C461.68 124.108 461.467 124.117 461.268 124.203C461.07 124.29 460.894 124.45 460.762 124.666C460.576 125.128 460.437 125.621 460.346 126.131L458.985 125.267L459.995 124.983C457.566 124.739 457.566 124.734 457.806 122.401C459.182 121.986 461.068 122.987 461.798 119.901L465.227 118.339C462.4 117.523 463.75 114.985 463.768 113.164L455.377 110.981C456.168 110.313 456.796 109.517 457.526 109.209C458.802 108.643 460.141 108.355 461.455 107.945C461.185 105.923 460.783 105.504 459.747 105.22C458.215 104.791 456.73 104.054 455.223 103.448C455.223 103.297 455.253 103.146 455.271 102.994L458.189 101.695L457.496 99.1665L454.454 97.7019L456.194 96.4716L453.454 91.4429L453.735 91.1403L450.944 90.1004C450.991 89.8611 451.042 89.6121 451.09 89.3827H451.878L449.878 84.7593L458.47 79.8332C459.565 80.5362 459.93 78.5491 460.926 77.602L458.397 75.9811L462.914 73.1641L462.87 72.5783L460.404 72.09C461.71 69.6783 464.487 70.9476 465.603 68.1843L460.539 65.6505L467.562 63.6488C466.741 61.984 466.916 60.5779 468 59.7431L462.236 55.7299L463.983 54.6802C464.217 53.6159 464.468 52.4686 464.618 51.7509L464.042 49.0804L456.887 48.104C456.887 47.894 456.887 47.6792 456.887 47.4693L459.649 44.4912C459.357 43.09 458.981 41.2885 458.598 39.443H456.044L458.084 42.9338C456.157 43.9102 454.61 46.3171 452.027 45.4237L453.239 44.4179C447.084 44.872 441.093 42.4992 435.544 45.8191L432.304 42.4016L432.414 41.5326L435.223 40.0093L433.745 37.2607L433.891 37.0459L434.687 37.7196L434.873 37.3241L433.53 36.006L436.449 34.1507L436.383 33.5014L434.194 32.7398L435.723 29.8544C434.508 29.0098 429.765 30.5672 428.357 31.8805L429.451 29.6592L433.143 28.5167C432.603 27.6672 432.443 27.4231 432.147 26.9544L433.702 26.5004C433.837 25.7192 433.946 25.0992 434.161 23.8787L431.29 26.9642L429.411 25.9341L428.634 27.8869C427.375 27.1107 428.408 23.4686 426.106 23.947V25.4117L421.917 24.4352C422.326 22.7753 423.428 20.6516 420.852 20.8029C420.783 20.8029 420.691 20.4319 420.626 20.2219C420.235 18.9282 419.75 18.9574 419.002 19.7874C417.247 21.7403 416.605 21.5011 415.719 18.9867L413.924 21.3204L409.546 16.4724C409.046 17.3707 408.922 18.7524 407.444 17.7125C406.182 16.8239 404.427 17.3122 402.891 17.2243C402.026 17.1852 401.067 16.9265 400.337 17.3463C399.607 17.7662 399.129 18.8989 398.491 19.7874L397.641 15.535L398.827 14.3633C396.24 14.9492 393.752 15.6376 391.304 13.7238L392.519 13.0647C391.132 12.7717 390.176 11.0728 389.115 12.9475C387.852 10.0182 384.321 10.1647 379.629 13.3674C379.698 12.4398 379.771 11.4877 379.862 10.316C378.706 9.29076 377.498 8.21668 376.258 7.12308L375.203 8.17274C375.181 6.2687 374.576 5.67796 373.328 6.00995C372.471 6.22964 371.566 6.049 370.552 6.049C370.552 6.049 370.431 5.66331 370.289 5.21903L366.688 10.0182C366.849 12.0297 365.006 13.7482 362.376 13.4357C362.284 13.9874 362.197 14.5489 362.149 14.8223L360.292 14.417L360.971 12.9524C359.599 12.5618 358.081 12.5813 356.932 11.6781C355.681 10.7017 354.484 9.77409 353.069 9.59345C352.135 9.47628 351.19 9.59345 350.248 9.59345C350.194 9.13453 350.099 8.35338 350.004 7.57712H349.639C349.442 8.58285 349.241 9.58369 349.052 10.5552L348.654 10.316L345.863 15.3251C345.816 16.6482 345.768 18.0445 345.721 19.3675C345.188 19.5628 344.728 19.5433 344.491 19.8558C344.254 20.1682 344.272 21.0031 344.013 21.3595C343.098 22.624 340.022 20.842 339.5 18.6499L336.341 20.5051C335.928 24.2155 335.928 24.2155 332.309 23.9226V21.7354L332.087 22.3701L328.438 21.3644C329.139 18.2788 327.245 18.5718 326.136 18.0298C325.724 17.8297 325.082 18.5815 324.516 18.9135C325.341 19.3529 325.793 19.5872 326.238 19.8558C326.282 19.8558 326.264 20.1194 326.286 20.344H325.304L325.786 21.5206C325.49 22.497 325.027 23.2293 325.137 23.742C325.531 25.6362 326.118 27.4573 326.662 29.4102C325.531 30.2108 324.52 30.7235 323.655 28.463C323.374 27.7307 322.36 27.5598 321.692 27.1351C321.915 25.8755 322.207 24.2058 322.539 22.3213H320.602C320.966 22.9022 321.554 23.532 321.481 23.7859C321.193 24.6996 320.839 25.5743 320.426 26.3979H318.865L320.324 31.4558C316.815 31.0945 315.724 26.5346 313.374 24.6842C312.845 25.9048 312.407 26.9007 311.94 27.9699L310.547 26.4125C310.813 25.2896 311.068 24.2204 311.211 23.6053C311.856 23.3026 312.575 23.2147 312.626 22.8974C312.778 21.7221 312.852 20.531 312.845 19.3383C312.871 18.5766 312.845 17.815 312.845 17.0973L315.198 17.3512V14.7002L317.668 15.9647C318.099 14.2266 317.479 13.3869 316.078 13.3185C315.184 13.2697 314.304 12.7864 313.422 12.5032L313.553 11.727L316.048 11.9711C316.048 11.727 316.089 11.4829 316.107 11.2387L312.389 10.2623L311.933 11.4194C311.094 9.95473 310.288 8.4315 309.401 7.02544C308.825 6.11247 308.252 4.45742 307.23 6.53722C307.121 6.76668 306.482 6.46887 305.953 6.40052L307.19 3.83738L302.228 7.1182C301.305 7.00591 300.605 6.99126 299.919 6.83503C298.273 6.46399 298.277 6.43958 297.843 7.25978L298.799 7.38672L295.42 10.8921L296.778 11.4682L294.538 13.0061C293.841 10.6236 292.367 11.0776 291.666 10.443L289.24 15.0127L288.167 14.2071L288.926 12.43L284.512 7.68453L282.162 11.1802C281.925 10.2037 281.757 9.48605 281.575 8.70978C280.714 10.067 280.064 11.0386 279.324 8.93436L277.164 13.6261C275.165 14.1583 274.19 17.1218 272.895 19.6214C272.709 18.9916 272.53 18.3618 272.315 17.6344C271.79 18.1226 271.414 18.7719 271.024 18.7963C269.604 18.9285 268.178 18.8745 266.766 18.6352C264.365 18.1177 261.815 17.898 260.279 14.334L258.882 15.1787C259.34 15.6192 259.78 16.0935 260.199 16.5994C260.246 16.6628 259.998 17.4586 259.867 17.4684C259.453 17.4503 259.043 17.3651 258.645 17.2145L258.079 18.9184C257.857 18.1812 257.714 17.7418 257.579 17.278L250.465 23.2391C250.662 21.7061 250.786 20.7199 250.896 19.8558H248.367C248.367 20.012 248.367 20.1731 248.367 20.344L249.268 20.8761L249.104 21.5889L245.988 20.2805L246.014 19.5238C244.628 20.1975 243.263 21.2814 241.851 21.4229C240.439 21.5645 238.998 20.7687 237.626 20.3977C237.626 20.6857 237.718 21.2667 237.564 21.4718C236.74 22.5947 234.033 22.4482 233.044 21.4718C232.11 20.5686 231.067 19.8997 230.071 19.1234C230.144 18.5132 230.264 17.5611 230.392 16.5164L231.975 15.0517L228.67 13.0354L230.184 12.3128C228.746 11.9467 228.089 8.40709 226.218 10.7798C227.013 6.69345 226.674 5.15068 224.861 5.71702C226.685 7.18166 225.415 8.75372 225.226 10.3258L223.81 10.194C224.828 13.6408 227.236 15.4618 227.772 18.8598L228.914 20.5637L227.181 20.715L227.772 22.7704L227.506 22.9315C227.203 22.2529 226.9 21.5694 226.411 20.4514L226.138 23.2L224.915 23.3612C224.427 22.5458 223.985 21.7989 223.54 21.0519L223.266 21.3399L223.923 23.0487C221.803 20.842 219.465 21.1837 217.082 21.1544C217.009 20.9298 216.874 20.5002 216.739 20.0755C216.613 20.242 216.541 20.4682 216.539 20.7053C216.426 21.2862 216.287 21.8526 216.174 22.4238L215.736 22.1699C215.766 21.9644 215.82 21.7666 215.897 21.5841C216.048 21.3945 216.215 21.2305 216.396 21.0958L213.164 17.7418L214.32 17.9371L214.463 17.5758L212.332 15.6473L212.795 14.7783L211.701 14.4219C211.435 13.1379 211.409 11.7025 211.033 11.4926C210.435 11.1509 209.603 11.6196 208.738 11.766L208.534 11.229L206.495 13.05C206.341 12.0492 206.152 10.7945 205.958 9.54463C204.444 8.38268 204.444 8.38268 203.547 10.3063C206.725 8.88554 204.539 12.928 205.572 13.9337C203.985 12.7376 204.437 14.5342 204.404 15.6425L201.062 14.9492L199.898 16.9362L198.519 15.1738L199.369 12.801L197.009 14.6172L196.352 13.2307L195.579 15.9061C194.046 15.1201 192.069 17.693 190.818 14.2657L193.236 15.413C193.309 15.1591 193.382 14.9248 193.452 14.6563L191.233 12.0004L191.901 11.2583C191.584 10.5504 191.292 9.89615 190.949 9.11988L189.012 8.95389V6.5421C187.789 5.07745 185.447 6.97173 185.239 3.25152L182.97 4.28654C182.415 3.05624 183.116 0.488216 180.909 0L180.314 1.15707C180.85 1.55741 181.554 1.7527 181.715 2.27509C181.963 3.10506 181.85 4.1596 181.894 5.17509L180.996 4.9554C180.956 6.85456 181.5 7.46483 182.649 7.39648C183.466 8.18739 183.948 8.95877 184.535 9.16382C186.939 10.0084 187.355 10.5894 187.403 13.797C189.661 15.0127 189.661 15.0127 189.19 17.0925H188.078V14.7685L185.334 15.5936L184.451 14.4024L184.852 14.0167C184.564 13.4162 184.364 12.6399 183.973 12.2445C182.879 11.1509 181.266 10.565 180.73 9.12477C180.069 7.34766 179.121 7.56736 178.216 7.10843C176.757 6.35658 175.275 5.61449 173.812 4.8724L170.806 5.60961L168.982 9.11988L165.268 8.45103C165.158 8.18251 164.903 7.56247 164.659 6.98638L162.181 9.27611C161.634 8.05069 160.97 7.04496 160.722 5.8586C160.357 4.21819 159.744 4.26701 158.774 4.47695C157.366 4.78452 155.804 5.8586 154.928 3.98873C153.892 3.73486 153.104 3.76415 152.477 3.3394C150.653 2.09933 149.412 2.67054 148.314 5.23856C147.675 6.72762 146.96 8.27527 145.37 7.82611C145.049 7.73335 144.64 8.19716 144.301 8.39732L143.742 7.03032L143.4 7.0889L143.217 9.08571L142.327 8.39732L141.254 10.0084C141.185 9.00271 141.138 8.30944 141.086 7.6113L140.806 7.582L140.422 9.32494L138.908 7.81146C139 8.67561 139.054 9.20288 139.149 10.1305C138.383 9.57393 137.894 8.98807 137.369 8.90995C136.843 8.83184 136.245 9.29564 135.669 9.39817C135.355 9.42276 135.041 9.3698 134.742 9.24194C133.512 8.88554 132.217 7.97746 131.068 8.26551C128.977 8.77813 126.974 9.98891 124.939 10.9263C123.731 11.4829 122.531 12.0785 121.56 12.5423L120.539 8.06534L118.35 9.04177C119.061 9.61298 119.506 9.97426 120.083 10.4478C120.083 10.5797 120.061 11.0679 120.064 10.9605C118.605 11.1216 117.259 11.0825 115.982 11.4487C114.585 11.8588 113.238 12.6497 111.378 13.4992C112.279 10.9507 111.341 11.1655 110.56 10.9751C108.955 10.5943 107.379 9.8278 105.774 9.70574C104.168 9.58369 102.49 9.97426 100.87 10.2965C99.4474 10.5748 98.0537 11.2729 96.6272 11.4047C95.4342 11.5073 94.2156 11.0483 93.008 10.8433L92.7563 11.4291L91.4794 8.49985C89.3341 7.20608 86.8277 9.18823 84.6386 7.16214C84.0987 6.67392 83.0479 6.24429 82.6503 6.63974C81.1289 8.14345 79.7024 6.60557 78.2722 6.55675C76.1853 6.47863 73.8759 7.96769 73.1645 10.9068L71.1287 9.93032L71.9824 9.27611L72.0043 8.61214L67.743 7.87981C67.6955 8.18739 67.6043 8.73419 67.5241 9.22241L66.4624 8.96854L66.2289 9.4177L67.8561 12.3763C66.6083 11.7514 65.6889 11.3999 64.8425 10.8335C63.6531 10.0475 62.8395 10.3453 62.4966 12.347C61.9603 11.3706 61.6392 10.3355 61.081 9.90591C60.676 9.58857 59.9865 10.0182 59.4027 10.1305L58.1514 9.39817C57.958 11.9222 57.1663 13.4601 55.1925 12.8987C55.3129 12.3128 55.4297 11.727 55.5574 11.146L55.0867 10.5894C54.9006 11.0776 54.7219 11.5658 54.7584 11.478L49.5521 10.8823C49.4317 11.727 49.3332 12.4007 49.2384 13.0891C47.3923 13.2844 45.59 13.343 43.8497 13.6896C41.7165 14.069 39.7522 15.4455 38.3041 17.5758C37.5088 18.7231 36.3851 19.4359 35.3854 20.2561C34.3858 21.0763 33.2767 21.8623 32.1967 22.5947C31.4801 23.093 30.7361 23.5173 29.9712 23.864C29.433 24.07 28.8843 24.2234 28.3295 24.3229C27.3845 22.9559 26.5272 21.7159 25.4837 20.217C25.2721 21.3888 25.1627 21.9844 25.0532 22.5849H24.6081C24.5388 21.8086 24.4658 21.0372 24.3564 19.8362L22.0032 22.0527C22.0506 21.5645 22.0907 21.1202 22.1381 20.6271H20.8612C21.0327 21.4766 21.164 22.1504 21.299 22.8241L20.8977 23.1268L20.0367 20.9298L17.9717 21.1056V18.4448C17.3952 18.8989 16.786 19.1723 16.7896 19.4213C16.8079 20.1829 17.0596 20.9347 17.304 22.0674L14.4765 19.6702C14.2357 20.6467 14.0314 21.4522 13.7979 22.375L12.2656 22.0674C11.9008 20.6027 11.5943 19.2699 11.2769 17.9615L10.8865 18.1519C10.9413 18.7866 10.996 19.4213 11.0069 19.5384C10.2371 20.4758 9.59135 21.0324 9.18273 21.8282C8.77411 22.624 8.48589 23.781 7.93498 25.4263C7.61393 23.2635 6.94262 23.1122 5.74595 23.1903C4.8375 23.2489 3.30154 23.1903 2.72874 21.0714C2.60835 20.6076 1.40437 20.2073 0.962919 20.5197C-0.710658 21.6809 -2.29866 23.0507 -3.77998 24.611C-4.22508 25.0992 -4.16671 26.515 -4.32724 27.511C-4.43669 28.1896 -4.5279 28.8731 -4.6264 29.5566L-5.14083 29.459C-5.23569 28.0724 -5.61877 26.5639 -5.35243 25.3336C-4.90368 23.2538 -5.71727 23.2733 -6.44695 23.2635L-7.27878 20.5051L-7.91725 20.6174C-8.03035 23.3319 -8.1398 26.0512 -8.26019 28.9952L-9.39849 29.4004C-9.56997 28.7462 -9.7305 28.131 -10.0041 27.0716C-10.431 27.7453 -10.9965 28.3117 -10.9345 28.5997C-10.7338 29.4785 -10.296 30.2499 -9.71955 31.612C-10.2668 33.0083 -11.0111 34.8928 -11.6422 36.4942L-13.8678 37.9442L-12.4267 39.4088L-13.813 41.6693C-14.156 40.6928 -14.4953 39.7164 -14.8309 38.7107L-15.2578 38.7497C-15.36 40.3413 -11.4306 41.928 -11.5474 43.7442C-12.7988 42.7287 -13.4263 43.1486 -14.3421 44.2324C-15.6774 45.824 -17.3848 46.7565 -18.6216 48.6654C-19.3805 49.8371 -20.5042 50.5548 -21.1755 51.7851C-22.0037 53.2498 -22.5436 55.0855 -23.2769 56.9309L-24.1927 55.7299L-22.9887 52.991L-24.3496 52.2392L-25.1559 54.236L-27.4434 52.6151C-28.7641 55.0269 -28.381 56.8919 -26.7137 58.4249L-30.6066 57.9904L-30.8328 58.586L-29.0341 61.735L-29.191 62.3452C-31.8105 58.8154 -33.4012 62.2964 -35.3312 63.8978C-35.0333 62.2887 -34.5757 60.7403 -33.9704 59.2939C-33.5617 58.3858 -32.4526 57.7218 -33.2918 56.5111C-34.2695 55.105 -34.7037 57.1311 -35.4005 57.5705C-35.4808 57.6242 -35.5209 57.8195 -35.5757 57.9513C-35.2108 61.0271 -35.3604 61.1784 -38.6221 61.0271C-38.9431 61.8424 -39.2605 62.6479 -39.6509 63.6488L-36.0025 64.9523L-36.6629 66.9735C-38.5819 66.8222 -40.3441 66.622 -42.1063 66.5634C-44.3391 66.4853 -44.7112 67.0517 -44.8717 69.6685L-42.3471 70.7035C-42.3471 70.9281 -42.3762 71.1527 -42.3945 71.3772L-45.1709 71.6506L-45.7984 72.9932L-46.0064 72.4025L-48.9908 73.4961C-46.6813 75.8591 -44.3537 76.0544 -41.9093 73.5205ZM446.558 60.2215C446.015 59.0791 445.661 57.7121 444.971 57.0725C444.348 56.5013 443.359 56.7308 442.531 56.5843C442.578 56.2425 442.629 55.9008 442.68 55.559L447.682 54.8023C447.361 56.4183 447.058 57.8781 446.558 60.2215ZM442.833 50.6525L443.198 51.9023L444.778 52.2294L444.69 52.8934L442.093 53.5427L441.921 52.8983L442.833 50.6525ZM208.717 11.7953C208.738 11.8588 208.717 11.8539 208.717 11.7953ZM146.377 140.724C146.457 140.982 146.541 141.241 146.625 141.5L144.877 143.501C144.644 142.916 144.414 142.33 144.038 141.378L146.377 140.724ZM59.3699 10.1354H59.3955V10.1647C60.0485 11.1899 60.7016 12.2201 61.413 13.3283C60.4097 14.8223 59.5159 13.7628 58.1878 12.9866L59.3955 10.1647L59.3699 10.1354ZM-31.1575 63.5853L-33.3064 66.3682L-33.8937 63.5853H-31.1575Z" fill="black"/>
</svg>
