<svg fill="none" height="150" viewBox="0 0 200 150" width="200" xmlns="http://www.w3.org/2000/svg">
    <path
        d="M125.195 7.1126C123.095 6.80593 120.247 12.0059 122.307 14.5059C123.45 15.8926 125.938 15.2926 125.906 12.6993C125.901 12.6273 125.88 12.5598 125.847 12.5069C125.814 12.454 125.77 12.4186 125.722 12.4059C124.071 11.8459 122.433 12.8993 122.712 15.7393C122.862 16.9635 123.287 18.0764 123.919 18.8962C124.55 19.7159 125.351 20.1941 126.189 20.2526C126.288 20.2526 126.252 19.9993 126.189 19.9726C124.75 19.5259 123.391 18.1993 123.108 15.9193C123.044 15.5158 123.039 15.0967 123.092 14.6898C123.146 14.283 123.257 13.8976 123.418 13.5593C123.611 13.2166 123.865 12.9622 124.152 12.8259C124.399 12.7126 125.285 12.5059 125.501 12.8259C125.888 13.4193 124.835 14.4259 124.521 14.5859C124.21 14.7513 123.878 14.8131 123.549 14.767C123.22 14.721 122.902 14.5681 122.618 14.3193C121.745 13.4126 121.961 11.7059 122.384 10.4993C122.955 8.86593 123.954 7.53927 125.24 7.4726C125.357 7.4726 125.294 7.14593 125.204 7.1326L125.195 7.1126Z"
        fill="#52229E" />
    <path
        d="M125.892 109.541C126.554 107.334 126.482 105.048 128.407 104.321C129.253 104.001 131.254 103.708 131.889 104.821C132.004 105.09 132.051 105.411 132.02 105.727C131.99 106.042 131.884 106.331 131.722 106.541C131.223 107.208 130.85 106.408 130.719 105.701C130.619 105.048 130.657 104.366 130.83 103.747C131.002 103.129 131.3 102.605 131.682 102.248C132.49 101.459 133.467 101.148 134.422 101.375C135.377 101.602 136.24 102.351 136.841 103.474C136.913 103.608 136.99 103.474 136.958 103.328C135.483 98.2942 128.412 101.794 130.661 106.621C131.349 108.081 132.563 106.794 132.334 105.248C132.082 103.534 130.112 103.621 129.239 103.708C128.355 103.708 127.502 104.195 126.846 105.074C126.077 106.194 125.973 107.968 125.812 109.474C125.812 109.541 125.852 109.641 125.883 109.541H125.892Z"
        fill="#52229E" />
    <path
        d="M176.331 1.30661C177.712 0.706612 179.61 0.873277 180.767 2.25328C181.666 3.31994 182.17 5.63328 180.852 6.42661C180.335 6.73328 178.63 6.73328 178.427 5.69328C178.283 4.96661 178.81 4.53328 179.233 4.43995C180.47 4.15328 181.63 6.08661 181.599 7.81328C181.558 10.4066 179.521 11.2666 178.081 11.2866C177.987 11.2866 178.009 11.5533 178.081 11.5599C180.533 11.9133 183.268 8.54661 181.086 5.17328C180.501 4.26661 179.583 3.61994 178.738 4.11994C178.261 4.40661 177.883 5.04661 178.122 5.81328C178.504 7.04661 180.042 7.25994 180.789 6.94661C180.987 6.86856 181.172 6.73115 181.333 6.5429C181.493 6.35464 181.626 6.11953 181.723 5.8521C181.82 5.58467 181.879 5.29061 181.897 4.98809C181.914 4.68557 181.889 4.38102 181.824 4.09328C181.221 0.813279 178.122 0.0932781 176.286 1.11328C176.232 1.11328 176.255 1.33328 176.318 1.30661H176.331Z"
        fill="#52229E" />
    <path
        d="M194.428 138.927C195.809 138.327 197.707 138.494 198.863 139.874C199.763 140.94 200.267 143.254 198.949 144.047C198.432 144.354 196.727 144.354 196.524 143.307C196.38 142.587 196.907 142.154 197.325 142.054C198.567 141.774 199.723 143.707 199.696 145.434C199.655 148.027 197.617 148.887 196.178 148.907C196.084 148.907 196.106 149.174 196.178 149.18C198.63 149.534 201.365 146.167 199.183 142.794C198.598 141.887 197.68 141.24 196.835 141.74C196.358 142.02 195.98 142.667 196.219 143.434C196.601 144.667 198.139 144.88 198.886 144.56C199.084 144.484 199.27 144.348 199.431 144.16C199.592 143.973 199.725 143.738 199.822 143.471C199.919 143.204 199.978 142.91 199.995 142.608C200.012 142.305 199.987 142.001 199.921 141.714C199.318 138.427 196.219 137.714 194.383 138.734C194.329 138.734 194.347 138.954 194.415 138.927H194.428Z"
        fill="#52229E" />
    <path
        d="M184.307 39.2469C182.661 39.9736 181.131 44.2669 182.661 46.2202C183.961 47.8802 186.588 47.5069 186.152 44.3402C186.147 44.3042 186.137 44.2703 186.121 44.2422C186.105 44.2141 186.085 44.1927 186.062 44.1802C184.334 43.5669 183.763 46.5536 184.127 48.5269C184.69 51.5936 186.777 51.5536 188.284 49.9536C188.333 49.9002 188.311 49.6869 188.239 49.7402C187.006 50.6536 185.279 51.4669 184.528 49.1336C184.127 47.8869 184.114 45.8002 184.887 44.8602C185.089 44.5819 185.355 44.4291 185.63 44.4336C186.205 44.5336 186.107 45.4536 185.783 46.0402C185.265 46.9736 184.226 46.8736 183.534 46.5136C181.163 45.2669 182.791 40.7136 184.339 39.4336C184.384 39.3936 184.375 39.2202 184.307 39.2469Z"
        fill="#52229E" />
    <path
        d="M147.696 28.5208C145.753 28.1542 141.574 30.5808 142.663 34.5208C143.243 36.6208 145.834 37.9675 146.684 35.5608C146.702 35.4953 146.703 35.4218 146.685 35.3559C146.667 35.2899 146.633 35.2367 146.589 35.2075C142.541 31.8075 138.277 41.6275 142.573 45.2075C142.708 45.3208 142.703 44.9808 142.627 44.8942C142.256 44.5181 141.94 44.0362 141.696 43.4768C141.453 42.9173 141.287 42.2915 141.208 41.636C141.13 40.9804 141.141 40.3083 141.24 39.659C141.339 39.0096 141.524 38.396 141.785 37.8542C142.223 36.8186 142.846 35.9832 143.585 35.4408C144.138 35.0542 145.528 34.5075 146.045 35.3075C146.279 35.6808 146.275 35.2142 146.153 35.6475C146.038 35.9049 145.861 36.0882 145.658 36.1608C145.217 36.3687 144.74 36.3452 144.309 36.0942C143.409 35.6275 142.703 34.4008 142.959 32.9275C143.432 29.9742 145.969 28.9275 147.746 28.8808C147.867 28.8808 147.791 28.5408 147.696 28.5208Z"
        fill="#52229E" />
    <path
        d="M156.539 1.93945C156.539 1.93945 156.422 5.16612 158.037 6.95945L159.728 6.19278C159.728 6.19278 158.599 5.39279 158.037 1.93945H156.539Z"
        fill="#FF9900" />
    <path
        d="M128.047 80.0527C128.047 80.0527 127.926 83.2794 129.54 85.0727L131.236 84.3061C131.236 84.3061 130.103 83.5061 129.54 80.0527H128.047Z"
        fill="#FF9900" />
    <path
        d="M141.875 116.414C141.875 116.414 141.754 119.634 143.373 121.427L145.064 120.667C145.064 120.667 143.935 119.861 143.373 116.414H141.875Z"
        fill="#FFC107" />
    <path
        d="M194.892 18.1067C194.892 18.1067 193.902 20.9867 191.9 21.34L190.69 19.42C190.69 19.42 191.941 19.5667 193.596 17L194.892 18.1067Z"
        fill="#FF9900" />
    <path
        d="M183.29 121.08C183.29 121.08 182.305 123.96 180.299 124.307L179.089 122.393C179.089 122.393 180.344 122.533 181.995 119.967L183.29 121.08Z"
        fill="#FF9900" />
    <path
        d="M155.604 60.5938C155.604 60.5938 154.619 63.4738 152.612 63.8205L151.402 61.9071C151.402 61.9071 152.657 62.0471 154.308 59.4805L155.604 60.5938Z"
        fill="#52229E" />
    <path
        d="M137.606 25.0539C137.606 25.0539 136.621 27.9339 134.619 28.2873L133.409 26.3673C133.409 26.3673 134.66 26.5139 136.315 23.9473L137.606 25.0539Z"
        fill="#FF9900" />
    <path
        d="M174.982 29.3876C174.982 29.3876 172.818 29.7876 171.5 27.5143L171.9 24.9609C171.9 24.9609 172.517 26.5809 174.878 27.1743L174.982 29.3876Z"
        fill="#52229E" />
    <path
        d="M143.611 13.6466C143.611 13.6466 141.452 14.0466 140.134 11.7799L140.53 9.22656C140.53 9.22656 141.15 10.8399 143.512 11.4399L143.611 13.6466Z"
        fill="#52229E" />
    <path
        d="M107.234 6.64656C107.234 6.64656 105.075 7.04656 103.757 4.7799L104.153 2.22656C104.153 2.22656 104.773 3.8399 107.131 4.4399L107.234 6.64656Z"
        fill="#52229E" />
    <path
        d="M133.117 49.661C133.117 49.661 130.958 50.0544 129.64 47.7877L130.035 45.2344C130.035 45.2344 130.656 46.8544 133.018 47.4477L133.117 49.661Z"
        fill="#52229E" />
    <path
        d="M197.842 73.5341C197.842 73.5341 195.679 73.9274 194.365 71.6608L194.761 69.1074C194.761 69.1074 195.382 70.7274 197.739 71.3207L197.842 73.5341Z"
        fill="#52229E" />
    <path
        d="M160.169 41.22C160.169 41.22 159.184 44.1 157.178 44.4533L155.968 42.5333C155.968 42.5333 157.448 42.8733 159.117 40.3066L160.169 41.22Z"
        fill="#FF9900" />
    <path
        d="M162.347 45.4724C162.347 45.4724 161.96 48.6524 160.098 49.8391L158.568 48.5057C159.65 47.7821 160.55 46.5683 161.137 45.0391L162.347 45.4724Z"
        fill="#FFC107" />
    <path
        d="M86.3171 4.62043C88.4223 4.31376 91.2652 9.5071 89.205 12.0071C88.0669 13.4004 85.5749 12.7938 85.6064 10.2004C85.6124 10.1297 85.6336 10.0637 85.6667 10.0121C85.6999 9.9605 85.7434 9.92604 85.7908 9.91376C87.4462 9.35376 89.079 10.4004 88.8001 13.2471C88.6513 14.4701 88.2266 15.582 87.5957 16.4007C86.9649 17.2195 86.1652 17.6965 85.3275 17.7538C85.224 17.7538 85.26 17.5004 85.3275 17.4804C86.7669 17.0271 88.1254 15.7004 88.4043 13.4204C88.4694 13.0181 88.4753 12.5998 88.4218 12.1937C88.3682 11.7877 88.2564 11.4035 88.0939 11.0671C87.8995 10.7126 87.6378 10.4525 87.3427 10.3204C87.0998 10.2071 86.2091 10.0004 86.0157 10.3204C85.6244 10.9204 86.6815 11.9204 86.9963 12.0804C87.3062 12.248 87.6374 12.311 87.9658 12.2649C88.2942 12.2188 88.6115 12.0646 88.8946 11.8138C89.7673 10.9138 89.5514 9.2071 89.1285 7.99376C88.5617 6.3671 87.5586 5.03376 86.2721 4.97376C86.1597 4.97376 86.2181 4.6471 86.3081 4.63376L86.3171 4.62043Z"
        fill="#52229E" />
    <path
        d="M82.9435 113.9C82.2823 111.694 82.3498 109.407 80.429 108.674C79.5834 108.354 77.5816 108.06 76.9429 109.18C76.8285 109.448 76.7825 109.768 76.813 110.082C76.8435 110.396 76.9486 110.684 77.1093 110.894C77.6131 111.56 78.009 110.76 78.1169 110.06C78.2177 109.407 78.1792 108.723 78.0068 108.103C77.8344 107.484 77.5365 106.959 77.1543 106.6C76.3441 105.803 75.3609 105.487 74.4006 105.715C73.4403 105.944 72.5733 106.7 71.9723 107.834C71.9048 107.96 71.8284 107.834 71.8598 107.687C73.3353 102.654 80.4065 106.154 78.1574 110.98C77.4692 112.44 76.2501 111.147 76.4796 109.607C76.736 107.894 78.7287 107.98 79.5744 108.06C80.4598 108.063 81.3134 108.55 81.9719 109.427C82.7411 110.554 82.8446 112.327 83.0065 113.827C83.0065 113.9 82.966 113.994 82.9345 113.9H82.9435Z"
        fill="#52229E" />
    <path
        d="M27.6643 1.30661C26.2834 0.706612 24.3851 0.873277 23.2245 2.25328C22.3249 3.31994 21.8256 5.63328 23.1436 6.42661C23.6609 6.73328 25.3657 6.73328 25.5681 5.69328C25.7121 4.96661 25.1858 4.53328 24.763 4.43995C23.5259 4.15328 22.3654 6.08661 22.3924 7.81328C22.4374 10.4066 24.4751 11.2666 25.9145 11.2866C26.009 11.2866 25.9865 11.5533 25.9145 11.5599C23.463 11.9133 20.728 8.54661 22.9052 5.17328C23.4944 4.26661 24.4121 3.61994 25.2578 4.11994C25.7346 4.40661 26.1124 5.04661 25.874 5.81328C25.4917 7.04661 23.9533 7.25994 23.2066 6.94661C23.0086 6.86856 22.8235 6.73115 22.6628 6.5429C22.5021 6.35464 22.3692 6.11953 22.2722 5.8521C22.1752 5.58467 22.1163 5.29061 22.0991 4.98809C22.0818 4.68557 22.1066 4.38102 22.172 4.09328C22.7747 0.813279 25.8695 0.0932781 27.7093 1.11328C27.7633 1.11328 27.7408 1.33328 27.6778 1.30661H27.6643Z"
        fill="#52229E" />
    <path
        d="M11.6012 136.46C10.2202 135.86 8.32194 136.027 7.16139 137.407C6.26174 138.473 5.75793 140.787 7.08042 141.58C7.59772 141.887 9.29806 141.887 9.50498 140.847C9.64443 140.12 9.11813 139.687 8.69979 139.593C7.45828 139.307 6.30222 141.24 6.32921 142.967C6.3697 145.56 8.40741 146.42 9.84685 146.44C9.94581 146.44 9.91882 146.707 9.84685 146.72C7.3953 147.067 4.66036 143.7 6.83752 140.327C7.42679 139.42 8.33993 138.773 9.18561 139.273C9.66692 139.56 10.0448 140.2 9.80637 140.967C9.42401 142.2 7.88111 142.413 7.1344 142.1C6.93648 142.022 6.7515 141.885 6.59093 141.696C6.43037 141.508 6.29766 141.273 6.20105 141.005C6.10444 140.738 6.046 140.443 6.02936 140.141C6.01271 139.838 6.03822 139.534 6.1043 139.247C6.70257 135.967 9.80187 135.28 11.6417 136.267C11.6956 136.267 11.6731 136.487 11.6102 136.46H11.6012Z"
        fill="#52229E" />
    <path
        d="M15.1416 40.4793C16.788 41.206 18.3174 45.4993 16.788 47.4527C15.488 49.1193 12.861 48.7393 13.2974 45.5727C13.3023 45.5371 13.3131 45.5038 13.3288 45.4759C13.3445 45.448 13.3646 45.4263 13.3873 45.4127C15.1147 44.806 15.6859 47.7927 15.3216 49.766C14.7593 52.826 12.6721 52.7927 11.1652 51.186C11.1157 51.1327 11.1382 50.926 11.2102 50.9793C12.4427 51.8927 14.17 52.6993 14.9212 50.366C15.3216 49.1193 15.3351 47.0327 14.5614 46.0993C14.3606 45.8192 14.0949 45.664 13.8192 45.666C13.2434 45.766 13.3423 46.6927 13.6662 47.2727C14.1835 48.206 15.2226 48.106 15.9153 47.746C18.2859 46.506 16.6576 41.946 15.1102 40.666C15.0652 40.626 15.0742 40.4527 15.1416 40.4793Z"
        fill="#52229E" />
    <path
        d="M20.3727 95.0806C17.5703 95.4139 18.0741 103.301 20.3367 104.367C20.4758 104.441 20.6233 104.473 20.7708 104.462C20.9183 104.45 21.0628 104.395 21.1959 104.301C21.3619 104.12 21.4952 103.881 21.5838 103.605C21.6725 103.329 21.7139 103.026 21.7042 102.721C21.4343 101.387 19.9049 103.081 19.7295 103.607C19.4383 104.301 19.3023 105.114 19.3411 105.929C19.3799 106.744 19.5914 107.521 19.9454 108.147C21.0969 109.994 23.3011 110.054 24.7405 108.987C24.8125 108.927 24.826 109.134 24.7765 109.187C23.2246 110.661 20.6246 110.447 19.4731 108.114C18.5734 106.247 19.1897 101.294 21.1959 101.734C23.0672 102.141 21.7717 105.301 20.3547 104.881C18.9378 104.461 18.425 101.674 18.29 99.9473C18.1191 97.7739 18.5554 94.8406 20.3727 94.8873C20.4312 94.8873 20.4267 95.0739 20.3727 95.0806Z"
        fill="#52229E" />
    <path
        d="M55.5672 28.5208C57.5104 28.1542 61.6893 30.5808 60.6008 34.5208C60.0205 36.6208 57.4295 37.9675 56.5793 35.5608C56.561 35.4953 56.5607 35.4218 56.5783 35.3559C56.596 35.2899 56.6302 35.2367 56.6738 35.2075C60.7222 31.8075 64.9866 41.6275 60.6907 45.2075C60.5558 45.3208 60.5603 44.9808 60.6367 44.8942C61.008 44.5181 61.3249 44.0359 61.5688 43.4759C61.8127 42.9159 61.9787 42.2893 62.057 41.633C62.1354 40.9766 62.1245 40.3037 62.0251 39.6537C61.9256 39.0037 61.7396 38.3896 61.4779 37.8475C61.0403 36.8119 60.4174 35.9765 59.6786 35.4342C59.1253 35.0475 57.7354 34.5008 57.2181 35.3008C56.9841 35.6742 56.9887 35.2075 57.1101 35.6408C57.2255 35.8982 57.4022 36.0816 57.6049 36.1542C58.0466 36.3621 58.523 36.3385 58.9544 36.0875C59.854 35.6208 60.5603 34.3942 60.3039 32.9208C59.8315 29.9675 57.2945 28.9208 55.5177 28.8742C55.3963 28.8742 55.4727 28.5342 55.5672 28.5142V28.5208Z"
        fill="#52229E" />
    <path
        d="M47.6815 7.80745C47.6815 7.80745 47.8029 11.0341 46.1835 12.8274L44.4922 12.0541C44.4922 12.0541 45.6212 11.2541 46.1835 7.80078L47.6815 7.80745Z"
        fill="#FF9900" />
    <path
        d="M82.6375 87.6602C82.6375 87.6602 82.759 90.8868 81.1396 92.6802L79.4482 91.9202C79.4482 91.9202 80.5773 91.1135 81.1396 87.6602H82.6375Z"
        fill="#FF9900" />
    <path
        d="M75.9529 126.227C75.9529 126.227 76.0699 129.453 74.455 131.247L72.7637 130.48C72.7637 130.48 73.8927 129.68 74.455 126.227H75.9529Z"
        fill="#FFC107" />
    <path
        d="M8.37109 18.1067C8.37109 18.1067 9.36071 20.9867 11.3624 21.34L12.595 19.42C12.595 19.42 11.3444 19.5667 9.68908 17L8.37109 18.1067Z"
        fill="#FF9900" />
    <path
        d="M29.2969 117.568C29.2969 117.568 30.282 120.448 32.2882 120.801L33.4982 118.881C33.4982 118.881 32.2432 119.028 30.5924 116.461L29.2969 117.568Z"
        fill="#FF9900" />
    <path
        d="M50.6016 64.3274C50.6016 64.3274 51.5867 67.2074 53.5929 67.5607L54.7984 65.6407C54.7984 65.6407 53.5479 65.7874 51.8971 63.2207L50.6016 64.3274Z"
        fill="#52229E" />
    <path
        d="M70.1729 26.634C70.1729 26.634 71.158 29.514 73.1642 29.8673L74.3697 27.9473C74.3697 27.9473 73.1192 28.094 71.4684 25.5273L70.1729 26.634Z"
        fill="#FF9900" />
    <path
        d="M28.2764 29.3876C28.2764 29.3876 30.44 29.7876 31.758 27.5143L31.3577 24.9609C31.3577 24.9609 30.7414 26.5809 28.3798 27.1743L28.2764 29.3876Z"
        fill="#52229E" />
    <path
        d="M65.2246 4.42C65.2246 4.42 67.3883 4.82 68.7063 2.55333L68.3104 0C68.3104 0 67.6897 1.61334 65.3281 2.21334L65.2246 4.42Z"
        fill="#52229E" />
    <path
        d="M70.1328 46.9657C70.1328 46.9657 72.292 47.3591 73.61 45.0924L73.2141 42.5391C73.2141 42.5391 72.5934 44.1591 70.2318 44.7524L70.1328 46.9657Z"
        fill="#52229E" />
    <path
        d="M0 110.36C0 110.36 2.16366 110.76 3.48165 108.494L3.08581 105.934C3.08581 105.934 2.46504 107.554 0.10346 108.147L0 110.36Z"
        fill="#52229E" />
    <path
        d="M43.0938 41.22C43.0938 41.22 44.0789 44.1 46.0851 44.4533L47.2951 42.5333C47.2951 42.5333 45.8152 42.8733 44.1463 40.3066L43.0938 41.22Z"
        fill="#FF9900" />
    <path
        d="M40.9336 45.4724C40.9336 45.4724 41.3204 48.6524 43.1827 49.8391L44.7121 48.5057C43.63 47.7821 42.7307 46.5683 42.1436 45.0391L40.9336 45.4724Z"
        fill="#FFC107" />
    <path
        d="M111.952 28.8801C111.952 28.8801 110.967 31.7601 108.961 32.1135L107.751 30.2001C107.751 30.2001 109.231 30.5335 110.9 27.9668L111.952 28.8801Z"
        fill="#FF9900" />
    <path
        d="M102.254 25.4275C102.254 25.4275 101.867 28.6075 100.005 29.8008L98.4756 28.4675C99.5587 27.7429 100.458 26.5265 101.044 24.9941L102.254 25.4275Z"
        fill="#FFC107" />
</svg>
