<svg fill="none" height="24" viewBox="0 0 24 24" width="24" xmlns="http://www.w3.org/2000/svg">
    <g clip-path="url(#clip0_1378_1860)">
        <path
            d="M12 0C9.82107 4.93792e-05 7.69124 0.647215 5.88063 1.85942C4.07002 3.07162 2.66021 4.79425 1.83 6.80882C0.999791 8.82339 0.786587 11.0391 1.21743 13.175C1.64827 15.311 2.70375 17.2708 4.25 18.806L8.193 22.447C9.20648 23.4391 10.5672 23.9963 11.9854 24C13.4037 24.0038 14.7673 23.4537 15.786 22.467L19.778 18.778C21.3163 17.2396 22.3639 15.2796 22.7883 13.1459C23.2127 11.0122 22.9949 8.80047 22.1623 6.79053C21.3298 4.78059 19.92 3.06265 18.1111 1.85395C16.3022 0.645245 14.1755 6.9059e-05 12 0ZM18.392 17.337L14.408 21.018C13.7529 21.6352 12.8859 21.9774 11.9859 21.9741C11.0859 21.9707 10.2215 21.6221 9.571 21L5.636 17.364C4.58945 16.3174 3.81716 15.0289 3.38753 13.6126C2.95789 12.1963 2.88419 10.6959 3.17294 9.24424C3.46168 7.79263 4.10397 6.43463 5.04291 5.29053C5.98184 4.14644 7.18845 3.25156 8.55584 2.68517C9.92323 2.11877 11.4092 1.89835 12.8821 2.04341C14.3551 2.18848 15.7695 2.69456 17.0001 3.51683C18.2307 4.33909 19.2396 5.45217 19.9373 6.75745C20.635 8.06274 21 9.51995 21 11C21.0044 12.176 20.7762 13.3413 20.3287 14.4289C19.8811 15.5164 19.2229 16.5047 18.392 17.337ZM16.71 7.663L13.71 5.582C13.2074 5.23469 12.6109 5.04867 12 5.04867C11.3891 5.04867 10.7926 5.23469 10.29 5.582L7.29 7.663C6.89191 7.93917 6.56663 8.30765 6.34198 8.73692C6.11733 9.1662 5.99999 9.6435 6 10.128V13.5C6 14.163 6.26339 14.7989 6.73223 15.2678C7.20107 15.7366 7.83696 16 8.5 16H15.5C16.163 16 16.7989 15.7366 17.2678 15.2678C17.7366 14.7989 18 14.163 18 13.5V10.128C18 9.6435 17.8827 9.1662 17.658 8.73692C17.4334 8.30765 17.1081 7.93917 16.71 7.663ZM16 13.5C16 13.6326 15.9473 13.7598 15.8536 13.8536C15.7598 13.9473 15.6326 14 15.5 14H14V12C14 11.7348 13.8946 11.4804 13.7071 11.2929C13.5196 11.1054 13.2652 11 13 11H11C10.7348 11 10.4804 11.1054 10.2929 11.2929C10.1054 11.4804 10 11.7348 10 12V14H8.5C8.36739 14 8.24021 13.9473 8.14645 13.8536C8.05268 13.7598 8 13.6326 8 13.5V10.128C7.99994 9.96644 8.03903 9.80728 8.11391 9.66412C8.1888 9.52097 8.29726 9.39809 8.43 9.306L11.43 7.225C11.5977 7.10968 11.7965 7.04794 12 7.04794C12.2035 7.04794 12.4023 7.10968 12.57 7.225L15.57 9.306C15.7027 9.39809 15.8112 9.52097 15.8861 9.66412C15.961 9.80728 16.0001 9.96644 16 10.128V13.5Z"
            fill="#FF9900" />
    </g>
    <defs>
        <clipPath id="clip0_1378_1860">
            <rect fill="white" height="24" width="24" />
        </clipPath>
    </defs>
</svg>
