<svg width="25" height="26" viewBox="0 0 25 26" fill="none" xmlns="http://www.w3.org/2000/svg">
<path d="M12.5 3.625C11.2568 4.8682 10.5584 6.55435 10.5584 8.3125C10.5584 10.0707 11.2568 11.7568 12.5 13C13.7432 14.2432 15.4294 14.9416 17.1875 14.9416C18.9457 14.9416 20.6318 14.2432 21.875 13C21.875 14.8542 21.3252 16.6668 20.295 18.2085C19.2649 19.7502 17.8007 20.9518 16.0877 21.6614C14.3746 22.3709 12.4896 22.5566 10.671 22.1949C8.85246 21.8331 7.182 20.9402 5.87088 19.6291C4.55976 18.318 3.66688 16.6475 3.30514 14.829C2.94341 13.0104 3.12906 11.1254 3.83863 9.41234C4.54821 7.69929 5.74982 6.23511 7.29153 5.20497C8.83324 4.17483 10.6458 3.625 12.5 3.625Z" stroke="#FF9900" stroke-width="2" stroke-linecap="round" stroke-linejoin="round"/>
</svg>
