<svg width="18" height="21" viewBox="0 0 18 21" fill="none" xmlns="http://www.w3.org/2000/svg">
<path d="M17.318 16.3654C17.0004 17.0991 16.6245 17.7744 16.1889 18.3953C15.5952 19.2418 15.1091 19.8277 14.7345 20.153C14.1538 20.6871 13.5316 20.9606 12.8653 20.9762C12.387 20.9762 11.8102 20.8401 11.1387 20.564C10.465 20.2891 9.84596 20.153 9.27989 20.153C8.6862 20.153 8.04948 20.2891 7.36843 20.564C6.68634 20.8401 6.13686 20.9839 5.71674 20.9982C5.07782 21.0254 4.44097 20.7441 3.80528 20.153C3.39956 19.7992 2.89207 19.1925 2.28413 18.3331C1.63185 17.4153 1.09559 16.3511 0.675478 15.1378C0.225548 13.8273 0 12.5583 0 11.3297C0 9.92233 0.304101 8.70852 0.913211 7.69134C1.39192 6.87431 2.02877 6.22981 2.82583 5.75668C3.6229 5.28355 4.48413 5.04244 5.4116 5.02702C5.91909 5.02702 6.58458 5.18399 7.41159 5.4925C8.23627 5.80205 8.76579 5.95903 8.99795 5.95903C9.17152 5.95903 9.75976 5.77548 10.757 5.40954C11.7 5.07018 12.4959 4.92967 13.1479 4.98502C14.9147 5.12761 16.2421 5.82409 17.1248 7.07886C15.5447 8.03628 14.763 9.37725 14.7786 11.0975C14.7929 12.4375 15.2789 13.5525 16.2343 14.4378C16.6672 14.8488 17.1507 15.1663 17.6887 15.3919C17.572 15.7302 17.4489 16.0543 17.318 16.3654ZM13.2659 0.42012C13.2659 1.47036 12.8822 2.45097 12.1174 3.3586C11.1945 4.43761 10.0781 5.06111 8.86755 4.96272C8.85212 4.83673 8.84318 4.70412 8.84318 4.56477C8.84318 3.55654 9.28209 2.47754 10.0615 1.59531C10.4507 1.14862 10.9456 0.777199 11.5457 0.480913C12.1446 0.189048 12.7111 0.0276404 13.2438 0C13.2594 0.140401 13.2659 0.28081 13.2659 0.420106V0.42012Z" fill="url(#paint0_radial_593_2479)"/>
<path d="M17.318 16.3654C17.0004 17.0991 16.6245 17.7744 16.1889 18.3953C15.5952 19.2418 15.1091 19.8277 14.7345 20.153C14.1538 20.6871 13.5316 20.9606 12.8653 20.9762C12.387 20.9762 11.8102 20.8401 11.1387 20.564C10.465 20.2891 9.84596 20.153 9.27989 20.153C8.6862 20.153 8.04948 20.2891 7.36843 20.564C6.68634 20.8401 6.13686 20.9839 5.71674 20.9982C5.07782 21.0254 4.44097 20.7441 3.80528 20.153C3.39956 19.7992 2.89207 19.1925 2.28413 18.3331C1.63185 17.4153 1.09559 16.3511 0.675478 15.1378C0.225548 13.8273 0 12.5583 0 11.3297C0 9.92233 0.304101 8.70852 0.913211 7.69134C1.39192 6.87431 2.02877 6.22981 2.82583 5.75668C3.6229 5.28355 4.48413 5.04244 5.4116 5.02702C5.91909 5.02702 6.58458 5.18399 7.41159 5.4925C8.23627 5.80205 8.76579 5.95903 8.99795 5.95903C9.17152 5.95903 9.75976 5.77548 10.757 5.40954C11.7 5.07018 12.4959 4.92967 13.1479 4.98502C14.9147 5.12761 16.2421 5.82409 17.1248 7.07886C15.5447 8.03628 14.763 9.37725 14.7786 11.0975C14.7929 12.4375 15.2789 13.5525 16.2343 14.4378C16.6672 14.8488 17.1507 15.1663 17.6887 15.3919C17.572 15.7302 17.4489 16.0543 17.318 16.3654ZM13.2659 0.42012C13.2659 1.47036 12.8822 2.45097 12.1174 3.3586C11.1945 4.43761 10.0781 5.06111 8.86755 4.96272C8.85212 4.83673 8.84318 4.70412 8.84318 4.56477C8.84318 3.55654 9.28209 2.47754 10.0615 1.59531C10.4507 1.14862 10.9456 0.777199 11.5457 0.480913C12.1446 0.189048 12.7111 0.0276404 13.2438 0C13.2594 0.140401 13.2659 0.28081 13.2659 0.420106V0.42012Z" fill="url(#paint1_linear_593_2479)"/>
<defs>
<radialGradient id="paint0_radial_593_2479" cx="0" cy="0" r="1" gradientUnits="userSpaceOnUse" gradientTransform="translate(9.21286 10.5) rotate(58.9942) scale(15.676 25.308)">
<stop stop-color="#250266"/>
<stop offset="1" stop-color="#010014"/>
</radialGradient>
<linearGradient id="paint1_linear_593_2479" x1="-1.46484" y1="-2.83889" x2="16.6239" y2="7.09521" gradientUnits="userSpaceOnUse">
<stop offset="0.0736741" stop-color="#933EFF"/>
<stop offset="0.788339" stop-color="#230064" stop-opacity="0.6"/>
<stop offset="1" stop-color="#230064" stop-opacity="0"/>
</linearGradient>
</defs>
</svg>
