<svg fill="none" height="24" viewBox="0 0 24 24" width="24" xmlns="http://www.w3.org/2000/svg">
    <path
        d="M5.66401 9.90525C5.62101 9.56625 5.78901 9.20725 5.98001 8.98725C6.19301 8.73025 6.56001 8.54625 6.86101 8.53125C6.89801 8.88425 6.75801 9.22925 6.55201 9.48625C6.33901 9.73625 6.00201 9.93425 5.66401 9.90525Z"
        fill="#FF9900" />
    <path
        d="M8.10099 12.9073C8.09299 12.9293 7.97699 13.3323 7.69099 13.7493C7.44199 14.1153 7.18599 14.4743 6.77599 14.4813C6.38099 14.4883 6.24899 14.2473 5.79499 14.2473C5.34099 14.2473 5.19499 14.4743 4.82199 14.4893C4.42699 14.5043 4.12699 14.1003 3.87799 13.7353C3.36599 12.9953 2.97799 11.6483 3.50499 10.7403C3.76099 10.2853 4.22899 10.0003 4.73399 9.99232C5.12199 9.98532 5.47999 10.2483 5.71499 10.2483C5.94899 10.2483 6.36599 9.94032 6.85599 9.97032C7.04599 9.98532 7.59499 10.0433 7.94699 10.5633C7.91799 10.5863 7.29599 10.9443 7.30299 11.6983C7.30999 12.5993 8.09299 12.8993 8.10099 12.9073Z"
        fill="#FF9900" />
    <path
        d="M11.126 8.9502H9.06696V14.4432H9.91996V12.5672H11.1C12.177 12.5672 12.935 11.8292 12.935 10.7552C12.934 9.6852 12.193 8.9502 11.126 8.9502ZM10.898 11.8502H9.91996V9.6692H10.902C11.64 9.6692 12.063 10.0652 12.063 10.7582C12.063 11.4512 11.64 11.8502 10.898 11.8502Z"
        fill="#FF9900" />
    <path
        d="M14.969 10.3662C13.979 10.3662 13.363 10.8992 13.317 11.6222H14.093C14.165 11.2642 14.462 11.0362 14.938 11.0362C15.441 11.0362 15.741 11.3022 15.741 11.7482V12.0572L14.645 12.1222C13.693 12.1752 13.157 12.6052 13.157 13.3062C13.157 14.0252 13.705 14.5132 14.489 14.5132C15.015 14.5132 15.521 14.2312 15.753 13.7862H15.772V14.4442H16.56V11.6842C16.561 10.8802 15.94 10.3662 14.969 10.3662ZM15.742 12.9432C15.742 13.4642 15.293 13.8602 14.718 13.8602C14.277 13.8602 13.988 13.6322 13.988 13.2812C13.988 12.9392 14.266 12.7222 14.756 12.6872L15.742 12.6262V12.9432Z"
        fill="#FF9900" />
    <path
        d="M19.84 10.438H20.708L19.208 14.652C18.865 15.623 18.47 15.935 17.64 15.935C17.572 15.935 17.366 15.927 17.305 15.916V15.25C17.365 15.265 17.502 15.265 17.571 15.265C17.952 15.265 18.157 15.105 18.283 14.694C18.283 14.686 18.355 14.451 18.355 14.447L16.909 10.438H17.8L18.813 13.697H18.828L19.84 10.438Z"
        fill="#FF9900" />
    <path
        d="M24 6.22109C23.998 5.85409 23.987 5.46809 23.816 5.13409C23.677 4.86409 23.455 4.64109 23.185 4.50309C22.848 4.33109 22.467 4.32109 22.097 4.31909C22.015 4.31909 21.933 4.31909 21.851 4.31909H2.14998C1.84898 4.31909 1.54298 4.30909 1.24498 4.36309C0.946983 4.41509 0.665983 4.55409 0.449983 4.76809C0.234983 4.98309 0.0969828 5.26509 0.0439828 5.56309C-0.0100172 5.86009 0.000982781 6.16709 0.000982781 6.46809V17.5341C0.000982781 17.6161 0.000982781 17.6981 0.000982781 17.7801C0.00298278 18.1491 0.0139828 18.5321 0.184983 18.8671C0.322983 19.1371 0.545983 19.3611 0.815983 19.4981C1.15298 19.6691 1.53498 19.6781 1.90398 19.6821C1.98598 19.6831 2.06798 19.6831 2.14998 19.6831H21.851C21.933 19.6831 22.015 19.6831 22.097 19.6821C22.463 19.6781 22.847 19.6701 23.185 19.4981C23.455 19.3611 23.679 19.1371 23.816 18.8671C23.986 18.5321 23.998 18.1481 24 17.7801C24 17.6981 24 17.6161 24 17.5341V6.46809C24 6.38509 24 6.30309 24 6.22109ZM23.488 17.5331C23.488 17.6141 23.488 17.6941 23.488 17.7771C23.486 18.0631 23.492 18.3731 23.36 18.6351C23.272 18.8091 23.126 18.9541 22.953 19.0421C22.691 19.1751 22.381 19.1681 22.095 19.1701C22.014 19.1701 21.933 19.1701 21.853 19.1701H2.14698C2.06698 19.1701 1.98798 19.1701 1.90598 19.1701C1.61898 19.1681 1.30998 19.1751 1.04798 19.0411C0.873983 18.9521 0.729983 18.8091 0.641983 18.6351C0.508983 18.3731 0.515983 18.0641 0.513983 17.7771V17.5841V6.41709V6.22509C0.513983 6.15909 0.514983 6.09409 0.516983 6.02809C0.522983 5.80509 0.539983 5.56809 0.642983 5.36609C0.729983 5.19209 0.874983 5.04709 1.04798 4.95909C1.25298 4.85609 1.48498 4.84009 1.70998 4.83409C1.77598 4.83209 1.84098 4.83209 1.90598 4.83109H2.14898H21.85H22.092C22.378 4.83209 22.69 4.82709 22.951 4.95909C23.125 5.04809 23.269 5.19209 23.357 5.36609C23.49 5.62709 23.484 5.93909 23.485 6.22509C23.485 6.30609 23.485 6.38609 23.485 6.46709V17.5331H23.488Z"
        fill="#FF9900" />
    <path
        d="M5.66401 9.90525C5.62101 9.56625 5.78901 9.20725 5.98001 8.98725C6.19301 8.73025 6.56001 8.54625 6.86101 8.53125C6.89801 8.88425 6.75801 9.22925 6.55201 9.48625C6.33901 9.73625 6.00201 9.93425 5.66401 9.90525Z"
        fill="#FF9900" />
    <path
        d="M8.10099 12.9073C8.09299 12.9293 7.97699 13.3323 7.69099 13.7493C7.44199 14.1153 7.18599 14.4743 6.77599 14.4813C6.38099 14.4883 6.24899 14.2473 5.79499 14.2473C5.34099 14.2473 5.19499 14.4743 4.82199 14.4893C4.42699 14.5043 4.12699 14.1003 3.87799 13.7353C3.36599 12.9953 2.97799 11.6483 3.50499 10.7403C3.76099 10.2853 4.22899 10.0003 4.73399 9.99232C5.12199 9.98532 5.47999 10.2483 5.71499 10.2483C5.94899 10.2483 6.36599 9.94032 6.85599 9.97032C7.04599 9.98532 7.59499 10.0433 7.94699 10.5633C7.91799 10.5863 7.29599 10.9443 7.30299 11.6983C7.30999 12.5993 8.09299 12.8993 8.10099 12.9073Z"
        fill="#FF9900" />
    <path
        d="M11.126 8.9502H9.06696V14.4432H9.91996V12.5672H11.1C12.177 12.5672 12.935 11.8292 12.935 10.7552C12.934 9.6852 12.193 8.9502 11.126 8.9502ZM10.898 11.8502H9.91996V9.6692H10.902C11.64 9.6692 12.063 10.0652 12.063 10.7582C12.063 11.4512 11.64 11.8502 10.898 11.8502Z"
        fill="#FF9900" />
    <path
        d="M14.969 10.3662C13.979 10.3662 13.363 10.8992 13.317 11.6222H14.093C14.165 11.2642 14.462 11.0362 14.938 11.0362C15.441 11.0362 15.741 11.3022 15.741 11.7482V12.0572L14.645 12.1222C13.693 12.1752 13.157 12.6052 13.157 13.3062C13.157 14.0252 13.705 14.5132 14.489 14.5132C15.015 14.5132 15.521 14.2312 15.753 13.7862H15.772V14.4442H16.56V11.6842C16.561 10.8802 15.94 10.3662 14.969 10.3662ZM15.742 12.9432C15.742 13.4642 15.293 13.8602 14.718 13.8602C14.277 13.8602 13.988 13.6322 13.988 13.2812C13.988 12.9392 14.266 12.7222 14.756 12.6872L15.742 12.6262V12.9432Z"
        fill="#FF9900" />
    <path
        d="M20.708 10.438L19.208 14.652C18.865 15.623 18.47 15.935 17.64 15.935C17.572 15.935 17.366 15.927 17.305 15.916V15.25C17.365 15.265 17.502 15.265 17.571 15.265C17.952 15.265 18.157 15.105 18.283 14.694C18.283 14.686 18.355 14.451 18.355 14.447L16.909 10.438H17.8L18.813 13.697H18.828L19.841 10.438H20.708Z"
        fill="#FF9900" />
    <path
        d="M6.55201 9.48625C6.33901 9.73625 6.00201 9.93425 5.66401 9.90525C5.62101 9.56625 5.78901 9.20725 5.98001 8.98725C6.19301 8.73025 6.56001 8.54625 6.86101 8.53125C6.89701 8.88425 6.75801 9.22925 6.55201 9.48625Z"
        fill="#FF9900" />
    <path
        d="M8.10099 12.9073C8.09299 12.9293 7.97699 13.3323 7.69099 13.7493C7.44199 14.1153 7.18599 14.4743 6.77599 14.4813C6.38099 14.4883 6.24899 14.2473 5.79499 14.2473C5.34099 14.2473 5.19499 14.4743 4.82199 14.4893C4.42699 14.5043 4.12699 14.1003 3.87799 13.7353C3.36599 12.9953 2.97799 11.6483 3.50499 10.7403C3.76099 10.2853 4.22899 10.0003 4.73399 9.99232C5.12199 9.98532 5.47999 10.2483 5.71499 10.2483C5.94899 10.2483 6.36599 9.94032 6.85599 9.97032C7.04599 9.98532 7.59499 10.0433 7.94699 10.5633C7.91799 10.5863 7.29599 10.9443 7.30299 11.6983C7.30999 12.5993 8.09299 12.8993 8.10099 12.9073Z"
        fill="#FF9900" />
    <path
        d="M11.126 8.9502H9.06702V14.4432H9.92002V12.5672H11.1C12.177 12.5672 12.935 11.8292 12.935 10.7552C12.934 9.6852 12.193 8.9502 11.126 8.9502ZM10.898 11.8502H9.92002V9.6692H10.902C11.64 9.6692 12.063 10.0652 12.063 10.7582C12.063 11.4512 11.64 11.8502 10.898 11.8502Z"
        fill="#FF9900" />
    <path
        d="M14.969 10.3662C13.979 10.3662 13.363 10.8992 13.317 11.6222H14.093C14.165 11.2642 14.462 11.0362 14.938 11.0362C15.441 11.0362 15.741 11.3022 15.741 11.7482V12.0572L14.645 12.1222C13.693 12.1752 13.157 12.6052 13.157 13.3062C13.157 14.0252 13.705 14.5132 14.489 14.5132C15.015 14.5132 15.521 14.2312 15.753 13.7862H15.772V14.4442H16.56V11.6842C16.561 10.8802 15.94 10.3662 14.969 10.3662ZM15.742 12.9432C15.742 13.4642 15.293 13.8602 14.718 13.8602C14.277 13.8602 13.988 13.6322 13.988 13.2812C13.988 12.9392 14.266 12.7222 14.756 12.6872L15.742 12.6262V12.9432Z"
        fill="#FF9900" />
    <path
        d="M19.84 10.438L18.827 13.697H18.812L17.799 10.438H16.908L18.354 14.447C18.354 14.451 18.282 14.687 18.282 14.694C18.156 15.105 17.951 15.265 17.57 15.265C17.501 15.265 17.364 15.265 17.304 15.25V15.916C17.364 15.927 17.57 15.935 17.639 15.935C18.469 15.935 18.865 15.623 19.207 14.652L20.707 10.438H19.84Z"
        fill="#FF9900" />
</svg>
