<svg fill="none" height="24" viewBox="0 0 24 24" width="24" xmlns="http://www.w3.org/2000/svg">
    <g clip-path="url(#clip0_523_2790)">
        <path
            d="M5.66401 9.90501C5.62101 9.56601 5.78901 9.20701 5.98001 8.98701C6.19301 8.73001 6.56001 8.54601 6.86101 8.53101C6.89801 8.88401 6.75801 9.22901 6.55201 9.48601C6.33901 9.73601 6.00201 9.93401 5.66401 9.90501Z"
            fill="#FF9900" />
        <path
            d="M8.10099 12.907C8.09299 12.929 7.97699 13.332 7.69099 13.749C7.44199 14.115 7.18599 14.474 6.77599 14.481C6.38099 14.488 6.24899 14.247 5.79499 14.247C5.34099 14.247 5.19499 14.474 4.82199 14.489C4.42699 14.504 4.12699 14.1 3.87799 13.735C3.36599 12.995 2.97799 11.648 3.50499 10.74C3.76099 10.285 4.22899 9.99995 4.73399 9.99195C5.12199 9.98495 5.47999 10.248 5.71499 10.248C5.94899 10.248 6.36599 9.93995 6.85599 9.96995C7.04599 9.98495 7.59499 10.043 7.94699 10.563C7.91799 10.586 7.29599 10.944 7.30299 11.698C7.30999 12.599 8.09299 12.899 8.10099 12.907Z"
            fill="#FF9900" />
        <path
            d="M11.126 8.94995H9.06702V14.443H9.92002V12.567H11.1C12.177 12.567 12.935 11.829 12.935 10.755C12.934 9.68495 12.193 8.94995 11.126 8.94995ZM10.898 11.85H9.92002V9.66895H10.902C11.64 9.66895 12.063 10.065 12.063 10.758C12.063 11.451 11.64 11.85 10.898 11.85Z"
            fill="#FF9900" />
        <path
            d="M14.969 10.366C13.979 10.366 13.363 10.899 13.317 11.622H14.093C14.165 11.264 14.462 11.036 14.938 11.036C15.441 11.036 15.741 11.302 15.741 11.748V12.057L14.645 12.122C13.693 12.175 13.157 12.605 13.157 13.306C13.157 14.025 13.705 14.513 14.489 14.513C15.015 14.513 15.521 14.231 15.753 13.786H15.772V14.444H16.56V11.684C16.561 10.88 15.94 10.366 14.969 10.366ZM15.742 12.943C15.742 13.464 15.293 13.86 14.718 13.86C14.277 13.86 13.988 13.632 13.988 13.281C13.988 12.939 14.266 12.722 14.756 12.687L15.742 12.626V12.943Z"
            fill="#FF9900" />
        <path
            d="M19.8401 10.438H20.7081L19.2081 14.652C18.8651 15.623 18.4701 15.935 17.6401 15.935C17.5721 15.935 17.3661 15.927 17.3051 15.916V15.25C17.3651 15.265 17.5021 15.265 17.5711 15.265C17.9521 15.265 18.1571 15.105 18.2831 14.694C18.2831 14.686 18.3551 14.451 18.3551 14.447L16.9091 10.438H17.8001L18.8131 13.697H18.8281L19.8401 10.438Z"
            fill="#FF9900" />
        <path
            d="M24 6.22097C23.998 5.85397 23.987 5.46797 23.816 5.13397C23.677 4.86397 23.455 4.64097 23.185 4.50297C22.848 4.33097 22.467 4.32097 22.097 4.31897C22.015 4.31897 21.933 4.31897 21.851 4.31897H2.15004C1.84904 4.31897 1.54304 4.30897 1.24504 4.36297C0.947044 4.41497 0.666044 4.55397 0.450044 4.76797C0.235044 4.98297 0.0970438 5.26497 0.0440438 5.56297C-0.00995619 5.85997 0.00104382 6.16697 0.00104382 6.46797V17.534C0.00104382 17.616 0.00104382 17.698 0.00104382 17.78C0.00304382 18.149 0.0140438 18.532 0.185044 18.867C0.323044 19.137 0.546044 19.361 0.816044 19.498C1.15304 19.669 1.53504 19.678 1.90404 19.682C1.98604 19.683 2.06804 19.683 2.15004 19.683H21.851C21.933 19.683 22.015 19.683 22.097 19.682C22.463 19.678 22.847 19.67 23.185 19.498C23.455 19.361 23.679 19.137 23.816 18.867C23.986 18.532 23.998 18.148 24 17.78C24 17.698 24 17.616 24 17.534V6.46797C24 6.38497 24 6.30297 24 6.22097ZM23.488 17.533C23.488 17.614 23.488 17.694 23.488 17.777C23.486 18.063 23.492 18.373 23.36 18.635C23.272 18.809 23.126 18.954 22.953 19.042C22.691 19.175 22.381 19.168 22.095 19.17C22.014 19.17 21.933 19.17 21.853 19.17H2.14704C2.06704 19.17 1.98804 19.17 1.90604 19.17C1.61904 19.168 1.31004 19.175 1.04804 19.041C0.874044 18.952 0.730044 18.809 0.642044 18.635C0.509044 18.373 0.516044 18.064 0.514044 17.777V17.584V6.41697V6.22497C0.514044 6.15897 0.515044 6.09397 0.517044 6.02797C0.523044 5.80497 0.540044 5.56797 0.643044 5.36597C0.730044 5.19197 0.875044 5.04697 1.04804 4.95897C1.25304 4.85597 1.48504 4.83997 1.71004 4.83397C1.77604 4.83197 1.84104 4.83197 1.90604 4.83097H2.14904H21.85H22.092C22.378 4.83197 22.69 4.82697 22.951 4.95897C23.125 5.04797 23.269 5.19197 23.357 5.36597C23.49 5.62697 23.484 5.93897 23.485 6.22497C23.485 6.30597 23.485 6.38597 23.485 6.46697V17.533H23.488Z"
            fill="#FF9900" />
        <path
            d="M5.66401 9.90501C5.62101 9.56601 5.78901 9.20701 5.98001 8.98701C6.19301 8.73001 6.56001 8.54601 6.86101 8.53101C6.89801 8.88401 6.75801 9.22901 6.55201 9.48601C6.33901 9.73601 6.00201 9.93401 5.66401 9.90501Z"
            fill="#FF9900" />
        <path
            d="M8.10099 12.907C8.09299 12.929 7.97699 13.332 7.69099 13.749C7.44199 14.115 7.18599 14.474 6.77599 14.481C6.38099 14.488 6.24899 14.247 5.79499 14.247C5.34099 14.247 5.19499 14.474 4.82199 14.489C4.42699 14.504 4.12699 14.1 3.87799 13.735C3.36599 12.995 2.97799 11.648 3.50499 10.74C3.76099 10.285 4.22899 9.99995 4.73399 9.99195C5.12199 9.98495 5.47999 10.248 5.71499 10.248C5.94899 10.248 6.36599 9.93995 6.85599 9.96995C7.04599 9.98495 7.59499 10.043 7.94699 10.563C7.91799 10.586 7.29599 10.944 7.30299 11.698C7.30999 12.599 8.09299 12.899 8.10099 12.907Z"
            fill="#FF9900" />
        <path
            d="M11.126 8.94995H9.06702V14.443H9.92002V12.567H11.1C12.177 12.567 12.935 11.829 12.935 10.755C12.934 9.68495 12.193 8.94995 11.126 8.94995ZM10.898 11.85H9.92002V9.66895H10.902C11.64 9.66895 12.063 10.065 12.063 10.758C12.063 11.451 11.64 11.85 10.898 11.85Z"
            fill="#FF9900" />
        <path
            d="M14.969 10.366C13.979 10.366 13.363 10.899 13.317 11.622H14.093C14.165 11.264 14.462 11.036 14.938 11.036C15.441 11.036 15.741 11.302 15.741 11.748V12.057L14.645 12.122C13.693 12.175 13.157 12.605 13.157 13.306C13.157 14.025 13.705 14.513 14.489 14.513C15.015 14.513 15.521 14.231 15.753 13.786H15.772V14.444H16.56V11.684C16.561 10.88 15.94 10.366 14.969 10.366ZM15.742 12.943C15.742 13.464 15.293 13.86 14.718 13.86C14.277 13.86 13.988 13.632 13.988 13.281C13.988 12.939 14.266 12.722 14.756 12.687L15.742 12.626V12.943Z"
            fill="#FF9900" />
        <path
            d="M20.7081 10.438L19.2081 14.652C18.8651 15.623 18.4701 15.935 17.6401 15.935C17.5721 15.935 17.3661 15.927 17.3051 15.916V15.25C17.3651 15.265 17.5021 15.265 17.5711 15.265C17.9521 15.265 18.1571 15.105 18.2831 14.694C18.2831 14.686 18.3551 14.451 18.3551 14.447L16.9091 10.438H17.8001L18.8131 13.697H18.8281L19.8411 10.438H20.7081Z"
            fill="#FF9900" />
        <path
            d="M6.55201 9.48601C6.33901 9.73601 6.00201 9.93401 5.66401 9.90501C5.62101 9.56601 5.78901 9.20701 5.98001 8.98701C6.19301 8.73001 6.56001 8.54601 6.86101 8.53101C6.89701 8.88401 6.75801 9.22901 6.55201 9.48601Z"
            fill="#FF9900" />
        <path
            d="M8.10099 12.907C8.09299 12.929 7.97699 13.332 7.69099 13.749C7.44199 14.115 7.18599 14.474 6.77599 14.481C6.38099 14.488 6.24899 14.247 5.79499 14.247C5.34099 14.247 5.19499 14.474 4.82199 14.489C4.42699 14.504 4.12699 14.1 3.87799 13.735C3.36599 12.995 2.97799 11.648 3.50499 10.74C3.76099 10.285 4.22899 9.99995 4.73399 9.99195C5.12199 9.98495 5.47999 10.248 5.71499 10.248C5.94899 10.248 6.36599 9.93995 6.85599 9.96995C7.04599 9.98495 7.59499 10.043 7.94699 10.563C7.91799 10.586 7.29599 10.944 7.30299 11.698C7.30999 12.599 8.09299 12.899 8.10099 12.907Z"
            fill="#FF9900" />
        <path
            d="M11.126 8.94995H9.06702V14.443H9.92002V12.567H11.1C12.177 12.567 12.935 11.829 12.935 10.755C12.934 9.68495 12.193 8.94995 11.126 8.94995ZM10.898 11.85H9.92002V9.66895H10.902C11.64 9.66895 12.063 10.065 12.063 10.758C12.063 11.451 11.64 11.85 10.898 11.85Z"
            fill="#FF9900" />
        <path
            d="M14.969 10.366C13.979 10.366 13.363 10.899 13.317 11.622H14.093C14.165 11.264 14.462 11.036 14.938 11.036C15.441 11.036 15.741 11.302 15.741 11.748V12.057L14.645 12.122C13.693 12.175 13.157 12.605 13.157 13.306C13.157 14.025 13.705 14.513 14.489 14.513C15.015 14.513 15.521 14.231 15.753 13.786H15.772V14.444H16.56V11.684C16.561 10.88 15.94 10.366 14.969 10.366ZM15.742 12.943C15.742 13.464 15.293 13.86 14.718 13.86C14.277 13.86 13.988 13.632 13.988 13.281C13.988 12.939 14.266 12.722 14.756 12.687L15.742 12.626V12.943Z"
            fill="#FF9900" />
        <path
            d="M19.84 10.438L18.827 13.697H18.812L17.799 10.438H16.908L18.354 14.447C18.354 14.451 18.282 14.687 18.282 14.694C18.156 15.105 17.951 15.265 17.57 15.265C17.501 15.265 17.364 15.265 17.304 15.25V15.916C17.364 15.927 17.57 15.935 17.639 15.935C18.469 15.935 18.865 15.623 19.207 14.652L20.707 10.438H19.84Z"
            fill="#FF9900" />
    </g>
    <defs>
        <clipPath id="clip0_523_2790">
            <rect fill="white" height="24" width="24" />
        </clipPath>
    </defs>
</svg>
