<svg fill="none" height="60" viewBox="0 0 72 60" width="72" xmlns="http://www.w3.org/2000/svg">
    <path
        d="M29.3979 29.3979C34.8099 23.9859 34.8099 15.2113 29.3979 9.79934C23.9859 4.38733 15.2113 4.38734 9.79929 9.79934C4.38729 15.2113 4.38729 23.9859 9.79929 29.3979C15.2113 34.8099 23.9859 34.8099 29.3979 29.3979Z"
        fill="#F6F2FF" />
    <path d="M37.9141 34.0579C37.9141 31.8515 32.9808 30.063 26.8954 30.063C20.8101 30.063 15.8768 31.8515 15.8768 34.0579C15.8768 34.3679 15.9773 34.6692 16.1617 34.9589C13.0732 35.6667 11.0203 36.9147 11.0203 38.3374C11.0203 40.5438 15.9536 42.3323 22.039 42.3323C28.1243 42.3323 33.0576 40.5438 33.0576 38.3374C33.0576 38.0274 32.957 37.7261 32.7726 37.4364C35.8612 36.7286 37.9141 35.4806 37.9141 34.0579Z"
        fill="#342A67"
        opacity="0.3" />
    <path
        d="M26.8954 37.2918C33.7329 37.2918 39.2758 31.7489 39.2758 24.9114C39.2758 18.0739 33.7329 12.531 26.8954 12.531C20.0579 12.531 14.515 18.0739 14.515 24.9114C14.515 31.7489 20.0579 37.2918 26.8954 37.2918Z"
        fill="#DF8B49" stroke="#DF8B49" stroke-miterlimit="10" stroke-width="2.2552" />
    <path
        d="M39.1238 26.2888C40.1938 19.5354 35.5866 13.1932 28.8332 12.1231C22.0797 11.053 15.7376 15.6603 14.6675 22.4137C13.5974 29.1671 18.2047 35.5093 24.9581 36.5794C31.7115 37.6495 38.0537 33.0422 39.1238 26.2888Z"
        stroke="#DF8B49" stroke-miterlimit="10" stroke-width="1.1276" />
    <path
        d="M26.8954 36.7335C33.7329 36.7335 39.2758 31.1906 39.2758 24.3531C39.2758 17.5156 33.7329 11.9727 26.8954 11.9727C20.0579 11.9727 14.515 17.5156 14.515 24.3531C14.515 31.1906 20.0579 36.7335 26.8954 36.7335Z"
        fill="url(#paint0_linear_172_3017)" />
    <path
        d="M26.8954 34.2152C32.3422 34.2152 36.7577 29.7997 36.7577 24.3528C36.7577 18.906 32.3422 14.4905 26.8954 14.4905C21.4485 14.4905 17.033 18.906 17.033 24.3528C17.033 29.7997 21.4485 34.2152 26.8954 34.2152Z"
        fill="url(#paint1_linear_172_3017)" />
    <path
        d="M26.8954 33.1143C31.7341 33.1143 35.6566 29.1918 35.6566 24.353C35.6566 19.5143 31.7341 15.5918 26.8954 15.5918C22.0567 15.5918 18.1341 19.5143 18.1341 24.353C18.1341 29.1918 22.0567 33.1143 26.8954 33.1143Z"
        fill="url(#paint2_linear_172_3017)" />
    <path
        d="M32.2276 22.4838C32.2276 23.7795 31.8455 24.7806 31.0813 25.4867C30.3169 26.1927 29.2315 26.5458 27.8246 26.5458H26.9441V30.3937H23.8104V18.7949H27.8248C29.2899 18.7949 30.3899 19.1149 31.1252 19.7549C31.8602 20.3946 32.2276 21.3042 32.2276 22.4838ZM26.9439 23.9912H27.5151C27.9858 23.9912 28.36 23.8589 28.6377 23.5945C28.9154 23.33 29.0542 22.965 29.0542 22.4996C29.0542 21.7168 28.6205 21.3253 27.7532 21.3253H26.9439V23.9912Z"
        fill="#FFBE3F" stroke="#DF8B49" stroke-width="3.3827" />
    <path
        d="M32.2276 22.2974C32.2276 23.5932 31.8455 24.5941 31.0813 25.3001C30.3169 26.0062 29.2315 26.3593 27.8246 26.3593H26.9441V30.2071H23.8104V18.6084H27.8248C29.2899 18.6084 30.3899 18.9283 31.1252 19.5684C31.8602 20.2082 32.2276 21.118 32.2276 22.2974ZM26.9439 23.8048H27.5151C27.9858 23.8048 28.36 23.6726 28.6377 23.4081C28.9154 23.1436 29.0542 22.7786 29.0542 22.3132C29.0542 21.5304 28.6205 21.139 27.7532 21.139H26.9439V23.8048Z"
        fill="#FFBE3F" stroke="#FFBE3F" stroke-width="0.682" />
    <path
        d="M36.7578 24.3528C36.7725 25.6439 36.5337 26.9408 36.0499 28.1446C35.5627 29.3469 34.8329 30.4512 33.9194 31.3768C33.0073 32.3046 31.9034 33.0419 30.7023 33.5436C29.5006 34.0459 28.1984 34.3048 26.8954 34.3081C25.5922 34.3053 24.29 34.0459 23.0884 33.5437C21.8874 33.0421 20.7829 32.3051 19.871 31.3772C18.9578 30.4514 18.2281 29.3469 17.7406 28.1448C17.2567 26.941 17.0183 25.6439 17.033 24.3528C17.056 26.9388 18.1414 29.4779 19.9722 31.2758C20.8863 32.1739 21.9682 32.9014 23.1532 33.3871C24.3364 33.8757 25.6161 34.1239 26.8954 34.122C28.1746 34.1244 29.4542 33.8759 30.6375 33.3872C31.8224 32.9012 32.9047 32.174 33.8187 31.276C35.6495 29.478 36.7351 26.939 36.7578 24.3528Z"
        fill="#DF8B49" />
    <path
        d="M14.5056 24.3527C14.5054 22.7307 14.8233 21.1086 15.4452 19.6099C16.065 18.1106 16.9845 16.7365 18.1312 15.5885C19.278 14.4406 20.6515 13.5196 22.1508 12.8982C23.6495 12.2747 25.2721 11.9549 26.8954 11.9536C28.5185 11.9549 30.1413 12.2747 31.6398 12.8982C33.1391 13.5196 34.5126 14.4406 35.6594 15.5885C36.8063 16.7365 37.7256 18.1106 38.3454 19.6099C38.9673 21.1086 39.2852 22.7307 39.285 24.3527H39.2664C39.2225 21.1088 37.8513 17.9363 35.5573 15.6907C34.4102 14.5707 33.0574 13.6609 31.5749 13.0547C30.0947 12.4449 28.4946 12.1355 26.8952 12.1397C25.2959 12.1362 23.6959 12.4451 22.2157 13.0551C20.7329 13.6609 19.3807 14.5714 18.2335 15.6911C15.9395 17.9365 14.5685 21.1089 14.524 24.3529L14.5056 24.3527Z"
        fill="white" />
    <path
        d="M26.9441 14.1997C26.8412 14.1997 26.7579 14.1163 26.7579 14.0134V13.124C26.7579 13.0211 26.8411 12.9377 26.9441 12.9377C27.0469 12.9377 27.1303 13.0211 27.1303 13.124V14.0134C27.1301 14.1163 27.0469 14.1997 26.9441 14.1997ZM25.1478 14.3482C25.249 14.3304 25.3167 14.2338 25.2987 14.1326L25.1442 13.2565C25.1263 13.1553 25.0296 13.0875 24.9286 13.1055C24.8274 13.1235 24.7597 13.2199 24.7777 13.3212L24.9322 14.1973C24.948 14.2876 25.0266 14.351 25.1153 14.351C25.126 14.351 25.1369 14.35 25.1478 14.3482ZM23.4047 14.8065C23.5014 14.7713 23.5511 14.6645 23.5159 14.568L23.2117 13.732C23.1765 13.6354 23.0695 13.5852 22.9731 13.6209C22.8764 13.6559 22.8265 13.7628 22.8618 13.8594L23.1661 14.6954C23.1935 14.771 23.265 14.8179 23.3409 14.8179C23.3622 14.8179 23.3838 14.8143 23.4047 14.8065ZM21.7677 15.5605C21.8568 15.5089 21.8873 15.3952 21.8358 15.3062L21.3909 14.5359C21.3393 14.4468 21.2254 14.4162 21.1367 14.4678C21.0476 14.5193 21.017 14.6332 21.0685 14.7222L21.5134 15.4924C21.5479 15.5522 21.6105 15.5856 21.6749 15.5856C21.7064 15.5854 21.7384 15.5775 21.7677 15.5605ZM20.2863 16.5873C20.3651 16.5213 20.3755 16.4037 20.3093 16.3251L19.7376 15.6437C19.6717 15.5652 19.5545 15.5545 19.4754 15.6207C19.3967 15.6867 19.3863 15.8043 19.4525 15.8829L20.0242 16.5643C20.0608 16.6083 20.1137 16.6309 20.1668 16.6309C20.2091 16.6309 20.2515 16.6165 20.2863 16.5873ZM19.0059 17.8558C19.0721 17.7771 19.0617 17.6595 18.983 17.5935L18.3017 17.0216C18.2228 16.9556 18.1054 16.966 18.0395 17.0446C17.9733 17.1233 17.9837 17.2409 18.0625 17.3069L18.7438 17.8788C18.7786 17.908 18.8211 17.9223 18.8631 17.9223C18.9165 17.9222 18.9691 17.8996 19.0059 17.8558ZM17.9654 19.3272C18.0169 19.2381 17.9864 19.1243 17.8972 19.073L17.1268 18.6282C17.038 18.5769 16.9239 18.6071 16.8725 18.6964C16.821 18.7856 16.8516 18.8993 16.9407 18.9508L17.7112 19.3956C17.7404 19.4124 17.7724 19.4205 17.8041 19.4205C17.8683 19.4203 17.9309 19.387 17.9654 19.3272ZM17.196 20.9571C17.2313 20.8605 17.1814 20.7537 17.0847 20.7186L16.2489 20.4143C16.1526 20.3793 16.0455 20.429 16.0103 20.5256C15.975 20.6221 16.0248 20.729 16.1216 20.7641L16.9574 21.0684C16.9784 21.076 17 21.0796 17.021 21.0796C17.0969 21.0796 17.1684 21.0327 17.196 20.9571ZM16.7212 22.6959C16.7392 22.5947 16.6715 22.4982 16.5703 22.4803L15.6943 22.3258C15.5935 22.3073 15.4964 22.3755 15.4787 22.4767C15.4607 22.5779 15.5284 22.6745 15.6296 22.6923L16.5056 22.8468C16.5165 22.8488 16.5274 22.8498 16.5381 22.8498C16.6269 22.8496 16.7055 22.7862 16.7212 22.6959ZM16.5557 24.4906C16.5557 24.3877 16.4725 24.3044 16.3695 24.3044H15.4799C15.377 24.3044 15.2937 24.3876 15.2937 24.4906C15.2937 24.5934 15.3769 24.6768 15.4799 24.6768H16.3695C16.4725 24.6768 16.5557 24.5934 16.5557 24.4906ZM15.6775 26.6567L16.5534 26.5022C16.6546 26.4843 16.7223 26.3878 16.7043 26.2866C16.6867 26.1854 16.5894 26.1167 16.4887 26.1357L15.6128 26.2902C15.5116 26.308 15.4439 26.4046 15.4619 26.5058C15.4777 26.5961 15.5562 26.6596 15.645 26.6596C15.6555 26.6596 15.6666 26.6588 15.6775 26.6567ZM16.2155 28.5727L17.0513 28.2686C17.1481 28.2336 17.1979 28.1266 17.1626 28.03C17.1274 27.9334 17.0205 27.8839 16.9241 27.9188L16.0882 28.2228C15.9915 28.2578 15.9416 28.3648 15.977 28.4614C16.0044 28.537 16.0758 28.5839 16.1518 28.5839C16.1729 28.5839 16.1945 28.5803 16.2155 28.5727ZM17.0782 30.3658L17.8485 29.9212C17.9377 29.8697 17.9682 29.756 17.9167 29.667C17.865 29.5782 17.7511 29.5477 17.6625 29.5988L16.8922 30.0434C16.803 30.0949 16.7725 30.2087 16.824 30.2976C16.8585 30.3572 16.9211 30.3907 16.9855 30.3907C17.017 30.3907 17.049 30.3828 17.0782 30.3658ZM18.2391 31.9822L18.9204 31.4103C18.9993 31.3443 19.0096 31.2269 18.9434 31.1482C18.8778 31.0694 18.7603 31.059 18.6812 31.1252L17.9999 31.6971C17.921 31.7631 17.9108 31.8805 17.977 31.9592C18.0136 32.0033 18.0664 32.0258 18.1196 32.0258C18.1619 32.0258 18.2043 32.0114 18.2391 31.9822ZM19.6632 33.3722L20.2348 32.6907C20.3009 32.612 20.2905 32.4946 20.2117 32.4284C20.1328 32.3625 20.0156 32.3728 19.9494 32.4515L19.3777 33.133C19.3117 33.2117 19.3221 33.3291 19.4008 33.3953C19.4357 33.4244 19.4781 33.4387 19.5202 33.4387C19.5737 33.4387 19.6263 33.4163 19.6632 33.3722ZM21.3069 34.4938L21.7515 33.7233C21.803 33.6342 21.7724 33.5204 21.6833 33.4691C21.5945 33.4176 21.4804 33.4481 21.4291 33.5373L20.9845 34.3077C20.933 34.3969 20.9635 34.5106 21.0527 34.562C21.0819 34.5788 21.1139 34.5869 21.1456 34.5869C21.2098 34.5869 21.2724 34.5534 21.3069 34.4938ZM23.1202 35.3129L23.4245 34.4771C23.4598 34.3805 23.4099 34.2737 23.3132 34.2386C23.2173 34.2037 23.1098 34.2533 23.0746 34.3498L22.7704 35.1856C22.7351 35.2822 22.7849 35.389 22.8817 35.4242C22.9026 35.4318 22.9243 35.4354 22.9452 35.4354C23.0213 35.4354 23.0928 35.3885 23.1202 35.3129ZM25.0484 35.8051L25.2029 34.9291C25.2209 34.8279 25.1532 34.7313 25.052 34.7135C24.9505 34.6945 24.8543 34.7632 24.8364 34.8644L24.6819 35.7403C24.6639 35.8415 24.7316 35.9381 24.8328 35.9559C24.8437 35.9579 24.8546 35.9589 24.8653 35.9589C24.954 35.9587 25.0326 35.8954 25.0484 35.8051ZM27.0329 35.9545V35.065C27.0329 34.9621 26.9497 34.8788 26.8467 34.8788C26.7438 34.8788 26.6605 34.962 26.6605 35.065V35.9545C26.6605 36.0573 26.7437 36.1407 26.8467 36.1407C26.9497 36.1407 27.0329 36.0573 27.0329 35.9545ZM28.862 35.9726C28.9632 35.9548 29.0309 35.8582 29.0129 35.757L28.8586 34.8809C28.8407 34.7797 28.7442 34.7112 28.643 34.73C28.5418 34.7478 28.4741 34.8444 28.4921 34.9456L28.6464 35.8217C28.6623 35.912 28.7409 35.9756 28.8295 35.9756C28.8403 35.9756 28.8511 35.9746 28.862 35.9726ZM30.8175 35.4574C30.9142 35.4224 30.9639 35.3154 30.9288 35.2188L30.6247 34.383C30.5897 34.2864 30.4825 34.2364 30.3861 34.2717C30.2894 34.3069 30.2395 34.4137 30.2748 34.5103L30.5789 35.3461C30.6063 35.4217 30.6778 35.4686 30.7538 35.4686C30.7749 35.4688 30.7965 35.4651 30.8175 35.4574ZM32.6541 34.6107C32.7432 34.5592 32.7737 34.4454 32.7222 34.3564L32.2773 33.586C32.2257 33.4967 32.1116 33.4663 32.0231 33.5178C31.934 33.5693 31.9034 33.683 31.9549 33.772L32.3998 34.5425C32.4343 34.6022 32.4969 34.6356 32.5613 34.6356C32.5928 34.6356 32.6247 34.6277 32.6541 34.6107ZM34.3153 33.4579C34.3941 33.3917 34.4045 33.2743 34.3384 33.1955L33.7667 32.5141C33.7005 32.4353 33.5835 32.4251 33.5044 32.491C33.4257 32.5572 33.4153 32.6745 33.4813 32.7533L34.053 33.4348C34.09 33.4787 34.1426 33.5013 34.1958 33.5013C34.2381 33.5013 34.2805 33.4869 34.3153 33.4579ZM35.7514 32.0335C35.8174 31.9548 35.807 31.8374 35.7283 31.7712L35.0468 31.1995C34.9679 31.1338 34.8507 31.1437 34.7845 31.2226C34.7185 31.3014 34.7289 31.4187 34.8076 31.4849L35.4891 32.0566C35.5239 32.0857 35.5663 32.1 35.6084 32.1C35.6618 32.1 35.7146 32.0776 35.7514 32.0335ZM36.9182 30.382C36.9697 30.2928 36.9392 30.1791 36.85 30.1276L36.0796 29.6829C35.9906 29.6315 35.8767 29.6617 35.8253 29.751C35.7738 29.8402 35.8044 29.9539 35.8935 30.0054L36.664 30.4503C36.6932 30.4672 36.7252 30.4753 36.7569 30.4753C36.8211 30.4751 36.8837 30.4419 36.9182 30.382ZM37.7805 28.5527C37.8158 28.4561 37.7659 28.3493 37.6692 28.3141L36.8334 28.0099C36.737 27.975 36.63 28.0246 36.5948 28.1211C36.5595 28.2177 36.6093 28.3245 36.7061 28.3597L37.5419 28.664C37.5629 28.6715 37.5845 28.6752 37.6055 28.6752C37.6816 28.6753 37.7531 28.6285 37.7805 28.5527ZM38.312 26.6017C38.33 26.5005 38.2623 26.4039 38.1611 26.3861L37.2852 26.2316C37.1838 26.2131 37.0873 26.2813 37.0696 26.3825C37.0516 26.4837 37.1193 26.5802 37.2205 26.5981L38.0966 26.7526C38.1075 26.7546 38.1184 26.7556 38.1291 26.7556C38.2176 26.7554 38.2962 26.692 38.312 26.6017ZM38.4968 24.5878C38.4968 24.485 38.4136 24.4016 38.3105 24.4016H37.4211C37.3182 24.4016 37.2348 24.4848 37.2348 24.5878C37.2348 24.6907 37.3181 24.774 37.4211 24.774H38.3105C38.4136 24.774 38.4968 24.6908 38.4968 24.5878ZM37.302 22.9426L38.178 22.7881C38.2792 22.7702 38.3469 22.6737 38.3289 22.5725C38.311 22.4713 38.2141 22.4032 38.1133 22.4216L37.2373 22.5761C37.1361 22.5939 37.0684 22.6905 37.0864 22.7917C37.1023 22.882 37.1809 22.9456 37.2695 22.9456C37.2802 22.9454 37.2911 22.9446 37.302 22.9426ZM36.8667 21.1597L37.7025 20.8556C37.7993 20.8204 37.849 20.7136 37.8138 20.617C37.7788 20.5203 37.6713 20.4708 37.5753 20.5058L36.7394 20.8098C36.6427 20.8448 36.593 20.9518 36.6282 21.0484C36.6556 21.124 36.727 21.1709 36.803 21.1709C36.8241 21.1709 36.8457 21.1673 36.8667 21.1597ZM36.1283 19.4797L36.8987 19.0348C36.9879 18.9833 37.0184 18.8696 36.9669 18.7806C36.9154 18.6915 36.8013 18.6609 36.7127 18.7124L35.9422 19.1573C35.8531 19.2088 35.8225 19.3226 35.874 19.4116C35.9086 19.4713 35.9711 19.5047 36.0355 19.5047C36.067 19.5047 36.0991 19.4966 36.1283 19.4797ZM35.1094 17.9532L35.7908 17.3813C35.8696 17.3153 35.88 17.1978 35.8138 17.1192C35.7481 17.0406 35.6307 17.03 35.5516 17.0962L34.8702 17.6681C34.7914 17.7341 34.781 17.8517 34.8472 17.9303C34.8839 17.9742 34.9367 17.9968 34.9899 17.9968C35.0321 17.9968 35.0745 17.9826 35.1094 17.9532ZM33.8409 16.6269L34.4127 15.9454C34.4789 15.8667 34.4685 15.7492 34.3898 15.6831C34.3109 15.6169 34.1935 15.6276 34.1276 15.7061L33.5558 16.3875C33.4896 16.4663 33.5 16.5838 33.5787 16.6499C33.6137 16.6791 33.656 16.6934 33.6982 16.6934C33.7514 16.6934 33.8042 16.6708 33.8409 16.6269ZM32.3615 15.541L32.8064 14.7707C32.8579 14.6817 32.8274 14.5678 32.7383 14.5165C32.6494 14.465 32.5354 14.4955 32.4839 14.5846L32.0391 15.3549C31.9876 15.4439 32.0182 15.5578 32.1073 15.6092C32.1365 15.626 32.1685 15.6341 32.2002 15.6341C32.2645 15.6341 32.327 15.6007 32.3615 15.541ZM30.7161 14.7284L31.0202 13.8924C31.0555 13.7959 31.0057 13.689 30.9089 13.6539C30.8129 13.6187 30.7056 13.6687 30.6704 13.7652L30.3663 14.6011C30.331 14.6977 30.3808 14.8045 30.4776 14.8397C30.4985 14.8473 30.5202 14.8509 30.5411 14.8509C30.6171 14.8511 30.6886 14.804 30.7161 14.7284ZM28.9542 14.2142L29.1087 13.3381C29.1267 13.2369 29.059 13.1403 28.9578 13.1223C28.8563 13.1043 28.7599 13.172 28.7422 13.2734L28.5877 14.1493C28.5697 14.2505 28.6374 14.3471 28.7386 14.3651C28.7495 14.3671 28.7604 14.3679 28.7711 14.3679C28.8599 14.3679 28.9383 14.3043 28.9542 14.2142Z"
        fill="#DF8B49" />
    <path
        d="M26.9441 14.0134C26.8412 14.0134 26.7579 13.93 26.7579 13.8272V12.9377C26.7579 12.8348 26.8411 12.7515 26.9441 12.7515C27.0469 12.7515 27.1303 12.8348 27.1303 12.9377V13.8272C27.1301 13.93 27.0469 14.0134 26.9441 14.0134ZM25.1478 14.162C25.249 14.1441 25.3167 14.0476 25.2987 13.9464L25.1442 13.0702C25.1263 12.969 25.0296 12.9012 24.9286 12.9192C24.8274 12.9372 24.7597 13.0336 24.7777 13.135L24.9322 14.0111C24.948 14.1014 25.0266 14.1648 25.1153 14.1648C25.126 14.1648 25.1369 14.1639 25.1478 14.162ZM23.4047 14.6202C23.5014 14.5851 23.5511 14.4783 23.5159 14.3817L23.2117 13.5457C23.1765 13.4491 23.0695 13.3989 22.9731 13.4346C22.8764 13.4698 22.8265 13.5766 22.8618 13.6731L23.1661 14.5091C23.1935 14.5847 23.265 14.6316 23.3409 14.6316C23.3622 14.6316 23.3838 14.628 23.4047 14.6202ZM21.7677 15.3743C21.8568 15.3228 21.8873 15.2091 21.8358 15.1201L21.3909 14.3498C21.3393 14.2607 21.2254 14.2301 21.1367 14.2816C21.0476 14.3331 21.017 14.4471 21.0685 14.536L21.5134 15.3063C21.5479 15.3661 21.6105 15.3994 21.6749 15.3994C21.7064 15.3991 21.7384 15.3912 21.7677 15.3743ZM20.2863 16.401C20.3651 16.335 20.3755 16.2174 20.3093 16.1389L19.7376 15.4574C19.6717 15.379 19.5545 15.3682 19.4754 15.4344C19.3967 15.5005 19.3863 15.618 19.4525 15.6966L20.0242 16.3781C20.0608 16.422 20.1137 16.4446 20.1668 16.4446C20.2091 16.4446 20.2515 16.4304 20.2863 16.401ZM19.0059 17.6695C19.0721 17.5908 19.0617 17.4732 18.983 17.4072L18.3017 16.8354C18.2228 16.7693 18.1054 16.7799 18.0395 16.8583C17.9733 16.937 17.9837 17.0546 18.0625 17.1206L18.7438 17.6925C18.7786 17.7217 18.8211 17.7361 18.8631 17.7361C18.9165 17.7361 18.9691 17.7134 19.0059 17.6695ZM17.9654 19.1409C18.0169 19.052 17.9864 18.938 17.8972 18.8867L17.1268 18.442C17.038 18.3906 16.9239 18.4208 16.8725 18.5101C16.821 18.5993 16.8516 18.713 16.9407 18.7644L17.7112 19.2091C17.7404 19.226 17.7724 19.234 17.8041 19.234C17.8683 19.234 17.9309 19.2007 17.9654 19.1409ZM17.196 20.7708C17.2313 20.6742 17.1814 20.5674 17.0847 20.5323L16.2489 20.228C16.1526 20.193 16.0455 20.2427 16.0103 20.3393C15.975 20.4359 16.0248 20.5427 16.1216 20.5778L16.9574 20.8821C16.9784 20.8897 17 20.8933 17.021 20.8933C17.0969 20.8935 17.1684 20.8466 17.196 20.7708ZM16.7212 22.5097C16.7392 22.4085 16.6715 22.3119 16.5703 22.2941L15.6943 22.1395C15.5935 22.1211 15.4964 22.1892 15.4787 22.2904C15.4607 22.3916 15.5284 22.4882 15.6296 22.506L16.5056 22.6606C16.5165 22.6625 16.5274 22.6635 16.5381 22.6635C16.6269 22.6635 16.7055 22.6 16.7212 22.5097ZM16.5557 24.3045C16.5557 24.2016 16.4725 24.1183 16.3695 24.1183H15.4799C15.377 24.1183 15.2937 24.2015 15.2937 24.3045C15.2937 24.4073 15.3769 24.4907 15.4799 24.4907H16.3695C16.4725 24.4905 16.5557 24.4073 16.5557 24.3045ZM15.6775 26.4706L16.5534 26.316C16.6546 26.2982 16.7223 26.2016 16.7043 26.1004C16.6867 25.9992 16.5894 25.9306 16.4887 25.9496L15.6128 26.1041C15.5116 26.1219 15.4439 26.2185 15.4619 26.3197C15.4777 26.41 15.5562 26.4735 15.645 26.4735C15.6555 26.4734 15.6666 26.4725 15.6775 26.4706ZM16.2155 28.3864L17.0513 28.0823C17.1481 28.0473 17.1979 27.9403 17.1626 27.8437C17.1274 27.7472 17.0205 27.6976 16.9241 27.7325L16.0882 28.0366C15.9915 28.0716 15.9416 28.1785 15.977 28.2751C16.0044 28.3507 16.0758 28.3976 16.1518 28.3976C16.1729 28.3976 16.1945 28.394 16.2155 28.3864ZM17.0782 30.1797L17.8485 29.7351C17.9377 29.6836 17.9682 29.5699 17.9167 29.4809C17.865 29.3921 17.7511 29.3615 17.6625 29.4127L16.8922 29.8573C16.803 29.9088 16.7725 30.0225 16.824 30.1115C16.8585 30.1711 16.9211 30.2046 16.9855 30.2046C17.017 30.2045 17.049 30.1965 17.0782 30.1797ZM18.2391 31.7959L18.9204 31.224C18.9993 31.158 19.0096 31.0406 18.9434 30.9619C18.8778 30.8831 18.7603 30.8727 18.6812 30.9389L17.9999 31.5108C17.921 31.5768 17.9108 31.6942 17.977 31.7729C18.0136 31.8169 18.0664 31.8395 18.1196 31.8395C18.1619 31.8395 18.2043 31.8251 18.2391 31.7959ZM19.6632 33.1859L20.2348 32.5044C20.3009 32.4257 20.2905 32.3083 20.2117 32.2421C20.1328 32.1762 20.0156 32.1865 19.9494 32.2652L19.3777 32.9467C19.3117 33.0254 19.3221 33.1428 19.4008 33.209C19.4357 33.2381 19.4781 33.2524 19.5202 33.2524C19.5737 33.2524 19.6263 33.23 19.6632 33.1859ZM21.3069 34.3077L21.7515 33.5372C21.803 33.4482 21.7724 33.3343 21.6833 33.283C21.5945 33.2315 21.4804 33.262 21.4291 33.3512L20.9845 34.1216C20.933 34.2108 20.9635 34.3245 21.0527 34.3758C21.0819 34.3927 21.1139 34.4008 21.1456 34.4008C21.2098 34.4006 21.2724 34.3673 21.3069 34.3077ZM23.1202 35.1267L23.4245 34.2908C23.4598 34.1943 23.4099 34.0874 23.3132 34.0523C23.2173 34.0174 23.1098 34.067 23.0746 34.1635L22.7704 34.9994C22.7351 35.0959 22.7849 35.2028 22.8817 35.2379C22.9026 35.2455 22.9243 35.2491 22.9452 35.2491C23.0213 35.2491 23.0928 35.2023 23.1202 35.1267ZM25.0484 35.6188L25.2029 34.7428C25.2209 34.6416 25.1532 34.5451 25.052 34.5272C24.9505 34.5082 24.8543 34.5769 24.8364 34.6781L24.6819 35.5542C24.6639 35.6554 24.7316 35.752 24.8328 35.7698C24.8437 35.7718 24.8546 35.7728 24.8653 35.7728C24.954 35.7726 25.0326 35.7091 25.0484 35.6188ZM27.0329 35.7682V34.8787C27.0329 34.7758 26.9497 34.6925 26.8467 34.6925C26.7438 34.6925 26.6605 34.7757 26.6605 34.8787V35.7682C26.6605 35.871 26.7437 35.9544 26.8467 35.9544C26.9497 35.9544 27.0329 35.871 27.0329 35.7682ZM28.862 35.7863C28.9632 35.7685 29.0309 35.6719 29.0129 35.5707L28.8586 34.6948C28.8407 34.5936 28.7442 34.5249 28.643 34.5439C28.5418 34.5617 28.4741 34.6583 28.4921 34.7595L28.6464 35.6354C28.6623 35.7257 28.7409 35.7893 28.8295 35.7893C28.8403 35.7893 28.8511 35.7885 28.862 35.7863ZM30.8175 35.2713C30.9142 35.2363 30.9639 35.1293 30.9288 35.0327L30.6247 34.1969C30.5897 34.1003 30.4825 34.0505 30.3861 34.0856C30.2894 34.1206 30.2395 34.2276 30.2748 34.3242L30.5789 35.16C30.6063 35.2356 30.6778 35.2825 30.7538 35.2825C30.7749 35.2825 30.7965 35.2789 30.8175 35.2713ZM32.6541 34.4244C32.7432 34.3729 32.7737 34.2591 32.7222 34.1701L32.2773 33.3997C32.2257 33.3104 32.1116 33.28 32.0231 33.3315C31.934 33.383 31.9034 33.4968 31.9549 33.5857L32.3998 34.3562C32.4343 34.416 32.4969 34.4493 32.5613 34.4493C32.5928 34.4493 32.6247 34.4414 32.6541 34.4244ZM34.3153 33.2716C34.3941 33.2054 34.4045 33.088 34.3384 33.0093L33.7667 32.3278C33.7005 32.249 33.5835 32.239 33.5044 32.3047C33.4257 32.3709 33.4153 32.4883 33.4813 32.567L34.053 33.2485C34.09 33.2926 34.1426 33.315 34.1958 33.315C34.2381 33.315 34.2805 33.3006 34.3153 33.2716ZM35.7514 31.8474C35.8174 31.7686 35.807 31.6513 35.7283 31.5851L35.0468 31.0134C34.9679 30.9478 34.8507 30.9576 34.7845 31.0365C34.7185 31.1152 34.7289 31.2326 34.8076 31.2988L35.4891 31.8705C35.5239 31.8996 35.5663 31.9139 35.6084 31.9139C35.6618 31.9139 35.7146 31.8913 35.7514 31.8474ZM36.9182 30.1959C36.9697 30.1067 36.9392 29.993 36.85 29.9415L36.0796 29.4967C35.9906 29.4454 35.8767 29.4756 35.8253 29.5649C35.7738 29.6541 35.8044 29.7678 35.8935 29.8192L36.664 30.2641C36.6932 30.2809 36.7252 30.289 36.7569 30.289C36.8211 30.2888 36.8837 30.2556 36.9182 30.1959ZM37.7805 28.3666C37.8158 28.27 37.7659 28.1632 37.6692 28.128L36.8334 27.8238C36.737 27.7888 36.63 27.8385 36.5948 27.935C36.5595 28.0316 36.6093 28.1384 36.7061 28.1736L37.5419 28.4778C37.5629 28.4854 37.5845 28.4891 37.6055 28.4891C37.6816 28.4891 37.7531 28.4422 37.7805 28.3666ZM38.312 26.4154C38.33 26.3142 38.2623 26.2177 38.1611 26.1998L37.2852 26.0453C37.1838 26.0268 37.0873 26.095 37.0696 26.1962C37.0516 26.2974 37.1193 26.394 37.2205 26.4118L38.0966 26.5663C38.1075 26.5683 38.1184 26.5693 38.1291 26.5693C38.2176 26.5693 38.2962 26.5057 38.312 26.4154ZM38.4968 24.4017C38.4968 24.2989 38.4136 24.2155 38.3105 24.2155H37.4211C37.3182 24.2155 37.2348 24.2987 37.2348 24.4017C37.2348 24.5046 37.3181 24.5879 37.4211 24.5879H38.3105C38.4136 24.5878 38.4968 24.5046 38.4968 24.4017ZM37.302 22.7563L38.178 22.6018C38.2792 22.584 38.3469 22.4874 38.3289 22.3862C38.311 22.285 38.2141 22.217 38.1133 22.2353L37.2373 22.3898C37.1361 22.4076 37.0684 22.5042 37.0864 22.6054C37.1023 22.6957 37.1809 22.7593 37.2695 22.7593C37.2802 22.7593 37.2911 22.7583 37.302 22.7563ZM36.8667 20.9734L37.7025 20.6693C37.7993 20.6343 37.849 20.5273 37.8138 20.4307C37.7788 20.334 37.6713 20.2845 37.5753 20.3195L36.7394 20.6236C36.6427 20.6587 36.593 20.7655 36.6282 20.8621C36.6556 20.9377 36.727 20.9846 36.803 20.9846C36.8241 20.9846 36.8457 20.981 36.8667 20.9734ZM36.1283 19.2935L36.8987 18.8486C36.9879 18.7971 37.0184 18.6833 36.9669 18.5943C36.9154 18.5052 36.8013 18.4746 36.7127 18.5262L35.9422 18.9711C35.8531 19.0226 35.8225 19.1363 35.874 19.2253C35.9086 19.2851 35.9711 19.3184 36.0355 19.3184C36.067 19.3184 36.0991 19.3103 36.1283 19.2935ZM35.1094 17.7669L35.7908 17.1951C35.8696 17.129 35.88 17.0115 35.8138 16.9329C35.7481 16.8543 35.6307 16.8438 35.5516 16.91L34.8702 17.4818C34.7914 17.5479 34.781 17.6654 34.8472 17.744C34.8839 17.7879 34.9367 17.8105 34.9899 17.8105C35.0321 17.8105 35.0745 17.7963 35.1094 17.7669ZM33.8409 16.4408L34.4127 15.7593C34.4789 15.6806 34.4685 15.563 34.3898 15.497C34.3109 15.4308 34.1935 15.4415 34.1276 15.5199L33.5558 16.2014C33.4896 16.2802 33.5 16.3977 33.5787 16.4637C33.6137 16.493 33.656 16.5073 33.6982 16.5073C33.7514 16.5072 33.8042 16.4845 33.8409 16.4408ZM32.3615 15.3547L32.8064 14.5844C32.8579 14.4954 32.8274 14.3815 32.7383 14.3302C32.6494 14.2787 32.5354 14.3092 32.4839 14.3984L32.0391 15.1686C31.9876 15.2576 32.0182 15.3715 32.1073 15.4229C32.1365 15.4397 32.1685 15.4478 32.2002 15.4478C32.2645 15.4478 32.327 15.4145 32.3615 15.3547ZM30.7161 14.5423L31.0202 13.7063C31.0555 13.6097 31.0057 13.5029 30.9089 13.4678C30.8129 13.4326 30.7056 13.4826 30.6704 13.579L30.3663 14.415C30.331 14.5116 30.3808 14.6184 30.4776 14.6536C30.4985 14.6612 30.5202 14.6648 30.5411 14.6648C30.6171 14.6648 30.6886 14.6179 30.7161 14.5423ZM28.9542 14.0279L29.1087 13.1518C29.1267 13.0506 29.059 12.954 28.9578 12.936C28.8563 12.918 28.7599 12.9857 28.7422 13.0871L28.5877 13.963C28.5697 14.0642 28.6374 14.1608 28.7386 14.1788C28.7495 14.1808 28.7604 14.1816 28.7711 14.1816C28.8599 14.1818 28.9383 14.1182 28.9542 14.0279Z"
        fill="#FFBE3F" />
    <path d="M24.852 14.9272C21.5158 14.9272 18.4711 16.1685 16.1483 18.211C15.7336 18.9352 15.3888 19.7047 15.1256 20.5111C14.6116 21.8815 14.3288 23.3638 14.3288 24.9113C14.3288 31.8406 19.9661 37.4778 26.8952 37.4778C31.4229 37.4778 35.398 35.0703 37.6103 31.469C37.8909 30.3984 38.0415 29.2752 38.0415 28.1166C38.0415 20.8324 32.1364 14.9272 24.852 14.9272Z"
        fill="#342A67"
        opacity="0.1" />
    <path
        d="M21.4562 41.7782C28.2937 41.7782 33.8366 36.2353 33.8366 29.3978C33.8366 22.5602 28.2937 17.0173 21.4562 17.0173C14.6187 17.0173 9.07581 22.5602 9.07581 29.3978C9.07581 36.2353 14.6187 41.7782 21.4562 41.7782Z"
        fill="#DF8B49" stroke="#DF8B49" stroke-miterlimit="10" stroke-width="2.2552" />
    <path
        d="M21.4562 41.2198C28.2937 41.2198 33.8366 35.6769 33.8366 28.8394C33.8366 22.0019 28.2937 16.459 21.4562 16.459C14.6187 16.459 9.07581 22.0019 9.07581 28.8394C9.07581 35.6769 14.6187 41.2198 21.4562 41.2198Z"
        stroke="#DF8B49" stroke-miterlimit="10" stroke-width="1.1276" />
    <path
        d="M21.4562 41.2198C28.2937 41.2198 33.8366 35.6769 33.8366 28.8394C33.8366 22.0019 28.2937 16.459 21.4562 16.459C14.6187 16.459 9.07581 22.0019 9.07581 28.8394C9.07581 35.6769 14.6187 41.2198 21.4562 41.2198Z"
        fill="url(#paint3_linear_172_3017)" />
    <path
        d="M21.4562 38.7015C26.903 38.7015 31.3186 34.286 31.3186 28.8392C31.3186 23.3923 26.903 18.9768 21.4562 18.9768C16.0094 18.9768 11.5938 23.3923 11.5938 28.8392C11.5938 34.286 16.0094 38.7015 21.4562 38.7015Z"
        fill="url(#paint4_linear_172_3017)" />
    <path
        d="M21.4562 37.6006C26.2949 37.6006 30.2174 33.6781 30.2174 28.8394C30.2174 24.0007 26.2949 20.0781 21.4562 20.0781C16.6175 20.0781 12.6949 24.0007 12.6949 28.8394C12.6949 33.6781 16.6175 37.6006 21.4562 37.6006Z"
        fill="url(#paint5_linear_172_3017)" />
    <path
        d="M26.7884 26.9698C26.7884 28.2656 26.4063 29.2665 25.6421 29.9727C24.8777 30.6788 23.7923 31.0319 22.3854 31.0319H21.5049V34.8797H18.3712V23.281H22.3856C23.8507 23.281 24.9507 23.6009 25.686 24.241C26.4208 24.8807 26.7884 25.7903 26.7884 26.9698ZM21.5047 28.4772H22.0759C22.5466 28.4772 22.9208 28.345 23.1985 28.0805C23.4762 27.8161 23.615 27.4511 23.615 26.9857C23.615 26.2029 23.1813 25.8116 22.314 25.8116H21.5047V28.4772Z"
        fill="#FFBE3F" stroke="#DF8B49" stroke-width="3.3827" />
    <path
        d="M26.7885 26.7836C26.7885 28.0793 26.4063 29.0802 25.6421 29.7865C24.8778 30.4925 23.7923 30.8457 22.3855 30.8457H21.5049V34.6935H18.3712V23.0947H22.3856C23.8508 23.0947 24.9507 23.4147 25.686 24.0547C26.4208 24.6944 26.7885 25.6042 26.7885 26.7836ZM21.5047 28.291H22.0759C22.5466 28.291 22.9208 28.1587 23.1985 27.8943C23.4762 27.6298 23.615 27.2648 23.615 26.7994C23.615 26.0166 23.1813 25.6253 22.314 25.6253H21.5047V28.291Z"
        fill="#FFBE3F" stroke="#FFBE3F" stroke-width="0.682" />
    <path
        d="M31.3184 28.8394C31.3331 30.1305 31.0944 31.4274 30.6105 32.6312C30.1234 33.8335 29.3934 34.9378 28.4801 35.8634C27.568 36.7912 26.4641 37.5285 25.2629 38.0302C24.0613 38.5325 22.7591 38.7914 21.4561 38.7947C20.1529 38.7919 18.8507 38.5327 17.649 38.0303C16.4479 37.5285 15.3436 36.7917 14.4317 35.8637C13.5184 34.9379 12.7887 33.8335 12.3012 32.6314C11.8174 31.4276 11.579 30.1305 11.5937 28.8394C11.6166 31.4254 12.7021 33.9644 14.5329 35.7625C15.4469 36.6604 16.5289 37.3881 17.7139 37.8738C18.8971 38.3625 20.1768 38.6106 21.4559 38.6088C22.7351 38.6111 24.0147 38.3626 25.1981 37.874C26.3829 37.388 27.4652 36.6608 28.3792 35.7627C30.2104 33.9644 31.296 31.4254 31.3184 28.8394Z"
        fill="#DF8B49" />
    <path
        d="M9.06635 28.8393C9.06618 27.2173 9.38414 25.5952 10.006 24.0965C10.6257 22.5972 11.5451 21.223 12.692 20.075C13.8388 18.9272 15.2123 18.0062 16.7116 17.3848C18.2103 16.7613 19.8329 16.4415 21.4562 16.4402C23.0795 16.4415 24.7021 16.7613 26.2007 17.3848C27.7 18.0062 29.0735 18.9272 30.2204 20.075C31.3672 21.223 32.2866 22.5972 32.9063 24.0965C33.5282 25.5952 33.8462 27.2173 33.846 28.8393H33.8272C33.7833 25.5953 32.4121 22.4227 30.118 20.1772C28.971 19.0573 27.6182 18.1475 26.1357 17.5413C24.6555 16.9315 23.0554 16.6221 21.456 16.6262C19.8567 16.6228 18.2567 16.9316 16.7765 17.5416C15.2937 18.1475 13.9415 19.0579 12.7943 20.1777C10.5003 22.423 9.12924 25.5955 9.08483 28.8394L9.06635 28.8393Z"
        fill="white" />
    <path
        d="M21.5047 18.6859C21.4019 18.6859 21.3185 18.6025 21.3185 18.4997V17.61C21.3185 17.5072 21.4017 17.4238 21.5047 17.4238C21.6076 17.4238 21.691 17.5072 21.691 17.61V18.4997C21.691 18.6025 21.6078 18.6859 21.5047 18.6859ZM19.7086 18.8345C19.8098 18.8167 19.8775 18.7201 19.8595 18.6187L19.705 17.7428C19.6871 17.6416 19.5904 17.5737 19.4894 17.5919C19.3882 17.6097 19.3205 17.7063 19.3385 17.8075L19.493 18.6834C19.5089 18.7737 19.5874 18.8373 19.6761 18.8373C19.6868 18.8373 19.6977 18.8365 19.7086 18.8345ZM17.9655 19.2928C18.0622 19.2578 18.1121 19.1508 18.0767 19.0542L17.7725 18.2182C17.7373 18.1216 17.6303 18.0715 17.5339 18.1071C17.4372 18.1423 17.3873 18.2491 17.4227 18.3457L17.7269 19.1817C17.7543 19.2571 17.8258 19.3042 17.9017 19.3042C17.9229 19.3042 17.9445 19.3005 17.9655 19.2928ZM16.3285 20.0469C16.4176 19.9954 16.4482 19.8816 16.3967 19.7926L15.9518 19.0224C15.9001 18.9332 15.7862 18.9027 15.6975 18.9542C15.6084 19.0057 15.5778 19.1196 15.6293 19.2084L16.0743 19.9787C16.1088 20.0385 16.1713 20.0718 16.2357 20.0718C16.2672 20.0716 16.2993 20.0637 16.3285 20.0469ZM14.8472 21.0735C14.9259 21.0075 14.9363 20.89 14.8701 20.8114L14.2984 20.1299C14.2326 20.0515 14.1153 20.0408 14.0363 20.107C13.9575 20.173 13.9473 20.2905 14.0133 20.3691L14.585 21.0506C14.6217 21.0945 14.6745 21.1171 14.7276 21.1171C14.7699 21.1171 14.8122 21.1029 14.8472 21.0735ZM13.5666 22.3421C13.6328 22.2633 13.6224 22.1458 13.5437 22.0797L12.8623 21.5079C12.7834 21.4418 12.6661 21.4524 12.6002 21.5308C12.534 21.6096 12.5444 21.7271 12.6231 21.7931L13.3044 22.365C13.3393 22.3942 13.3817 22.4086 13.4238 22.4086C13.4773 22.4086 13.53 22.386 13.5666 22.3421ZM12.5262 23.8136C12.5777 23.7245 12.5472 23.6107 12.4581 23.5594L11.6876 23.1147C11.5988 23.0633 11.4847 23.0935 11.4334 23.1828C11.3819 23.272 11.4124 23.3857 11.5015 23.4372L12.272 23.882C12.3012 23.8988 12.3333 23.9069 12.3649 23.9069C12.429 23.9066 12.4916 23.8732 12.5262 23.8136ZM11.7566 25.4433C11.7919 25.3468 11.7421 25.24 11.6453 25.2048L10.8095 24.9006C10.7133 24.8656 10.6061 24.9152 10.571 25.0118C10.5356 25.1084 10.5855 25.2152 10.6822 25.2504L11.5181 25.5546C11.539 25.5622 11.5607 25.5658 11.5816 25.5658C11.6577 25.5658 11.7292 25.519 11.7566 25.4433ZM11.282 27.1822C11.3 27.081 11.2323 26.9844 11.1311 26.9666L10.255 26.8121C10.1541 26.7936 10.0571 26.8618 10.0394 26.963C10.0214 27.0642 10.0891 27.1607 10.1903 27.1786L11.0664 27.3331C11.0773 27.3351 11.0882 27.3361 11.0989 27.3361C11.1877 27.3359 11.2661 27.2725 11.282 27.1822ZM11.1166 28.9768C11.1166 28.874 11.0334 28.7906 10.9304 28.7906H10.0407C9.93786 28.7906 9.85449 28.8738 9.85449 28.9768C9.85449 29.0797 9.93769 29.1631 10.0407 29.1631H10.9304C11.0334 29.1631 11.1166 29.0799 11.1166 28.9768ZM10.2382 31.1431L11.1141 30.9886C11.2153 30.9707 11.283 30.8742 11.265 30.773C11.2473 30.6718 11.1501 30.6033 11.0494 30.6221L10.1733 30.7766C10.0721 30.7944 10.0044 30.891 10.0224 30.9922C10.0382 31.0825 10.1166 31.1461 10.2055 31.1461C10.2164 31.1459 10.2273 31.1451 10.2382 31.1431ZM10.7763 33.0589L11.6122 32.7548C11.7089 32.7198 11.7588 32.6128 11.7234 32.5163C11.6883 32.4197 11.5813 32.3702 11.4849 32.405L10.649 32.7091C10.5523 32.7441 10.5026 32.8511 10.5378 32.9476C10.5652 33.0232 10.6367 33.0701 10.7126 33.0701C10.7337 33.0701 10.7554 33.0665 10.7763 33.0589ZM11.6391 34.8522L12.4092 34.4077C12.4983 34.3562 12.5289 34.2424 12.4774 34.1534C12.4257 34.0646 12.3118 34.0341 12.2231 34.0852L11.4528 34.5298C11.3637 34.5813 11.3332 34.6951 11.3847 34.7842C11.4192 34.8438 11.4817 34.8773 11.5461 34.8773C11.5778 34.877 11.6098 34.8691 11.6391 34.8522ZM12.7999 36.4684L13.4813 35.8966C13.5602 35.8305 13.5704 35.7132 13.5042 35.6344C13.4385 35.5557 13.3211 35.5454 13.242 35.6115L12.5607 36.1833C12.4818 36.2493 12.4716 36.3667 12.5378 36.4455C12.5744 36.4895 12.6273 36.512 12.6806 36.512C12.7227 36.512 12.7649 36.4976 12.7999 36.4684ZM14.224 37.8584L14.7957 37.177C14.8617 37.0982 14.8513 36.9808 14.7726 36.9146C14.6936 36.8488 14.5764 36.859 14.5102 36.9378L13.9385 37.6192C13.8725 37.698 13.8829 37.8154 13.9617 37.8816C13.9967 37.9106 14.0389 37.925 14.0812 37.925C14.1343 37.925 14.1872 37.9025 14.224 37.8584ZM15.8677 38.98L16.3123 38.2096C16.3638 38.1204 16.3333 38.0067 16.2441 37.9553C16.1553 37.9038 16.0412 37.9344 15.9899 38.0235L15.5453 38.794C15.4938 38.883 15.5244 38.9969 15.6135 39.0482C15.6427 39.065 15.6747 39.0731 15.7064 39.0731C15.7707 39.0731 15.8332 39.0398 15.8677 38.98ZM17.681 39.7992L17.9853 38.9634C18.0206 38.8668 17.9708 38.76 17.874 38.7248C17.7779 38.69 17.6706 38.7395 17.6355 38.8361L17.3312 39.6719C17.2959 39.7685 17.3457 39.8753 17.4425 39.9104C17.4634 39.918 17.4851 39.9217 17.506 39.9217C17.5821 39.9217 17.6535 39.8748 17.681 39.7992ZM19.6092 40.2913L19.7637 39.4154C19.7817 39.3142 19.7141 39.2176 19.6129 39.1998C19.5115 39.1808 19.4151 39.2494 19.3973 39.3506L19.2427 40.2266C19.2247 40.3278 19.2924 40.4244 19.3936 40.4422C19.4045 40.4442 19.4154 40.4452 19.4261 40.4452C19.5148 40.4452 19.5934 40.3816 19.6092 40.2913ZM21.5937 40.4407V39.5512C21.5937 39.4484 21.5105 39.365 21.4077 39.365C21.3048 39.365 21.2215 39.4482 21.2215 39.5512V40.4407C21.2215 40.5436 21.3047 40.6269 21.4077 40.6269C21.5105 40.6269 21.5937 40.5436 21.5937 40.4407ZM23.4229 40.4589C23.5241 40.441 23.5917 40.3445 23.5738 40.2433L23.4194 39.3673C23.4016 39.2661 23.305 39.1974 23.2038 39.2164C23.1026 39.2343 23.0349 39.3308 23.0529 39.432L23.2073 40.308C23.2231 40.3983 23.3017 40.4618 23.3903 40.4618C23.4009 40.4618 23.4118 40.4608 23.4229 40.4589ZM25.3783 39.9438C25.475 39.9088 25.5249 39.8018 25.4896 39.7052L25.1855 38.8694C25.1505 38.7728 25.0433 38.7228 24.9469 38.7582C24.8502 38.7932 24.8003 38.9001 24.8357 38.9967L25.1398 39.8325C25.1672 39.9081 25.2386 39.955 25.3146 39.955C25.3357 39.955 25.3573 39.9514 25.3783 39.9438ZM27.2149 39.0969C27.304 39.0454 27.3346 38.9317 27.2831 38.8427L26.8383 38.0722C26.7866 37.9829 26.6726 37.9525 26.5839 38.004C26.4948 38.0555 26.4642 38.1693 26.5157 38.2583L26.9606 39.0287C26.9951 39.0885 27.0577 39.1218 27.1221 39.1218C27.1535 39.1218 27.1855 39.1139 27.2149 39.0969ZM28.8761 37.9441C28.9549 37.8779 28.9653 37.7605 28.8992 37.6818L28.3276 37.0003C28.2614 36.9216 28.1443 36.9113 28.0652 36.9772C27.9865 37.0434 27.9761 37.1608 28.0421 37.2395L28.6138 37.921C28.6506 37.9649 28.7035 37.9875 28.7566 37.9875C28.7989 37.9875 28.8411 37.9732 28.8761 37.9441ZM30.3122 36.5199C30.3782 36.4412 30.3678 36.3238 30.2891 36.2576L29.6076 35.6859C29.5287 35.6202 29.4115 35.6301 29.3453 35.709C29.2793 35.7878 29.2897 35.9051 29.3684 35.9713L30.0499 36.543C30.0849 36.5721 30.1272 36.5865 30.1692 36.5865C30.2226 36.5863 30.2752 36.5638 30.3122 36.5199ZM31.479 34.8684C31.5305 34.7793 31.5 34.6655 31.4109 34.6142L30.6404 34.1694C30.5513 34.1181 30.4375 34.1483 30.3862 34.2376C30.3347 34.3268 30.3652 34.4405 30.4544 34.492L31.2248 34.9368C31.254 34.9536 31.2861 34.9617 31.3177 34.9617C31.382 34.9614 31.4445 34.9282 31.479 34.8684ZM32.3413 33.0391C32.3766 32.9425 32.3268 32.8357 32.23 32.8005L31.3942 32.4963C31.2978 32.4615 31.1908 32.511 31.1556 32.6076C31.1203 32.7041 31.1702 32.8109 31.2669 32.8461L32.1027 33.1504C32.1237 33.158 32.1453 33.1616 32.1663 33.1616C32.2424 33.1616 32.3139 33.1147 32.3413 33.0391ZM32.8729 31.088C32.8908 30.9868 32.8232 30.8902 32.722 30.8724L31.846 30.7178C31.7447 30.6993 31.6481 30.7675 31.6304 30.8687C31.6124 30.9699 31.6801 31.0665 31.7813 31.0843L32.6573 31.2388C32.6681 31.2408 32.679 31.2418 32.6898 31.2418C32.7784 31.2418 32.857 31.1783 32.8729 31.088ZM33.0576 29.0742C33.0576 28.9714 32.9744 28.888 32.8714 28.888H31.9819C31.879 28.888 31.7957 28.9712 31.7957 29.0742C31.7957 29.1771 31.8789 29.2605 31.9819 29.2605H32.8714C32.9742 29.2603 33.0576 29.1771 33.0576 29.0742ZM31.8629 27.4288L32.7388 27.2743C32.84 27.2565 32.9077 27.1599 32.8897 27.0587C32.8719 26.9575 32.775 26.8895 32.6741 26.9078L31.7981 27.0623C31.697 27.0802 31.6293 27.1767 31.6473 27.2779C31.6631 27.3682 31.7417 27.4316 31.8303 27.4316C31.8411 27.4318 31.852 27.4308 31.8629 27.4288ZM31.4274 25.6459L32.2632 25.3418C32.3599 25.3068 32.4098 25.1998 32.3745 25.1033C32.3395 25.0065 32.232 24.957 32.1359 24.992L31.3001 25.2961C31.2033 25.3313 31.1537 25.4381 31.1888 25.5346C31.2162 25.6103 31.2877 25.6571 31.3636 25.6571C31.3849 25.6571 31.4066 25.6535 31.4274 25.6459ZM30.6891 23.966L31.4596 23.5211C31.5487 23.4696 31.5792 23.3558 31.5277 23.2669C31.4762 23.1777 31.3622 23.1472 31.2735 23.1987L30.5031 23.6436C30.4139 23.6951 30.3835 23.8088 30.4349 23.898C30.4694 23.9577 30.5319 23.9911 30.5963 23.9911C30.6279 23.9909 30.6597 23.9828 30.6891 23.966ZM29.6702 22.4395L30.3517 21.8676C30.4304 21.8016 30.4408 21.684 30.3746 21.6054C30.3089 21.5269 30.1915 21.5163 30.1125 21.5825L29.431 22.1544C29.3522 22.2204 29.342 22.3379 29.408 22.4165C29.4447 22.4604 29.4975 22.483 29.5507 22.483C29.5929 22.483 29.6352 22.4688 29.6702 22.4395ZM28.4017 21.1132L28.9735 20.4317C29.0397 20.3529 29.0293 20.2354 28.9506 20.1694C28.8717 20.1032 28.7543 20.1139 28.6884 20.1923L28.1166 20.8738C28.0504 20.9525 28.0608 21.0701 28.1395 21.1361C28.1744 21.1653 28.2168 21.1797 28.2589 21.1797C28.3122 21.1797 28.3649 21.1571 28.4017 21.1132ZM26.9223 20.0272L27.3673 19.2569C27.4188 19.168 27.3882 19.054 27.2991 19.0027C27.2103 18.9512 27.0962 18.9817 27.0448 19.0709L26.5999 19.8412C26.5484 19.9302 26.579 20.0441 26.6681 20.0954C26.6973 20.1122 26.7294 20.1203 26.7611 20.1203C26.8253 20.1203 26.8878 20.087 26.9223 20.0272ZM25.2768 19.2148L25.5809 18.3788C25.6162 18.2823 25.5663 18.1755 25.4696 18.1403C25.3734 18.1051 25.2662 18.1552 25.231 18.2516L24.927 19.0876C24.8916 19.1841 24.9415 19.2909 25.0382 19.3261C25.0592 19.3337 25.0808 19.3373 25.1018 19.3373C25.1779 19.3373 25.2494 19.2904 25.2768 19.2148ZM23.515 18.7004L23.6695 17.8245C23.6875 17.7233 23.6198 17.6267 23.5186 17.6087C23.4173 17.5906 23.3207 17.6584 23.303 17.7598L23.1485 18.6357C23.1305 18.7369 23.1982 18.8335 23.2994 18.8515C23.3103 18.8535 23.3212 18.8543 23.3319 18.8543C23.4206 18.8543 23.4991 18.7907 23.515 18.7004Z"
        fill="#DF8B49" />
    <path
        d="M21.5047 18.4996C21.4019 18.4996 21.3185 18.4163 21.3185 18.3134V17.4238C21.3185 17.3209 21.4017 17.2375 21.5047 17.2375C21.6076 17.2375 21.691 17.3209 21.691 17.4238V18.3134C21.691 18.4163 21.6078 18.4996 21.5047 18.4996ZM19.7086 18.6482C19.8098 18.6304 19.8775 18.5338 19.8595 18.4324L19.705 17.5565C19.6871 17.4553 19.5904 17.3874 19.4894 17.4056C19.3882 17.4234 19.3205 17.52 19.3385 17.6212L19.493 18.4972C19.5089 18.5875 19.5874 18.651 19.6761 18.651C19.6868 18.651 19.6977 18.6502 19.7086 18.6482ZM17.9655 19.1065C18.0622 19.0715 18.1121 18.9645 18.0767 18.8679L17.7725 18.0319C17.7373 17.9354 17.6303 17.8852 17.5339 17.9208C17.4372 17.9558 17.3873 18.0628 17.4227 18.1594L17.7269 18.9954C17.7543 19.071 17.8258 19.1179 17.9017 19.1179C17.9229 19.1179 17.9445 19.1142 17.9655 19.1065ZM16.3285 19.8606C16.4176 19.8091 16.4482 19.6953 16.3967 19.6064L15.9518 18.8361C15.9001 18.7469 15.7862 18.7164 15.6975 18.7679C15.6084 18.8194 15.5778 18.9333 15.6293 19.0223L16.0743 19.7926C16.1088 19.8523 16.1713 19.8857 16.2357 19.8857C16.2672 19.8855 16.2993 19.8774 16.3285 19.8606ZM14.8472 20.8874C14.9259 20.8214 14.9363 20.7039 14.8701 20.6253L14.2984 19.9438C14.2326 19.8654 14.1153 19.8547 14.0363 19.9209C13.9575 19.9869 13.9473 20.1044 14.0133 20.183L14.585 20.8645C14.6217 20.9084 14.6745 20.931 14.7276 20.931C14.7699 20.931 14.8122 20.9166 14.8472 20.8874ZM13.5666 22.1559C13.6328 22.0772 13.6224 21.9597 13.5437 21.8936L12.8623 21.3218C12.7834 21.2557 12.6661 21.2663 12.6002 21.3447C12.534 21.4235 12.5444 21.541 12.6231 21.607L13.3044 22.1789C13.3393 22.2081 13.3817 22.2225 13.4238 22.2225C13.4773 22.2223 13.53 22.1997 13.5666 22.1559ZM12.5262 23.6273C12.5777 23.5382 12.5472 23.4245 12.4581 23.3731L11.6876 22.9284C11.5988 22.877 11.4847 22.9072 11.4334 22.9966C11.3819 23.0857 11.4124 23.1994 11.5015 23.251L12.272 23.6957C12.3012 23.7125 12.3333 23.7206 12.3649 23.7206C12.429 23.7205 12.4916 23.6869 12.5262 23.6273ZM11.7566 25.2572C11.7919 25.1607 11.7421 25.0539 11.6453 25.0187L10.8095 24.7144C10.7133 24.6794 10.6061 24.7291 10.571 24.8257C10.5356 24.9223 10.5855 25.0291 10.6822 25.0643L11.5181 25.3685C11.539 25.3761 11.5607 25.3797 11.5816 25.3797C11.6577 25.3797 11.7292 25.3328 11.7566 25.2572ZM11.282 26.9959C11.3 26.8947 11.2323 26.7981 11.1311 26.7803L10.255 26.6258C10.1541 26.6073 10.0571 26.6755 10.0394 26.7767C10.0214 26.8779 10.0891 26.9745 10.1903 26.9923L11.0664 27.1468C11.0773 27.1488 11.0882 27.1498 11.0989 27.1498C11.1877 27.1498 11.2661 27.0862 11.282 26.9959ZM11.1166 28.7907C11.1166 28.6879 11.0334 28.6045 10.9304 28.6045H10.0407C9.93786 28.6045 9.85449 28.6877 9.85449 28.7907C9.85449 28.8936 9.93769 28.9769 10.0407 28.9769H10.9304C11.0334 28.9768 11.1166 28.8936 11.1166 28.7907ZM10.2382 30.9568L11.1141 30.8023C11.2153 30.7845 11.283 30.6879 11.265 30.5867C11.2473 30.4855 11.1501 30.417 11.0494 30.4358L10.1733 30.5903C10.0721 30.6082 10.0044 30.7047 10.0224 30.8059C10.0382 30.8962 10.1166 30.9598 10.2055 30.9598C10.2164 30.9598 10.2273 30.9588 10.2382 30.9568ZM10.7763 32.8726L11.6122 32.5685C11.7089 32.5334 11.7588 32.4266 11.7234 32.33C11.6883 32.2334 11.5813 32.1839 11.4849 32.2187L10.649 32.5228C10.5523 32.5578 10.5026 32.6648 10.5378 32.7614C10.5652 32.837 10.6367 32.8839 10.7126 32.8839C10.7337 32.8839 10.7554 32.8802 10.7763 32.8726ZM11.6391 34.666L12.4092 34.2214C12.4983 34.1699 12.5289 34.0561 12.4774 33.9671C12.4257 33.8782 12.3118 33.8476 12.2231 33.899L11.4528 34.3435C11.3637 34.3951 11.3332 34.5088 11.3847 34.5978C11.4192 34.6574 11.4817 34.6909 11.5461 34.6909C11.5778 34.6909 11.6098 34.6828 11.6391 34.666ZM12.7999 36.2821L13.4813 35.7103C13.5602 35.6442 13.5704 35.5269 13.5042 35.4481C13.4385 35.3694 13.3211 35.359 13.242 35.4252L12.5607 35.997C12.4818 36.0631 12.4716 36.1804 12.5378 36.2592C12.5744 36.3031 12.6273 36.3257 12.6806 36.3257C12.7227 36.3257 12.7649 36.3115 12.7999 36.2821ZM14.224 37.6723L14.7957 36.9909C14.8617 36.9121 14.8513 36.7947 14.7726 36.7285C14.6936 36.6627 14.5764 36.6729 14.5102 36.7516L13.9385 37.4331C13.8725 37.5119 13.8829 37.6292 13.9617 37.6954C13.9967 37.7245 14.0389 37.7389 14.0812 37.7389C14.1343 37.7389 14.1872 37.7162 14.224 37.6723ZM15.8677 38.7939L16.3123 38.0235C16.3638 37.9343 16.3333 37.8206 16.2441 37.7692C16.1553 37.7177 16.0412 37.7483 15.9899 37.8374L15.5453 38.6079C15.4938 38.697 15.5244 38.8108 15.6135 38.8621C15.6427 38.8789 15.6747 38.887 15.7064 38.887C15.7707 38.887 15.8332 38.8535 15.8677 38.7939ZM17.681 39.6131L17.9853 38.7772C18.0206 38.6807 17.9708 38.5739 17.874 38.5387C17.7779 38.5039 17.6706 38.5534 17.6355 38.65L17.3312 39.4858C17.2959 39.5824 17.3457 39.6892 17.4425 39.7243C17.4634 39.7319 17.4851 39.7356 17.506 39.7356C17.5821 39.7356 17.6535 39.6887 17.681 39.6131ZM19.6092 40.105L19.7637 39.2291C19.7817 39.1279 19.7141 39.0313 19.6129 39.0135C19.5115 38.9945 19.4151 39.0632 19.3973 39.1644L19.2427 40.0403C19.2247 40.1415 19.2924 40.2381 19.3936 40.2559C19.4045 40.2579 19.4154 40.2589 19.4261 40.2589C19.5148 40.2589 19.5934 40.1955 19.6092 40.105ZM21.5937 40.2544V39.3649C21.5937 39.2621 21.5105 39.1787 21.4077 39.1787C21.3048 39.1787 21.2215 39.2619 21.2215 39.3649V40.2544C21.2215 40.3573 21.3047 40.4406 21.4077 40.4406C21.5105 40.4406 21.5937 40.3574 21.5937 40.2544ZM23.4229 40.2727C23.5241 40.2549 23.5917 40.1583 23.5738 40.0571L23.4194 39.1812C23.4016 39.08 23.305 39.0113 23.2038 39.0303C23.1026 39.0481 23.0349 39.1447 23.0529 39.2459L23.2073 40.1219C23.2231 40.2122 23.3017 40.2757 23.3903 40.2757C23.4009 40.2756 23.4118 40.2747 23.4229 40.2727ZM25.3783 39.7575C25.475 39.7224 25.5249 39.6155 25.4896 39.519L25.1855 38.6831C25.1505 38.5866 25.0433 38.5365 24.9469 38.5719C24.8502 38.6069 24.8003 38.7138 24.8357 38.8104L25.1398 39.6463C25.1672 39.7219 25.2386 39.7687 25.3146 39.7687C25.3357 39.7687 25.3573 39.7651 25.3783 39.7575ZM27.2149 38.9108C27.304 38.8593 27.3346 38.7455 27.2831 38.6564L26.8383 37.8859C26.7866 37.7966 26.6726 37.7664 26.5839 37.8178C26.4948 37.8693 26.4642 37.983 26.5157 38.072L26.9606 38.8424C26.9951 38.9022 27.0577 38.9356 27.1221 38.9356C27.1535 38.9357 27.1855 38.9276 27.2149 38.9108ZM28.8761 37.7578C28.9549 37.6916 28.9653 37.5743 28.8992 37.4955L28.3276 36.814C28.2614 36.7353 28.1443 36.7252 28.0652 36.7909C27.9865 36.8571 27.9761 36.9745 28.0421 37.0533L28.6138 37.7347C28.6506 37.7788 28.7035 37.8013 28.7566 37.8013C28.7989 37.8014 28.8411 37.7871 28.8761 37.7578ZM30.3122 36.3336C30.3782 36.2549 30.3678 36.1375 30.2891 36.0713L29.6076 35.4996C29.5287 35.4339 29.4115 35.4438 29.3453 35.5227C29.2793 35.6015 29.2897 35.7189 29.3684 35.7851L30.0499 36.3568C30.0849 36.3858 30.1272 36.4002 30.1692 36.4002C30.2226 36.4002 30.2752 36.3776 30.3122 36.3336ZM31.479 34.6821C31.5305 34.593 31.5 34.4792 31.4109 34.4277L30.6404 33.983C30.5513 33.9318 30.4375 33.9619 30.3862 34.0512C30.3347 34.1403 30.3652 34.2541 30.4544 34.3054L31.2248 34.7501C31.254 34.767 31.2861 34.7751 31.3177 34.7751C31.382 34.7752 31.4445 34.7419 31.479 34.6821ZM32.3413 32.8528C32.3766 32.7562 32.3268 32.6494 32.23 32.6143L31.3942 32.31C31.2978 32.2752 31.1908 32.3247 31.1556 32.4213C31.1203 32.5179 31.1702 32.6247 31.2669 32.6598L32.1027 32.9641C32.1237 32.9717 32.1453 32.9753 32.1663 32.9753C32.2424 32.9753 32.3139 32.9284 32.3413 32.8528ZM32.8729 30.9017C32.8908 30.8005 32.8232 30.7039 32.722 30.6861L31.846 30.5316C31.7447 30.5131 31.6481 30.5812 31.6304 30.6824C31.6124 30.7836 31.6801 30.8802 31.7813 30.898L32.6573 31.0526C32.6681 31.0545 32.679 31.0555 32.6898 31.0555C32.7784 31.0555 32.857 30.9921 32.8729 30.9017ZM33.0576 28.888C33.0576 28.7851 32.9744 28.7017 32.8714 28.7017H31.9819C31.879 28.7017 31.7957 28.7849 31.7957 28.888C31.7957 28.9908 31.8789 29.0742 31.9819 29.0742H32.8714C32.9742 29.0742 33.0576 28.9908 33.0576 28.888ZM31.8629 27.2426L32.7388 27.088C32.84 27.0702 32.9077 26.9736 32.8897 26.8724C32.8719 26.7712 32.775 26.7032 32.6741 26.7215L31.7981 26.8761C31.697 26.8939 31.6293 26.9905 31.6473 27.0917C31.6631 27.182 31.7417 27.2454 31.8303 27.2454C31.8411 27.2455 31.852 27.2447 31.8629 27.2426ZM31.4274 25.4596L32.2632 25.1555C32.3599 25.1205 32.4098 25.0136 32.3745 24.917C32.3395 24.8203 32.232 24.7707 32.1359 24.8057L31.3001 25.1098C31.2033 25.145 31.1537 25.2518 31.1888 25.3484C31.2162 25.424 31.2877 25.4709 31.3636 25.4709C31.3849 25.471 31.4066 25.4674 31.4274 25.4596ZM30.6891 23.7797L31.4596 23.3348C31.5487 23.2833 31.5792 23.1696 31.5277 23.0806C31.4762 22.9914 31.3622 22.9609 31.2735 23.0124L30.5031 23.4573C30.4139 23.5088 30.3835 23.6226 30.4349 23.7115C30.4694 23.7713 30.5319 23.8047 30.5963 23.8047C30.6279 23.8047 30.6597 23.7966 30.6891 23.7797ZM29.6702 22.2533L30.3517 21.6815C30.4304 21.6155 30.4408 21.4979 30.3746 21.4193C30.3089 21.3407 30.1915 21.3302 30.1125 21.3964L29.431 21.9682C29.3522 22.0343 29.342 22.1518 29.408 22.2304C29.4447 22.2743 29.4975 22.2969 29.5507 22.2969C29.5929 22.2969 29.6352 22.2826 29.6702 22.2533ZM28.4017 20.927L28.9735 20.2456C29.0397 20.1668 29.0293 20.0493 28.9506 19.9833C28.8717 19.9171 28.7543 19.9278 28.6884 20.0062L28.1166 20.6877C28.0504 20.7664 28.0608 20.884 28.1395 20.95C28.1744 20.9792 28.2168 20.9936 28.2589 20.9936C28.3122 20.9934 28.3649 20.9708 28.4017 20.927ZM26.9223 19.8411L27.3673 19.0708C27.4188 18.9818 27.3882 18.8679 27.2991 18.8166C27.2103 18.7651 27.0962 18.7956 27.0448 18.8848L26.5999 19.6551C26.5484 19.744 26.579 19.858 26.6681 19.9095C26.6973 19.9263 26.7294 19.9344 26.7611 19.9344C26.8253 19.9341 26.8878 19.9007 26.9223 19.8411ZM25.2768 19.0286L25.5809 18.1926C25.6162 18.096 25.5663 17.9892 25.4696 17.954C25.3734 17.9189 25.2662 17.9689 25.231 18.0653L24.927 18.9013C24.8916 18.9979 24.9415 19.1047 25.0382 19.1398C25.0592 19.1474 25.0808 19.1511 25.1018 19.1511C25.1779 19.1512 25.2494 19.1042 25.2768 19.0286ZM23.515 18.5142L23.6695 17.6382C23.6875 17.537 23.6198 17.4404 23.5186 17.4224C23.4173 17.4043 23.3207 17.4721 23.303 17.5735L23.1485 18.4494C23.1305 18.5506 23.1982 18.6472 23.2994 18.6652C23.3103 18.6672 23.3212 18.668 23.3319 18.668C23.4206 18.668 23.4991 18.6045 23.515 18.5142Z"
        fill="#FFBE3F" />
    <path
        d="M69.7203 36.3209C70.9793 28.7712 65.8796 21.6303 58.3299 20.3712C50.7801 19.1122 43.6391 24.2117 42.38 31.7614C41.121 39.3112 46.2206 46.4521 53.7704 47.7111C61.3202 48.9702 68.4612 43.8706 69.7203 36.3209Z"
        fill="#F6F2FF" />
    <path d="M70.7032 55.8425L66.7869 56.7135H39.0552L42.9715 55.8425H70.7032Z" fill="#342A67"
        opacity="0.3" />
    <path d="M64.8165 29.7175L66.5033 29.0571L69.5245 55.8652L66.0148 56.5255L64.8165 29.7175Z"
        fill="url(#paint6_linear_172_3017)" />
    <path d="M66.0148 56.5256H40.0688L41.7199 29.7175H64.8165L66.0148 56.5256Z"
        fill="url(#paint7_linear_172_3017)" />
    <path
        d="M43.2799 29.7175H44.2136L41.5561 32.3749L41.6173 31.3799L43.2799 29.7175ZM47.3405 29.7175H46.4066L41.4121 34.712L41.3509 35.707L47.3405 29.7175ZM50.4674 29.7175H49.5337L41.2071 38.0441L41.1459 39.0391L50.4674 29.7175ZM53.5943 29.7175H52.6606L41.0019 41.3762L40.9406 42.3712L53.5943 29.7175ZM56.721 29.7175H55.7873L40.7965 44.7081L40.7353 45.7032L56.721 29.7175ZM59.8479 29.7175H58.9142L40.5913 48.0402L40.5301 49.0352L59.8479 29.7175ZM62.9748 29.7175H62.041L40.3861 51.3726L40.3249 52.3676L62.9748 29.7175ZM64.8716 30.9477L64.8317 30.054L40.1811 54.7045L40.1198 55.6997L64.8716 30.9477ZM65.0053 33.9407L64.9654 33.047L41.4868 56.5256H42.4205L65.0053 33.9407ZM65.139 36.9339L65.0991 36.0401L44.6136 56.5256H45.5474L65.139 36.9339ZM65.2729 39.9271L65.233 39.0333L47.7405 56.5258H48.6742L65.2729 39.9271ZM65.4066 42.9201L65.3667 42.0263L50.8672 56.5258H51.801L65.4066 42.9201ZM65.5405 45.9132L65.5006 45.0195L53.9943 56.5258H54.928L65.5405 45.9132ZM65.6742 48.9062L65.6343 48.0125L57.121 56.5258H58.0547L65.6742 48.9062ZM65.808 51.8994L65.768 51.0056L60.2479 56.5258H61.1816L65.808 51.8994ZM65.9419 54.8924L65.9019 53.9986L63.3748 56.5258H64.3085L65.9419 54.8924Z"
        fill="#F9E4CE" />
    <path d="M41.7198 29.7175L43.4067 29.0571H66.5033L64.8165 29.7175H41.7198Z"
        fill="url(#paint8_linear_172_3017)" />
    <path
        d="M49.4059 32.0886C49.6561 32.0886 49.8589 31.8858 49.8589 31.6356C49.8589 31.3854 49.6561 31.1826 49.4059 31.1826C49.1557 31.1826 48.9529 31.3854 48.9529 31.6356C48.9529 31.8858 49.1557 32.0886 49.4059 32.0886Z"
        fill="url(#paint9_linear_172_3017)" />
    <path
        d="M57.574 31.6356C57.574 31.8857 57.3712 32.0886 57.121 32.0886C56.8709 32.0886 56.668 31.8857 56.668 31.6356C56.668 31.3853 56.8707 31.1826 57.121 31.1826C57.3712 31.1825 57.574 31.3853 57.574 31.6356Z"
        fill="url(#paint10_linear_172_3017)" />
    <path
        d="M52.3548 41.0182C50.1904 41.0182 48.3934 39.3258 48.264 37.1653L48.0611 33.7811C48.0042 32.8325 48.4692 31.93 49.2747 31.4258C49.3901 31.3531 49.5433 31.3881 49.6159 31.5044C49.6884 31.6203 49.6534 31.7731 49.5373 31.8456C48.8857 32.2537 48.5093 32.9839 48.5554 33.7513L48.7584 37.1356C48.8722 39.0351 50.4522 40.523 52.355 40.523C53.3584 40.523 54.29 40.1208 54.978 39.3903C55.6659 38.6598 56.0118 37.706 55.9517 36.7042L55.7762 33.7811C55.7193 32.8325 56.1843 31.93 56.9898 31.4258C57.1052 31.3531 57.2582 31.3881 57.331 31.5044C57.4036 31.6203 57.3685 31.7731 57.2524 31.8456C56.6008 32.2537 56.2244 32.9839 56.2705 33.7513L56.446 36.6745C56.5143 37.8138 56.1209 38.8989 55.3384 39.7297C54.5559 40.5606 53.4962 41.0182 52.3548 41.0182Z"
        fill="#342A67" />
    <path
        d="M52.8566 25.1137L46.3406 18.598C45.9905 18.2478 46.2538 17.6335 46.7581 17.6246L47.8754 17.6046C48.2226 17.5985 48.4615 17.2347 48.3205 16.9227C47.1309 14.291 42.492 8.2149 36.28 8.87062C29.1876 9.61912 26.9416 17.2563 26.9416 17.2563C26.6185 10.8771 31.7728 3.90502 39.6851 4.20646C48.0504 4.52524 53.5435 12.4096 55.0727 16.3189C55.3452 17.0156 56.0214 17.4594 56.779 17.4458L58.2836 17.4189C59.1356 17.4037 59.5438 18.4263 58.9307 19.0394L52.8566 25.1137Z"
        fill="#FFD9D8" />
    <path
        d="M47.8754 17.6047L46.7581 17.6247C46.6007 17.6275 46.4666 17.6894 46.3676 17.7836L46.751 17.4003C46.8503 17.3052 46.9848 17.2428 47.143 17.2398L48.2603 17.2199C48.2916 17.2194 48.3218 17.2149 48.3512 17.2088C48.3065 17.4221 48.1175 17.6004 47.8754 17.6047ZM46.3671 17.7841L46.3646 17.7866L46.3647 17.7868C46.3656 17.7858 46.3662 17.785 46.3671 17.7841ZM58.9307 19.0394L59.3154 18.6546C59.9287 18.0413 59.5202 17.019 58.6682 17.0341L57.1637 17.0611C56.4062 17.0746 55.7299 16.6308 55.4573 15.9342C53.9281 12.0248 48.4351 4.14048 40.0697 3.8217C36.2868 3.67758 33.1348 5.1962 30.9101 7.51779C33.1074 5.41527 36.1153 4.07048 39.6849 4.20651C48.0503 4.52529 53.5433 12.4096 55.0725 16.319C55.3451 17.0157 56.0213 17.4594 56.7787 17.4459L58.2833 17.419C59.1356 17.4038 59.5439 18.4263 58.9307 19.0394ZM26.9416 17.2562L27.3263 16.8715L27.374 16.7228C27.5795 16.1079 28.4749 13.6884 30.4459 11.6198C27.8773 14.0768 26.9416 17.2562 26.9416 17.2562Z"
        fill="#FF7D57" />
    <path
        d="M14.1338 9.633L14.3417 5.70215L14.5853 9.63614C14.6307 10.3708 15.1058 10.9581 15.7 11.0144L18.8817 11.3157L15.7026 11.5728C15.109 11.6208 14.6393 12.2016 14.6004 12.9357L14.3925 16.8665L14.1488 12.9326C14.1033 12.1979 13.6282 11.6106 13.0342 11.5543L9.85266 11.253L13.0317 10.9959C13.6254 10.9477 14.095 10.367 14.1338 9.633Z"
        fill="#FFE06D" />
    <path
        d="M9.21462 43.4767L9.40711 39.8374L9.63261 43.4795C9.67471 44.1597 10.1145 44.7035 10.6646 44.7555L13.6102 45.0343L10.6669 45.2723C10.1173 45.3168 9.6823 45.8546 9.64648 46.5341L9.45399 50.1734L9.22849 46.5313C9.18639 45.8511 8.7466 45.3073 8.19654 45.2553L5.25092 44.9765L8.19422 44.7386C8.74379 44.6941 9.17879 44.1562 9.21462 43.4767Z"
        fill="#FFE06D" />
    <path
        d="M65.2236 16.1748L65.3341 14.085L65.4637 16.1764C65.4878 16.5669 65.7404 16.8792 66.0563 16.9091L67.7478 17.0692L66.0577 17.2059C65.742 17.2315 65.4922 17.5402 65.4716 17.9305L65.3612 20.0203L65.2316 17.9288C65.2075 17.5384 64.9547 17.226 64.6389 17.1962L62.9474 17.036L64.6376 16.8993C64.9532 16.8738 65.203 16.5649 65.2236 16.1748Z"
        fill="#FFE06D" />
    <path
        d="M31.2278 45.0942L31.3382 43.0044L31.4678 45.0959C31.4919 45.4865 31.7445 45.7986 32.0605 45.8287L33.7519 45.9888L32.0618 46.1255C31.7461 46.1511 31.4964 46.4598 31.4757 46.8501L31.3653 48.9399L31.2357 46.8484C31.2116 46.4578 30.959 46.1456 30.643 46.1156L28.9516 45.9555L30.6417 45.8188C30.9574 45.7932 31.2071 45.4845 31.2278 45.0942Z"
        fill="#FFE06D" />
    <path
        d="M34.9179 53.1971L34.9896 51.8438L35.0734 53.1983C35.0891 53.4512 35.2527 53.6534 35.4572 53.6727L36.5526 53.7764L35.4581 53.8649C35.2537 53.8814 35.0919 54.0815 35.0785 54.3341L35.0069 55.6874L34.923 54.3329C34.9073 54.08 34.7437 53.8778 34.5392 53.8583L33.4437 53.7546L34.5382 53.6661C34.7428 53.6498 34.9045 53.4497 34.9179 53.1971Z"
        fill="#FFE06D" />
    <path
        d="M12.1534 53.5062L12.2251 52.1528L12.309 53.5074C12.3246 53.7603 12.4882 53.9625 12.6928 53.982L13.7881 54.0857L12.6936 54.1741C12.4892 54.1906 12.3274 54.3907 12.3141 54.6433L12.2424 55.9967L12.1586 54.6422C12.1429 54.3892 11.9793 54.187 11.7747 54.1677L10.6792 54.064L11.7737 53.9755C11.9783 53.9589 12.1401 53.759 12.1534 53.5062Z"
        fill="#FFE06D" />
    <path
        d="M25.512 3.62827L25.5837 2.2749L25.6675 3.62943C25.6832 3.88234 25.8468 4.08457 26.0513 4.10405L27.1467 4.20772L26.0522 4.29621C25.8478 4.31272 25.686 4.5128 25.6726 4.76538L25.6012 6.11875L25.5173 4.76423C25.5016 4.51132 25.338 4.30909 25.1335 4.28977L24.038 4.1861L25.1325 4.09761C25.3369 4.08094 25.4986 3.88102 25.512 3.62827Z"
        fill="#FFE06D" />
    <path
        d="M23.0658 49.6126L23.3505 44.2263L23.6843 49.6169C23.7467 50.6234 24.3977 51.4283 25.2117 51.5054L29.5713 51.9181L25.2152 52.2704C24.4018 52.3361 23.758 53.1322 23.7048 54.1379L23.42 59.5241L23.0862 54.1336C23.0238 53.1271 22.3729 52.3221 21.5589 52.245L17.1993 51.8323L21.5554 51.48C22.3689 51.4143 23.0126 50.6183 23.0658 49.6126Z"
        fill="#FFE06D" />
    <path
        d="M58.7497 8.24975L58.908 5.25708L59.0934 8.25223C59.128 8.81153 59.4897 9.25875 59.9421 9.30151L62.3644 9.53081L59.9441 9.72644C59.4921 9.76292 59.1345 10.2052 59.1049 10.764L58.9466 13.7567L58.7611 10.7615C58.7264 10.2022 58.3647 9.755 57.9124 9.71224L55.4901 9.48294L57.9104 9.28731C58.3625 9.25083 58.7201 8.80856 58.7497 8.24975Z"
        fill="#FFE06D" />
    <defs>
        <linearGradient gradientUnits="userSpaceOnUse" id="paint0_linear_172_3017" x1="26.8954" x2="26.8954"
            y1="12.8444" y2="36.4492">
            <stop stop-color="#FFE06D" />
            <stop offset="1" stop-color="#FFBE3F" />
        </linearGradient>
        <linearGradient gradientUnits="userSpaceOnUse" id="paint1_linear_172_3017" x1="26.8953" x2="26.8953"
            y1="33.5206" y2="14.7169">
            <stop stop-color="#FFE06D" />
            <stop offset="1" stop-color="#FFBE3F" />
        </linearGradient>
        <linearGradient gradientUnits="userSpaceOnUse" id="paint2_linear_172_3017" x1="26.8954" x2="26.8954"
            y1="16.2087" y2="32.913">
            <stop stop-color="#FFE06D" />
            <stop offset="1" stop-color="#FFBE3F" />
        </linearGradient>
        <linearGradient gradientUnits="userSpaceOnUse" id="paint3_linear_172_3017" x1="21.4562" x2="21.4562"
            y1="17.3308" y2="40.9356">
            <stop stop-color="#FFE06D" />
            <stop offset="1" stop-color="#FFBE3F" />
        </linearGradient>
        <linearGradient gradientUnits="userSpaceOnUse" id="paint4_linear_172_3017" x1="21.4561" x2="21.4561"
            y1="38.007" y2="19.2032">
            <stop stop-color="#FFE06D" />
            <stop offset="1" stop-color="#FFBE3F" />
        </linearGradient>
        <linearGradient gradientUnits="userSpaceOnUse" id="paint5_linear_172_3017" x1="21.4561" x2="21.4561"
            y1="20.6951" y2="37.3994">
            <stop stop-color="#FFE06D" />
            <stop offset="1" stop-color="#FFBE3F" />
        </linearGradient>
        <linearGradient gradientUnits="userSpaceOnUse" id="paint6_linear_172_3017" x1="57.4617" x2="69.1511"
            y1="16.0609" y2="51.5788">
            <stop stop-color="#543BCF" />
            <stop offset="1" stop-color="#342A67" />
        </linearGradient>
        <linearGradient gradientUnits="userSpaceOnUse" id="paint7_linear_172_3017" x1="44.0806" x2="59.2217"
            y1="22.8795" y2="59.5315">
            <stop stop-color="#A87BFD" />
            <stop offset="1" stop-color="#543BCF" />
        </linearGradient>
        <linearGradient gradientUnits="userSpaceOnUse" id="paint8_linear_172_3017" x1="51.6526" x2="54.8929"
            y1="21.9159" y2="31.7613">
            <stop stop-color="#543BCF" />
            <stop offset="1" stop-color="#342A67" />
        </linearGradient>
        <linearGradient gradientUnits="userSpaceOnUse" id="paint9_linear_172_3017" x1="49.1014" x2="49.5026"
            y1="30.7106" y2="31.9294">
            <stop stop-color="#543BCF" />
            <stop offset="1" stop-color="#342A67" />
        </linearGradient>
        <linearGradient gradientUnits="userSpaceOnUse" id="paint10_linear_172_3017" x1="56.8166" x2="57.2177"
            y1="30.7106" y2="31.9294">
            <stop stop-color="#543BCF" />
            <stop offset="1" stop-color="#342A67" />
        </linearGradient>
    </defs>
</svg>
