<svg fill="none" height="24" viewBox="0 0 24 24" width="24" xmlns="http://www.w3.org/2000/svg">
    <path
        d="M20 7.99878H4C3.44772 7.99878 3 8.44649 3 8.99878V10.9988C3 11.5511 3.44772 11.9988 4 11.9988H20C20.5523 11.9988 21 11.5511 21 10.9988V8.99878C21 8.44649 20.5523 7.99878 20 7.99878Z"
        stroke="#52229E" stroke-linecap="round" stroke-linejoin="round" stroke-width="1.7" />
    <path d="M12 7.99878V20.9988" stroke="#52229E" stroke-linecap="round" stroke-linejoin="round"
        stroke-width="1.7" />
    <path
        d="M18.9999 12V19C18.9999 19.5304 18.7892 20.0391 18.4141 20.4142C18.039 20.7893 17.5303 21 16.9999 21H6.99991C6.46948 21 5.96077 20.7893 5.58569 20.4142C5.21062 20.0391 4.99991 19.5304 4.99991 19V12"
        stroke="#52229E" stroke-linecap="round" stroke-linejoin="round" stroke-width="1.7" />
    <path
        d="M7.50015 8.00044C6.83711 8.00044 6.20123 7.73705 5.73239 7.2682C5.26354 6.79936 5.00015 6.16348 5.00015 5.50044C5.00015 4.8374 5.26354 4.20151 5.73239 3.73267C6.20123 3.26383 6.83711 3.00044 7.50015 3.00044C8.46484 2.98363 9.41018 3.4517 10.2129 4.3436C11.0156 5.2355 11.6384 6.50984 12.0002 8.00044C12.3619 6.50984 12.9847 5.2355 13.7874 4.3436C14.5901 3.4517 15.5355 2.98363 16.5002 3.00044C17.1632 3.00044 17.7991 3.26383 18.2679 3.73267C18.7368 4.20151 19.0002 4.8374 19.0002 5.50044C19.0002 6.16348 18.7368 6.79936 18.2679 7.2682C17.7991 7.73705 17.1632 8.00044 16.5002 8.00044"
        stroke="#52229E" stroke-linecap="round" stroke-linejoin="round" stroke-width="1.7" />
</svg>
