<svg fill="none" height="204" viewBox="0 0 202 204" width="202" xmlns="http://www.w3.org/2000/svg">
    <path
        d="M104.016 3.67964C90.8392 5.69806 68.2452 9.14125 53.8024 11.3576C39.3596 13.5739 27.3306 15.5131 27.0536 15.7506C26.2227 16.4234 24.1255 21.4101 23.4528 24.2992C22.7802 27.1091 5.36971 88.2158 4.89488 89.4427C4.61789 90.1155 5.60712 90.1551 21.5535 90.1946C30.8918 90.2342 38.0934 90.3529 37.5395 90.4321C36.9855 90.5112 29.2695 91.1049 20.406 91.6986C11.5029 92.3318 4.14306 92.9254 4.06392 93.0442C3.90565 93.2025 0.38399 105.115 0.0674363 106.659C-0.13041 107.529 -0.0512713 107.569 2.5603 107.569C4.06392 107.569 10.6324 107.292 17.1613 106.975C28.0429 106.421 71.4898 105.748 70.5797 106.144C70.3819 106.263 64.3278 106.738 57.2054 107.213C46.4821 107.965 44.1475 108.242 43.9101 108.717C43.7123 109.073 43.3957 110.498 43.1583 111.922C42.1691 117.978 39.0035 136.302 38.0934 141.17C37.579 144.098 37.1438 146.75 37.1438 147.067C37.1438 147.581 38.3308 147.621 46.3634 147.423C51.3887 147.304 55.1873 147.344 54.7521 147.502C54.3168 147.7 50.2412 148.214 45.6511 148.729C41.1007 149.204 37.1438 149.837 36.9064 150.074C36.6689 150.312 36.0754 152.805 35.6006 155.655C34.9279 159.929 33.2264 169.744 27.8846 200.456C27.6076 202.039 27.4889 203.345 27.6076 203.305C27.845 203.305 31.5249 199.189 41.6547 187.791C43.7914 185.337 46.2051 182.646 46.9965 181.775C53.4067 174.691 63.6156 163.372 68.166 158.267C71.1733 154.863 75.0115 150.589 76.713 148.729C91.9471 131.909 94.9148 128.545 94.9148 128.386C94.9148 128.228 88.3859 128.109 80.3929 128.109L65.8314 128.07L72.9539 127.516C76.8712 127.239 84.9038 126.605 90.76 126.17C96.6558 125.735 109.001 124.824 118.261 124.152C140.934 122.529 143.268 122.331 141.369 122.252C139.351 122.212 107.023 123.281 102.75 123.558C101.048 123.677 99.6631 123.637 99.6631 123.479C99.6631 123.241 104.728 117.542 122.534 97.7934L128.944 90.63L131.239 90.3925C136.779 89.7989 165.308 88.0179 192.334 86.5536C197.28 86.2765 201.277 85.9995 201.198 85.9203C201.119 85.8412 192.532 86.0391 182.125 86.3557C145.919 87.5034 133.06 87.8596 132.387 87.7409C131.872 87.6221 132.901 86.2765 136.502 82.2397C139.153 79.311 142.2 75.8282 143.308 74.5618L145.366 72.2267L139.034 72.4642C135.552 72.6225 123.365 73.0974 111.93 73.5328C100.494 73.9681 89.8499 74.3639 88.3067 74.4431C86.724 74.5222 85.4182 74.4431 85.4182 74.2452C85.4182 74.0473 86.6844 71.7914 88.188 69.2585L90.9579 64.628L76.2381 64.4301C68.1264 64.3114 62.0724 64.1926 62.7846 64.1135C63.4969 64.0739 70.1445 63.599 77.6231 63.0449C85.0621 62.5304 94.44 61.8972 98.476 61.6597C106.469 61.2244 128.351 59.9183 139.034 59.2851C142.754 59.0872 150.589 58.6123 156.445 58.2957C180.424 56.9105 181.611 56.5939 160.204 57.3063C153.794 57.5042 139.826 57.9395 129.142 58.2957C118.498 58.6123 106.311 58.9685 102.156 59.1268C96.8933 59.2851 94.5191 59.2455 94.5191 58.9685C94.5191 58.5332 97.3681 53.5861 111.415 29.8004C118.894 17.0962 128.628 0.55307 128.826 0.196884C129.063 -0.198883 130.567 -0.396774 104.016 3.67964Z"
        fill="#FF9900" />
</svg>
