<svg fill="none" height="16" viewBox="0 0 16 16" width="16" xmlns="http://www.w3.org/2000/svg">
    <g clip-path="url(#clip0_921_13651)">
        <path
            d="M8.00007 10.6667C6.5294 10.6667 5.3334 9.47067 5.3334 8C5.3334 6.52933 6.5294 5.33333 8.00007 5.33333C9.47073 5.33333 10.6667 6.52933 10.6667 8C10.6667 9.47067 9.47073 10.6667 8.00007 10.6667ZM8.00007 6.66667C7.26473 6.66667 6.66673 7.26467 6.66673 8C6.66673 8.73533 7.26473 9.33333 8.00007 9.33333C8.7354 9.33333 9.3334 8.73533 9.3334 8C9.3334 7.26467 8.7354 6.66667 8.00007 6.66667ZM3.3334 4.66667C2.9654 4.66667 2.66673 4.96533 2.66673 5.33333C2.66673 5.70133 2.9654 6 3.3334 6C3.7014 6 4.00007 5.70133 4.00007 5.33333C4.00007 4.96533 3.7014 4.66667 3.3334 4.66667ZM12.0001 6.66667C12.0001 7.03467 12.2987 7.33333 12.6667 7.33333C13.0347 7.33333 13.3334 7.03467 13.3334 6.66667C13.3334 6.29867 13.0347 6 12.6667 6C12.2987 6 12.0001 6.29867 12.0001 6.66667ZM3.3334 8.66667C2.9654 8.66667 2.66673 8.96533 2.66673 9.33333C2.66673 9.70133 2.9654 10 3.3334 10C3.7014 10 4.00007 9.70133 4.00007 9.33333C4.00007 8.96533 3.7014 8.66667 3.3334 8.66667ZM12.0001 10.6667C12.0001 11.0347 12.2987 11.3333 12.6667 11.3333C13.0347 11.3333 13.3334 11.0347 13.3334 10.6667C13.3334 10.2987 13.0347 10 12.6667 10C12.2987 10 12.0001 10.2987 12.0001 10.6667ZM11.3327 14C10.2434 14 9.2674 13.734 8.32407 13.4767C7.4254 13.2313 6.5774 13 5.66673 13C4.6194 13 3.95873 13.0673 3.3874 13.2327C2.5834 13.464 1.73807 13.308 1.0674 12.8033C0.389399 12.2933 0.000732422 11.5147 0.000732422 10.6667V5.63467C0.000732422 4.25933 0.866732 3.00533 2.15607 2.514C3.05007 2.17267 3.8954 2 4.66807 2C5.7574 2 6.73273 2.266 7.67673 2.52333C8.5754 2.76867 9.4234 3 10.3341 3C11.3807 3 12.0421 2.93267 12.6134 2.76733C13.4187 2.536 14.2641 2.692 14.9341 3.19667C15.6121 3.70667 16.0007 4.48533 16.0007 5.33333V10.3653C16.0007 11.7407 15.1341 12.9947 13.8447 13.486C12.9507 13.8273 12.1061 14 11.3327 14ZM5.66673 11.6667C6.75607 11.6667 7.7314 11.9327 8.6754 12.19C9.57407 12.4353 10.4221 12.6667 11.3327 12.6667C11.9421 12.6667 12.6274 12.5233 13.3701 12.24C14.1587 11.94 14.6674 11.204 14.6674 10.3653V5.33333C14.6674 4.90867 14.4721 4.518 14.1321 4.26267C13.7994 4.01267 13.3814 3.934 12.9821 4.04867C12.2814 4.25067 11.5141 4.33333 10.3327 4.33333C9.2434 4.33333 8.26807 4.06733 7.32407 3.81C6.4254 3.56467 5.5774 3.33333 4.66673 3.33333C4.05673 3.33333 3.37207 3.47667 2.6294 3.76C1.84073 4.06 1.33207 4.796 1.33207 5.63467V10.6667C1.33207 11.0913 1.5274 11.482 1.8674 11.7373C2.20007 11.9873 2.61807 12.066 3.01673 11.9507C3.7174 11.7487 4.4854 11.666 5.66607 11.666L5.66673 11.6667Z"
            fill="#FF9900" />
    </g>
    <defs>
        <clipPath id="clip0_921_13651">
            <rect fill="white" height="16" width="16" />
        </clipPath>
    </defs>
</svg>
