<svg fill="none" height="13" viewBox="0 0 13 13" width="13" xmlns="http://www.w3.org/2000/svg">
    <path clip-rule="evenodd" d="M6.5 1.08333C3.50846 1.08333 1.08333 3.50846 1.08333 6.5C1.08333 9.49154 3.50846 11.9167 6.5 11.9167C9.49154 11.9167 11.9167 9.49154 11.9167 6.5C11.9167 3.50846 9.49154 1.08333 6.5 1.08333ZM0 6.5C0 2.91015 2.91015 0 6.5 0C10.0899 0 13 2.91015 13 6.5C13 10.0899 10.0899 13 6.5 13C2.91015 13 0 10.0899 0 6.5Z"
        fill="#FF9900"
        fill-rule="evenodd" />
    <path clip-rule="evenodd" d="M6.5 2.70833C6.79915 2.70833 7.04167 2.95085 7.04167 3.25V6.27563L8.77885 8.01282C8.99038 8.22435 8.99038 8.56732 8.77885 8.77885C8.56732 8.99038 8.22435 8.99038 8.01282 8.77885L6.11698 6.88302C6.0154 6.78143 5.95833 6.64366 5.95833 6.5V3.25C5.95833 2.95085 6.20085 2.70833 6.5 2.70833Z"
        fill="#FF9900"
        fill-rule="evenodd" />
</svg>
