<svg fill="none" height="53" viewBox="0 0 167 53" width="167" xmlns="http://www.w3.org/2000/svg">
    <path
        d="M71.8846 0.362223C59.4599 1.47037 47.9452 5.50722 37.5385 12.4332C32.4737 15.8368 26.0635 21.9316 23.2936 26.008C20.8008 29.6095 20.8008 29.6095 23.0958 29.6095C27.5671 29.6095 31.9197 30.9947 34.4521 33.1714C36.5097 34.992 37.4594 37.4062 37.4594 40.9285C37.4594 43.6197 37.3803 43.8572 36.5889 44.0551C36.0745 44.1342 30.7722 44.9653 24.7972 45.8756C18.8223 46.7859 13.797 47.617 13.6387 47.7753C13.4805 47.894 13.2826 49.0813 13.243 50.3874C13.1243 52.7224 13.1639 52.762 14.1136 52.6828C15.2611 52.5641 77.7408 43.1052 103.936 39.0684C113.828 37.5645 131.041 35.1503 142.12 33.7651C153.239 32.3403 162.735 31.1134 163.25 30.9551C164.516 30.6781 166.851 28.3035 166.851 27.3536C166.851 26.008 164.556 22.921 162.617 21.6546C160.005 19.9923 156.879 19.2008 153.397 19.2008C151.775 19.2404 143.901 20.0715 135.868 21.0609C127.875 22.0503 120.95 22.8815 120.436 22.8815C119.724 22.8419 119.249 22.2482 118.062 19.7549C112.72 8.71294 100.533 1.82657 83.7158 0.322646C78.6905 -0.112699 77.266 -0.112699 71.8846 0.362223Z"
        fill="#05B14D" />
    <path
        d="M12.3334 25.7294C11.5025 26.4418 10.1176 27.9853 9.28662 29.133C7.58514 31.4285 6.9916 31.3889 6.9916 28.9352C6.9916 27.5895 6.16065 26.8376 4.69659 26.8376C3.58865 26.8376 2.71813 28.0249 1.45192 31.2702C-0.68482 36.8901 -0.486974 40.452 2.20373 43.1037C4.41961 45.32 9.20748 46.4677 12.1356 45.5179C12.8874 45.2804 16.0925 44.6867 19.2581 44.2514C22.4236 43.7765 27.1719 43.0641 29.823 42.6288C32.5137 42.233 34.7692 41.8768 34.8879 41.8768C35.4023 41.8768 35.0066 38.5128 34.2944 37.1276C32.7116 34.001 29.1899 32.3783 23.6107 32.1013C21.5531 32.0222 19.4559 31.8638 19.0206 31.7847C17.7544 31.5077 17.5566 30.4787 18.4667 28.9352C19.1789 27.7479 19.1789 27.6291 18.5458 27.9853C18.1501 28.1832 17.0817 29.1726 16.1717 30.162C15.2616 31.1515 14.3119 31.9826 14.0745 31.9826C13.3227 31.9826 13.9954 29.6871 15.3407 27.7083C16.7256 25.6899 16.5674 24.74 14.7867 24.5421C14.1141 24.463 13.3227 24.8192 12.3334 25.7294Z"
        fill="#FF9900" />
</svg>
