<svg fill="none" height="24" viewBox="0 0 24 24" width="24" xmlns="http://www.w3.org/2000/svg">
    <path
        d="M3.72414 5.26554L0 1.60452L1.6092 0L5.33333 3.66102H22.8506C23.1724 3.66102 23.4444 3.77024 23.6667 3.9887C23.8889 4.20716 24 4.47458 24 4.79096C24 4.89642 23.9847 5.00188 23.954 5.10734L21.1954 14.1469C21.1341 14.3879 21 14.5838 20.7931 14.7345C20.5862 14.8851 20.3525 14.9605 20.092 14.9605H6.02299V17.2203H18.6667V19.4802H4.87356C4.55172 19.4802 4.27969 19.371 4.05747 19.1525C3.83525 18.9341 3.72414 18.6667 3.72414 18.3503V5.26554ZM6.02299 5.9209V12.7006H19.2414L21.3103 5.9209H6.02299ZM5.44828 24C4.97318 24 4.56705 23.8343 4.22989 23.5028C3.89272 23.1714 3.72414 22.7721 3.72414 22.3051C3.72414 21.838 3.89272 21.4388 4.22989 21.1073C4.56705 20.7759 4.97318 20.6102 5.44828 20.6102C5.92337 20.6102 6.3295 20.7759 6.66667 21.1073C7.00383 21.4388 7.17241 21.838 7.17241 22.3051C7.17241 22.7721 7.00383 23.1714 6.66667 23.5028C6.3295 23.8343 5.92337 24 5.44828 24ZM19.2414 24C18.7663 24 18.3602 23.8343 18.023 23.5028C17.6858 23.1714 17.5172 22.7721 17.5172 22.3051C17.5172 21.838 17.6858 21.4388 18.023 21.1073C18.3602 20.7759 18.7663 20.6102 19.2414 20.6102C19.7165 20.6102 20.1226 20.7759 20.4598 21.1073C20.7969 21.4388 20.9655 21.838 20.9655 22.3051C20.9655 22.7721 20.7969 23.1714 20.4598 23.5028C20.1226 23.8343 19.7165 24 19.2414 24Z"
        fill="#52229E" />
</svg>
