<svg width="25" height="26" viewBox="0 0 25 26" fill="none" xmlns="http://www.w3.org/2000/svg">
<path d="M4.22414 6.14944L0.5 2.4253L2.1092 0.793116L5.83333 4.51725H23.3506C23.6724 4.51725 23.9444 4.62836 24.1667 4.85059C24.3889 5.07281 24.5 5.34484 24.5 5.66668C24.5 5.77396 24.4847 5.88124 24.454 5.98852L21.6954 15.1839C21.6341 15.4291 21.5 15.6284 21.2931 15.7816C21.0862 15.9349 20.8525 16.0115 20.592 16.0115H6.52299V18.3104H19.1667V20.6092H5.37356C5.05172 20.6092 4.77969 20.4981 4.55747 20.2759C4.33525 20.0537 4.22414 19.7816 4.22414 19.4598V6.14944ZM6.52299 6.8161V13.7127H19.7414L21.8103 6.8161H6.52299ZM5.94828 25.2069C5.47318 25.2069 5.06705 25.0383 4.72989 24.7012C4.39272 24.364 4.22414 23.9579 4.22414 23.4828C4.22414 23.0077 4.39272 22.6015 4.72989 22.2644C5.06705 21.9272 5.47318 21.7586 5.94828 21.7586C6.42337 21.7586 6.8295 21.9272 7.16667 22.2644C7.50383 22.6015 7.67241 23.0077 7.67241 23.4828C7.67241 23.9579 7.50383 24.364 7.16667 24.7012C6.8295 25.0383 6.42337 25.2069 5.94828 25.2069ZM19.7414 25.2069C19.2663 25.2069 18.8602 25.0383 18.523 24.7012C18.1858 24.364 18.0172 23.9579 18.0172 23.4828C18.0172 23.0077 18.1858 22.6015 18.523 22.2644C18.8602 21.9272 19.2663 21.7586 19.7414 21.7586C20.2165 21.7586 20.6226 21.9272 20.9598 22.2644C21.2969 22.6015 21.4655 23.0077 21.4655 23.4828C21.4655 23.9579 21.2969 24.364 20.9598 24.7012C20.6226 25.0383 20.2165 25.2069 19.7414 25.2069Z" fill="#FF9900"/>
</svg>
