<svg width="220" height="196" viewBox="0 0 220 196" fill="none" xmlns="http://www.w3.org/2000/svg">
<path d="M46.8636 0.507538C40.6039 1.69152 35.5622 4.93901 32.7538 9.6411L31.7049 11.4002L29.7085 10.7913C28.2874 10.3515 26.6632 10.1485 24.2608 10.1485H20.8095L19.3884 12.1105C15.125 17.8613 11.5044 27.8744 9.98181 38.0566C9.13589 43.5029 9.13589 55.884 9.91413 62.0407C10.5232 66.4721 10.5232 66.7766 9.94797 67.081C6.80117 68.8401 3.14682 74.4217 1.01512 80.7814C-0.169156 84.2995 -0.202993 84.2995 4.09425 83.217C10.0156 81.6947 15.4633 79.2253 21.0125 75.4704C26.1218 72.0537 27.6783 70.5315 27.8813 68.7724C28.1182 66.9795 27.6783 66.6751 27.0016 68.1635C26.7309 68.8063 26.6294 69.2798 26.8324 69.246C27.0016 69.2122 27.2384 69.3813 27.34 69.652C27.4415 69.9564 27.34 70.0241 27.0693 69.8549C26.7647 69.652 26.6971 69.7196 26.9001 70.0241C27.0693 70.2947 27.0016 70.3962 26.6971 70.2947C26.1218 70.0917 26.0203 67.4531 26.5955 67.5546C26.8324 67.5884 27.2384 67.1487 27.5091 66.5398C28.1182 65.3558 27.9152 64.7807 27.2723 65.7279C27.0354 66.0324 26.7309 66.303 26.5955 66.303C26.4602 66.303 25.0052 67.5208 23.3134 69.0092C18.4071 73.3392 11.8428 77.5 6.7335 79.5297L5.00783 80.2063L5.24469 78.9208C6.15828 74.0158 12.215 68.0282 16.9521 67.4193C18.1026 67.2502 18.2379 67.1487 17.7304 66.8781C17.392 66.6751 16.2416 66.5398 15.1926 66.5398L13.264 66.5736L13.0271 62.7172C12.6549 56.8311 13.0271 43.0293 13.7038 38.9023C14.4821 33.8619 15.8017 28.5171 17.3243 24.018C18.8131 19.7218 21.8246 13.5651 22.569 13.2945C23.2457 13.0239 26.4602 13.7681 28.9641 14.783L31.0281 15.5948L30.4191 17.3539C30.0807 18.3349 29.7423 19.9586 29.6408 20.9735C29.4378 22.834 29.4378 22.834 29.9115 21.65C31.4003 17.7936 34.5133 12.9901 37.4571 9.94555C39.3181 8.01736 42.9386 6.08916 46.1869 5.24346C47.3035 4.97283 49.6382 4.73604 51.4992 4.73604H54.7814L58.2665 8.18649C72.7486 22.5972 81.3431 43.875 82.7642 68.8739L83.0011 73.0009L84.7267 71.6816C88.8209 68.5695 95.3514 65.7279 101.916 64.138L102.829 63.935L102.322 65.1528C102.051 65.8294 101.848 66.4383 101.916 66.506C101.983 66.5736 103.032 65.7617 104.217 64.7131C107.6 61.77 111.999 59.9095 118.191 58.7593C121.304 58.1843 121.406 58.2519 120.83 60.9243C119.883 65.2543 116.093 69.8888 110.409 73.576C106.416 76.2146 106.348 76.2822 109.292 75.2336C116.127 72.798 121.338 68.7048 123.131 64.3071C123.571 63.3261 123.706 63.2585 125.331 63.2585C128.139 63.2585 128.579 63.4953 128.241 64.6454C127.225 68.1974 123.097 71.4787 116.736 73.779C114.774 74.4894 114.638 74.5908 115.586 74.6923C118.834 74.9968 125.331 72.5273 128.071 69.9226L129.695 68.3665L131.083 69.0769C131.827 69.449 133.451 70.43 134.636 71.2757C135.82 72.0876 136.801 72.7303 136.869 72.6626C136.903 72.595 137.106 70.1255 137.343 67.1149C139.102 42.6234 147.629 22.056 161.806 8.05119C164.682 5.24346 165.292 4.76987 166.408 4.66838L167.66 4.5669L167.829 2.6387C168.032 0.406059 167.965 0.00012207 167.288 0.00012207C166.95 0.00012207 166.814 0.439888 166.814 1.48856C166.814 2.43574 166.611 3.1123 166.273 3.41675C165.833 3.78886 165.765 3.78886 165.799 3.34909C165.833 3.1123 165.867 2.30042 165.833 1.59003C165.765 -0.473473 165.122 0.169258 165.122 2.30042C165.122 3.85651 165.021 4.29627 164.615 4.29627C164.243 4.29627 164.107 3.89034 164.107 2.6387C164.107 1.01496 163.532 0.406059 163.194 1.69152C163.092 2.06363 162.855 2.26659 162.618 2.13129C162.415 2.0298 162.415 2.13129 162.686 2.40191C163.261 3.01081 163.194 4.29627 162.585 4.29627C162.246 4.29627 162.077 3.92417 162.077 3.14613C162.077 2.53722 161.942 2.0298 161.739 2.0298C161.57 2.0298 161.4 2.46957 161.4 3.01081C161.4 3.58589 161.265 4.12714 161.062 4.22862C160.859 4.3301 160.724 4.19479 160.724 3.92417C160.724 3.04464 159.979 2.90932 159.336 3.65354C159.032 4.05948 158.558 4.39776 158.287 4.39776C157.577 4.39776 152.434 8.93071 150.37 11.434C142.993 20.2293 138.053 32.2044 135.718 47.021C134.365 55.3765 133.857 65.3896 134.771 65.7279C135.075 65.8632 135.075 65.9647 134.737 66.3368C134.433 66.6751 134.23 66.7089 134.06 66.4383C133.925 66.2353 133.316 65.7956 132.707 65.4911C131.624 64.9499 131.59 64.8146 131.793 63.6644C131.895 62.9878 132.064 62.176 132.166 61.8715C132.369 61.0935 131.421 60.8905 127.699 60.8905H124.62L124.789 57.8798C124.857 56.2561 124.823 54.8015 124.654 54.7C124.248 54.4632 119.748 55.2751 116.465 56.1546C115.044 56.5605 112.337 57.6092 110.476 58.4887C107.6 59.8418 106.484 60.1801 103.134 60.6875C98.4644 61.3641 93.6596 62.7172 89.2947 64.6116C87.569 65.3558 86.0802 65.9647 85.9448 65.9647C85.8095 65.9647 85.6065 63.3261 85.505 60.1125C84.7267 39.2406 78.5008 21.0411 68.3498 10.0809C65.8798 7.40845 60.9058 3.38292 60.0599 3.38292C59.7892 3.38292 59.4508 3.1123 59.2478 2.77402C58.9771 2.30042 58.8418 2.26659 58.4696 2.67253C58.165 3.01081 58.1312 3.07847 58.4696 2.90932C58.6726 2.77402 58.8756 2.84167 58.8756 3.04464C58.8756 3.28143 58.6726 3.38292 58.4696 3.28143C58.2327 3.21378 58.0635 2.8755 58.0635 2.57104C58.0974 2.19894 57.4545 1.65769 56.1348 1.01496C54.443 0.135429 53.8001 0.00012207 51.7023 0.0339508C50.3488 0.0339508 48.1833 0.270744 46.8636 0.507538ZM160.284 4.12714C160.182 4.39776 160.081 4.29627 160.081 3.92417C160.047 3.55206 160.148 3.34909 160.25 3.48441C160.351 3.58589 160.385 3.89034 160.284 4.12714ZM167.491 3.7212C167.491 3.89034 167.423 4.05948 167.356 4.05948C167.254 4.05948 167.085 3.89034 166.983 3.7212C166.882 3.51823 166.95 3.38292 167.119 3.38292C167.322 3.38292 167.491 3.51823 167.491 3.7212ZM85.1666 67.6223C85.2004 68.6033 85.0989 69.3137 84.9974 69.1784C84.8621 69.043 84.7267 68.5018 84.7267 67.9606C84.659 66.303 84.6252 66.2353 83.9146 66.4721C83.4409 66.6413 83.3056 66.5736 83.4071 66.2015C83.5086 65.9647 83.9485 65.7617 84.3545 65.7956C84.9974 65.8294 85.0989 66.0662 85.1666 67.6223ZM135.955 67.6561C135.989 68.7048 135.854 69.2798 135.651 69.1445C135.482 69.043 135.346 68.2312 135.414 67.3178C135.549 65.2205 135.955 65.4573 135.955 67.6561ZM84.1177 68.3327C84.0838 69.4152 83.6778 69.6858 83.3733 68.8401C83.2379 68.5695 83.3394 68.0959 83.5763 67.8252C84.1515 67.1487 84.1515 67.1487 84.1177 68.3327ZM135.008 69.0092C135.008 69.1784 134.839 69.3475 134.636 69.3475C134.466 69.3475 134.399 69.1784 134.5 69.0092C134.602 68.8063 134.771 68.6709 134.872 68.6709C134.94 68.6709 135.008 68.8063 135.008 69.0092Z" fill="#FF9900"/>
<path d="M168.912 2.23273L169.014 4.56686L171.145 4.80365C175.578 5.27724 180.383 7.54372 182.819 10.25C185.729 13.4636 188.639 18.0981 190.026 21.65C190.5 22.834 190.5 22.834 190.297 20.9734C190.195 19.9586 189.857 18.3348 189.518 17.3538L188.909 15.5948L190.973 14.7829C193.477 13.7681 196.692 13.0239 197.369 13.2945C198.113 13.5651 201.124 19.7218 202.613 24.018C206.166 34.4031 207.689 46.4797 207.046 59.1991C206.91 62.0744 206.775 64.916 206.775 65.4911L206.741 66.5736L204.779 66.5397C203.696 66.5397 202.546 66.675 202.207 66.878C201.7 67.1486 201.835 67.2501 202.985 67.4193C206.843 67.9267 211.614 71.8507 213.712 76.2145C214.355 77.5338 214.862 78.9884 214.862 79.3944V80.1724L213.17 79.4959C208.399 77.6353 202.749 74.1172 197.707 69.9225C195.981 68.5018 194.526 67.3178 194.492 67.3178C194.154 67.3178 194.526 72.1214 194.899 72.5611C195.778 73.6436 202.884 78.1089 206.065 79.6312C210.903 81.9315 219.159 84.4686 219.768 83.8258C220.107 83.5214 217.907 77.7706 216.283 74.6246C214.761 71.7492 211.58 67.8929 210.023 67.081C209.414 66.7765 209.414 66.5736 209.922 62.6495C210.7 56.5605 211.005 48.205 210.497 47.224C210.159 46.6489 210.159 46.2429 210.429 45.7693C210.599 45.3972 210.666 44.9913 210.565 44.856C210.429 44.7207 210.362 44.0441 210.429 43.3337C210.565 41.3379 209.55 34.6061 208.467 30.3438C206.674 23.2737 203.594 16.2713 200.414 11.9075L199.128 10.1485H195.677C193.274 10.1485 191.65 10.3514 190.229 10.7912L188.233 11.4001L187.15 9.5734C184.071 4.46537 178.014 0.947266 170.841 0.135391L168.811 -0.101402L168.912 2.23273Z" fill="#FF9900"/>
<g filter="url(#filter0_d_89_473)">
<path d="M50.7887 15.9331C48.657 23.7135 46.2207 30.4114 39.4196 46.9871C37.1864 52.3996 34.5133 56.7296 30.3176 61.77C28.4904 63.935 28.1859 64.4762 28.5242 64.916C28.8288 65.2881 28.8288 65.4234 28.5242 65.5249C28.2874 65.6264 28.0844 65.9985 28.0844 66.4044C28.1182 67.1486 28.1182 67.1486 28.5242 66.472C28.8964 65.8631 28.9641 65.9646 29.0994 67.3178L29.2686 68.84L29.8777 67.6899C30.4867 66.4382 30.6559 65.7955 30.1145 66.6412C29.8777 67.0133 29.7762 66.5735 29.7762 65.2204C29.7762 63.6305 29.8777 63.326 30.2837 63.4613C30.6559 63.5966 30.7913 64.1718 30.7913 65.3557C30.7913 66.4044 30.9266 66.9456 31.1296 66.8103C31.3327 66.675 31.4003 66.4382 31.2988 66.2691C31.1635 66.0999 31.265 65.9646 31.4342 65.9646C31.6372 65.9646 31.8064 65.6602 31.8064 65.2881C31.8064 64.8483 32.0432 64.6115 32.4831 64.6115C33.8704 64.6115 39.7241 55.4103 42.4987 48.8815L44.1229 45.0928L45.0703 48.002C47.8111 56.1207 55.3228 66.2691 66.252 76.6205L69.3649 79.5635L68.316 80.9843C63.6127 87.2086 58.0297 97.357 55.3228 104.698C52.8865 111.193 50.8902 118.905 50.2134 124.419L49.9766 126.212L47.9126 127.261C44.7319 128.851 44.1229 129.324 44.7996 129.561C45.2733 129.697 45.0703 130.069 43.7845 131.591C42.2619 133.35 39.9271 136.733 39.9271 137.173C39.9271 137.274 40.2655 137.206 40.6377 136.97C41.3483 136.598 41.3821 136.631 41.1453 137.714C40.2655 141.942 40.7731 146.475 42.5326 150.67C44.6304 155.778 49.469 161.326 54.7475 164.81C57.8605 166.84 65.9474 170.831 71.3951 172.963C74.8803 174.35 77.9594 175.297 85.4373 177.293C88.5164 178.104 96.5695 179.255 100.833 179.593C102.762 179.762 81.14 179.897 51.7023 179.931L94.2347 179.829V187.44L110.984 189.944C110.984 189.944 39.4196 176.92 123.097 184.363C206.775 191.805 106.923 183.212 106.923 183.212L111.491 184.633C82.0198 184.599 98.9042 179.762 100.833 179.593C105.096 179.255 131.421 178.104 134.5 177.293C145.362 174.417 149.016 173.064 157.509 168.971C163.735 165.96 166.983 163.829 170.367 160.649C177.303 154.053 180.383 145.63 178.792 137.714C178.555 136.631 178.589 136.598 179.3 136.97C179.672 137.206 180.01 137.274 180.01 137.173C180.01 136.733 177.676 133.35 176.153 131.591C174.867 130.069 174.664 129.697 175.138 129.561C175.815 129.324 175.206 128.851 172.025 127.261L169.961 126.212L169.724 124.419C167.931 110.178 160.893 93.2638 151.622 80.9843L150.573 79.5635L153.516 76.8234C164.581 66.5735 173.345 54.3616 175.409 46.412L175.781 44.9913L177.405 48.8477C179.909 54.7676 186.135 64.6792 187.387 64.8145C187.624 64.8483 187.827 64.8821 187.894 64.916C188.199 65.1866 189.485 65.2204 189.485 64.9836C189.485 64.8145 189.755 64.713 190.094 64.7468C190.534 64.8145 190.703 65.2542 190.77 66.8442C190.94 69.821 191.447 69.821 191.582 66.8103L191.684 64.2056L190.195 62.4465C186.812 58.5225 182.582 52.0952 181.398 49.1521C181.059 48.2388 179.469 44.3147 177.879 40.4245C173.243 29.0583 171.281 23.5782 169.521 17.117C168.607 13.8019 167.795 10.9941 167.694 10.9265C167.525 10.7573 167.254 12.0767 166.983 14.5461C166.814 16.2375 166.543 16.7111 164.581 19.1129C158.457 26.5889 151.757 37.9212 147.426 48.0696C144.245 55.5118 140.929 66.6074 139.745 73.6436L139.339 76.113H138.188C137.546 76.113 137.038 76.2484 137.038 76.4513C137.038 76.9249 138.527 77.2294 139.914 77.0602C141.132 76.9249 141.606 77.5338 140.557 77.9397C139.576 78.3118 140.489 78.8869 141.809 78.7178C142.553 78.6163 143.129 78.6163 143.129 78.7178C143.129 79.2252 142.317 80.2401 141.504 80.646L140.591 81.1534L141.707 81.1872C143.027 81.1872 144.482 79.9356 144.482 78.7854C144.482 78.3457 145.362 77.1279 146.715 75.7071C152.806 69.2121 160.419 57.3723 168.201 42.1497C170.164 38.2934 171.89 35.2488 171.991 35.418C172.093 35.5871 172.499 36.6019 172.905 37.6168L173.615 39.5111L172.533 42.3527C170.875 46.7165 166.78 54.9367 164.141 59.1652C159.641 66.3367 152.197 75.4703 147.392 79.6988L145.463 81.3902L148.001 85.1789C149.388 87.2763 151.588 91.065 152.873 93.6359C157.78 103.345 160.385 111.396 162.246 122.83L162.382 123.743H158.592C152.873 123.743 147.02 125.367 142.384 128.208C141.504 128.783 140.76 129.155 140.76 129.054C140.76 128.986 141.369 127.971 142.08 126.787C143.602 124.352 145.294 119.684 145.836 116.199C146.411 112.783 146.343 106.186 145.7 103.006C144.922 99.2852 142.858 95.192 140.591 92.8579C134.872 86.9718 126.481 87.6822 120.187 94.5493C113.217 102.194 110.003 115.556 113.014 124.318C113.386 125.4 113.826 126.449 113.995 126.652C114.232 126.957 113.183 127.058 109.969 127.058C106.754 127.058 105.705 126.957 105.942 126.652C106.585 125.84 107.634 122.187 107.939 119.582C108.954 110.99 104.826 99.2175 98.7689 93.5006C95.3852 90.3546 92.1031 88.9338 88.0427 88.9338C83.1026 88.9338 78.7715 92.046 76.1661 97.5261C74.3727 101.247 73.7298 104.562 73.7637 110.076C73.7637 116.91 75.2187 122.694 78.0609 127.126C78.67 128.107 79.1775 128.986 79.1775 129.054C79.1775 129.155 78.4331 128.783 77.5534 128.208C72.9178 125.367 67.064 123.743 61.3457 123.743H57.556L57.6913 122.83C59.5523 111.396 62.1577 103.345 67.064 93.6359C68.3498 91.065 70.5154 87.3101 71.9027 85.2466L74.4066 81.4917L70.583 77.7029C64.5263 71.6477 59.7215 65.5587 55.2889 58.3195C52.7512 54.1248 48.9953 46.5135 47.405 42.3527L46.3222 39.5111L47.0328 37.6168C47.4388 36.6019 47.8449 35.5871 47.9464 35.418C48.0479 35.2488 49.7736 38.2934 51.7361 42.1497C59.3832 57.1017 67.1994 69.2798 73.1885 75.6394C74.5081 77.0602 75.4555 78.3795 75.5909 79.0561C75.8954 80.4092 76.4368 80.8489 78.0609 81.0519L79.3467 81.2211L78.4331 80.6798C77.621 80.2062 76.809 79.2252 76.809 78.684C76.809 78.5487 77.3842 78.5825 78.1286 78.684C79.4482 78.8869 80.3956 78.3457 79.3805 77.9397C78.3316 77.5338 78.8053 76.9249 80.0234 77.0602C81.4107 77.2294 82.8995 76.9249 82.8995 76.4513C82.8995 76.2484 82.392 76.113 81.7491 76.113H80.5987L80.1926 73.6436C79.6174 70.227 77.7226 62.7171 76.4706 58.6916C72.0719 44.856 64.4586 30.6144 55.4581 19.282C53.3264 16.5758 53.1572 16.2375 52.9204 14.2078C52.4805 10.2161 52.3113 10.3853 50.7887 15.9331ZM54.646 35.5871C57.0484 40.6613 58.5711 43.469 58.9771 43.5705C59.2816 43.6382 59.5523 43.875 59.5523 44.0441C59.5523 44.2132 59.417 44.2471 59.214 44.1456C59.0448 44.0441 58.8756 44.1118 58.8756 44.2809C58.8756 44.4839 59.1125 44.653 59.417 44.653C59.6877 44.653 59.8569 44.7883 59.7215 44.9574C59.4508 45.431 60.6689 48.002 64.9662 56.1883C68.9589 63.7658 73.6283 71.8845 75.8615 75.1997C76.606 76.2822 77.1135 77.2632 77.0458 77.3647C76.6059 77.7706 68.5528 65.8632 63.2743 57.0002C59.9922 51.5201 53.5633 39.0037 51.2962 33.7942C49.8751 30.5129 49.8074 30.1408 50.1458 28.9906C50.3488 28.3141 50.6195 27.739 50.721 27.739C50.8225 27.7728 52.6158 31.2909 54.646 35.5871ZM169.792 28.9906C170.13 30.1408 170.062 30.5129 168.641 33.7942C165.968 39.9509 160.216 51.0465 156.189 57.7444C150.64 67.0133 143.332 77.8044 142.892 77.3647C142.824 77.2632 143.467 76.0792 144.414 74.6923C148.306 68.9077 159.302 48.577 159.438 46.8856C159.472 46.3782 159.776 45.7355 160.115 45.431C160.96 44.6868 160.893 44.2471 159.979 44.45C159.539 44.5515 159.404 44.5515 159.641 44.45C159.844 44.3485 159.945 44.1118 159.844 43.9088C159.708 43.7058 159.878 43.6382 160.351 43.8073C161.265 44.0779 161.4 43.8411 165.63 34.9105C167.491 30.9865 169.115 27.7728 169.217 27.739C169.318 27.739 169.589 28.3141 169.792 28.9906ZM93.5581 94.211C96.8064 95.7333 99.987 99.1837 102.119 103.514C106.044 111.531 106.653 119.684 103.743 125.468C103.269 126.348 102.423 127.498 101.848 127.971L100.833 128.851L98.7012 127.904C97.5508 127.396 96.3327 126.855 95.9943 126.754C95.4529 126.551 95.4867 126.415 96.4003 125.265C100.156 120.563 99.1749 111.734 94.404 107.472C90.9526 104.359 87.1291 104.731 84.7267 108.419C84.1515 109.298 84.3207 110.482 84.9636 110.076C85.2343 109.907 85.3019 110.11 85.2004 110.719C85.0312 111.599 85.0651 111.632 86.3509 111.429C87.4336 111.226 87.8058 111.328 88.4826 111.971C90.1067 113.493 89.1255 116.03 86.9938 116.03C85.4373 116.03 84.5914 114.711 84.5914 112.275C84.5914 111.125 84.456 110.279 84.253 110.279C83.6439 110.279 83.4748 111.226 83.8808 112.343C84.1853 113.222 84.1515 113.358 83.7455 113.189C83.001 112.918 82.798 114.203 83.2041 116.774C83.7793 120.326 85.1666 123.506 86.7569 124.792C87.4336 125.367 87.1629 125.84 86.0802 125.84C85.6065 125.84 84.2192 126.246 83.0349 126.72C81.3769 127.396 80.734 127.498 80.3956 127.193C79.5836 126.551 77.5195 121.984 76.7751 119.21C75.76 115.59 75.6585 107.472 76.5721 104.19C77.8917 99.2852 80.4295 95.8348 84.0162 94.0419C85.9448 93.0609 86.317 92.9932 88.8209 93.0947C90.885 93.23 92.0016 93.4668 93.5581 94.211ZM135.549 93.8389C139.068 95.4626 141.538 98.541 143.061 103.108C143.839 105.476 143.941 106.22 143.941 111.125C143.941 115.658 143.805 116.977 143.196 119.244C142.35 122.221 140.895 125.57 139.846 126.821L139.204 127.633L136.97 126.72C135.718 126.246 134.365 125.84 133.891 125.84C132.605 125.84 132.572 125.502 133.824 124.047C136.463 120.969 137.715 114.542 136.327 111.125C136.091 110.516 136.057 110.516 135.989 111.294C135.989 111.768 135.989 112.444 136.023 112.816C136.057 113.189 135.955 113.358 135.786 113.222C135.515 112.952 135.482 112.783 135.38 111.903C135.346 111.599 135.245 111.599 134.94 111.903C134.703 112.14 134.399 112.309 134.23 112.309C134.06 112.309 134.162 112.072 134.466 111.802C134.737 111.531 135.075 111.294 135.245 111.294C135.414 111.294 135.549 110.99 135.549 110.651C135.549 110.144 135.414 110.076 134.974 110.313C134.094 110.753 133.857 110.685 134.331 110.11C134.568 109.84 134.974 109.603 135.211 109.603C135.888 109.603 135.786 109.163 134.94 108.047C132.301 104.664 128.917 104.427 125.601 107.404C121.507 111.091 120.052 118.161 122.319 123.066C122.759 124.047 123.503 125.197 123.943 125.603L124.722 126.415L121.879 127.599L119.037 128.817L117.954 127.836C116.635 126.686 115.18 123.608 114.672 120.867C113.082 112.444 117.887 99.8264 124.417 95.3611C127.902 92.9594 132.335 92.3505 135.549 93.8389ZM127.158 111.835C127.699 112.208 127.902 112.681 127.902 113.662C127.902 114.643 127.699 115.117 127.158 115.489C125.5 116.673 123.402 115.624 123.402 113.662C123.402 111.7 125.5 110.651 127.158 111.835ZM135.008 112.85C135.008 113.121 134.365 113.29 134.196 113.053C134.094 112.884 134.23 112.749 134.5 112.749C134.771 112.749 135.008 112.816 135.008 112.85ZM71.7335 128.005C73.3238 128.445 75.3202 129.155 76.2337 129.527L77.8579 130.238L76.9781 131.591C76.5044 132.335 76.1322 133.079 76.1322 133.282C76.1322 133.79 75.9631 133.756 69.8725 132.234C65.3384 131.084 64.1879 130.914 63.7819 131.253C63.1728 131.76 63.1052 132.741 63.7142 133.181C63.9172 133.384 66.5565 133.959 69.5341 134.466C72.5117 135.008 74.9818 135.447 75.0495 135.515C75.1171 135.549 75.0495 136.53 74.9141 137.646L74.6773 139.744L68.9251 139.676C63.1052 139.642 62.6315 139.744 62.5976 140.927C62.5976 142.044 63.5789 142.179 69.5341 141.976C74.1697 141.773 75.4555 141.841 75.4555 142.145C75.4555 142.382 75.8277 143.295 76.2676 144.175L77.0458 145.765L76.1661 145.968C75.6924 146.069 72.8163 146.577 69.771 147.118C66.7257 147.693 64.0188 148.302 63.7481 148.539C62.936 149.215 63.3082 150.366 64.3571 150.467C64.8308 150.535 68.1468 149.858 71.7335 149.012L78.1963 147.422L79.8881 149.114C82.189 151.448 85.2681 153.376 88.6856 154.662C91.4263 155.71 91.7309 155.778 96.5018 155.778H101.476L103.404 160.243L105.333 164.742H109.969H114.604L116.533 160.243L118.462 155.778H123.436C128.207 155.778 128.511 155.71 131.32 154.662C134.737 153.342 137.41 151.685 139.914 149.215L141.741 147.422L148.238 149.012C151.825 149.858 155.141 150.535 155.614 150.467C156.629 150.366 157.002 149.182 156.223 148.573C155.953 148.336 153.618 147.795 151.046 147.321C148.475 146.847 145.565 146.306 144.617 146.103L142.892 145.765L143.704 144.209C144.11 143.329 144.482 142.45 144.482 142.179C144.482 141.807 145.565 141.773 150.403 141.976C156.359 142.179 157.34 142.044 157.34 140.927C157.306 139.71 156.832 139.608 150.945 139.676C145.463 139.744 145.159 139.71 145.159 139.101C145.159 138.729 145.057 137.781 144.956 136.936L144.753 135.447L147.663 134.974C149.253 134.737 150.742 134.331 150.945 134.06C151.182 133.824 151.655 133.722 152.129 133.824C152.603 133.959 152.941 133.891 152.941 133.654C152.941 133.452 152.704 133.384 152.434 133.485C152.163 133.621 151.926 133.519 151.926 133.316C151.926 133.113 152.061 132.944 152.197 132.944C152.366 132.944 152.772 132.707 153.144 132.403C153.483 132.132 153.618 131.963 153.381 132.065C153.178 132.2 152.941 132.065 152.84 131.862C152.704 131.523 152.603 131.489 152.231 131.828C151.994 132.065 151.317 132.268 150.776 132.268C150.2 132.268 148.576 132.572 147.189 132.944C144.279 133.722 143.805 133.756 143.805 133.282C143.805 133.079 143.433 132.335 142.959 131.591L142.08 130.238L143.704 129.527C146.58 128.31 150.911 127.193 153.753 126.99C158.49 126.618 162.585 127.667 166.273 130.204C167.829 131.287 168.371 131.489 167.998 130.914C167.897 130.745 167.998 130.576 168.235 130.576C168.506 130.576 168.743 130.982 168.777 131.489C168.811 131.963 169.521 133.384 170.367 134.635C172.093 137.105 173.243 140.352 173.243 142.585C173.243 148.674 167.626 155.744 158.084 161.664C148.407 167.652 135.515 172.489 125.026 174.045C115.349 175.466 104.656 175.466 94.9115 174.045C79.8543 171.812 61.6164 163.457 52.9204 154.729C49.063 150.907 46.6944 146.238 46.6944 142.585C46.6944 137.477 50.9917 131.287 56.4732 128.546C60.2291 126.652 66.3873 126.449 71.7335 128.005ZM96.1973 129.223C98.0583 129.798 98.4305 130.035 98.126 130.407C97.2462 131.456 98.9381 134.805 101.577 137.173C102.525 138.018 104.521 139.304 105.942 139.98C108.514 141.198 108.548 141.232 108.751 142.653C108.988 144.513 108.48 147.253 107.6 148.674C103.844 154.729 94.5055 155.879 86.6216 151.279C85.0651 150.399 81.5461 147.253 81.5461 146.814C81.5461 146.644 83.6778 146.036 86.2832 145.427C89.43 144.682 91.0203 144.175 91.0203 143.871C91.0203 143.295 90.9526 143.295 85.6065 144.276C83.1026 144.75 80.8355 145.122 80.5987 145.122C80.1249 145.122 78.6023 142.213 78.9068 141.909C79.0083 141.807 81.7829 141.604 85.0651 141.503C89.3285 141.367 91.0203 141.198 91.0203 140.894C91.0203 140.454 86.5539 140.048 81.4784 140.048H78.5008V138.357C78.5008 137.206 78.67 136.598 78.9745 136.462C79.3467 136.327 85.4035 137.274 90.1067 138.221C90.7496 138.357 91.0203 138.289 91.0203 137.917C91.0203 137.545 89.43 137.037 85.2681 135.989C82.1213 135.211 79.5159 134.5 79.5159 134.399C79.5159 134.331 79.9558 133.587 80.531 132.809C83.3394 128.682 89.7345 127.227 96.1973 129.223ZM134.331 129.054C136.497 129.832 138.29 131.151 139.44 132.809C139.982 133.621 140.422 134.331 140.422 134.399C140.422 134.5 137.85 135.211 134.669 135.989C130.508 137.037 128.917 137.545 128.917 137.917C128.917 138.289 129.188 138.357 129.865 138.221C134.534 137.274 140.591 136.327 140.963 136.462C141.268 136.598 141.437 137.206 141.437 138.357V140.048H138.493C133.384 140.048 128.917 140.454 128.917 140.894C128.917 141.198 130.609 141.367 134.872 141.503C138.155 141.604 140.929 141.807 141.031 141.909C141.335 142.213 139.813 145.122 139.339 145.122C139.102 145.122 136.869 144.75 134.365 144.276C129.12 143.295 128.917 143.295 128.917 143.871C128.917 144.175 130.508 144.682 133.654 145.427C136.26 146.036 138.391 146.644 138.391 146.814C138.391 147.287 135.685 149.79 133.959 150.907C130 153.444 124.891 154.628 120.898 153.917C114.435 152.801 110.51 148.268 111.187 142.754L111.39 141.198L113.995 139.98C115.416 139.304 117.413 138.018 118.36 137.173C120.966 134.805 122.691 131.456 121.812 130.407C121.507 130.069 121.812 129.832 123.097 129.426C127.022 128.107 131.353 127.971 134.331 129.054ZM113.826 129.054C117.21 129.764 119.105 130.745 119.105 131.828C119.105 133.113 118.225 134.703 116.736 136.158C115.146 137.714 115.044 137.477 116.262 135.38L117.176 133.857L116.127 134.568C114.943 135.447 113.42 137.173 112.946 138.221C112.439 139.304 110.307 139.845 108.615 139.338C107.837 139.101 107.194 138.661 107.059 138.289C106.788 137.443 105.096 135.481 103.777 134.568L102.762 133.857L103.675 135.38C104.149 136.192 104.555 137.037 104.555 137.173C104.555 137.714 101.882 134.872 101.34 133.756C100.427 131.828 100.664 131.05 102.322 130.238C105.604 128.682 109.901 128.208 113.826 129.054ZM108.818 156.049C109.326 157.841 109.867 159.228 109.969 159.093C110.104 158.924 110.612 157.3 111.153 155.44C111.694 153.579 112.134 152.023 112.202 151.955C112.337 151.752 115.721 154.425 115.721 154.763C115.721 154.932 115.213 156.759 114.604 158.822L113.522 162.544H109.969H106.416L105.333 158.822C104.724 156.759 104.25 154.932 104.318 154.729C104.453 154.053 107.397 151.955 107.634 152.361C107.769 152.564 108.277 154.222 108.818 156.049ZM110.442 176.142C110.578 176.447 110.51 176.819 110.273 176.92C110.003 177.09 110.003 177.225 110.273 177.394C110.476 177.529 110.612 178.003 110.578 178.443C110.544 178.882 110.375 179.153 110.206 179.052C110.036 178.95 109.969 178.578 110.07 178.24C110.172 177.901 110.104 177.496 109.935 177.394C109.766 177.293 109.529 177.665 109.427 178.24C109.292 178.815 109.089 179.187 108.92 179.085C108.446 178.815 108.548 178.375 109.461 177.326C110.341 176.278 110.07 175.466 109.089 176.278C108.683 176.616 108.649 176.582 108.818 176.109C109.089 175.398 110.172 175.398 110.442 176.142ZM107.431 186.595C107.431 189.369 107.329 189.977 106.923 189.977C106.517 189.977 106.416 189.369 106.416 186.595C106.416 183.821 106.517 183.212 106.923 183.212C107.329 183.212 107.431 183.821 107.431 186.595ZM201.158 185.344C201.158 185.885 201.057 186.257 200.921 186.155C200.481 185.919 200.685 184.363 201.124 184.363C201.158 184.363 201.158 184.802 201.158 185.344ZM105.739 185.208C105.908 185.58 106.078 186.764 106.078 187.88V189.876H104.656C102.389 189.876 101.983 188.557 103.777 186.933C104.352 186.392 104.724 185.817 104.589 185.681C104.42 185.512 104.217 185.614 104.149 185.817C103.98 186.256 102.694 186.459 102.694 186.053C102.694 184.633 105.062 183.99 105.739 185.208ZM110.815 187.339L110.984 189.944L109.461 189.876C108.04 189.808 107.939 189.741 107.837 188.794C107.736 188.015 107.939 187.61 108.852 186.899C109.461 186.392 109.833 185.85 109.664 185.681C109.495 185.546 109.292 185.614 109.224 185.817C109.021 186.392 107.769 186.392 107.769 185.817C107.769 185.039 108.581 184.531 109.63 184.633L110.645 184.734L110.815 187.339ZM116.161 187.339C116.229 189.538 116.161 189.977 115.721 189.977C115.315 189.977 115.213 189.538 115.213 187.779C115.213 186.527 115.078 185.58 114.875 185.58C114.672 185.58 114.537 186.527 114.537 187.779C114.537 189.741 114.469 189.977 113.86 189.977C113.251 189.977 113.183 189.741 113.183 187.779C113.183 186.527 113.048 185.58 112.845 185.58C112.642 185.58 112.506 186.527 112.506 187.779C112.506 189.504 122.725 179.811 122.319 179.811C121.913 179.811 111.491 189.47 111.491 187.305V184.633L113.792 184.666L116.059 184.734L116.161 187.339ZM117.92 186.764C117.92 188.015 118.056 188.963 118.259 188.963C118.462 188.963 118.597 187.982 118.597 186.73C118.597 184.869 118.699 184.531 119.138 184.633C119.612 184.734 119.714 185.208 119.646 187.914C119.612 189.673 119.477 191.263 119.409 191.398C119.308 191.534 118.699 191.669 118.056 191.669C117.244 191.669 116.905 191.5 116.905 191.161C116.905 190.857 117.21 190.654 117.751 190.654C118.259 190.654 118.597 190.451 118.597 190.18C118.597 189.876 118.36 189.775 117.886 189.876C116.871 190.147 116.567 189.47 116.567 186.831C116.567 184.802 116.635 184.565 117.244 184.565C117.853 184.565 117.92 184.802 117.92 186.764ZM192.09 185.783C191.989 186.02 191.921 185.851 191.921 185.377C191.921 184.904 191.989 184.735 192.09 184.938C192.158 185.174 192.158 185.58 192.09 185.783ZM201.903 185.783C201.801 186.02 201.733 185.851 201.733 185.377C201.733 184.904 201.801 184.735 201.903 184.938C201.97 185.174 201.97 185.58 201.903 185.783ZM204.271 185.783C204.17 186.02 204.102 185.851 204.102 185.377C204.102 184.904 204.17 184.735 204.271 184.938C204.339 185.174 204.339 185.58 204.271 185.783ZM205.963 185.783C205.862 186.02 205.794 185.851 205.794 185.377C205.794 184.904 205.862 184.735 205.963 184.938C206.031 185.174 206.031 185.58 205.963 185.783ZM207.993 185.783C207.892 186.02 207.824 185.851 207.824 185.377C207.824 184.904 207.892 184.735 207.993 184.938C208.061 185.174 208.061 185.58 207.993 185.783ZM209.854 185.547C209.956 185.986 209.888 186.291 209.753 186.189C209.448 186.02 209.313 184.701 209.584 184.701C209.651 184.701 209.787 185.073 209.854 185.547ZM193.782 185.783C193.68 186.054 193.579 185.953 193.579 185.58C193.545 185.208 193.647 185.005 193.748 185.141C193.85 185.242 193.883 185.547 193.782 185.783ZM194.459 185.783C194.357 186.054 194.256 185.953 194.256 185.58C194.222 185.208 194.323 185.005 194.425 185.141C194.526 185.242 194.56 185.547 194.459 185.783ZM195.812 185.783C195.711 186.054 195.609 185.953 195.609 185.58C195.575 185.208 195.677 185.005 195.778 185.141C195.88 185.242 195.914 185.547 195.812 185.783ZM196.489 185.783C196.387 186.054 196.286 185.953 196.286 185.58C196.252 185.208 196.353 185.005 196.455 185.141C196.556 185.242 196.59 185.547 196.489 185.783ZM209.008 185.783C208.907 186.054 208.805 185.953 208.805 185.58C208.771 185.208 208.873 185.005 208.974 185.141C209.076 185.242 209.11 185.547 209.008 185.783ZM210.734 185.885C210.632 185.986 210.429 185.817 210.328 185.479C210.125 185.005 210.159 184.972 210.497 185.276C210.734 185.513 210.835 185.783 210.734 185.885ZM198.519 185.58C198.417 185.682 198.113 185.716 197.876 185.614C197.605 185.513 197.707 185.411 198.079 185.411C198.451 185.377 198.654 185.479 198.519 185.58ZM197.166 186.46C197.064 186.731 196.963 186.629 196.963 186.257C196.929 185.885 197.03 185.682 197.132 185.817C197.233 185.919 197.267 186.223 197.166 186.46ZM198.857 189.674C198.756 190.012 198.688 189.809 198.688 189.268C198.688 188.693 198.756 188.456 198.857 188.659C198.925 188.896 198.925 189.369 198.857 189.674ZM189.552 189.065C189.823 188.659 189.891 188.659 190.06 189.065C190.229 189.437 190.297 189.437 190.534 189.065C190.77 188.659 190.838 188.693 190.838 189.099C190.838 189.369 190.669 189.843 190.5 190.113C190.263 190.485 190.161 190.485 190.161 190.181C190.161 189.944 189.891 189.775 189.586 189.843C189.214 189.91 188.977 189.707 188.909 189.268C188.876 188.896 188.909 188.794 189.011 189.065C189.18 189.437 189.282 189.437 189.552 189.065ZM191.921 189.065C192.192 188.659 192.259 188.659 192.428 189.065C192.598 189.437 192.665 189.437 192.936 189.065C193.173 188.693 193.207 188.76 193.139 189.268C193.071 189.707 192.767 189.91 192.192 189.91C191.616 189.91 191.312 189.707 191.278 189.268C191.21 188.862 191.278 188.794 191.379 189.065C191.549 189.437 191.65 189.437 191.921 189.065ZM194.289 189.065C194.56 188.659 194.628 188.659 194.797 189.065C194.966 189.437 195.034 189.437 195.305 189.065C195.541 188.693 195.575 188.76 195.508 189.268C195.44 189.707 195.135 189.91 194.56 189.91C193.985 189.91 193.68 189.707 193.647 189.268C193.579 188.862 193.647 188.794 193.748 189.065C193.917 189.437 194.019 189.437 194.289 189.065ZM197.944 189.437C197.944 189.877 197.707 190.113 197.267 190.113C196.895 190.113 196.59 189.944 196.59 189.741C196.59 189.538 196.827 189.471 197.132 189.572C197.605 189.741 197.639 189.707 197.267 189.268C196.929 188.862 196.929 188.76 197.402 188.76C197.707 188.76 197.944 189.031 197.944 189.437ZM200.583 189.538C200.651 189.944 200.482 190.113 200.008 190.113C199.602 190.113 199.297 189.944 199.297 189.741C199.297 189.572 199.433 189.504 199.636 189.606C199.839 189.741 199.872 189.572 199.737 189.234C199.602 188.828 199.669 188.726 200.008 188.828C200.278 188.929 200.515 189.234 200.583 189.538ZM203.29 189.606L203.391 190.282L202.952 189.606C202.546 188.963 202.546 188.963 202.309 189.775C202.072 190.587 202.072 190.587 202.038 189.843C202.004 188.963 201.429 188.828 201.226 189.674C201.124 190.113 201.057 190.08 201.023 189.504C200.989 188.828 201.124 188.726 202.072 188.828C202.884 188.896 203.222 189.132 203.29 189.606ZM204.576 189.065C205.151 188.591 205.185 188.794 204.643 189.944C204.136 191.094 203.865 191.027 203.797 189.674C203.797 189.099 203.831 188.794 203.933 189.031C204.068 189.369 204.204 189.369 204.576 189.065ZM206.741 189.099C206.301 189.403 206.301 189.471 206.741 189.775C207.181 190.046 207.147 190.113 206.674 190.113C206.335 190.113 206.065 189.91 206.065 189.674C206.065 189.099 206.403 188.76 206.877 188.76C207.08 188.76 207.012 188.929 206.741 189.099ZM208.704 189.538C208.771 189.944 208.602 190.113 208.129 190.113C207.723 190.113 207.418 189.91 207.418 189.674C207.418 188.625 208.501 188.523 208.704 189.538ZM211.411 189.606L211.512 190.282L211.072 189.606C210.666 188.963 210.666 188.963 210.429 189.775C210.193 190.587 210.193 190.587 210.159 189.843C210.125 188.963 209.55 188.828 209.347 189.674C209.245 190.113 209.178 190.08 209.144 189.504C209.11 188.828 209.245 188.726 210.193 188.828C211.005 188.896 211.343 189.132 211.411 189.606Z" fill="url(#paint0_radial_89_473)"/>
<path d="M50.7887 15.9331C48.657 23.7135 46.2207 30.4114 39.4196 46.9871C37.1864 52.3996 34.5133 56.7296 30.3176 61.77C28.4904 63.935 28.1859 64.4762 28.5242 64.916C28.8288 65.2881 28.8288 65.4234 28.5242 65.5249C28.2874 65.6264 28.0844 65.9985 28.0844 66.4044C28.1182 67.1486 28.1182 67.1486 28.5242 66.472C28.8964 65.8631 28.9641 65.9646 29.0994 67.3178L29.2686 68.84L29.8777 67.6899C30.4867 66.4382 30.6559 65.7955 30.1145 66.6412C29.8777 67.0133 29.7762 66.5735 29.7762 65.2204C29.7762 63.6305 29.8777 63.326 30.2837 63.4613C30.6559 63.5966 30.7913 64.1718 30.7913 65.3557C30.7913 66.4044 30.9266 66.9456 31.1296 66.8103C31.3327 66.675 31.4003 66.4382 31.2988 66.2691C31.1635 66.0999 31.265 65.9646 31.4342 65.9646C31.6372 65.9646 31.8064 65.6602 31.8064 65.2881C31.8064 64.8483 32.0432 64.6115 32.4831 64.6115C33.8704 64.6115 39.7241 55.4103 42.4987 48.8815L44.1229 45.0928L45.0703 48.002C47.8111 56.1207 55.3228 66.2691 66.252 76.6205L69.3649 79.5635L68.316 80.9843C63.6127 87.2086 58.0297 97.357 55.3228 104.698C52.8865 111.193 50.8902 118.905 50.2134 124.419L49.9766 126.212L47.9126 127.261C44.7319 128.851 44.1229 129.324 44.7996 129.561C45.2733 129.697 45.0703 130.069 43.7845 131.591C42.2619 133.35 39.9271 136.733 39.9271 137.173C39.9271 137.274 40.2655 137.206 40.6377 136.97C41.3483 136.598 41.3821 136.631 41.1453 137.714C40.2655 141.942 40.7731 146.475 42.5326 150.67C44.6304 155.778 49.469 161.326 54.7475 164.81C57.8605 166.84 65.9474 170.831 71.3951 172.963C74.8803 174.35 77.9594 175.297 85.4373 177.293C88.5164 178.104 96.5695 179.255 100.833 179.593C102.762 179.762 81.14 179.897 51.7023 179.931L94.2347 179.829V187.44L110.984 189.944C110.984 189.944 39.4196 176.92 123.097 184.363C206.775 191.805 106.923 183.212 106.923 183.212L111.491 184.633C82.0198 184.599 98.9042 179.762 100.833 179.593C105.096 179.255 131.421 178.104 134.5 177.293C145.362 174.417 149.016 173.064 157.509 168.971C163.735 165.96 166.983 163.829 170.367 160.649C177.303 154.053 180.383 145.63 178.792 137.714C178.555 136.631 178.589 136.598 179.3 136.97C179.672 137.206 180.01 137.274 180.01 137.173C180.01 136.733 177.676 133.35 176.153 131.591C174.867 130.069 174.664 129.697 175.138 129.561C175.815 129.324 175.206 128.851 172.025 127.261L169.961 126.212L169.724 124.419C167.931 110.178 160.893 93.2638 151.622 80.9843L150.573 79.5635L153.516 76.8234C164.581 66.5735 173.345 54.3616 175.409 46.412L175.781 44.9913L177.405 48.8477C179.909 54.7676 186.135 64.6792 187.387 64.8145C187.624 64.8483 187.827 64.8821 187.894 64.916C188.199 65.1866 189.485 65.2204 189.485 64.9836C189.485 64.8145 189.755 64.713 190.094 64.7468C190.534 64.8145 190.703 65.2542 190.77 66.8442C190.94 69.821 191.447 69.821 191.582 66.8103L191.684 64.2056L190.195 62.4465C186.812 58.5225 182.582 52.0952 181.398 49.1521C181.059 48.2388 179.469 44.3147 177.879 40.4245C173.243 29.0583 171.281 23.5782 169.521 17.117C168.607 13.8019 167.795 10.9941 167.694 10.9265C167.525 10.7573 167.254 12.0767 166.983 14.5461C166.814 16.2375 166.543 16.7111 164.581 19.1129C158.457 26.5889 151.757 37.9212 147.426 48.0696C144.245 55.5118 140.929 66.6074 139.745 73.6436L139.339 76.113H138.188C137.546 76.113 137.038 76.2484 137.038 76.4513C137.038 76.9249 138.527 77.2294 139.914 77.0602C141.132 76.9249 141.606 77.5338 140.557 77.9397C139.576 78.3118 140.489 78.8869 141.809 78.7178C142.553 78.6163 143.129 78.6163 143.129 78.7178C143.129 79.2252 142.317 80.2401 141.504 80.646L140.591 81.1534L141.707 81.1872C143.027 81.1872 144.482 79.9356 144.482 78.7854C144.482 78.3457 145.362 77.1279 146.715 75.7071C152.806 69.2121 160.419 57.3723 168.201 42.1497C170.164 38.2934 171.89 35.2488 171.991 35.418C172.093 35.5871 172.499 36.6019 172.905 37.6168L173.615 39.5111L172.533 42.3527C170.875 46.7165 166.78 54.9367 164.141 59.1652C159.641 66.3367 152.197 75.4703 147.392 79.6988L145.463 81.3902L148.001 85.1789C149.388 87.2763 151.588 91.065 152.873 93.6359C157.78 103.345 160.385 111.396 162.246 122.83L162.382 123.743H158.592C152.873 123.743 147.02 125.367 142.384 128.208C141.504 128.783 140.76 129.155 140.76 129.054C140.76 128.986 141.369 127.971 142.08 126.787C143.602 124.352 145.294 119.684 145.836 116.199C146.411 112.783 146.343 106.186 145.7 103.006C144.922 99.2852 142.858 95.192 140.591 92.8579C134.872 86.9718 126.481 87.6822 120.187 94.5493C113.217 102.194 110.003 115.556 113.014 124.318C113.386 125.4 113.826 126.449 113.995 126.652C114.232 126.957 113.183 127.058 109.969 127.058C106.754 127.058 105.705 126.957 105.942 126.652C106.585 125.84 107.634 122.187 107.939 119.582C108.954 110.99 104.826 99.2175 98.7689 93.5006C95.3852 90.3546 92.1031 88.9338 88.0427 88.9338C83.1026 88.9338 78.7715 92.046 76.1661 97.5261C74.3727 101.247 73.7298 104.562 73.7637 110.076C73.7637 116.91 75.2187 122.694 78.0609 127.126C78.67 128.107 79.1775 128.986 79.1775 129.054C79.1775 129.155 78.4331 128.783 77.5534 128.208C72.9178 125.367 67.064 123.743 61.3457 123.743H57.556L57.6913 122.83C59.5523 111.396 62.1577 103.345 67.064 93.6359C68.3498 91.065 70.5154 87.3101 71.9027 85.2466L74.4066 81.4917L70.583 77.7029C64.5263 71.6477 59.7215 65.5587 55.2889 58.3195C52.7512 54.1248 48.9953 46.5135 47.405 42.3527L46.3222 39.5111L47.0328 37.6168C47.4388 36.6019 47.8449 35.5871 47.9464 35.418C48.0479 35.2488 49.7736 38.2934 51.7361 42.1497C59.3832 57.1017 67.1994 69.2798 73.1885 75.6394C74.5081 77.0602 75.4555 78.3795 75.5909 79.0561C75.8954 80.4092 76.4368 80.8489 78.0609 81.0519L79.3467 81.2211L78.4331 80.6798C77.621 80.2062 76.809 79.2252 76.809 78.684C76.809 78.5487 77.3842 78.5825 78.1286 78.684C79.4482 78.8869 80.3956 78.3457 79.3805 77.9397C78.3316 77.5338 78.8053 76.9249 80.0234 77.0602C81.4107 77.2294 82.8995 76.9249 82.8995 76.4513C82.8995 76.2484 82.392 76.113 81.7491 76.113H80.5987L80.1926 73.6436C79.6174 70.227 77.7226 62.7171 76.4706 58.6916C72.0719 44.856 64.4586 30.6144 55.4581 19.282C53.3264 16.5758 53.1572 16.2375 52.9204 14.2078C52.4805 10.2161 52.3113 10.3853 50.7887 15.9331ZM54.646 35.5871C57.0484 40.6613 58.5711 43.469 58.9771 43.5705C59.2816 43.6382 59.5523 43.875 59.5523 44.0441C59.5523 44.2132 59.417 44.2471 59.214 44.1456C59.0448 44.0441 58.8756 44.1118 58.8756 44.2809C58.8756 44.4839 59.1125 44.653 59.417 44.653C59.6877 44.653 59.8569 44.7883 59.7215 44.9574C59.4508 45.431 60.6689 48.002 64.9662 56.1883C68.9589 63.7658 73.6283 71.8845 75.8615 75.1997C76.606 76.2822 77.1135 77.2632 77.0458 77.3647C76.6059 77.7706 68.5528 65.8632 63.2743 57.0002C59.9922 51.5201 53.5633 39.0037 51.2962 33.7942C49.8751 30.5129 49.8074 30.1408 50.1458 28.9906C50.3488 28.3141 50.6195 27.739 50.721 27.739C50.8225 27.7728 52.6158 31.2909 54.646 35.5871ZM169.792 28.9906C170.13 30.1408 170.062 30.5129 168.641 33.7942C165.968 39.9509 160.216 51.0465 156.189 57.7444C150.64 67.0133 143.332 77.8044 142.892 77.3647C142.824 77.2632 143.467 76.0792 144.414 74.6923C148.306 68.9077 159.302 48.577 159.438 46.8856C159.472 46.3782 159.776 45.7355 160.115 45.431C160.96 44.6868 160.893 44.2471 159.979 44.45C159.539 44.5515 159.404 44.5515 159.641 44.45C159.844 44.3485 159.945 44.1118 159.844 43.9088C159.708 43.7058 159.878 43.6382 160.351 43.8073C161.265 44.0779 161.4 43.8411 165.63 34.9105C167.491 30.9865 169.115 27.7728 169.217 27.739C169.318 27.739 169.589 28.3141 169.792 28.9906ZM93.5581 94.211C96.8064 95.7333 99.987 99.1837 102.119 103.514C106.044 111.531 106.653 119.684 103.743 125.468C103.269 126.348 102.423 127.498 101.848 127.971L100.833 128.851L98.7012 127.904C97.5508 127.396 96.3327 126.855 95.9943 126.754C95.4529 126.551 95.4867 126.415 96.4003 125.265C100.156 120.563 99.1749 111.734 94.404 107.472C90.9526 104.359 87.1291 104.731 84.7267 108.419C84.1515 109.298 84.3207 110.482 84.9636 110.076C85.2343 109.907 85.3019 110.11 85.2004 110.719C85.0312 111.599 85.0651 111.632 86.3509 111.429C87.4336 111.226 87.8058 111.328 88.4826 111.971C90.1067 113.493 89.1255 116.03 86.9938 116.03C85.4373 116.03 84.5914 114.711 84.5914 112.275C84.5914 111.125 84.456 110.279 84.253 110.279C83.6439 110.279 83.4748 111.226 83.8808 112.343C84.1853 113.222 84.1515 113.358 83.7455 113.189C83.001 112.918 82.798 114.203 83.2041 116.774C83.7793 120.326 85.1666 123.506 86.7569 124.792C87.4336 125.367 87.1629 125.84 86.0802 125.84C85.6065 125.84 84.2192 126.246 83.0349 126.72C81.3769 127.396 80.734 127.498 80.3956 127.193C79.5836 126.551 77.5195 121.984 76.7751 119.21C75.76 115.59 75.6585 107.472 76.5721 104.19C77.8917 99.2852 80.4295 95.8348 84.0162 94.0419C85.9448 93.0609 86.317 92.9932 88.8209 93.0947C90.885 93.23 92.0016 93.4668 93.5581 94.211ZM135.549 93.8389C139.068 95.4626 141.538 98.541 143.061 103.108C143.839 105.476 143.941 106.22 143.941 111.125C143.941 115.658 143.805 116.977 143.196 119.244C142.35 122.221 140.895 125.57 139.846 126.821L139.204 127.633L136.97 126.72C135.718 126.246 134.365 125.84 133.891 125.84C132.605 125.84 132.572 125.502 133.824 124.047C136.463 120.969 137.715 114.542 136.327 111.125C136.091 110.516 136.057 110.516 135.989 111.294C135.989 111.768 135.989 112.444 136.023 112.816C136.057 113.189 135.955 113.358 135.786 113.222C135.515 112.952 135.482 112.783 135.38 111.903C135.346 111.599 135.245 111.599 134.94 111.903C134.703 112.14 134.399 112.309 134.23 112.309C134.06 112.309 134.162 112.072 134.466 111.802C134.737 111.531 135.075 111.294 135.245 111.294C135.414 111.294 135.549 110.99 135.549 110.651C135.549 110.144 135.414 110.076 134.974 110.313C134.094 110.753 133.857 110.685 134.331 110.11C134.568 109.84 134.974 109.603 135.211 109.603C135.888 109.603 135.786 109.163 134.94 108.047C132.301 104.664 128.917 104.427 125.601 107.404C121.507 111.091 120.052 118.161 122.319 123.066C122.759 124.047 123.503 125.197 123.943 125.603L124.722 126.415L121.879 127.599L119.037 128.817L117.954 127.836C116.635 126.686 115.18 123.608 114.672 120.867C113.082 112.444 117.887 99.8264 124.417 95.3611C127.902 92.9594 132.335 92.3505 135.549 93.8389ZM127.158 111.835C127.699 112.208 127.902 112.681 127.902 113.662C127.902 114.643 127.699 115.117 127.158 115.489C125.5 116.673 123.402 115.624 123.402 113.662C123.402 111.7 125.5 110.651 127.158 111.835ZM135.008 112.85C135.008 113.121 134.365 113.29 134.196 113.053C134.094 112.884 134.23 112.749 134.5 112.749C134.771 112.749 135.008 112.816 135.008 112.85ZM71.7335 128.005C73.3238 128.445 75.3202 129.155 76.2337 129.527L77.8579 130.238L76.9781 131.591C76.5044 132.335 76.1322 133.079 76.1322 133.282C76.1322 133.79 75.9631 133.756 69.8725 132.234C65.3384 131.084 64.1879 130.914 63.7819 131.253C63.1728 131.76 63.1052 132.741 63.7142 133.181C63.9172 133.384 66.5565 133.959 69.5341 134.466C72.5117 135.008 74.9818 135.447 75.0495 135.515C75.1171 135.549 75.0495 136.53 74.9141 137.646L74.6773 139.744L68.9251 139.676C63.1052 139.642 62.6315 139.744 62.5976 140.927C62.5976 142.044 63.5789 142.179 69.5341 141.976C74.1697 141.773 75.4555 141.841 75.4555 142.145C75.4555 142.382 75.8277 143.295 76.2676 144.175L77.0458 145.765L76.1661 145.968C75.6924 146.069 72.8163 146.577 69.771 147.118C66.7257 147.693 64.0188 148.302 63.7481 148.539C62.936 149.215 63.3082 150.366 64.3571 150.467C64.8308 150.535 68.1468 149.858 71.7335 149.012L78.1963 147.422L79.8881 149.114C82.189 151.448 85.2681 153.376 88.6856 154.662C91.4263 155.71 91.7309 155.778 96.5018 155.778H101.476L103.404 160.243L105.333 164.742H109.969H114.604L116.533 160.243L118.462 155.778H123.436C128.207 155.778 128.511 155.71 131.32 154.662C134.737 153.342 137.41 151.685 139.914 149.215L141.741 147.422L148.238 149.012C151.825 149.858 155.141 150.535 155.614 150.467C156.629 150.366 157.002 149.182 156.223 148.573C155.953 148.336 153.618 147.795 151.046 147.321C148.475 146.847 145.565 146.306 144.617 146.103L142.892 145.765L143.704 144.209C144.11 143.329 144.482 142.45 144.482 142.179C144.482 141.807 145.565 141.773 150.403 141.976C156.359 142.179 157.34 142.044 157.34 140.927C157.306 139.71 156.832 139.608 150.945 139.676C145.463 139.744 145.159 139.71 145.159 139.101C145.159 138.729 145.057 137.781 144.956 136.936L144.753 135.447L147.663 134.974C149.253 134.737 150.742 134.331 150.945 134.06C151.182 133.824 151.655 133.722 152.129 133.824C152.603 133.959 152.941 133.891 152.941 133.654C152.941 133.452 152.704 133.384 152.434 133.485C152.163 133.621 151.926 133.519 151.926 133.316C151.926 133.113 152.061 132.944 152.197 132.944C152.366 132.944 152.772 132.707 153.144 132.403C153.483 132.132 153.618 131.963 153.381 132.065C153.178 132.2 152.941 132.065 152.84 131.862C152.704 131.523 152.603 131.489 152.231 131.828C151.994 132.065 151.317 132.268 150.776 132.268C150.2 132.268 148.576 132.572 147.189 132.944C144.279 133.722 143.805 133.756 143.805 133.282C143.805 133.079 143.433 132.335 142.959 131.591L142.08 130.238L143.704 129.527C146.58 128.31 150.911 127.193 153.753 126.99C158.49 126.618 162.585 127.667 166.273 130.204C167.829 131.287 168.371 131.489 167.998 130.914C167.897 130.745 167.998 130.576 168.235 130.576C168.506 130.576 168.743 130.982 168.777 131.489C168.811 131.963 169.521 133.384 170.367 134.635C172.093 137.105 173.243 140.352 173.243 142.585C173.243 148.674 167.626 155.744 158.084 161.664C148.407 167.652 135.515 172.489 125.026 174.045C115.349 175.466 104.656 175.466 94.9115 174.045C79.8543 171.812 61.6164 163.457 52.9204 154.729C49.063 150.907 46.6944 146.238 46.6944 142.585C46.6944 137.477 50.9917 131.287 56.4732 128.546C60.2291 126.652 66.3873 126.449 71.7335 128.005ZM96.1973 129.223C98.0583 129.798 98.4305 130.035 98.126 130.407C97.2462 131.456 98.9381 134.805 101.577 137.173C102.525 138.018 104.521 139.304 105.942 139.98C108.514 141.198 108.548 141.232 108.751 142.653C108.988 144.513 108.48 147.253 107.6 148.674C103.844 154.729 94.5055 155.879 86.6216 151.279C85.0651 150.399 81.5461 147.253 81.5461 146.814C81.5461 146.644 83.6778 146.036 86.2832 145.427C89.43 144.682 91.0203 144.175 91.0203 143.871C91.0203 143.295 90.9526 143.295 85.6065 144.276C83.1026 144.75 80.8355 145.122 80.5987 145.122C80.1249 145.122 78.6023 142.213 78.9068 141.909C79.0083 141.807 81.7829 141.604 85.0651 141.503C89.3285 141.367 91.0203 141.198 91.0203 140.894C91.0203 140.454 86.5539 140.048 81.4784 140.048H78.5008V138.357C78.5008 137.206 78.67 136.598 78.9745 136.462C79.3467 136.327 85.4035 137.274 90.1067 138.221C90.7496 138.357 91.0203 138.289 91.0203 137.917C91.0203 137.545 89.43 137.037 85.2681 135.989C82.1213 135.211 79.5159 134.5 79.5159 134.399C79.5159 134.331 79.9558 133.587 80.531 132.809C83.3394 128.682 89.7345 127.227 96.1973 129.223ZM134.331 129.054C136.497 129.832 138.29 131.151 139.44 132.809C139.982 133.621 140.422 134.331 140.422 134.399C140.422 134.5 137.85 135.211 134.669 135.989C130.508 137.037 128.917 137.545 128.917 137.917C128.917 138.289 129.188 138.357 129.865 138.221C134.534 137.274 140.591 136.327 140.963 136.462C141.268 136.598 141.437 137.206 141.437 138.357V140.048H138.493C133.384 140.048 128.917 140.454 128.917 140.894C128.917 141.198 130.609 141.367 134.872 141.503C138.155 141.604 140.929 141.807 141.031 141.909C141.335 142.213 139.813 145.122 139.339 145.122C139.102 145.122 136.869 144.75 134.365 144.276C129.12 143.295 128.917 143.295 128.917 143.871C128.917 144.175 130.508 144.682 133.654 145.427C136.26 146.036 138.391 146.644 138.391 146.814C138.391 147.287 135.685 149.79 133.959 150.907C130 153.444 124.891 154.628 120.898 153.917C114.435 152.801 110.51 148.268 111.187 142.754L111.39 141.198L113.995 139.98C115.416 139.304 117.413 138.018 118.36 137.173C120.966 134.805 122.691 131.456 121.812 130.407C121.507 130.069 121.812 129.832 123.097 129.426C127.022 128.107 131.353 127.971 134.331 129.054ZM113.826 129.054C117.21 129.764 119.105 130.745 119.105 131.828C119.105 133.113 118.225 134.703 116.736 136.158C115.146 137.714 115.044 137.477 116.262 135.38L117.176 133.857L116.127 134.568C114.943 135.447 113.42 137.173 112.946 138.221C112.439 139.304 110.307 139.845 108.615 139.338C107.837 139.101 107.194 138.661 107.059 138.289C106.788 137.443 105.096 135.481 103.777 134.568L102.762 133.857L103.675 135.38C104.149 136.192 104.555 137.037 104.555 137.173C104.555 137.714 101.882 134.872 101.34 133.756C100.427 131.828 100.664 131.05 102.322 130.238C105.604 128.682 109.901 128.208 113.826 129.054ZM108.818 156.049C109.326 157.841 109.867 159.228 109.969 159.093C110.104 158.924 110.612 157.3 111.153 155.44C111.694 153.579 112.134 152.023 112.202 151.955C112.337 151.752 115.721 154.425 115.721 154.763C115.721 154.932 115.213 156.759 114.604 158.822L113.522 162.544H109.969H106.416L105.333 158.822C104.724 156.759 104.25 154.932 104.318 154.729C104.453 154.053 107.397 151.955 107.634 152.361C107.769 152.564 108.277 154.222 108.818 156.049ZM110.442 176.142C110.578 176.447 110.51 176.819 110.273 176.92C110.003 177.09 110.003 177.225 110.273 177.394C110.476 177.529 110.612 178.003 110.578 178.443C110.544 178.882 110.375 179.153 110.206 179.052C110.036 178.95 109.969 178.578 110.07 178.24C110.172 177.901 110.104 177.496 109.935 177.394C109.766 177.293 109.529 177.665 109.427 178.24C109.292 178.815 109.089 179.187 108.92 179.085C108.446 178.815 108.548 178.375 109.461 177.326C110.341 176.278 110.07 175.466 109.089 176.278C108.683 176.616 108.649 176.582 108.818 176.109C109.089 175.398 110.172 175.398 110.442 176.142ZM107.431 186.595C107.431 189.369 107.329 189.977 106.923 189.977C106.517 189.977 106.416 189.369 106.416 186.595C106.416 183.821 106.517 183.212 106.923 183.212C107.329 183.212 107.431 183.821 107.431 186.595ZM201.158 185.344C201.158 185.885 201.057 186.257 200.921 186.155C200.481 185.919 200.685 184.363 201.124 184.363C201.158 184.363 201.158 184.802 201.158 185.344ZM105.739 185.208C105.908 185.58 106.078 186.764 106.078 187.88V189.876H104.656C102.389 189.876 101.983 188.557 103.777 186.933C104.352 186.392 104.724 185.817 104.589 185.681C104.42 185.512 104.217 185.614 104.149 185.817C103.98 186.256 102.694 186.459 102.694 186.053C102.694 184.633 105.062 183.99 105.739 185.208ZM110.815 187.339L110.984 189.944L109.461 189.876C108.04 189.808 107.939 189.741 107.837 188.794C107.736 188.015 107.939 187.61 108.852 186.899C109.461 186.392 109.833 185.85 109.664 185.681C109.495 185.546 109.292 185.614 109.224 185.817C109.021 186.392 107.769 186.392 107.769 185.817C107.769 185.039 108.581 184.531 109.63 184.633L110.645 184.734L110.815 187.339ZM116.161 187.339C116.229 189.538 116.161 189.977 115.721 189.977C115.315 189.977 115.213 189.538 115.213 187.779C115.213 186.527 115.078 185.58 114.875 185.58C114.672 185.58 114.537 186.527 114.537 187.779C114.537 189.741 114.469 189.977 113.86 189.977C113.251 189.977 113.183 189.741 113.183 187.779C113.183 186.527 113.048 185.58 112.845 185.58C112.642 185.58 112.506 186.527 112.506 187.779C112.506 189.504 122.725 179.811 122.319 179.811C121.913 179.811 111.491 189.47 111.491 187.305V184.633L113.792 184.666L116.059 184.734L116.161 187.339ZM117.92 186.764C117.92 188.015 118.056 188.963 118.259 188.963C118.462 188.963 118.597 187.982 118.597 186.73C118.597 184.869 118.699 184.531 119.138 184.633C119.612 184.734 119.714 185.208 119.646 187.914C119.612 189.673 119.477 191.263 119.409 191.398C119.308 191.534 118.699 191.669 118.056 191.669C117.244 191.669 116.905 191.5 116.905 191.161C116.905 190.857 117.21 190.654 117.751 190.654C118.259 190.654 118.597 190.451 118.597 190.18C118.597 189.876 118.36 189.775 117.886 189.876C116.871 190.147 116.567 189.47 116.567 186.831C116.567 184.802 116.635 184.565 117.244 184.565C117.853 184.565 117.92 184.802 117.92 186.764ZM192.09 185.783C191.989 186.02 191.921 185.851 191.921 185.377C191.921 184.904 191.989 184.735 192.09 184.938C192.158 185.174 192.158 185.58 192.09 185.783ZM201.903 185.783C201.801 186.02 201.733 185.851 201.733 185.377C201.733 184.904 201.801 184.735 201.903 184.938C201.97 185.174 201.97 185.58 201.903 185.783ZM204.271 185.783C204.17 186.02 204.102 185.851 204.102 185.377C204.102 184.904 204.17 184.735 204.271 184.938C204.339 185.174 204.339 185.58 204.271 185.783ZM205.963 185.783C205.862 186.02 205.794 185.851 205.794 185.377C205.794 184.904 205.862 184.735 205.963 184.938C206.031 185.174 206.031 185.58 205.963 185.783ZM207.993 185.783C207.892 186.02 207.824 185.851 207.824 185.377C207.824 184.904 207.892 184.735 207.993 184.938C208.061 185.174 208.061 185.58 207.993 185.783ZM209.854 185.547C209.956 185.986 209.888 186.291 209.753 186.189C209.448 186.02 209.313 184.701 209.584 184.701C209.651 184.701 209.787 185.073 209.854 185.547ZM193.782 185.783C193.68 186.054 193.579 185.953 193.579 185.58C193.545 185.208 193.647 185.005 193.748 185.141C193.85 185.242 193.883 185.547 193.782 185.783ZM194.459 185.783C194.357 186.054 194.256 185.953 194.256 185.58C194.222 185.208 194.323 185.005 194.425 185.141C194.526 185.242 194.56 185.547 194.459 185.783ZM195.812 185.783C195.711 186.054 195.609 185.953 195.609 185.58C195.575 185.208 195.677 185.005 195.778 185.141C195.88 185.242 195.914 185.547 195.812 185.783ZM196.489 185.783C196.387 186.054 196.286 185.953 196.286 185.58C196.252 185.208 196.353 185.005 196.455 185.141C196.556 185.242 196.59 185.547 196.489 185.783ZM209.008 185.783C208.907 186.054 208.805 185.953 208.805 185.58C208.771 185.208 208.873 185.005 208.974 185.141C209.076 185.242 209.11 185.547 209.008 185.783ZM210.734 185.885C210.632 185.986 210.429 185.817 210.328 185.479C210.125 185.005 210.159 184.972 210.497 185.276C210.734 185.513 210.835 185.783 210.734 185.885ZM198.519 185.58C198.417 185.682 198.113 185.716 197.876 185.614C197.605 185.513 197.707 185.411 198.079 185.411C198.451 185.377 198.654 185.479 198.519 185.58ZM197.166 186.46C197.064 186.731 196.963 186.629 196.963 186.257C196.929 185.885 197.03 185.682 197.132 185.817C197.233 185.919 197.267 186.223 197.166 186.46ZM198.857 189.674C198.756 190.012 198.688 189.809 198.688 189.268C198.688 188.693 198.756 188.456 198.857 188.659C198.925 188.896 198.925 189.369 198.857 189.674ZM189.552 189.065C189.823 188.659 189.891 188.659 190.06 189.065C190.229 189.437 190.297 189.437 190.534 189.065C190.77 188.659 190.838 188.693 190.838 189.099C190.838 189.369 190.669 189.843 190.5 190.113C190.263 190.485 190.161 190.485 190.161 190.181C190.161 189.944 189.891 189.775 189.586 189.843C189.214 189.91 188.977 189.707 188.909 189.268C188.876 188.896 188.909 188.794 189.011 189.065C189.18 189.437 189.282 189.437 189.552 189.065ZM191.921 189.065C192.192 188.659 192.259 188.659 192.428 189.065C192.598 189.437 192.665 189.437 192.936 189.065C193.173 188.693 193.207 188.76 193.139 189.268C193.071 189.707 192.767 189.91 192.192 189.91C191.616 189.91 191.312 189.707 191.278 189.268C191.21 188.862 191.278 188.794 191.379 189.065C191.549 189.437 191.65 189.437 191.921 189.065ZM194.289 189.065C194.56 188.659 194.628 188.659 194.797 189.065C194.966 189.437 195.034 189.437 195.305 189.065C195.541 188.693 195.575 188.76 195.508 189.268C195.44 189.707 195.135 189.91 194.56 189.91C193.985 189.91 193.68 189.707 193.647 189.268C193.579 188.862 193.647 188.794 193.748 189.065C193.917 189.437 194.019 189.437 194.289 189.065ZM197.944 189.437C197.944 189.877 197.707 190.113 197.267 190.113C196.895 190.113 196.59 189.944 196.59 189.741C196.59 189.538 196.827 189.471 197.132 189.572C197.605 189.741 197.639 189.707 197.267 189.268C196.929 188.862 196.929 188.76 197.402 188.76C197.707 188.76 197.944 189.031 197.944 189.437ZM200.583 189.538C200.651 189.944 200.482 190.113 200.008 190.113C199.602 190.113 199.297 189.944 199.297 189.741C199.297 189.572 199.433 189.504 199.636 189.606C199.839 189.741 199.872 189.572 199.737 189.234C199.602 188.828 199.669 188.726 200.008 188.828C200.278 188.929 200.515 189.234 200.583 189.538ZM203.29 189.606L203.391 190.282L202.952 189.606C202.546 188.963 202.546 188.963 202.309 189.775C202.072 190.587 202.072 190.587 202.038 189.843C202.004 188.963 201.429 188.828 201.226 189.674C201.124 190.113 201.057 190.08 201.023 189.504C200.989 188.828 201.124 188.726 202.072 188.828C202.884 188.896 203.222 189.132 203.29 189.606ZM204.576 189.065C205.151 188.591 205.185 188.794 204.643 189.944C204.136 191.094 203.865 191.027 203.797 189.674C203.797 189.099 203.831 188.794 203.933 189.031C204.068 189.369 204.204 189.369 204.576 189.065ZM206.741 189.099C206.301 189.403 206.301 189.471 206.741 189.775C207.181 190.046 207.147 190.113 206.674 190.113C206.335 190.113 206.065 189.91 206.065 189.674C206.065 189.099 206.403 188.76 206.877 188.76C207.08 188.76 207.012 188.929 206.741 189.099ZM208.704 189.538C208.771 189.944 208.602 190.113 208.129 190.113C207.723 190.113 207.418 189.91 207.418 189.674C207.418 188.625 208.501 188.523 208.704 189.538ZM211.411 189.606L211.512 190.282L211.072 189.606C210.666 188.963 210.666 188.963 210.429 189.775C210.193 190.587 210.193 190.587 210.159 189.843C210.125 188.963 209.55 188.828 209.347 189.674C209.245 190.113 209.178 190.08 209.144 189.504C209.11 188.828 209.245 188.726 210.193 188.828C211.005 188.896 211.343 189.132 211.411 189.606Z" fill="url(#paint1_linear_89_473)"/>
</g>
<path d="M153.956 132.437C153.956 133.181 154.125 133.621 154.396 133.621C154.701 133.621 154.802 133.249 154.701 132.437C154.633 131.794 154.43 131.253 154.261 131.253C154.092 131.253 153.956 131.794 153.956 132.437Z" fill="#FF9900"/>
<path d="M155.986 131.422C155.783 132.741 155.783 133.282 156.02 133.282C156.528 133.282 156.663 132.674 156.359 131.862C156.156 131.456 156.02 131.219 155.986 131.422Z" fill="#FF9900"/>
<path d="M96.7725 164.134C96.8064 165.453 98.0922 167.855 99.581 169.411C104.859 174.891 115.078 174.891 120.357 169.411C121.845 167.855 123.131 165.453 123.165 164.134C123.165 163.423 123.03 163.525 122.082 164.776C119.511 168.091 115.416 169.817 109.969 169.817C104.521 169.817 100.427 168.091 97.8891 164.776C96.9079 163.525 96.7725 163.423 96.7725 164.134Z" fill="#FF9900"/>
<path d="M9.88031 188.185C9.57578 188.557 9.54194 188.76 9.81264 188.929C10.3202 189.234 10.5909 188.963 10.4217 188.219C10.3202 187.712 10.2863 187.678 9.88031 188.185Z" fill="#FF9900"/>
<path d="M14.9558 187.982C14.6851 188.49 14.6512 188.794 14.9219 188.929C15.4295 189.268 15.6325 188.929 15.4972 188.016L15.3956 187.238L14.9558 187.982Z" fill="#FF9900"/>
<path d="M207.756 189.437C207.756 189.606 207.926 189.775 208.095 189.775C208.298 189.775 208.433 189.606 208.433 189.437C208.433 189.234 208.298 189.099 208.095 189.099C207.926 189.099 207.756 189.234 207.756 189.437Z" fill="#FF9900"/>
<path d="M189.417 65.5249C188.706 65.6941 188.605 66.6413 189.214 67.2502C189.857 67.8929 189.992 67.7576 189.992 66.4721C189.992 65.8294 189.992 65.322 189.992 65.322C189.992 65.3558 189.721 65.4235 189.417 65.5249Z" fill="#FF9900"/>
<path d="M192.158 65.7617C192.327 65.9647 192.53 67.1825 192.564 68.4341C192.631 70.2608 192.767 70.8021 193.24 71.0727C193.613 71.2757 193.917 71.2757 194.053 71.0389C194.154 70.8697 194.086 70.7006 193.917 70.7006C193.68 70.7006 193.545 69.7872 193.545 68.3665C193.545 66.0662 193.342 65.5587 192.259 65.4234C191.955 65.3558 191.921 65.4573 192.158 65.7617Z" fill="#FF9900"/>
<defs>
<filter id="filter0_d_89_473" x="25.0844" y="10.912" width="189.428" height="186.757" filterUnits="userSpaceOnUse" color-interpolation-filters="sRGB">
<feFlood flood-opacity="0" result="BackgroundImageFix"/>
<feColorMatrix in="SourceAlpha" type="matrix" values="0 0 0 0 0 0 0 0 0 0 0 0 0 0 0 0 0 0 127 0" result="hardAlpha"/>
<feOffset dy="3"/>
<feGaussianBlur stdDeviation="1.5"/>
<feComposite in2="hardAlpha" operator="out"/>
<feColorMatrix type="matrix" values="0 0 0 0 0.996078 0 0 0 0 0.94902 0 0 0 0 0.94902 0 0 0 0.8 0"/>
<feBlend mode="normal" in2="BackgroundImageFix" result="effect1_dropShadow_89_473"/>
<feBlend mode="normal" in="SourceGraphic" in2="effect1_dropShadow_89_473" result="shape"/>
</filter>
<radialGradient id="paint0_radial_89_473" cx="0" cy="0" r="1" gradientUnits="userSpaceOnUse" gradientTransform="translate(123.62 101.29) rotate(-54.0937) scale(142.783 248.005)">
<stop stop-color="#250266"/>
<stop offset="1" stop-color="#010014"/>
</radialGradient>
<linearGradient id="paint1_linear_89_473" x1="12.8942" y1="216.105" x2="182.708" y2="103.751" gradientUnits="userSpaceOnUse">
<stop offset="0.0736741" stop-color="#933EFF"/>
<stop offset="0.788339" stop-color="#230064" stop-opacity="0.6"/>
<stop offset="1" stop-color="#230064" stop-opacity="0"/>
</linearGradient>
</defs>
</svg>
