<svg fill="none" height="120" viewBox="0 0 100 120" width="100" xmlns="http://www.w3.org/2000/svg">
    <path
        d="M41.3597 0.178207C35.2301 0.724802 29.5494 2.71597 24.4153 6.13219C21.9166 7.81101 18.7541 10.8173 17.3876 12.828C16.1578 14.6044 16.1578 14.6044 17.29 14.6044C19.4959 14.6044 21.6433 15.2877 22.8926 16.3613C23.9077 17.2593 24.3762 18.4501 24.3762 20.1875C24.3762 21.5149 24.3372 21.6321 23.9468 21.7297C23.693 21.7687 21.0772 22.1786 18.1294 22.6276C15.1817 23.0766 12.7025 23.4866 12.6245 23.5647C12.5464 23.6232 12.4488 24.2089 12.4292 24.8531C12.3707 26.0048 12.3902 26.0243 12.8587 25.9853C13.4248 25.9267 44.2489 21.2611 57.1719 19.27C62.0522 18.5282 70.544 17.3374 76.0099 16.6541C81.4954 15.9514 86.1805 15.3462 86.4343 15.2681C87.0589 15.1315 88.2107 13.9602 88.2107 13.4917C88.2107 12.828 87.0785 11.3053 86.1219 10.6806C84.8335 9.86074 83.2913 9.47032 81.5735 9.47032C80.7731 9.48984 76.8884 9.89979 72.9256 10.3878C68.9823 10.8758 65.5661 11.2858 65.3123 11.2858C64.9609 11.2663 64.7266 10.9735 64.141 9.74362C61.5056 4.29719 55.4931 0.900494 47.1966 0.158688C44.7174 -0.0560474 44.0146 -0.0560474 41.3597 0.178207Z"
        fill="#05B14D" />
    <path
        d="M11.9803 12.6914C11.5703 13.0428 10.8871 13.8041 10.4771 14.3702C9.63772 15.5024 9.3449 15.4829 9.3449 14.2726C9.3449 13.6089 8.93495 13.238 8.21267 13.238C7.66607 13.238 7.2366 13.8236 6.61192 15.4244C5.55778 18.1964 5.65538 19.9533 6.98283 21.2612C8.07602 22.3544 10.4381 22.9205 11.8827 22.452C12.2536 22.3349 13.8348 22.0421 15.3965 21.8273C16.9582 21.5931 19.3007 21.2417 20.6087 21.0269C21.9361 20.8317 23.0488 20.656 23.1074 20.656C23.3611 20.656 23.1659 18.9967 22.8146 18.3135C22.0337 16.7713 20.2963 15.9709 17.5438 15.8343C16.5287 15.7953 15.4941 15.7172 15.2794 15.6781C14.6547 15.5415 14.5571 15.0339 15.0061 14.2726C15.3574 13.687 15.3574 13.6284 15.0451 13.8041C14.8499 13.9017 14.3228 14.3897 13.8738 14.8778C13.4248 15.3658 12.9563 15.7757 12.8392 15.7757C12.4683 15.7757 12.8002 14.6435 13.4639 13.6674C14.1471 12.6719 14.069 12.2033 13.1906 12.1057C12.8587 12.0667 12.4683 12.2424 11.9803 12.6914Z"
        fill="#FF9900" />
    <path
        d="M51.3156 21.5345C44.815 22.5301 33.6684 24.2284 26.5431 25.3216C19.4179 26.4148 13.4834 27.3713 13.3468 27.4885C12.9368 27.8203 11.9022 30.28 11.5703 31.705C11.2385 33.0911 2.64912 63.2319 2.41486 63.837C2.27821 64.1689 2.76624 64.1884 10.6333 64.2079C15.2403 64.2274 18.7932 64.286 18.5199 64.325C18.2466 64.3641 14.4399 64.6569 10.0672 64.9497C5.67491 65.2621 2.04396 65.5549 2.00491 65.6134C1.92683 65.6915 0.189439 71.5674 0.0332693 72.3288C-0.0643369 72.7582 -0.0252944 72.7777 1.26311 72.7777C2.00491 72.7777 5.24544 72.6411 8.46644 72.4849C13.8348 72.2116 35.2691 71.8798 34.8201 72.075C34.7225 72.1335 31.7358 72.3678 28.2219 72.6021C22.9317 72.973 21.7799 73.1096 21.6628 73.3439C21.5652 73.5196 21.409 74.2223 21.2919 74.9251C20.8039 77.9118 19.2422 86.9502 18.7932 89.3513C18.5394 90.7959 18.3247 92.1038 18.3247 92.2599C18.3247 92.5137 18.9103 92.5332 22.8731 92.4356C25.3523 92.3771 27.2264 92.3966 27.0116 92.4747C26.7969 92.5723 24.7862 92.8261 22.5217 93.0798C20.2768 93.3141 18.3247 93.6264 18.2075 93.7436C18.0904 93.8607 17.7976 95.0905 17.5633 96.4961C17.2315 98.6044 16.3921 103.446 13.7567 118.594C13.6201 119.375 13.5615 120.019 13.6201 120C13.7372 120 15.5527 117.969 20.5501 112.347C21.6042 111.137 22.795 109.81 23.1855 109.38C26.3479 105.886 31.3844 100.303 33.6293 97.7845C35.1129 96.1056 37.0065 93.9973 37.8459 93.0798C45.3616 84.7833 46.8257 83.124 46.8257 83.0459C46.8257 82.9678 43.6047 82.9093 39.6614 82.9093L32.4776 82.8897L35.9914 82.6165C37.924 82.4798 41.8868 82.1675 44.776 81.9527C47.6846 81.738 53.7752 81.289 58.3432 80.9571C69.5289 80.1568 70.6806 80.0592 69.7436 80.0201C68.748 80.0006 52.7992 80.5277 50.6909 80.6643C49.8515 80.7229 49.1682 80.7034 49.1682 80.6253C49.1682 80.5082 51.667 77.6971 60.4515 67.956L63.6139 64.4226L64.7462 64.3055C67.4792 64.0127 81.554 63.1342 94.887 62.412C97.3271 62.2753 99.2988 62.1387 99.2597 62.0996C99.2207 62.0606 94.9846 62.1582 89.8505 62.3144C71.9886 62.8805 65.6442 63.0562 65.3123 62.9976C65.0585 62.939 65.5661 62.2753 67.3425 60.2841C68.6504 58.8396 70.1536 57.1217 70.7002 56.497L71.7153 55.3453L68.5919 55.4624C66.874 55.5405 60.8615 55.7747 55.2198 55.9895C49.5782 56.2042 44.327 56.3994 43.5656 56.4385C42.7848 56.4775 42.1406 56.4385 42.1406 56.3409C42.1406 56.2432 42.7653 55.1305 43.5071 53.8812L44.8736 51.5972L37.6117 51.4996C33.6098 51.441 30.6231 51.3825 30.9744 51.3434C31.3258 51.3239 34.6054 51.0896 38.2949 50.8163C41.9649 50.5626 46.5914 50.2502 48.5826 50.1331C52.5259 49.9184 63.3211 49.2742 68.5919 48.9618C70.4269 48.8642 74.2921 48.63 77.1812 48.4738C89.0111 47.7906 89.5967 47.6344 79.0357 47.9858C75.8733 48.0834 68.9823 48.2981 63.7116 48.4738C58.4603 48.63 52.4478 48.8056 50.3981 48.8837C47.8017 48.9618 46.6305 48.9423 46.6305 48.8056C46.6305 48.5909 48.036 46.1508 54.966 34.4185C58.6556 28.1522 63.4578 19.9923 63.5554 19.8166C63.6725 19.6214 64.4143 19.5238 51.3156 21.5345Z"
        fill="#FF9900" />
    <path
        d="M89.0501 47.732C89.3429 47.771 89.8114 47.771 90.1238 47.732C90.4166 47.6929 90.1628 47.6539 89.5772 47.6539C88.9915 47.6539 88.7378 47.6929 89.0501 47.732Z"
        fill="#FF9900" />
    <path
        d="M72.1643 79.942C72.2814 79.9811 72.5157 79.9811 72.6523 79.942C72.7694 79.8835 72.6718 79.8444 72.3985 79.8444C72.1252 79.8444 72.0276 79.8835 72.1643 79.942Z"
        fill="#FF9900" />
</svg>
