<svg fill="none" height="16" viewBox="0 0 16 16" width="16" xmlns="http://www.w3.org/2000/svg">
    <path
        d="M8.00004 1.33301C11.68 1.33301 14.6667 4.31967 14.6667 7.99967C14.6667 11.6797 11.68 14.6663 8.00004 14.6663C4.32004 14.6663 1.33337 11.6797 1.33337 7.99967C1.33337 4.31967 4.32004 1.33301 8.00004 1.33301ZM8.00004 13.333C10.9467 13.333 13.3334 10.9463 13.3334 7.99967C13.3334 5.05301 10.9467 2.66634 8.00004 2.66634C5.05337 2.66634 2.66671 5.05301 2.66671 7.99967C2.66671 10.9463 5.05337 13.333 8.00004 13.333ZM10.357 4.69984L11.2998 5.64265L8.00004 8.94247L7.05724 7.99967L10.357 4.69984Z"
        fill="#5D5D5D" />
</svg>
