<svg width="20" height="21" viewBox="0 0 20 21" fill="none" xmlns="http://www.w3.org/2000/svg">
<g clip-path="url(#clip0_764_3584)">
<path d="M10 2.67578C12.1549 2.67578 14.2215 3.53181 15.7452 5.05554C17.269 6.57927 18.125 8.6459 18.125 10.8008C18.125 12.9557 17.269 15.0223 15.7452 16.546C14.2215 18.0698 12.1549 18.9258 10 18.9258C7.84512 18.9258 5.77849 18.0698 4.25476 16.546C2.73102 15.0223 1.875 12.9557 1.875 10.8008C1.875 8.6459 2.73102 6.57927 4.25476 5.05554C5.77849 3.53181 7.84512 2.67578 10 2.67578ZM10 20.8008C12.6522 20.8008 15.1957 19.7472 17.0711 17.8718C18.9464 15.9965 20 13.4529 20 10.8008C20 8.14862 18.9464 5.60508 17.0711 3.72971C15.1957 1.85435 12.6522 0.800781 10 0.800781C7.34784 0.800781 4.8043 1.85435 2.92893 3.72971C1.05357 5.60508 0 8.14862 0 10.8008C0 13.4529 1.05357 15.9965 2.92893 17.8718C4.8043 19.7472 7.34784 20.8008 10 20.8008ZM7.15625 5.98047C7.13141 5.9268 7.09172 5.88136 7.04189 5.84951C6.99205 5.81766 6.93414 5.80074 6.875 5.80074C6.81586 5.80074 6.75795 5.81766 6.70811 5.84951C6.65828 5.88136 6.61859 5.9268 6.59375 5.98047L5.94531 7.33594L4.45703 7.53125C4.33594 7.54688 4.23828 7.62891 4.19922 7.74609C4.16016 7.86328 4.19531 7.98828 4.28125 8.07031L5.37109 9.10547L5.09766 10.582C5.07422 10.6992 5.125 10.8203 5.22266 10.8906C5.32031 10.9609 5.44922 10.9688 5.55469 10.9141L6.875 10.1953L8.19531 10.9102C8.30078 10.9688 8.42969 10.9609 8.52734 10.8867C8.625 10.8125 8.67188 10.6953 8.65234 10.5781L8.37891 9.10156L9.46875 8.06641C9.55469 7.98438 9.58984 7.85938 9.55078 7.74219C9.51172 7.625 9.41406 7.54297 9.29297 7.52734L7.80469 7.33203L7.15625 5.97656V5.98047ZM13.4062 5.98047C13.3814 5.9268 13.3417 5.88136 13.2919 5.84951C13.2421 5.81766 13.1841 5.80074 13.125 5.80074C13.0659 5.80074 13.0079 5.81766 12.9581 5.84951C12.9083 5.88136 12.8686 5.9268 12.8438 5.98047L12.1953 7.33594L10.707 7.53125C10.5859 7.54688 10.4883 7.62891 10.4492 7.74609C10.4102 7.86328 10.4453 7.98828 10.5312 8.07031L11.6211 9.10547L11.3477 10.582C11.3242 10.6992 11.375 10.8203 11.4727 10.8906C11.5703 10.9609 11.6992 10.9688 11.8047 10.9141L13.125 10.1953L14.4453 10.9102C14.5508 10.9688 14.6797 10.9609 14.7773 10.8867C14.875 10.8125 14.9219 10.6953 14.9023 10.5781L14.6289 9.10156L15.7188 8.06641C15.8047 7.98438 15.8398 7.85938 15.8008 7.74219C15.7617 7.625 15.6641 7.54297 15.543 7.52734L14.0547 7.33203L13.4062 5.97656V5.98047ZM13.6523 12.8477C12.5234 13.1133 11.2891 13.2578 9.99609 13.2578C8.70312 13.2578 7.46875 13.1133 6.33984 12.8477C5.60938 12.6758 4.9375 13.3164 5.34375 13.9453C6.30469 15.4336 8.02734 16.4258 9.99609 16.4258C11.9648 16.4258 13.6875 15.4336 14.6484 13.9453C15.0547 13.3164 14.3828 12.6758 13.6523 12.8477Z" fill="#B35000"/>
</g>
<defs>
<clipPath id="clip0_764_3584">
<rect width="20" height="20" fill="white" transform="translate(0 0.800781)"/>
</clipPath>
</defs>
</svg>
