<svg fill="none" height="24" viewBox="0 0 24 24" width="24" xmlns="http://www.w3.org/2000/svg">
    <path
        d="M7.62607 20.3235C5.07551 20.3235 3.00049 17.263 3.00049 13.5011C3.00049 9.73921 5.07551 6.67871 7.62607 6.67871C10.1766 6.67871 12.2516 9.73921 12.2516 13.5011C12.2516 17.263 10.1766 20.3235 7.62607 20.3235ZM7.62607 7.56318C5.40629 7.56318 3.60016 10.2271 3.60016 13.5011C3.60016 16.7751 5.40629 19.439 7.62607 19.439C9.84585 19.439 11.652 16.7751 11.652 13.5011C11.652 10.2271 9.84585 7.56318 7.62607 7.56318Z"
        fill="#FF9900" />
    <path
        d="M8.46832 21.7349C6.84981 21.7349 5.06769 20.0221 4.27987 18.3659C4.18473 18.1661 4.21763 17.8901 4.35314 17.7498C4.48918 17.6097 4.67591 17.6583 4.77088 17.8579C5.47067 19.3289 7.04508 20.8505 8.46832 20.8505C10.6881 20.8505 12.494 18.1865 12.494 14.9125C12.494 12.9072 11.5079 10.5434 10.5946 9.50364C10.4635 9.3544 10.4393 9.07662 10.5405 8.88331C10.6417 8.69026 10.83 8.65432 10.9611 8.80357C12.0094 9.99703 13.0937 12.6085 13.0937 14.9128C13.0937 18.6744 11.0187 21.7349 8.46832 21.7349Z"
        fill="#FF9900" />
    <path
        d="M7.68985 18.3583C5.85295 18.3583 4.3584 16.154 4.3584 13.4447C4.3584 10.7354 5.85295 8.53101 7.68985 8.53101C9.52674 8.53101 11.0213 10.7354 11.0213 13.4447C11.0211 16.154 9.52674 18.3583 7.68985 18.3583ZM7.68985 9.04223C6.04395 9.04223 4.70501 11.0171 4.70501 13.4447C4.70501 15.8722 6.04395 17.8471 7.68985 17.8471C9.33574 17.8471 10.6747 15.8722 10.6747 13.4447C10.6747 11.0171 9.33574 9.04223 7.68985 9.04223Z"
        fill="#FF9900" />
    <path
        d="M7.87184 15.8628C7.65684 15.8628 6.98852 15.8189 6.54339 15.3082C6.46781 15.2217 6.45411 15.0612 6.51298 14.9499C6.57131 14.839 6.68068 14.818 6.75591 14.9051C7.18201 15.3932 7.92537 15.3502 7.93266 15.3502C8.32586 15.35 8.63957 14.9389 8.63957 14.434V14.2758C8.62908 13.9745 8.16385 13.7255 7.7534 13.5063C7.1427 13.1802 6.45091 12.8106 6.47101 11.9241C6.47083 11.1495 6.93552 10.5116 7.50816 10.5055C7.60651 10.493 8.35592 10.4308 8.78949 11.2353C8.84906 11.3457 8.83644 11.5065 8.76157 11.5943C8.6867 11.6817 8.57751 11.6633 8.51811 11.5532C8.18288 10.931 7.53982 11.0141 7.53342 11.0155C7.13097 11.0168 6.81744 11.4275 6.81744 11.9325C6.8057 12.4563 7.34757 12.7458 7.87149 13.0257C8.43328 13.3261 8.96377 13.6093 8.98618 14.263L8.98636 14.434C8.98636 15.2209 8.5174 15.8612 7.94067 15.8612C7.93622 15.8612 7.91186 15.8628 7.87184 15.8628Z"
        fill="#FF9900" />
    <path
        d="M7.77545 16.7687C7.67977 16.7687 7.60223 16.6543 7.60223 16.5132V9.90611C7.60223 9.765 7.67977 9.65063 7.77545 9.65063C7.87113 9.65063 7.94866 9.765 7.94866 9.90611V16.5132C7.94866 16.6543 7.8713 16.7687 7.77545 16.7687Z"
        fill="#FF9900" />
    <path
        d="M18.5322 16.346C15.9816 16.346 13.9066 13.2855 13.9066 9.52356C13.9066 5.76193 15.9816 2.70142 18.5322 2.70142C21.0826 2.70142 23.1576 5.76193 23.1576 9.52356C23.1576 13.2855 21.0826 16.346 18.5322 16.346ZM18.5322 3.58588C16.3124 3.58588 14.5063 6.24954 14.5063 9.52356C14.5063 12.7976 16.3124 15.4615 18.5322 15.4615C20.752 15.4615 22.5579 12.7976 22.5579 9.52356C22.5579 6.24954 20.752 3.58588 18.5322 3.58588Z"
        fill="#FF9900" />
    <path
        d="M19.3743 17.7574C17.7558 17.7574 15.9736 16.0448 15.186 14.3887C15.0909 14.1888 15.1238 13.9128 15.2593 13.7725C15.3953 13.6322 15.582 13.681 15.677 13.8806C16.3766 15.3513 17.951 16.8729 19.3744 16.8729C21.5942 16.8729 23.4004 14.2092 23.4004 10.9352C23.4004 8.92995 22.4142 6.5661 21.5009 5.52635C21.3698 5.3771 21.3456 5.09933 21.4468 4.90601C21.548 4.71296 21.7361 4.67702 21.8674 4.82627C22.9157 6.01947 24 8.63119 24 10.9355C23.9998 14.6969 21.9248 17.7574 19.3743 17.7574Z"
        fill="#FF9900" />
    <path
        d="M18.596 14.3808C16.7591 14.3808 15.2645 12.1764 15.2645 9.46712C15.2645 6.75783 16.7591 4.55347 18.596 4.55347C20.4329 4.55347 21.9274 6.75783 21.9274 9.46712C21.9272 12.1764 20.4329 14.3808 18.596 14.3808ZM18.596 5.06468C16.9501 5.06468 15.6111 7.03954 15.6111 9.46712C15.6111 11.8947 16.9501 13.8696 18.596 13.8696C20.2419 13.8696 21.5808 11.8947 21.5808 9.46712C21.5808 7.03954 20.2419 5.06468 18.596 5.06468Z"
        fill="#FF9900" />
    <path
        d="M19.1671 11.6185H18.612C17.8763 11.6185 17.2777 10.7356 17.2777 9.65043V8.86012C17.2777 7.77499 17.8763 6.89209 18.612 6.89209H19.1671C19.5564 6.89209 19.9149 7.22836 20.0806 7.74797C20.1219 7.87807 20.0842 8.03283 19.996 8.09395C19.9079 8.1548 19.8028 8.09893 19.7614 7.96909C19.6536 7.63072 19.4203 7.41223 19.1671 7.41223H18.612C18.0709 7.41223 17.6304 8.06168 17.6304 8.86012V9.65043C17.6304 10.4486 18.0707 11.0983 18.612 11.0983H19.1671C19.3888 11.0983 19.5941 10.9349 19.7159 10.6611C19.7692 10.5412 19.8781 10.5079 19.96 10.5866C20.0413 10.6655 20.0639 10.8266 20.0106 10.9467C19.8233 11.3672 19.508 11.6185 19.1671 11.6185Z"
        fill="#FF9900" />
    <path
        d="M18.4937 8.86143H16.6307C16.5334 8.86143 16.4545 8.74497 16.4545 8.60149C16.4545 8.45801 16.5334 8.34155 16.6307 8.34155H18.4937C18.591 8.34155 18.67 8.45801 18.67 8.60149C18.67 8.74497 18.591 8.86143 18.4937 8.86143Z"
        fill="#FF9900" />
    <path
        d="M18.4937 9.95298H16.6307C16.5334 9.95298 16.4545 9.83652 16.4545 9.69304C16.4545 9.54957 16.5334 9.43311 16.6307 9.43311H18.4937C18.591 9.43311 18.67 9.54957 18.67 9.69304C18.67 9.83652 18.591 9.95298 18.4937 9.95298Z"
        fill="#FF9900" />
    <path
        d="M13.7876 20.9958C13.6973 20.9958 13.6071 20.9929 13.5162 20.9871C13.4163 20.9808 13.3388 20.8562 13.3432 20.7088C13.3475 20.5614 13.4346 20.4444 13.5319 20.4536C15.109 20.5515 16.6104 19.7257 17.758 18.1223C17.831 18.0211 17.9455 18.0258 18.0139 18.1325C18.0828 18.2396 18.0796 18.4085 18.007 18.51C16.8539 20.1213 15.3643 20.9958 13.7876 20.9958Z"
        fill="#FF9900" />
    <path
        d="M14.0125 22.6947C13.7967 22.6947 13.5784 22.6824 13.3578 22.658C13.2581 22.647 13.1832 22.5187 13.1908 22.3719C13.1983 22.2247 13.2847 22.1145 13.3849 22.1256C14.0948 22.2045 14.7802 22.1505 15.422 21.9661C16.7834 21.5747 17.9667 20.5806 18.754 19.1666C18.8175 19.0527 18.9315 19.0357 19.0088 19.1296C19.0862 19.2232 19.0974 19.3916 19.0339 19.5055C18.1933 21.0152 16.9351 22.0752 15.4914 22.4904C15.0178 22.6266 14.5225 22.6947 14.0125 22.6947Z"
        fill="#FF9900" />
    <path
        d="M13.1509 23.9999C13.0974 23.9999 13.0456 23.965 13.0108 23.9023L11.4122 21.027C11.377 20.9635 11.3635 20.8801 11.3756 20.8001C11.3875 20.7204 11.4234 20.653 11.4734 20.6173L13.5215 19.1539C13.5809 19.1115 13.6514 19.1201 13.7051 19.1762C13.7589 19.2324 13.7878 19.3273 13.7805 19.4241L13.6812 20.7372C13.67 20.8835 13.5845 20.9877 13.4812 20.973C13.3819 20.9565 13.3103 20.8245 13.3213 20.6779L13.3842 19.8459L11.8381 20.9504L13.0536 23.137L13.1703 22.3472C13.1916 22.2029 13.2887 22.1111 13.3858 22.1431C13.4836 22.1746 13.5455 22.3167 13.5242 22.461L13.3277 23.7901C13.3127 23.8903 13.2605 23.969 13.1931 23.9928C13.1792 23.9976 13.165 23.9999 13.1509 23.9999Z"
        fill="#FF9900" />
    <path
        d="M9.10539 6.32225C9.06075 6.32225 9.01594 6.29812 8.9809 6.24907C8.90834 6.14782 8.90514 5.9789 8.97397 5.87162C10.128 4.07277 11.688 3.06659 13.3664 3.03747C13.466 3.02698 13.5483 3.1542 13.5494 3.30135C13.5506 3.44902 13.4706 3.56994 13.3703 3.57152C11.7909 3.59879 10.323 4.54596 9.23681 6.23884C9.20124 6.29418 9.15341 6.32225 9.10539 6.32225Z"
        fill="#FF9900" />
    <path
        d="M8.05733 5.38514C8.02016 5.3854 7.98264 5.36836 7.95045 5.33347C7.86971 5.24612 7.85228 5.07904 7.9115 4.96022C8.69541 3.38485 9.91236 2.22548 11.3384 1.69512C12.0039 1.44751 12.7204 1.33183 13.4627 1.35622C13.5627 1.3591 13.642 1.48134 13.64 1.62875C13.6379 1.77616 13.5614 1.89656 13.4553 1.89026C12.7421 1.86928 12.061 1.97734 11.4272 2.21315C10.0824 2.71309 8.93763 3.80085 8.20351 5.27602C8.16794 5.34763 8.11299 5.38514 8.05733 5.38514Z"
        fill="#FF9900" />
    <path
        d="M13.3408 4.90198C13.3073 4.90198 13.2737 4.8886 13.2445 4.86106C13.1885 4.80939 13.1562 4.71706 13.1599 4.61975L13.2106 3.30065C13.2165 3.15376 13.2988 3.04228 13.4018 3.0491C13.5015 3.0575 13.5778 3.18366 13.5723 3.33108L13.5401 4.16676L15.043 2.93946L13.7487 0.854177L13.6614 1.6521C13.6456 1.79767 13.5527 1.8963 13.4539 1.87348C13.355 1.85013 13.2879 1.71269 13.3038 1.56738L13.4507 0.224404C13.4619 0.123157 13.5111 0.0402634 13.5776 0.0108859C13.6447 -0.0177048 13.7165 0.0108924 13.7633 0.0864346L15.4658 2.82904C15.5031 2.88936 15.5196 2.97172 15.5107 3.05251C15.502 3.13304 15.4682 3.20359 15.4197 3.2432L13.4284 4.86893C13.401 4.89096 13.3708 4.90198 13.3408 4.90198Z"
        fill="#FF9900" />
    <path
        d="M3.38714 8.19827C3.30907 8.19827 3.23189 8.1466 3.18067 8.04797L1.49067 4.79651C1.40335 4.62838 1.42487 4.38785 1.53869 4.25906C1.65233 4.12974 1.81558 4.162 1.90308 4.32988L3.59308 7.5816C3.6804 7.74947 3.65888 7.99 3.54488 8.11879C3.49794 8.17256 3.44227 8.19827 3.38714 8.19827Z"
        fill="#FF9900" />
    <path
        d="M4.72314 7.27455C4.61271 7.27455 4.51009 7.16989 4.47524 7.00622C4.39307 6.6209 4.34079 6.34575 4.28851 6.07034C4.23764 5.80174 4.1866 5.53367 4.10658 5.15779C4.06336 4.95556 4.13965 4.74048 4.27641 4.67726C4.41442 4.61352 4.55935 4.72605 4.60221 4.92776C4.68437 5.31308 4.73666 5.58823 4.78894 5.86364C4.8398 6.13224 4.89084 6.40031 4.97087 6.77619C5.01409 6.97842 4.93779 7.1935 4.80104 7.25672C4.77507 7.26878 4.74893 7.27455 4.72314 7.27455Z"
        fill="#FF9900" />
    <path
        d="M2.64409 10.1455C2.61012 10.1455 2.57562 10.1358 2.54219 10.1148C1.69746 9.58261 0.881001 8.93133 0.115762 8.17879C-0.00374499 8.06128 -0.0359335 7.82338 0.0437381 7.64737C0.12341 7.47084 0.284709 7.42363 0.404039 7.54114C1.14278 8.26745 1.9306 8.89618 2.74617 9.40976C2.87813 9.49317 2.93948 9.71822 2.88328 9.91285C2.84096 10.0584 2.7451 10.1455 2.64409 10.1455Z"
        fill="#FF9900" />
    <path
        d="M1.78533 12.4879C1.59593 12.4879 1.43712 12.4827 1.28169 12.4774C1.03858 12.4693 0.808281 12.4619 0.467542 12.4724C0.465764 12.4724 0.46363 12.4724 0.461851 12.4724C0.321003 12.4724 0.205231 12.3061 0.202207 12.0974C0.199184 11.8854 0.313001 11.7102 0.456516 11.7057C0.80917 11.6952 1.0553 11.7031 1.2936 11.711C1.53671 11.7189 1.76701 11.7267 2.10775 11.716C2.25233 11.7123 2.37024 11.8794 2.37326 12.0911C2.37628 12.3027 2.26247 12.4782 2.11895 12.4827C1.99624 12.4863 1.88634 12.4879 1.78533 12.4879Z"
        fill="#FF9900" />
</svg>
