<svg width="20" height="21" viewBox="0 0 20 21" fill="none" xmlns="http://www.w3.org/2000/svg">
<path d="M14.1665 2.54816C14.784 2.66566 15.1507 2.79566 15.4665 3.18566C15.864 3.67399 15.8432 4.20149 15.8007 5.25649C15.6507 9.05066 14.8007 13.8348 10.0007 13.8348C5.20067 13.8348 4.34984 9.05149 4.19817 5.25649C4.15651 4.20149 4.13567 3.67316 4.53151 3.18566C4.92817 2.69733 5.40234 2.61733 6.35151 2.45733C7.55748 2.25978 8.77781 2.16305 9.99984 2.16816C10.5987 2.16927 11.1543 2.18816 11.6665 2.22483" stroke="#FF9900" stroke-width="1.5" stroke-linecap="round"/>
<path d="M15.8332 4.66797L16.624 4.9313C17.449 5.2063 17.8615 5.3438 18.0973 5.6713C18.3332 5.9988 18.3332 6.43464 18.3332 7.30297V7.3638C18.3332 8.08047 18.3332 8.43964 18.1607 8.73297C17.9882 9.0263 17.674 9.20047 17.0473 9.54964L14.5832 10.918M4.1665 4.66797L3.37567 4.9313C2.55067 5.2063 2.13817 5.3438 1.90234 5.6713C1.6665 5.9988 1.6665 6.43464 1.6665 7.30297V7.3638C1.6665 8.08047 1.6665 8.43964 1.839 8.73297C2.0115 9.0263 2.32567 9.20047 2.95234 9.54964L5.4165 10.918" stroke="#FF9900" stroke-width="1.5"/>
<path d="M10 14.668V16.3346" stroke="#FF9900" stroke-width="1.5" stroke-linecap="round"/>
<path d="M12.9163 18.8333H7.08301L7.36634 17.42C7.40409 17.2312 7.50607 17.0612 7.65495 16.9391C7.80384 16.8169 7.99043 16.7501 8.18301 16.75H11.8163C12.0089 16.7501 12.1955 16.8169 12.3444 16.9391C12.4933 17.0612 12.5953 17.2312 12.633 17.42L12.9163 18.8333Z" stroke="#FF9900" stroke-width="1.5" stroke-linecap="round" stroke-linejoin="round"/>
<path d="M15 18.8359H5" stroke="#FF9900" stroke-width="1.5" stroke-linecap="round"/>
</svg>
