<svg fill="none" height="24" viewBox="0 0 24 24" width="24" xmlns="http://www.w3.org/2000/svg">
    <path
        d="M23.902 15.997C23.591 14.406 22.474 13.13 21 12.478V11C21 6.037 16.962 2 12 2C7.038 2 3 6.037 3 11V12.424C1.237 13.198 0 14.955 0 17C0 19.757 2.244 22 5.193 22C6.189 22 7 21.189 7 20.193V13.806C7 12.81 6.189 11.999 5.193 11.999C4.851 11.999 4.323 12.034 4 12.1V10.999C4 6.589 7.589 3 12 3C16.411 3 20 6.589 20 11V12.147C19.614 12.061 19.218 12 18.807 12C17.811 12 17 12.811 17 13.807V21H14C14 20.448 13.552 20 13 20C12.448 20 12 20.448 12 21C12 21.483 12.35 21.867 12.805 21.961C12.865 21.986 12.931 22 13 22H19C20.5 22 21.907 21.336 22.861 20.177C23.815 19.019 24.194 17.495 23.902 15.997ZM5.193 13C5.638 13 6 13.362 6 13.807V20.194C6 20.638 5.638 21.001 5.193 21.001C2.846 21.001 1 19.207 1 17.001C1 14.795 2.897 13.001 5.193 13.001V13ZM22.089 19.541C21.325 20.468 20.199 21 19 21H18V13.807C18 13.363 18.362 13 18.807 13C20.83 13 22.56 14.341 22.921 16.188C23.156 17.392 22.852 18.614 22.089 19.541Z"
        fill="white" />
</svg>
