<svg fill="none" height="20" viewBox="0 0 20 20" width="20" xmlns="http://www.w3.org/2000/svg">
    <path
        d="M17.5 3.33333H14.9167C14.7232 2.39284 14.2115 1.54779 13.4677 0.940598C12.7239 0.333408 11.7935 0.0012121 10.8333 0L9.16666 0C8.20649 0.0012121 7.2761 0.333408 6.53229 0.940598C5.78848 1.54779 5.27675 2.39284 5.08333 3.33333H2.5C2.27899 3.33333 2.06702 3.42113 1.91074 3.57741C1.75446 3.73369 1.66667 3.94565 1.66667 4.16667C1.66667 4.38768 1.75446 4.59964 1.91074 4.75592C2.06702 4.9122 2.27899 5 2.5 5H3.33333V15.8333C3.33466 16.938 3.77407 17.997 4.55518 18.7782C5.3363 19.5593 6.39534 19.9987 7.5 20H12.5C13.6047 19.9987 14.6637 19.5593 15.4448 18.7782C16.2259 17.997 16.6653 16.938 16.6667 15.8333V5H17.5C17.721 5 17.933 4.9122 18.0893 4.75592C18.2455 4.59964 18.3333 4.38768 18.3333 4.16667C18.3333 3.94565 18.2455 3.73369 18.0893 3.57741C17.933 3.42113 17.721 3.33333 17.5 3.33333ZM9.16666 1.66667H10.8333C11.3502 1.6673 11.8543 1.82781 12.2763 2.1262C12.6984 2.42459 13.0178 2.84624 13.1908 3.33333H6.80917C6.98215 2.84624 7.30158 2.42459 7.72365 2.1262C8.14573 1.82781 8.64977 1.6673 9.16666 1.66667ZM15 15.8333C15 16.4964 14.7366 17.1323 14.2678 17.6011C13.7989 18.0699 13.163 18.3333 12.5 18.3333H7.5C6.83696 18.3333 6.20107 18.0699 5.73223 17.6011C5.26339 17.1323 5 16.4964 5 15.8333V5H15V15.8333Z"
        fill="#CE1225" />
    <path
        d="M8.33333 14.9997C8.55435 14.9997 8.76631 14.9119 8.92259 14.7556C9.07887 14.5993 9.16667 14.3874 9.16667 14.1663V9.16634C9.16667 8.94533 9.07887 8.73337 8.92259 8.57709C8.76631 8.42081 8.55435 8.33301 8.33333 8.33301C8.11232 8.33301 7.90036 8.42081 7.74408 8.57709C7.5878 8.73337 7.5 8.94533 7.5 9.16634V14.1663C7.5 14.3874 7.5878 14.5993 7.74408 14.7556C7.90036 14.9119 8.11232 14.9997 8.33333 14.9997Z"
        fill="#CE1225" />
    <path
        d="M11.6667 14.9997C11.8877 14.9997 12.0996 14.9119 12.2559 14.7556C12.4122 14.5993 12.5 14.3874 12.5 14.1663V9.16634C12.5 8.94533 12.4122 8.73337 12.2559 8.57709C12.0996 8.42081 11.8877 8.33301 11.6667 8.33301C11.4457 8.33301 11.2337 8.42081 11.0774 8.57709C10.9211 8.73337 10.8333 8.94533 10.8333 9.16634V14.1663C10.8333 14.3874 10.9211 14.5993 11.0774 14.7556C11.2337 14.9119 11.4457 14.9997 11.6667 14.9997Z"
        fill="#CE1225" />
</svg>
