<svg fill="none" height="16" viewBox="0 0 16 16" width="16" xmlns="http://www.w3.org/2000/svg">
    <g clip-path="url(#clip0_921_13661)">
        <path
            d="M5.33333 1.66667C5.33333 0.746 6.07933 0 7 0C7.92067 0 8.66667 0.746 8.66667 1.66667C8.66667 2.58733 7.92067 3.33333 7 3.33333C6.07933 3.33333 5.33333 2.58733 5.33333 1.66667ZM0 6.66667V5.33333C0 5.08933 0.0706667 4.86333 0.185333 4.66667C0.0706667 4.47 0 4.244 0 4V2.66667C0 1.93133 0.598 1.33333 1.33333 1.33333H2.66667C3.402 1.33333 4 1.93133 4 2.66667V4C4 4.244 3.92933 4.47 3.81467 4.66667C3.92933 4.86333 4 5.08933 4 5.33333V6.66667C4 7.402 3.402 8 2.66667 8H1.33333C0.598 8 0 7.402 0 6.66667ZM2.66667 5.33333H1.33333V6.66667H2.66667V5.33333ZM1.33333 4H2.66667V2.66667H1.33333V4ZM16 13.6667C16 14.9533 14.9533 16 13.6667 16C12.7393 16 11.9433 15.452 11.5673 14.6667H8C7.63133 14.6667 7.33333 14.368 7.33333 14C7.33333 13.632 7.63133 13.3333 8 13.3333H8.66667V11.8167C8.66667 11.5653 8.52733 11.3373 8.30333 11.2227L6.418 10.2607C5.748 9.914 5.33333 9.23333 5.33333 8.48267V5.63133C5.33333 5.154 5.522 4.726 5.866 4.42533C6.28667 4.05733 6.97333 3.87733 7.58067 4.048L10.7947 5.334H11.898C12.652 5.334 13.314 5.84267 13.508 6.57133L14.4407 10.0693C14.5693 10.5533 14.6193 11.038 14.628 11.548C15.4347 11.916 15.9993 12.7253 15.9993 13.668L16 13.6667ZM7.02733 9.07467L7.33333 9.23067V5.38467L7.17267 5.32067C6.992 5.31067 6.832 5.35067 6.74333 5.42867C6.70467 5.462 6.66667 5.512 6.66667 5.63067V8.482C6.66667 8.732 6.80467 8.95933 7.02733 9.07467ZM10 11.8167V13.3333H11.3673C11.5133 12.3287 12.2947 11.5333 13.294 11.3713C13.276 11.0453 13.238 10.73 13.1533 10.412L12.2213 6.91467C12.182 6.76867 12.05 6.66733 11.8993 6.66733H10.6673C10.5827 6.66733 10.4987 6.65133 10.42 6.62L8.66733 5.91867V9.912L8.91 10.036C9.58267 10.3793 10.0007 11.062 10.0007 11.8173L10 11.8167ZM14.6667 13.6667C14.6667 13.1153 14.218 12.6667 13.6667 12.6667C13.1153 12.6667 12.6667 13.1153 12.6667 13.6667C12.6667 14.218 13.1153 14.6667 13.6667 14.6667C14.218 14.6667 14.6667 14.218 14.6667 13.6667ZM5.574 11.484C5.838 11.9307 6 12.4447 6 13C6 14.654 4.654 16 3 16C1.346 16 0 14.654 0 13C0 12.0527 0.45 11.2167 1.13733 10.6667H0.666667C0.298 10.6667 0 10.368 0 10C0 9.632 0.298 9.33333 0.666667 9.33333H3.10533C3.784 9.33333 4.40933 9.67267 4.78067 10.2407C4.78067 10.2407 5.56267 11.4373 5.574 11.484ZM4.66667 13C4.66667 12.66 4.56333 12.344 4.38733 12.08L4.376 12.062C4.07533 11.6227 3.57133 11.3333 3 11.3333C2.08067 11.3333 1.33333 12.0813 1.33333 13C1.33333 13.9187 2.08067 14.6667 3 14.6667C3.91933 14.6667 4.66667 13.9187 4.66667 13Z"
            fill="#FF9900" />
    </g>
    <defs>
        <clipPath id="clip0_921_13661">
            <rect fill="white" height="16" width="16" />
        </clipPath>
    </defs>
</svg>
