<svg fill="none" height="52" viewBox="0 0 50 52" width="50" xmlns="http://www.w3.org/2000/svg">
    <g filter="url(#filter0_d_1277_8117)">
        <path clip-rule="evenodd" d="M18.3847 42.8674C28.4146 46.3609 39.3947 41.0129 42.9094 30.9222C46.4242 20.8315 41.1427 9.81927 31.1129 6.32569C21.0831 2.83211 10.103 8.18013 6.5882 18.2708C3.07341 28.3615 8.35491 39.3738 18.3847 42.8674Z"
            fill="#52229E"
            fill-rule="evenodd" />
        <path clip-rule="evenodd" d="M18.3847 42.8674C28.4146 46.3609 39.3947 41.0129 42.9094 30.9222C46.4242 20.8315 41.1427 9.81927 31.1129 6.32569C21.0831 2.83211 10.103 8.18013 6.5882 18.2708C3.07341 28.3615 8.35491 39.3738 18.3847 42.8674Z"
            fill-rule="evenodd"
            stroke="white" stroke-width="3" />
    </g>
    <path clip-rule="evenodd" d="M21.9601 32.611C26.3591 34.1433 31.1749 31.7977 32.7165 27.3719C34.2581 22.9462 31.9416 18.1163 27.5426 16.584C23.1435 15.0517 18.3277 17.3973 16.7861 21.8231C15.2446 26.2488 17.561 31.0788 21.9601 32.611Z"
        fill="white"
        fill-rule="evenodd" />
    <defs>
        <filter color-interpolation-filters="sRGB" filterUnits="userSpaceOnUse" height="49.6816" id="filter0_d_1277_8117" width="49.4977"
            x="0" y="1.75586">
            <feFlood flood-opacity="0" result="BackgroundImageFix" />
            <feColorMatrix in="SourceAlpha" result="hardAlpha"
                type="matrix" values="0 0 0 0 0 0 0 0 0 0 0 0 0 0 0 0 0 0 127 0" />
            <feOffset dy="2" />
            <feGaussianBlur stdDeviation="2" />
            <feColorMatrix type="matrix" values="0 0 0 0 0 0 0 0 0 0 0 0 0 0 0 0 0 0 0.1 0" />
            <feBlend in2="BackgroundImageFix" mode="normal" result="effect1_dropShadow_1277_8117" />
            <feBlend in="SourceGraphic" in2="effect1_dropShadow_1277_8117" mode="normal"
                result="shape" />
        </filter>
    </defs>
</svg>
