<svg width="20" height="20" viewBox="0 0 20 20" fill="none" xmlns="http://www.w3.org/2000/svg">
<path d="M14.9107 2.63965V0.543393C14.9105 0.440216 14.9374 0.339131 14.988 0.251994C15.0386 0.164858 15.1109 0.095284 15.1965 0.0514338C15.2821 0.00758355 15.3773 -0.00872448 15.4711 0.00442255C15.5648 0.0175696 15.6532 0.0596265 15.7258 0.12566L19.8213 3.85054C19.8998 3.92198 19.9562 4.01809 19.9828 4.12578C20.0095 4.23347 20.005 4.34751 19.9702 4.45236C19.9353 4.5572 19.8716 4.64777 19.7879 4.71171C19.7042 4.77566 19.6044 4.80987 19.5022 4.8097H0V2.63965H14.9107ZM0 17.83H19.8809V20H0V17.83ZM0 10.2348H19.8809V12.4048H0V10.2348Z" fill="#FF9900"/>
</svg>
