<svg fill="none" height="24" viewBox="0 0 24 24" width="24" xmlns="http://www.w3.org/2000/svg">
    <path
        d="M7.87354 15.6235C7.59612 15.6235 6.79081 15.1556 3.16625 12.9741C1.88816 12.2049 0.442537 11.3349 0.214678 11.239C0.108021 11.2178 0.0207539 11.1267 0.00315723 11.0054C-0.019108 10.852 0.0787556 10.7081 0.222043 10.6841C1.89337 10.4046 11.2812 6.58065 12.5078 5.55123C12.5848 5.48673 12.6884 5.47344 12.7771 5.51619C12.804 5.52928 12.8284 5.547 12.8495 5.56799C13.3811 5.87011 19.0078 7.78278 19.6139 7.86751C19.6141 7.86751 19.6143 7.86751 19.6145 7.86732C19.6868 7.85692 19.7612 7.87926 19.8179 7.92951C19.9124 8.01366 19.9443 8.14999 19.8991 8.27727C19.7138 8.79814 15.489 11.4348 14.1985 12.2305C12.5984 13.2171 8.88877 15.4568 7.94609 15.6091C7.92616 15.6181 7.90299 15.6235 7.87354 15.6235ZM7.75791 15.0746C7.7299 15.0857 7.70009 15.1036 7.67226 15.1319C7.69686 15.1069 7.72631 15.0875 7.75791 15.0746ZM7.85576 15.0549C7.85936 15.0549 7.86313 15.0549 7.86618 15.0549C8.19729 15.0549 10.1909 14.0471 13.804 11.8248C16.3512 10.2583 18.3563 8.91252 19.1132 8.32002C19.0302 8.29614 18.937 8.26861 18.8323 8.23741C17.9695 7.98016 16.4424 7.47681 15.0325 6.98463C13.6415 6.49919 12.9915 6.25869 12.6855 6.10445C11.1476 7.17238 3.72629 10.2367 1.02808 11.0541C1.47823 11.3151 2.20957 11.7529 3.42302 12.4833C5.13726 13.515 7.47133 14.9197 7.85271 15.0549C7.85397 15.0549 7.85487 15.0549 7.85576 15.0549ZM19.4742 7.93799C19.4604 7.95127 19.4471 7.96706 19.4349 7.98574C19.4464 7.96822 19.4597 7.95204 19.4742 7.93799ZM12.9313 5.75284C12.9313 5.75303 12.9313 5.75323 12.9313 5.75342C12.9313 5.75303 12.9313 5.75284 12.9313 5.75284Z"
        fill="#FF9900" />
    <path
        d="M7.99742 13.9909C7.97731 13.9909 7.95702 13.9861 7.93853 13.9771C6.33328 13.1862 4.7485 12.317 3.22819 11.3939C3.17935 11.3644 3.1517 11.3067 3.15726 11.2468C3.16283 11.1871 3.20108 11.1365 3.25422 11.1182C6.08819 10.1354 8.85158 8.92532 11.4676 7.52196C11.8884 7.29628 12.3136 7.06098 12.7313 6.82298C12.767 6.80257 12.8089 6.79948 12.8469 6.81489C14.2328 7.36926 15.6629 7.87434 17.0978 8.31588C17.1506 8.33205 17.1897 8.37961 17.1982 8.43776C17.2068 8.49611 17.1831 8.55407 17.1375 8.587C14.3006 10.6337 11.2449 12.4474 8.0547 13.9776C8.03675 13.9865 8.017 13.9909 7.99742 13.9909ZM3.64691 11.2992C5.05609 12.1443 6.51823 12.9421 7.99832 13.6732C11.0583 12.2013 13.9939 10.4671 16.7284 8.51633C15.4051 8.10098 14.088 7.63268 12.808 7.1224C12.4061 7.35078 11.9982 7.57626 11.5942 7.79289C9.05951 9.15234 6.38733 10.3312 3.64691 11.2992Z"
        fill="#FF9900" />
    <path
        d="M12.985 8.94098C13.2709 9.51288 12.5338 10.4855 11.2846 11.0618C10.037 11.6393 8.78069 11.5804 8.53128 10.9842C8.2808 10.3869 9.10173 9.4969 10.3129 8.94329C11.5256 8.39123 12.6976 8.36755 12.985 8.94098Z"
        fill="#FF9900" />
    <path
        d="M8.13566 17.1744C8.13242 17.1744 8.12955 17.1744 8.12649 17.1742L8.12668 17.1717C7.84782 17.1444 7.09188 16.7602 4.41809 15.1739C4.05879 14.961 0.899647 13.082 0.624564 12.7623C0.53658 12.6601 0.526529 12.5415 0.560824 12.4465C0.568725 12.4209 0.576983 12.3996 0.596196 12.378C0.605892 12.3641 0.616665 12.351 0.628695 12.3393L0.634082 12.3456C0.750615 12.2657 1.07131 12.1598 2.06659 11.8311C2.20485 11.7859 2.35191 11.8687 2.39465 12.0173C2.43738 12.166 2.35964 12.3233 2.22102 12.3691C1.85903 12.4887 1.58179 12.5808 1.37638 12.6491C2.78573 13.5957 7.58118 16.4265 8.13081 16.6118C8.13404 16.6118 8.13691 16.6118 8.14014 16.612C8.1405 16.612 8.14104 16.612 8.1414 16.612C8.45832 16.612 10.3861 15.6041 13.8758 13.3882C16.3865 11.7938 18.3509 10.4301 19.039 9.86396C18.8483 9.80177 18.5822 9.71588 18.2279 9.60439C18.0889 9.56068 18.0092 9.40413 18.0501 9.25509C18.0911 9.10605 18.237 9.02133 18.3758 9.06446C19.241 9.33712 19.5537 9.43552 19.6773 9.51505L19.6809 9.51023C19.692 9.51967 19.7021 9.52987 19.7114 9.54066C19.7387 9.56511 19.7513 9.58918 19.7601 9.61787C19.7913 9.69027 19.7951 9.77519 19.7672 9.85703C19.5916 10.3723 15.5157 12.9986 14.2706 13.7914C12.7097 14.785 9.06648 17.056 8.19742 17.1702C8.18827 17.1719 8.17839 17.1729 8.16761 17.1733C8.15666 17.174 8.14589 17.1744 8.13566 17.1744ZM7.95664 16.6849C7.95646 16.6851 7.95645 16.6853 7.95627 16.6855C7.95663 16.6853 7.95664 16.6851 7.95664 16.6849ZM7.96777 16.6747C7.964 16.678 7.96041 16.6815 7.95664 16.6849C7.96023 16.6815 7.964 16.678 7.96777 16.6747Z"
        fill="#FF9900" />
    <path
        d="M8.31272 18.8286C8.30967 18.8286 8.30661 18.8286 8.30374 18.8284V18.8259C8.02506 18.7986 7.26912 18.4146 4.59515 16.8281C4.23585 16.615 1.07671 14.736 0.801631 14.4164C0.713647 14.3141 0.70359 14.1955 0.737886 14.1006C0.745786 14.0748 0.754044 14.0534 0.773257 14.032C0.782953 14.0179 0.793906 14.005 0.805757 13.9933L0.811143 13.9997C0.927497 13.9197 1.24819 13.8138 2.24366 13.4853C2.3821 13.4401 2.52916 13.5229 2.57171 13.6715C2.61445 13.8202 2.5367 13.9775 2.39808 14.0233C2.03789 14.1421 1.76011 14.2344 1.55362 14.3031C2.96315 15.2499 7.75824 18.0805 8.30787 18.266C8.3111 18.2662 8.31415 18.266 8.31702 18.2662C8.31756 18.2662 8.3181 18.2662 8.31846 18.2662C8.6352 18.2662 10.5631 17.2583 14.0528 15.0424C16.5875 13.4328 18.5653 12.0583 19.2354 11.5024C19.021 11.4227 18.7052 11.3117 18.2785 11.1771C18.1396 11.1332 18.0598 10.9769 18.1008 10.8278C18.1417 10.6788 18.2888 10.5941 18.4265 10.6372C19.3807 10.938 19.7225 11.072 19.8545 11.1689L19.8578 11.1644C19.8739 11.1783 19.8883 11.1937 19.9008 11.2103C19.9181 11.2297 19.928 11.2484 19.935 11.2676C19.9684 11.341 19.9728 11.4279 19.9443 11.5112C19.7689 12.0263 15.6931 14.6528 14.4479 15.4456C12.8868 16.4394 9.24355 18.7106 8.37467 18.8246C8.36569 18.8263 8.35563 18.8273 8.34486 18.8277C8.33354 18.8282 8.32277 18.8286 8.31272 18.8286ZM8.1425 18.331C8.13998 18.3332 8.13747 18.3357 8.13496 18.338C8.13729 18.3357 8.1398 18.3334 8.1425 18.331ZM8.14285 18.3305C8.14267 18.3307 8.1425 18.3309 8.14232 18.3309C8.14268 18.3309 8.14285 18.3307 8.14285 18.3305Z"
        fill="#FF9900" />
    <path
        d="M8.64153 20.2931C8.63848 20.2931 8.63543 20.2931 8.63255 20.2929V20.2904C8.35388 20.2631 7.59776 19.8791 4.92378 18.2924C4.56431 18.0793 1.40499 16.2001 1.13026 15.8808C1.03815 15.7736 1.0315 15.6486 1.07208 15.5516C1.11823 15.4332 1.2116 15.4029 1.31 15.371C1.42689 15.333 1.71042 15.2408 2.34497 15.0311C2.48323 14.9862 2.63029 15.0686 2.67303 15.2173C2.71576 15.366 2.63801 15.5233 2.49939 15.5691C2.24155 15.6542 2.04152 15.7201 1.8871 15.7707C3.30237 16.7204 8.08795 19.545 8.63668 19.7303C8.64009 19.7307 8.64297 19.7303 8.64584 19.7305C8.64638 19.7305 8.64692 19.7305 8.64728 19.7305C8.96402 19.7305 10.8919 18.7226 14.3816 16.5067C16.9217 14.8936 18.9026 13.5168 19.5687 12.963C19.3604 12.8835 19.0528 12.7735 18.6329 12.6413C18.4939 12.5974 18.4141 12.441 18.4551 12.292C18.496 12.1429 18.6427 12.0582 18.7808 12.1013C19.7102 12.3944 20.0499 12.5355 20.1824 12.6345L20.1869 12.6289C20.2099 12.6488 20.2295 12.6717 20.2451 12.6967C20.2516 12.7062 20.2568 12.7156 20.2607 12.725C20.297 12.7997 20.3027 12.8895 20.2733 12.9755C20.0979 13.4906 16.0219 16.1171 14.7768 16.9097C13.2156 17.9037 9.57218 20.1747 8.70348 20.2889C8.6945 20.2906 8.68444 20.2916 8.67385 20.292C8.66236 20.2927 8.65158 20.2931 8.64153 20.2931ZM8.46251 19.8036C8.46233 19.8038 8.46215 19.8038 8.46197 19.804C8.46215 19.8036 8.46233 19.8036 8.46251 19.8036Z"
        fill="#FF9900" />
    <path
        d="M11.7128 19.9105C11.7118 19.8465 11.7155 19.7828 11.7222 19.7195C10.0774 20.6851 9.1378 21.1405 8.92538 21.1405H8.92412C8.92089 21.1403 8.9182 21.1407 8.91479 21.1403C8.36588 20.9551 3.5803 18.1305 2.16502 17.1808C2.31944 17.1299 2.51947 17.0643 2.7775 16.9792C2.91612 16.9333 2.99368 16.776 2.95113 16.6274C2.90857 16.4789 2.76134 16.3963 2.62308 16.4412C1.98888 16.6507 1.70518 16.7429 1.58828 16.7808C1.48953 16.813 1.3958 16.8434 1.34983 16.9622C1.30943 17.0591 1.31644 17.1842 1.40837 17.2911C1.68399 17.6109 4.84295 19.4897 5.20225 19.7027C7.87605 21.289 8.63198 21.6731 8.91084 21.7005L8.91066 21.703C8.91371 21.7032 8.91658 21.7032 8.91981 21.7032C8.92987 21.7032 8.94082 21.7028 8.95214 21.7018C8.96273 21.7014 8.97243 21.7003 8.98158 21.6988C9.41432 21.6419 10.5355 21.05 11.7448 20.3474C11.7319 20.2016 11.7152 20.0557 11.7128 19.9105Z"
        fill="#FF9900" />
    <path
        d="M20.5388 14.1349C20.5347 14.1255 20.5297 14.1159 20.523 14.1062C20.5072 14.0814 20.4879 14.0587 20.465 14.0388L20.4607 14.0444C20.3282 13.9454 19.9885 13.8045 19.0589 13.5114C18.9198 13.4685 18.7742 13.553 18.7332 13.702C18.6925 13.8511 18.772 14.0076 18.911 14.0513C19.331 14.1836 19.6385 14.2936 19.8468 14.3729C19.181 14.9265 17.2 16.3035 14.6599 17.9166C14.4276 18.0641 14.2033 18.2054 13.9848 18.3423C14.2263 18.3284 14.4678 18.3178 14.7095 18.3194C14.8197 18.32 14.9298 18.3238 15.0401 18.3292C15.0449 18.3261 15.0501 18.3229 15.0548 18.3198C16.2998 17.527 20.3758 14.9007 20.5514 14.3854C20.5807 14.2994 20.5748 14.2096 20.5388 14.1349Z"
        fill="#FF9900" />
    <path d="M8.74029 21.2141L8.73956 21.2149C8.74004 21.2146 8.74029 21.2141 8.74029 21.2141Z"
        fill="#FF9900" />
    <path
        d="M8.75108 21.2041C8.74767 21.207 8.74407 21.2103 8.74066 21.2135C8.74407 21.2103 8.74749 21.207 8.75108 21.2041Z"
        fill="#FF9900" />
    <path
        d="M11.6901 21.07C10.0315 22.0085 9.08272 22.4504 8.8651 22.4504C8.86115 22.4502 8.8563 22.45 8.85181 22.45C8.30577 22.2559 3.56167 19.3514 2.16022 18.3784C2.31554 18.3303 2.51665 18.2677 2.77557 18.187C2.91473 18.1437 2.99481 17.9873 2.95423 17.8383C2.91383 17.6892 2.76839 17.6028 2.62905 17.6467C1.99809 17.8437 1.71259 17.9313 1.593 17.9681C1.48688 18.0006 1.39441 18.0293 1.34754 18.1489C1.30696 18.245 1.31254 18.3688 1.40231 18.4762C1.67291 18.8005 4.8044 20.7317 5.16046 20.9508C7.8111 22.5816 8.56147 22.9782 8.8396 23.01V23.0127C8.84445 23.0129 8.8493 23.0129 8.85469 23.0129C8.86313 23.0129 8.87192 23.0127 8.88108 23.0121C8.89186 23.0119 8.90155 23.011 8.91071 23.0094C9.3183 22.9628 10.3409 22.4535 11.4748 21.8258C11.5213 21.5666 11.6168 21.322 11.6901 21.07Z"
        fill="#FF9900" />
    <path
        d="M20.5728 15.6325C20.5642 15.6111 20.5524 15.5907 20.5305 15.5689C20.522 15.5595 20.5132 15.5502 20.5035 15.5418L20.5017 15.5441C20.3884 15.4576 20.0993 15.3398 19.2802 15.0669C19.1414 15.0209 18.9947 15.1037 18.9516 15.2522C18.9085 15.4006 18.9859 15.5583 19.1243 15.6045C19.4666 15.7185 19.7088 15.8056 19.8767 15.8691C19.3271 16.3106 17.9093 17.2763 16.0291 18.4613C16.2329 18.507 16.4349 18.5649 16.6265 18.6495C16.6527 18.661 16.6779 18.6758 16.7037 18.6887C18.3635 17.6356 20.4561 16.2519 20.5852 15.8901C20.6165 15.8017 20.6109 15.7091 20.5728 15.6325Z"
        fill="#FF9900" />
    <path
        d="M8.6872 22.5112C8.68379 22.5141 8.68038 22.5172 8.67679 22.5205C8.6802 22.5172 8.68379 22.5141 8.6872 22.5112Z"
        fill="#FF9900" />
    <path d="M8.68767 22.5105L8.68695 22.511C8.68743 22.511 8.68767 22.5105 8.68767 22.5105Z"
        fill="#FF9900" />
    <path
        d="M20.6904 19.5182C19.0232 19.5182 17.7175 18.8398 17.7175 17.9737C17.7175 17.1076 19.0232 16.4292 20.6904 16.4292C22.3576 16.4292 23.6635 17.1076 23.6635 17.9737C23.6635 18.8398 22.3578 19.5182 20.6904 19.5182ZM20.6904 16.8351C19.1615 16.8351 18.096 17.4353 18.096 17.9737C18.096 18.5121 19.1615 19.1123 20.6904 19.1123C22.2193 19.1123 23.285 18.5121 23.285 17.9737C23.285 17.4353 22.2193 16.8351 20.6904 16.8351Z"
        fill="#FF9900" />
    <path
        d="M14.3299 24C12.6627 24 11.3569 23.3216 11.3569 22.4556V21.7312C11.3569 21.6192 11.4417 21.5283 11.5462 21.5283C11.6507 21.5283 11.7354 21.6192 11.7354 21.7312V22.4556C11.7354 22.994 12.8009 23.594 14.3299 23.594C15.8588 23.594 16.9245 22.994 16.9245 22.4556V21.681C16.9245 21.5689 17.0092 21.478 17.1137 21.478C17.2182 21.478 17.303 21.5689 17.303 21.681V22.4556C17.3028 23.3216 15.9971 24 14.3299 24Z"
        fill="#FF9900" />
    <path
        d="M20.6904 20.3747C19.0232 20.3747 17.7175 19.6963 17.7175 18.8302V18.106C17.7175 17.9939 17.8022 17.903 17.9067 17.903C18.0112 17.903 18.096 17.9939 18.096 18.106V18.8302C18.096 19.3686 19.1615 19.9688 20.6904 19.9688C22.2193 19.9688 23.285 19.3686 23.285 18.8302V18.0557C23.285 17.9437 23.3698 17.8528 23.4743 17.8528C23.5788 17.8528 23.6635 17.9437 23.6635 18.0557V18.8302C23.6635 19.6963 22.3578 20.3747 20.6904 20.3747Z"
        fill="#FF9900" />
    <path
        d="M17.1367 21.0848C17.136 21.0865 17.136 21.0887 17.1353 21.0904C17.1213 21.1256 17.1028 21.1588 17.0812 21.1892C17.0592 21.2202 17.034 21.2485 17.0066 21.2741C16.978 21.3007 16.9473 21.3244 16.9153 21.3457C16.8988 21.3567 16.881 21.3656 16.8638 21.3754C16.9024 21.4501 16.9245 21.5252 16.9245 21.5991C16.9245 22.1375 15.8588 22.7377 14.3299 22.7377C12.8009 22.7377 11.7354 22.1375 11.7354 21.5991C11.7354 21.4166 11.8604 21.2273 12.0822 21.0563C12.0741 21.0488 12.0655 21.0419 12.0574 21.0342C12.0118 20.9907 11.9678 20.9448 11.9287 20.8948C11.8933 20.8495 11.862 20.8004 11.8382 20.7471C11.5338 20.9899 11.3571 21.2816 11.3571 21.5991C11.3571 22.4653 12.6629 23.1436 14.3301 23.1436C15.9973 23.1436 17.3032 22.4653 17.3032 21.5991C17.3028 21.4177 17.2427 21.2452 17.1367 21.0848Z"
        fill="#FF9900" />
    <path
        d="M14.5381 22.0241C12.8709 22.0241 11.565 21.3457 11.565 20.4796V19.7552C11.565 19.6431 11.6498 19.5522 11.7543 19.5522C11.8588 19.5522 11.9435 19.6431 11.9435 19.7552V20.4796C11.9435 21.018 13.0092 21.6182 14.5381 21.6182C16.0671 21.6182 17.1326 21.018 17.1326 20.4796V19.7049C17.1326 19.5928 17.2173 19.502 17.3218 19.502C17.4263 19.502 17.5111 19.5928 17.5111 19.7049V20.4796C17.5111 21.3457 16.2053 22.0241 14.5381 22.0241Z"
        fill="#FF9900" />
    <path
        d="M14.5382 21.1677C12.871 21.1677 11.565 20.4893 11.565 19.6232C11.565 18.7572 12.8708 18.0789 14.5382 18.0789C16.2053 18.0789 17.5111 18.7572 17.5111 19.6232C17.5111 20.4893 16.2053 21.1677 14.5382 21.1677ZM14.5382 18.4848C13.0092 18.4848 11.9435 19.0848 11.9435 19.6232C11.9435 20.1616 13.0092 20.7618 14.5382 20.7618C16.0671 20.7618 17.1326 20.1616 17.1326 19.6232C17.1326 19.0846 16.0671 18.4848 14.5382 18.4848Z"
        fill="#FF9900" />
    <path
        d="M21.027 21.0465C19.3598 21.0465 18.0539 20.3682 18.0539 19.502C18.0539 19.39 18.1387 19.2991 18.2432 19.2991C18.3477 19.2991 18.4324 19.39 18.4324 19.502C18.4324 20.0404 19.4981 20.6406 21.027 20.6406C22.556 20.6406 23.6215 20.0404 23.6215 19.502C23.6215 19.39 23.7062 19.2991 23.8107 19.2991C23.9152 19.2991 24 19.39 24 19.502C23.9998 20.3682 22.6941 21.0465 21.027 21.0465Z"
        fill="#FF9900" />
    <path
        d="M21.027 21.9028C19.3598 21.9028 18.0539 21.2244 18.0539 20.3583V19.6341C18.0539 19.522 18.1387 19.4311 18.2432 19.4311C18.3477 19.4311 18.4324 19.522 18.4324 19.6341V20.3583C18.4324 20.8967 19.4981 21.4969 21.027 21.4969C22.556 21.4969 23.6215 20.8967 23.6215 20.3583V19.5838C23.6215 19.4717 23.7062 19.3809 23.8107 19.3809C23.9152 19.3809 24 19.4717 24 19.5838V20.3583C23.9998 21.2244 22.6941 21.9028 21.027 21.9028Z"
        fill="#FF9900" />
    <path
        d="M23.4024 20.434C23.336 20.434 23.2716 20.3965 23.2369 20.3299C23.1859 20.232 23.2186 20.1084 23.31 20.0535C23.4601 19.9636 23.5685 19.7601 23.5998 19.5092C23.6073 19.448 23.6093 19.3615 23.5759 19.2981C23.5554 19.2591 23.5186 19.2384 23.496 19.2383C23.3908 19.2513 23.2981 19.1711 23.2865 19.0596C23.2744 18.9483 23.3491 18.8474 23.4531 18.8348C23.6298 18.8131 23.8109 18.919 23.9056 19.0979C23.9731 19.2257 23.9971 19.3863 23.9754 19.5627C23.9284 19.9401 23.7488 20.2561 23.4947 20.4082C23.4653 20.4256 23.4337 20.434 23.4024 20.434Z"
        fill="#FF9900" />
    <path
        d="M21.027 22.9535C19.3598 22.9535 18.0539 22.2751 18.0539 21.409C18.0539 21.2969 18.1387 21.2061 18.2432 21.2061C18.3477 21.2061 18.4324 21.2969 18.4324 21.409C18.4324 21.9474 19.4981 22.5476 21.027 22.5476C22.556 22.5476 23.6215 21.9474 23.6215 21.409C23.6215 21.2969 23.7062 21.2061 23.8107 21.2061C23.9152 21.2061 24 21.2969 24 21.409C23.9998 22.2751 22.6941 22.9535 21.027 22.9535Z"
        fill="#FF9900" />
    <path
        d="M21.027 23.8102C19.3598 23.8102 18.0539 23.1318 18.0539 22.2657V21.5413C18.0539 21.4292 18.1387 21.3383 18.2432 21.3383C18.3477 21.3383 18.4324 21.4292 18.4324 21.5413V22.2657C18.4324 22.8041 19.4981 23.4043 21.027 23.4043C22.556 23.4043 23.6215 22.8041 23.6215 22.2657V21.491C23.6215 21.379 23.7062 21.2881 23.8107 21.2881C23.9152 21.2881 24 21.379 24 21.491V22.2657C23.9998 23.1318 22.6941 23.8102 21.027 23.8102Z"
        fill="#FF9900" />
    <path
        d="M18.8718 22.4443C18.8445 22.4443 18.8165 22.4379 18.7901 22.4242C18.4621 22.2558 18.3075 22.1015 18.1762 21.9217C18.036 21.7299 17.9902 21.301 18.0784 21.0039C18.1477 20.7706 18.2771 20.6852 18.3736 20.6544C18.4743 20.6225 18.5792 20.6841 18.609 20.7915C18.6388 20.899 18.5815 21.012 18.4811 21.044C18.4752 21.0473 18.4474 21.0792 18.4283 21.1709C18.387 21.3715 18.4335 21.6153 18.4743 21.671C18.5757 21.81 18.6912 21.923 18.9539 22.0578C19.0482 22.1063 19.088 22.2276 19.043 22.3287C19.0103 22.4017 18.9424 22.4443 18.8718 22.4443Z"
        fill="#FF9900" />
    <path
        d="M23.2821 22.3927C23.2126 22.3927 23.1456 22.3515 23.1124 22.2802C23.0657 22.1799 23.1036 22.058 23.1973 22.0078C23.2904 21.9579 23.4261 21.8248 23.5062 21.7045C23.5834 21.5888 23.6227 21.4667 23.617 21.3612C23.6112 21.2612 23.5565 21.1671 23.487 21.1374C23.3897 21.0962 23.3419 20.9782 23.3803 20.874C23.4187 20.7696 23.5288 20.7184 23.626 20.7596C23.8319 20.8468 23.9802 21.0787 23.9948 21.3367C24.009 21.5909 23.9046 21.8054 23.8143 21.9406C23.719 22.0834 23.5383 22.2789 23.3663 22.3711C23.3392 22.3858 23.3105 22.3927 23.2821 22.3927Z"
        fill="#FF9900" />
    <path
        d="M10.6763 5.31218C10.5615 5.31218 10.4559 5.23073 10.4236 5.10634L10.0361 3.61229C9.99735 3.46267 10.079 3.30747 10.2187 3.26587C10.3577 3.22447 10.503 3.31209 10.5418 3.46171L10.9293 4.95557C10.968 5.10538 10.8863 5.26058 10.7468 5.30217C10.7231 5.30891 10.6994 5.31218 10.6763 5.31218Z"
        fill="#FF9900" />
    <path
        d="M12.1453 4.84148C12.1437 4.84148 12.1422 4.84148 12.1408 4.84148C11.9959 4.83897 11.8802 4.71092 11.8826 4.55553L11.9483 0.276898C11.9506 0.123044 12.0677 0 12.2104 0C12.2121 0 12.2135 0 12.2149 0C12.36 0.00250325 12.4755 0.130554 12.4731 0.285948L12.4074 4.56458C12.4051 4.71863 12.2882 4.84148 12.1453 4.84148Z"
        fill="#FF9900" />
    <path
        d="M13.8174 4.99605C13.8013 4.99605 13.7848 4.99451 13.7684 4.99105C13.626 4.96235 13.5323 4.81524 13.5594 4.66235C13.7334 3.67376 13.8453 2.66341 13.8916 1.65961C13.899 1.5046 14.0151 1.38386 14.1667 1.39253C14.3114 1.40023 14.4229 1.53233 14.4157 1.68753C14.3683 2.71713 14.2534 3.75309 14.0749 4.76691C14.0512 4.90189 13.941 4.99605 13.8174 4.99605Z"
        fill="#FF9900" />
    <path
        d="M15.0503 5.60415C15.0054 5.60415 14.9598 5.59183 14.9183 5.56583C14.7932 5.48746 14.751 5.31512 14.8239 5.18091L16.2781 2.50821C16.3512 2.37419 16.5121 2.32874 16.637 2.40692C16.7622 2.48529 16.8044 2.65763 16.7315 2.79184L15.2773 5.46455C15.2282 5.55408 15.1404 5.60415 15.0503 5.60415Z"
        fill="#FF9900" />
    <path
        d="M16.653 6.25451C16.5779 6.25451 16.5032 6.22254 16.4476 6.15958C16.3404 6.03788 16.3456 5.84628 16.4591 5.73152C16.9602 5.22413 17.5073 4.7618 18.0848 4.35801C18.2155 4.26616 18.3902 4.30621 18.4755 4.4462C18.5608 4.58619 18.524 4.77393 18.3933 4.8652C17.8436 5.24974 17.3235 5.68935 16.8467 6.17209C16.7923 6.22716 16.7227 6.25451 16.653 6.25451Z"
        fill="#FF9900" />
</svg>
