<svg width="21" height="20" viewBox="0 0 21 20" fill="none" xmlns="http://www.w3.org/2000/svg">
<path d="M10.5 2.5H4.66667C4.22464 2.5 3.80072 2.67559 3.48816 2.98816C3.17559 3.30072 3 3.72464 3 4.16667V15.8333C3 16.2754 3.17559 16.6993 3.48816 17.0118C3.80072 17.3244 4.22464 17.5 4.66667 17.5H16.3333C16.7754 17.5 17.1993 17.3244 17.5118 17.0118C17.8244 16.6993 18 16.2754 18 15.8333V10" stroke="#52229E" stroke-width="2" stroke-linecap="round" stroke-linejoin="round"/>
<path d="M15.8127 2.18574C16.1443 1.85422 16.5939 1.66797 17.0627 1.66797C17.5316 1.66797 17.9812 1.85422 18.3127 2.18574C18.6443 2.51726 18.8305 2.96689 18.8305 3.43574C18.8305 3.90458 18.6443 4.35422 18.3127 4.68574L10.8019 12.1974C10.604 12.3951 10.3596 12.5398 10.0911 12.6182L7.69691 13.3182C7.6252 13.3392 7.54919 13.3404 7.47683 13.3219C7.40447 13.3033 7.33843 13.2657 7.28561 13.2129C7.2328 13.16 7.19515 13.094 7.17661 13.0216C7.15807 12.9493 7.15933 12.8733 7.18024 12.8016L7.88024 10.4074C7.95901 10.1391 8.10402 9.89495 8.30191 9.6974L15.8127 2.18574Z" stroke="#52229E" stroke-width="2" stroke-linecap="round" stroke-linejoin="round"/>
</svg>
