<svg width="14" height="14" viewBox="0 0 14 14" fill="none" xmlns="http://www.w3.org/2000/svg">
<g clip-path="url(#clip0_1296_7402)">
<path d="M9.2165 2.41797H10.3498C10.6504 2.41797 10.9387 2.53737 11.1512 2.74991C11.3638 2.96246 11.4832 3.25072 11.4832 3.5513V11.4846C11.4832 11.7852 11.3638 12.0735 11.1512 12.286C10.9387 12.4986 10.6504 12.618 10.3498 12.618H3.54984C3.24926 12.618 2.96099 12.4986 2.74845 12.286C2.53591 12.0735 2.4165 11.7852 2.4165 11.4846V3.5513C2.4165 3.25072 2.53591 2.96246 2.74845 2.74991C2.96099 2.53737 3.24926 2.41797 3.54984 2.41797H4.68317" stroke="white" stroke-width="1.7" stroke-linecap="round" stroke-linejoin="round"/>
<path d="M8.65026 1.28125H5.25026C4.9373 1.28125 4.68359 1.53496 4.68359 1.84792V2.98125C4.68359 3.29421 4.9373 3.54792 5.25026 3.54792H8.65026C8.96322 3.54792 9.21693 3.29421 9.21693 2.98125V1.84792C9.21693 1.53496 8.96322 1.28125 8.65026 1.28125Z" stroke="white" stroke-width="1.7" stroke-linecap="round" stroke-linejoin="round"/>
</g>
<defs>
<clipPath id="clip0_1296_7402">
<rect width="13.6" height="13.6" fill="white" transform="translate(0.149902 0.148438)"/>
</clipPath>
</defs>
</svg>
