<svg width="10" height="18" viewBox="0 0 10 18" fill="none" xmlns="http://www.w3.org/2000/svg">
<path d="M7.51267 2.99818H9.41729V0.000165123H7.04239H6.5486C6.5486 0.000165123 4.74979 -0.0468603 3.60937 1.44627C3.60937 1.44627 2.83342 2.18695 2.82166 4.33847V6.58404H0V9.77016H2.82166V18H6.07833V9.77016H8.88823L9.2762 6.58404H6.07833V4.33847C6.09008 4.07981 6.20765 2.97466 7.51267 2.99818Z" fill="url(#paint0_radial_593_2473)"/>
<path d="M7.51267 2.99818H9.41729V0.000165123H7.04239H6.5486C6.5486 0.000165123 4.74979 -0.0468603 3.60937 1.44627C3.60937 1.44627 2.83342 2.18695 2.82166 4.33847V6.58404H0V9.77016H2.82166V18H6.07833V9.77016H8.88823L9.2762 6.58404H6.07833V4.33847C6.09008 4.07981 6.20765 2.97466 7.51267 2.99818Z" fill="url(#paint1_linear_593_2473)"/>
<defs>
<radialGradient id="paint0_radial_593_2473" cx="0" cy="0" r="1" gradientUnits="userSpaceOnUse" gradientTransform="translate(4.90484 9) rotate(69.5298) scale(12.2929 14.7272)">
<stop stop-color="#250266"/>
<stop offset="1" stop-color="#010014"/>
</radialGradient>
<linearGradient id="paint1_linear_593_2473" x1="-0.779869" y1="-2.43333" x2="10.4485" y2="1.39678" gradientUnits="userSpaceOnUse">
<stop offset="0.0736741" stop-color="#933EFF"/>
<stop offset="0.788339" stop-color="#230064" stop-opacity="0.6"/>
<stop offset="1" stop-color="#230064" stop-opacity="0"/>
</linearGradient>
</defs>
</svg>
