<svg width="22" height="19" viewBox="0 0 22 19" fill="none" xmlns="http://www.w3.org/2000/svg">
<path fill-rule="evenodd" clip-rule="evenodd" d="M15.6875 0.800781C13.7516 0.800781 12.0566 1.63328 11 3.04047C9.94344 1.63328 8.24844 0.800781 6.3125 0.800781C3.10384 0.804398 0.503617 3.40463 0.5 6.61328C0.5 13.1758 10.2303 18.4877 10.6447 18.707C10.8665 18.8264 11.1335 18.8264 11.3553 18.707C11.7697 18.4877 21.5 13.1758 21.5 6.61328C21.4964 3.40463 18.8962 0.804398 15.6875 0.800781ZM11 17.1883C9.28813 16.1908 2 11.6467 2 6.61328C2.0031 4.23284 3.93206 2.30388 6.3125 2.30078C8.13594 2.30078 9.66687 3.27203 10.3062 4.83203C10.4218 5.11337 10.6959 5.29706 11 5.29706C11.3041 5.29706 11.5782 5.11337 11.6938 4.83203C12.3331 3.26922 13.8641 2.30078 15.6875 2.30078C18.0679 2.30388 19.9969 4.23284 20 6.61328C20 11.6392 12.71 16.1898 11 17.1883Z" fill="#B35000"/>
</svg>
