<svg width="21" height="18" viewBox="0 0 21 18" fill="none" xmlns="http://www.w3.org/2000/svg">
<path d="M19.3406 1.63818C18.2744 0.589064 16.8306 0 15.3256 0C13.8205 0 12.3767 0.589064 11.3105 1.63818L10.5 2.43864L9.68949 1.63818C8.62328 0.589064 7.17953 0 5.67445 0C4.16936 0 2.72562 0.589064 1.65941 1.63818C0.596653 2.69243 0 4.11949 0 5.60712C0 7.09475 0.596653 8.52182 1.65941 9.57607L9.96716 17.7808C10.0369 17.8502 10.1199 17.9054 10.2114 17.943C10.3028 17.9806 10.4009 18 10.5 18C10.5991 18 10.6972 17.9806 10.7886 17.943C10.8801 17.9054 10.9631 17.8502 11.0328 17.7808L19.3406 9.57607C20.4033 8.52182 21 7.09475 21 5.60712C21 4.11949 20.4033 2.69243 19.3406 1.63818Z" fill="#FF9900"/>
</svg>
