<svg width="22" height="16" viewBox="0 0 22 16" fill="none" xmlns="http://www.w3.org/2000/svg">
<path fill-rule="evenodd" clip-rule="evenodd" d="M8.25 6.30078C8.25 5.88657 8.58579 5.55078 9 5.55078H16.5C16.9142 5.55078 17.25 5.88657 17.25 6.30078C17.25 6.71499 16.9142 7.05078 16.5 7.05078H9C8.58579 7.05078 8.25 6.71499 8.25 6.30078ZM9 10.0508H16.5C16.9142 10.0508 17.25 9.71499 17.25 9.30078C17.25 8.88657 16.9142 8.55078 16.5 8.55078H9C8.58579 8.55078 8.25 8.88657 8.25 9.30078C8.25 9.71499 8.58579 10.0508 9 10.0508ZM21.75 1.80078V13.0508C21.75 14.2934 20.7426 15.3008 19.5 15.3008H3C1.76138 15.3008 0.755677 14.2997 0.75 13.0611V4.05078C0.75 3.63657 1.08579 3.30078 1.5 3.30078C1.91421 3.30078 2.25 3.63657 2.25 4.05078V13.0508C2.25 13.465 2.58579 13.8008 3 13.8008C3.41421 13.8008 3.75 13.465 3.75 13.0508V1.80078C3.75 0.972354 4.42157 0.300781 5.25 0.300781H20.25C21.0784 0.300781 21.75 0.972354 21.75 1.80078ZM20.25 1.80078H5.25V13.0508C5.25037 13.3063 5.20693 13.56 5.12156 13.8008H19.5C19.9142 13.8008 20.25 13.465 20.25 13.0508V1.80078Z" fill="#B35000"/>
</svg>
