<svg fill="none" height="67" viewBox="0 0 300 67" width="300" xmlns="http://www.w3.org/2000/svg">
    <path
        d="M26.0105 0.399612C22.5284 0.953682 18.4528 3.20956 16.1182 5.82164C12.4778 9.85847 11.0929 13.4204 5.63238 32.6152C2.86253 42.1928 0.448813 51.3746 0.211397 53.0368C-0.659125 58.815 1.16106 62.8123 5.63238 65.0682L8.00653 66.2555L25.5753 66.3742C35.2301 66.4534 43.2627 66.3346 43.4605 66.1763C43.7771 65.8201 52.5219 34.594 52.5219 33.7233C52.5219 33.288 51.2161 33.2088 45.3203 33.288L38.1187 33.4067L35.2697 43.3009L32.4603 53.1951H25.2983C18.8485 53.1951 18.0967 53.116 17.3449 52.4432C16.7513 51.8891 16.5139 51.2163 16.5139 49.9894C16.5139 47.9314 25.3378 16.9427 26.4458 15.1618C28.1472 12.3914 27.7911 12.431 43.8562 12.3122L58.3385 12.1935L59.9213 6.37571C60.7918 3.16999 61.4249 0.439186 61.3458 0.241302C61.1084 -0.154465 28.6616 -0.0357361 26.0105 0.399612Z"
        fill="white" />
    <path
        d="M69.3782 18.6446C69.1012 19.4758 66.7667 29.2117 66.7667 29.4095C66.7667 29.5283 72.6229 29.647 79.7453 29.7262C95.0586 29.8845 94.9003 29.8053 94.8212 33.3277C94.7816 34.4358 94.6629 35.821 94.5047 36.3751L94.2277 37.3645L83.9793 37.602C72.9394 37.879 72.2272 37.9977 67.7163 40.2536C61.3457 43.4593 57.5866 49.6729 56.9931 57.984C56.6765 62.1792 57.5866 64.3955 60.119 65.7411L61.8205 66.6514H80.5763H99.3717L103.447 52.7995C108.235 36.573 109.106 33.1298 109.106 29.647C109.106 25.9664 108.473 24.1854 106.573 22.2857C104.595 20.3069 101.627 19.1591 97.1558 18.5655C92.2492 17.9718 69.5365 18.051 69.3782 18.6446ZM91.2996 47.3379C91.2996 47.5357 90.706 49.5937 89.9938 52.0079L88.7276 56.3614H80.972C71.8711 56.3614 71.7128 56.3218 71.9898 53.314C72.3063 50.1874 74.3244 48.0502 77.6482 47.3379C79.0727 47.0212 91.2996 47.0608 91.2996 47.3379Z"
        fill="white" />
    <path
        d="M122.441 23.4328C121.649 26.2824 120.977 28.8944 120.977 29.1319C120.977 29.5277 123.232 29.6464 130.908 29.6464C136.369 29.6464 140.761 29.7651 140.682 29.963C140.563 30.2796 132.887 37.4035 123.351 46.0708C111.915 56.4399 112.548 55.6484 111.163 60.9517C110.491 63.4846 109.858 65.8196 109.818 66.0967C109.699 66.5716 112.944 66.6507 129.128 66.7695L148.596 66.8486L149.466 63.6033C149.941 61.7828 150.653 59.1311 151.049 57.6272L151.761 54.9756H141.711C135.459 54.9756 131.66 54.8173 131.66 54.5798C131.66 54.3819 137.873 48.5246 145.43 41.5986L159.2 28.9736L160.506 24.0661C161.258 21.3748 161.931 18.9211 162.049 18.644C162.168 18.2878 158.211 18.1691 143.096 18.1691H123.944L122.441 23.4328Z"
        fill="white" />
    <path
        d="M171.506 23.4727C170.715 26.4014 170.042 28.9739 170.042 29.2113C170.042 29.528 173.05 29.6467 179.935 29.6467C185.751 29.6467 189.827 29.805 189.827 30.0029C189.827 30.2008 189.352 30.7548 188.798 31.1902C188.244 31.6255 181.953 37.3246 174.791 43.8944C165.136 52.72 161.693 56.084 161.377 57.0339C160.467 59.923 158.963 65.6616 158.963 66.2553C158.963 66.8094 160.981 66.8489 178.194 66.7698C194.852 66.651 197.503 66.5719 197.78 66.0574C197.939 65.7408 198.69 63.0891 199.442 60.2L200.788 54.9759H190.816C185.356 54.9759 180.766 54.8571 180.607 54.7384C180.489 54.6197 181.399 53.5907 182.625 52.443C183.852 51.2952 188.442 47.1001 192.795 43.1028C197.147 39.1451 202.41 34.3168 204.507 32.4171L208.266 28.9343L209.572 24.1455C210.245 21.4939 210.917 19.0797 211.036 18.7631C211.234 18.2486 208.86 18.1694 192.122 18.1694H172.97L171.506 23.4727Z"
        fill="white" />
    <path
        d="M229.554 18.7633C224.49 19.8714 220.533 22.6418 217.723 27.0744C215.824 30.0031 215.112 31.9819 212.579 41.0054C209.928 50.5435 209.493 52.8785 209.651 57.0737C209.809 59.9628 209.928 60.5564 210.917 61.8624C212.54 63.96 214.597 65.1869 217.763 65.8993C221.641 66.8096 247.994 67.2053 248.627 66.4138C248.864 66.0972 249.537 63.9996 250.17 61.7041C250.764 59.4087 251.357 57.2715 251.436 56.9153C251.594 56.3217 250.566 56.2425 240.001 56.0842C229.911 55.9655 228.249 55.8468 227.141 55.2531C225.123 54.1845 224.49 52.9181 224.806 50.6226C224.964 49.5145 225.162 48.3667 225.281 48.0501C225.479 47.5356 227.536 47.4565 239.882 47.4565H254.246L254.443 46.5462C254.523 46.0713 255.631 42.0344 256.857 37.6018C259.39 28.3409 259.667 25.5309 258.242 22.6418C257.253 20.5838 255.749 19.4361 253.019 18.7237C250.249 17.9717 232.997 18.0113 229.554 18.7633ZM245.224 29.6469C246.213 30.6363 246.174 31.4279 245.066 35.1877L244.195 38.1559L236.202 38.2746C227.022 38.3934 227.616 38.71 229 34.317C229.752 31.8632 230.9 30.3197 232.76 29.3303C233.234 29.0532 235.806 28.8554 239.011 28.8554C243.918 28.8554 244.512 28.9345 245.224 29.6469Z"
        fill="white" />
    <path
        d="M281.43 18.5651C274.584 19.0796 272.487 19.3962 272.25 19.9899C271.3 22.4832 259.587 66.3344 259.825 66.5718C259.983 66.7301 263.307 66.8093 267.185 66.7697L274.228 66.651L277.354 54.9758C279.055 48.5643 281.192 40.5302 282.102 37.1662C283.012 33.8022 283.804 30.9527 283.843 30.8735C283.922 30.7943 286.811 30.5965 290.214 30.4777L296.466 30.2403L298.326 24.5016C299.354 21.375 300.106 18.6838 299.988 18.5651C299.631 18.2485 285.822 18.2485 281.43 18.5651Z"
        fill="white" />
</svg>
