<svg fill="none" height="24" viewBox="0 0 24 24" width="24" xmlns="http://www.w3.org/2000/svg">
    <path
        d="M23 16.7552C23 14.2342 22.033 12.8632 20.721 12.1262C20.613 4.95016 17.911 1.74316 12 1.74316C6.089 1.74316 3.38 4.95716 3.278 12.1522C2.022 12.8822 1 14.2372 1 16.7552C1 21.6452 4.638 22.2102 7.375 22.2102C7.806 22.2102 8.188 21.9342 8.324 21.5242C9.344 18.4492 9.344 15.0602 8.324 11.9852C8.188 11.5762 7.806 11.2992 7.375 11.2992C6.901 11.2992 6.136 11.2992 5.298 11.4472C5.567 5.08716 8.18 3.74116 12 3.74116C15.82 3.74116 18.434 5.08816 18.702 11.4512C18 11.3322 17.286 11.2992 16.625 11.2992C16.194 11.2992 15.812 11.5752 15.676 11.9852C14.795 14.6422 14.676 17.5322 15.317 20.2532C14.253 20.2712 13.234 20.2402 12.273 20.1622C11.712 20.1212 11.24 20.5282 11.196 21.0792C11.152 21.6292 11.562 22.1112 12.112 22.1562C12.951 22.2232 13.83 22.2582 14.741 22.2582C15.364 22.2582 16.002 22.2422 16.652 22.2102C18.255 22.2102 23 22.1802 23 16.7552ZM6.637 20.1932C3.968 20.0552 3 19.1022 3 16.7552C3 14.4082 3.968 13.4552 6.637 13.3172C7.241 15.5582 7.241 17.9512 6.637 20.1922V20.1932ZM17.363 20.1932C16.759 17.9522 16.759 15.5582 17.363 13.3182C20.032 13.4562 21 14.4092 21 16.7562C21 19.1032 20.032 20.0552 17.363 20.1932Z"
        fill="#FF9900" />
</svg>
