<svg width="18" height="18" viewBox="0 0 18 18" fill="none" xmlns="http://www.w3.org/2000/svg">
<path d="M17.7907 7.36364H9.2093V10.8409H14.1488C13.6884 13.05 11.7628 14.3182 9.2093 14.3182C6.19535 14.3182 3.76744 11.9455 3.76744 9C3.76744 6.05455 6.19535 3.68182 9.2093 3.68182C10.507 3.68182 11.6791 4.13182 12.6 4.86818L15.2791 2.25C13.6465 0.859091 11.5535 0 9.2093 0C4.10233 0 0 4.00909 0 9C0 13.9909 4.10233 18 9.2093 18C13.814 18 18 14.7273 18 9C18 8.46818 17.9163 7.89545 17.7907 7.36364Z" fill="url(#paint0_radial_593_2476)"/>
<path d="M17.7907 7.36364H9.2093V10.8409H14.1488C13.6884 13.05 11.7628 14.3182 9.2093 14.3182C6.19535 14.3182 3.76744 11.9455 3.76744 9C3.76744 6.05455 6.19535 3.68182 9.2093 3.68182C10.507 3.68182 11.6791 4.13182 12.6 4.86818L15.2791 2.25C13.6465 0.859091 11.5535 0 9.2093 0C4.10233 0 0 4.00909 0 9C0 13.9909 4.10233 18 9.2093 18C13.814 18 18 14.7273 18 9C18 8.46818 17.9163 7.89545 17.7907 7.36364Z" fill="url(#paint1_linear_593_2476)"/>
<defs>
<radialGradient id="paint0_radial_593_2476" cx="0" cy="0" r="1" gradientUnits="userSpaceOnUse" gradientTransform="translate(9.375 9) rotate(54.492) scale(14.1476 24.459)">
<stop stop-color="#250266"/>
<stop offset="1" stop-color="#010014"/>
</radialGradient>
<linearGradient id="paint1_linear_593_2476" x1="-1.49063" y1="-2.43333" x2="15.3214" y2="8.52803" gradientUnits="userSpaceOnUse">
<stop offset="0.0736741" stop-color="#933EFF"/>
<stop offset="0.788339" stop-color="#230064" stop-opacity="0.6"/>
<stop offset="1" stop-color="#230064" stop-opacity="0"/>
</linearGradient>
</defs>
</svg>
