<svg fill="none" height="16" viewBox="0 0 16 16" width="16" xmlns="http://www.w3.org/2000/svg">
    <path
        d="M15.6554 6.084C15.4427 5.966 15.184 5.97333 14.978 6.10267L14.54 6.37733C14.614 6.092 14.6654 5.79933 14.6654 5.50067C14.6654 4.61333 14.3227 3.81133 13.7767 3.19333C14.0074 3.142 14.2467 3.07467 14.504 2.97C15.1954 2.68933 15.6607 2.07133 15.9267 1.61C16.1027 1.30467 15.944 0.915333 15.6054 0.82C15.0927 0.674667 14.3287 0.557333 13.6374 0.838C13.0294 1.08533 12.5094 1.65933 12.1467 2.15733C11.8334 2.06533 11.5087 2 11.166 2C9.76071 2 8.55405 2.838 7.99805 4.03533L7.61605 3.16867C7.42805 2.742 7.33271 2.29 7.33271 1.824V1.33333C7.70138 1.33333 7.99938 1.03533 7.99938 0.666667C7.99938 0.298 7.70138 0 7.33271 0H2.66605C2.29738 0 1.99938 0.298 1.99938 0.666667C1.99938 1.03533 2.29738 1.33333 2.66605 1.33333V1.824C2.66605 2.28933 2.57071 2.742 2.38271 3.16867L1.78538 4.524C1.53405 5.09267 1.39271 5.69333 1.35071 6.31L1.01938 6.102C0.814047 5.97333 0.556047 5.96667 0.342047 6.08333C0.130047 6.20067 -0.00195312 6.424 -0.00195312 6.66667V13C-0.00195312 14.654 1.34405 16 2.99805 16H12.998C14.652 16 15.998 14.654 15.998 13V6.66667C15.998 6.424 15.8667 6.20067 15.654 6.08333L15.6554 6.084ZM11.166 3.334C12.3607 3.334 13.3327 4.306 13.3327 5.50067C13.3327 5.926 13.2014 6.336 12.97 6.68733L12.026 6.10067C11.8114 5.96667 11.538 5.96667 11.3227 6.10067L9.83671 7.024L9.39671 6.75067C9.13671 6.384 8.99871 5.952 8.99871 5.50067C8.99871 4.306 9.97138 3.334 11.166 3.334ZM3.00605 5.06267L3.60338 3.70733C3.86671 3.11 4.00005 2.47667 4.00005 1.82533V1.33467H6.00005V1.82533C6.00005 2.47733 6.13338 3.11 6.39671 3.70733L6.99405 5.06267C7.16938 5.46067 7.27538 5.87867 7.31471 6.30867L6.16205 7.02467L4.67605 6.10133C4.46138 5.96733 4.18805 5.96733 3.97271 6.10133L2.66605 6.91333V6.676C2.66605 6.11667 2.78071 5.574 3.00605 5.06267ZM1.33271 13.0007V7.87267L2.13205 8.374C2.34671 8.51 2.62138 8.51067 2.83805 8.376L4.32405 7.45267L5.81005 8.37533C6.02471 8.50933 6.29805 8.50933 6.51338 8.37533L7.99938 7.452L9.33271 8.28V13.0007C9.33271 13.6173 9.52071 14.19 9.84071 14.6673H2.99938C2.08005 14.6673 1.33271 13.92 1.33271 13.0007ZM14.666 13.0007C14.666 13.92 13.9187 14.6673 12.9994 14.6673H12.3327C11.4134 14.6673 10.666 13.92 10.666 13.0007V8.07867L11.6747 7.45267L13.1607 8.376C13.3767 8.51133 13.6514 8.51067 13.8667 8.374L14.666 7.87267V13.0007Z"
        fill="#FF9900" />
</svg>
