<svg fill="none" height="64" viewBox="0 0 64 64" width="64" xmlns="http://www.w3.org/2000/svg">
    <g clip-path="url(#clip0_172_4270)">
        <path
            d="M53.4961 50.9688C53.4961 50.9688 54.2424 51.7329 54.2424 55.1512C54.2424 58.5695 53.4961 59.8365 53.4961 59.8365C53.4961 59.8365 48.5992 63.441 32.0069 63.441C15.4146 63.441 10.5177 59.8365 10.5177 59.8365C10.5177 59.8365 9.77142 58.5695 9.77142 55.1512C9.77142 51.7329 10.5177 50.9688 10.5177 50.9688H53.4961Z"
            fill="#FFBA40" />
        <path
            d="M54.2422 55.1514C54.2422 58.5697 53.4961 59.8366 53.4961 59.8366C53.4961 59.8366 52.0945 60.8681 48.2496 61.8281C44.9511 62.6511 39.8545 63.421 32.3024 63.4405C39.9629 63.3997 44.0966 61.7381 41.6489 53.9124V50.9688H53.496C53.4961 50.9687 54.2422 51.733 54.2422 55.1514Z"
            fill="#DD9C3E" />
        <path
            d="M54.2422 55.1514C54.2422 58.5697 53.4961 59.8366 53.4961 59.8366C53.4961 59.8366 52.0944 60.8681 48.2496 61.8281C48.5772 61.4373 48.8619 60.9743 49.074 60.4343C49.5435 59.2361 49.6132 57.7489 49.4056 56.3942C49.1981 55.0395 48.7337 53.8011 48.1937 52.6723L48.3432 50.9688H53.4961C53.4961 50.9688 54.2422 51.733 54.2422 55.1514Z"
            fill="#C6873C" />
        <path
            d="M15.0731 27.3557C16.0093 21.7373 16.7319 15.8204 17.0289 13.2642L18.6791 12.5239C19.8567 14.4058 22.6033 18.7204 25.4266 22.629C25.4266 22.629 25.4266 29.7366 21.3014 32.0403C18.3607 33.6824 15.0731 27.3557 15.0731 27.3557Z"
            fill="#C6873C" />
        <path
            d="M25.4266 22.6289C25.4266 22.6289 25.4266 29.7367 21.3015 32.0402C18.3608 33.6823 15.0731 27.3556 15.0731 27.3556C15.2047 26.5667 15.6845 23.4201 15.8071 22.629C17.2492 24.7577 20.3783 26.237 20.7621 26.1449C21.3124 26.0128 22.1502 24.6642 22.488 23.9253C22.8226 23.1934 22.8097 22.2231 22.4565 21.5112C21.0203 18.6164 19.6169 15.6849 18.2476 12.7174L18.6791 12.5239C19.6499 14.0754 21.6866 17.2791 23.9535 20.5469C24.4368 21.2429 24.9306 21.9418 25.4266 22.6289Z"
            fill="#AD6F36" />
        <path
            d="M17.2492 13.2794C18.508 13.2794 19.5284 11.7485 19.5284 9.86006C19.5284 7.97159 18.508 6.44067 17.2492 6.44067C15.9904 6.44067 14.97 7.97159 14.97 9.86006C14.97 11.7485 15.9904 13.2794 17.2492 13.2794Z"
            fill="#C6873C" />
        <path
            d="M42.7124 32.0403C38.5872 29.7366 38.5872 22.629 38.5872 22.629C41.4105 18.7204 44.1571 14.4058 45.3347 12.5239L46.9849 13.2642C47.2819 15.8204 48.0045 21.7373 48.9406 27.3557C48.9406 27.3557 45.6531 33.6824 42.7124 32.0403Z"
            fill="#C6873C" />
        <path
            d="M48.9406 27.3556C48.9406 27.3556 45.6529 33.6824 42.7122 32.0403C39.0962 30.0214 38.6501 24.3108 38.595 22.9315C38.6341 22.9702 38.6733 23.0084 38.7127 23.046C41.8864 26.0755 46.0402 22.5941 46.0402 16.9508V12.8403L46.9849 13.2641C47.2819 15.8203 48.0045 21.7373 48.9406 27.3556Z"
            fill="#AD6F36" />
        <path
            d="M46.7645 13.2794C48.0233 13.2794 49.0437 11.7485 49.0437 9.86006C49.0437 7.97159 48.0233 6.44067 46.7645 6.44067C45.5057 6.44067 44.4853 7.97159 44.4853 9.86006C44.4853 11.7485 45.5057 13.2794 46.7645 13.2794Z"
            fill="#C6873C" />
        <path
            d="M48.948 10.8399C48.5876 12.6491 47.3175 13.6772 46.1112 13.1361C45.4206 12.8263 44.9008 12.0688 44.6507 11.1378C44.8001 11.2715 44.963 11.3799 45.1374 11.4582C46.2819 11.972 47.4874 10.9964 47.8296 9.27885C48.0103 8.37257 47.9145 7.44111 47.6153 6.68799C48.6972 7.33822 49.2886 9.13179 48.948 10.8399Z"
            fill="#AD6F36" />
        <path
            d="M19.4327 10.8399C19.0723 12.6491 17.8022 13.6772 16.5959 13.1361C15.9053 12.8263 15.3855 12.0688 15.1354 11.1378C15.2848 11.2715 15.4477 11.3799 15.6221 11.4582C16.7665 11.972 17.9721 10.9964 18.3142 9.27885C18.495 8.37257 18.3992 7.44111 18.0999 6.68799C19.1818 7.33822 19.7732 9.13179 19.4327 10.8399Z"
            fill="#AD6F36" />
        <path
            d="M32.8681 7.14551C34.4403 11.8682 40.3554 29.1577 43.024 30.267C45.3793 31.2459 55.5863 21.9454 59.5519 18.2083L60.5533 19.3092L53.496 50.9687C53.496 50.9687 48.5992 54.5732 32.0068 54.5732C15.4145 54.5732 10.5176 50.9687 10.5176 50.9687L3.46039 19.3092L4.46174 18.2083C8.4273 21.9453 18.6344 31.2459 20.9896 30.267C23.6583 29.1577 29.5733 11.8682 31.1456 7.14551H32.8681Z"
            fill="#FFBA40" />
        <path
            d="M60.5533 19.3092L53.4961 50.9687C53.4961 50.9687 48.8888 54.3601 33.4689 54.5637C41.7928 54.307 49.4769 48.6534 47.3974 33.5841C46.3183 34.1946 45.378 34.6096 44.591 34.8915C42.7996 35.533 40.9199 34.6744 39.659 32.6606C34.444 24.332 32.3178 10.0187 31.9338 7.14551H32.8681C34.4404 11.8682 40.3554 29.1577 43.0241 30.267C45.3794 31.2459 55.5864 21.9454 59.552 18.2083L60.5533 19.3092Z"
            fill="#DD9C3E" />
        <path
            d="M2.66562 19.5229C3.92439 19.5229 4.94483 17.9919 4.94483 16.1035C4.94483 14.215 3.92439 12.6841 2.66562 12.6841C1.40685 12.6841 0.386414 14.215 0.386414 16.1035C0.386414 17.9919 1.40685 19.5229 2.66562 19.5229Z"
            fill="#FFBA40" />
        <path
            d="M61.3481 19.5229C62.6068 19.5229 63.6273 17.9919 63.6273 16.1035C63.6273 14.215 62.6068 12.6841 61.3481 12.6841C60.0893 12.6841 59.0688 14.215 59.0688 16.1035C59.0688 17.9919 60.0893 19.5229 61.3481 19.5229Z"
            fill="#FFBA40" />
        <path
            d="M32.0069 7.39785C33.2656 7.39785 34.2861 5.86694 34.2861 3.97847C34.2861 2.08999 33.2656 0.559082 32.0069 0.559082C30.7481 0.559082 29.7277 2.08999 29.7277 3.97847C29.7277 5.86694 30.7481 7.39785 32.0069 7.39785Z"
            fill="#FFBA40" />
        <path
            d="M4.94481 16.1032C4.94481 17.9918 3.92446 19.5226 2.66557 19.5226C1.88967 19.5226 1.20396 18.9406 0.792542 18.0516C0.954265 18.1064 1.12237 18.1355 1.29529 18.1355C2.55418 18.1355 3.57453 16.6047 3.57453 14.716C3.57453 13.992 3.42471 13.3205 3.16871 12.7676C4.18531 13.1108 4.94481 14.4745 4.94481 16.1032Z"
            fill="#DD9C3E" />
        <path
            d="M63.6275 16.1032C63.6275 17.9918 62.6067 19.5226 61.3482 19.5226C60.572 19.5226 59.8866 18.9406 59.4752 18.0516C59.6369 18.1064 59.805 18.1355 59.978 18.1355C61.2365 18.1355 62.2568 16.6047 62.2568 14.716C62.2568 13.992 62.1066 13.3205 61.8506 12.7676C62.8676 13.1103 63.6275 14.4739 63.6275 16.1032Z"
            fill="#DD9C3E" />
        <path
            d="M34.2861 3.97865C34.2861 5.86672 33.2657 7.39809 32.0068 7.39809C31.2309 7.39809 30.5452 6.81605 30.1338 5.9271C30.2955 5.98191 30.4636 6.01095 30.6365 6.01095C31.895 6.01095 32.9158 4.47957 32.9158 2.59151C32.9158 1.86748 32.7656 1.19602 32.5096 0.643066C33.5266 0.98639 34.2861 2.34947 34.2861 3.97865Z"
            fill="#DD9C3E" />
        <path
            d="M14.2634 50.6154C14.2634 50.6154 12.5879 50.2313 11.2623 49.6968C9.05496 40.2005 5.6167 24.775 4.59821 20.3101L6.18874 21.8431C12.0333 45.1027 14.2634 50.6154 14.2634 50.6154Z"
            fill="#FFD878" />
        <path
            d="M10.9766 52.7317C10.6592 54.6296 10.7194 56.9261 11.1637 58.594C11.1637 58.594 11.8439 58.9105 12.3023 59.0151C12.3023 59.0151 12.0856 56.1294 13.5716 53.6771L10.9766 52.7317Z"
            fill="#FFD878" />
        <path
            d="M1.09772 16.3054C1.09772 15.5267 1.27591 14.825 1.61757 14.3335C1.95923 13.8419 2.42031 13.5918 2.86862 13.6548C2.86862 13.6548 1.9315 14.5813 1.68259 16.3053H1.09772V16.3054Z"
            fill="#FFD878" />
        <path
            d="M30.439 4.11471C30.439 3.33603 30.6172 2.63436 30.9588 2.1428C31.3005 1.65123 31.7616 1.40118 32.2099 1.46417C32.2099 1.46417 31.2728 2.39061 31.0239 4.11466H30.439V4.11471Z"
            fill="#FFD878" />
        <path
            d="M15.6289 10.0583C15.6289 9.27964 15.8071 8.57796 16.1488 8.0864C16.4904 7.59484 16.9515 7.34478 17.3998 7.40778C17.3998 7.40778 16.4627 8.33421 16.2138 10.0583L15.6289 10.0583Z"
            fill="#D6A350" />
        <path
            d="M45.3246 10.0583C45.3246 9.27964 45.5028 8.57796 45.8444 8.0864C46.1861 7.59484 46.6472 7.34478 47.0955 7.40778C47.0955 7.40778 46.1584 8.33421 45.9095 10.0583L45.3246 10.0583Z"
            fill="#D6A350" />
        <path
            d="M59.7805 16.3054C59.7805 15.5267 59.9586 14.825 60.3003 14.3335C60.6419 13.8419 61.103 13.5918 61.5514 13.6548C61.5514 13.6548 60.6142 14.5813 60.3653 16.3053H59.7805V16.3054Z"
            fill="#FFD878" />
        <path
            d="M60.5533 19.3091L53.4961 50.9686C53.4961 50.9686 51.6845 52.3021 46.5309 53.347C50.0112 52.4676 53.7316 40.3385 55.0989 30.8545C55.7343 26.4494 56.0854 23.3274 56.2792 21.2235C57.5645 20.0667 58.7019 19.0094 59.552 18.2083L60.5533 19.3091Z"
            fill="#C6873C" />
        <path
            d="M61.3482 12.1249C59.8859 12.1249 58.6963 13.9096 58.6963 16.1034C58.6963 16.805 58.8184 17.4644 59.0318 18.0374C57.104 19.8456 53.7029 22.9609 50.509 25.5125C50.0412 25.8863 49.6026 26.228 49.1904 26.5415C48.3634 21.4657 47.7139 16.2368 47.4161 13.7151C48.2894 13.3805 49.0287 12.3873 49.3053 11.0002C49.7243 8.89839 48.9254 6.67711 47.5245 6.04843C46.1237 5.41991 44.643 6.61834 44.2239 8.72004C43.9473 10.1073 44.2016 11.5464 44.8092 12.5455C43.6434 14.398 41.1999 18.2133 38.663 21.7607C38.4012 21.1328 38.1317 20.4705 37.855 19.7746C35.9675 15.0284 34.1878 9.83916 33.3674 7.39188C34.1403 6.69588 34.6588 5.42649 34.6588 3.97849C34.6588 1.78475 33.4691 0 32.0069 0C30.5447 0 29.355 1.78475 29.355 3.97849C29.355 5.42649 29.8735 6.69588 30.6464 7.39188C29.8259 9.83916 28.0463 15.0284 26.1587 19.7746C25.882 20.4705 25.6126 21.1327 25.3507 21.7607C22.8139 18.2133 20.3704 14.3981 19.2046 12.5455C19.8121 11.5465 20.0664 10.1073 19.7899 8.72004C19.5869 7.70195 19.1318 6.86332 18.5084 6.35876C17.885 5.8542 17.168 5.74404 16.4893 6.04848C15.8106 6.35298 15.2517 7.03578 14.9153 7.97104C14.579 8.9063 14.5055 9.98205 14.7085 11.0002C14.9851 12.3875 15.7243 13.3807 16.5977 13.7152C16.2997 16.2374 15.6501 21.4672 14.8233 26.5415C14.4111 26.2281 13.9725 25.8863 13.5047 25.5125C10.3109 22.9609 6.90976 19.8457 4.98187 18.0374C5.19528 17.4644 5.31744 16.805 5.31744 16.1034C5.31744 13.9096 4.1278 12.1249 2.66555 12.1249C1.20334 12.1249 0.0136719 13.9096 0.0136719 16.1034C0.0136719 18.2971 1.2033 20.0819 2.66555 20.0819C2.85572 20.0819 3.04111 20.0511 3.22002 19.9937L10.0929 50.826C9.82131 51.3383 9.39867 52.553 9.39867 55.1511C9.39867 58.7397 10.2041 60.1484 10.2384 60.2066C10.2706 60.2614 10.3097 60.3061 10.3535 60.3383C10.4054 60.3765 11.6622 61.2841 14.9733 62.1887C20.4528 63.6858 27.2606 64 32.0068 64C36.753 64 43.5609 63.6858 49.0403 62.1887C52.3514 61.2841 53.6083 60.3765 53.6602 60.3383C53.7039 60.3061 53.743 60.2614 53.7753 60.2066C53.8096 60.1484 54.615 58.7397 54.615 55.1511C54.615 52.5531 54.1923 51.3384 53.9208 50.826L60.7937 19.9937C60.9726 20.0511 61.158 20.0819 61.3481 20.0819C62.8103 20.0819 64 18.2971 64 16.1034C64 13.9096 62.8104 12.1249 61.3482 12.1249ZM44.938 9.04048C45.2392 7.52948 46.3038 6.66786 47.3109 7.11979C48.3181 7.57173 48.8924 9.16872 48.5911 10.6797C48.2899 12.1908 47.2255 13.0525 46.2183 12.6005C45.2111 12.1485 44.6367 10.5515 44.938 9.04048ZM45.3855 13.2585C45.5751 13.4318 45.7822 13.572 46.0046 13.6718C46.2272 13.7716 46.4515 13.8252 46.6734 13.8366C46.9735 16.3821 47.6473 21.8208 48.5067 27.0534C44.8475 29.7462 43.5685 29.9128 43.1235 29.7281C42.7543 29.5746 42.0562 28.8914 40.8272 26.5082C40.2956 25.4774 39.7073 24.21 39.069 22.7214C41.6826 19.0777 44.2125 15.1238 45.3855 13.2585ZM30.1004 3.97854C30.1004 2.40139 30.9556 1.11826 32.0069 1.11826C33.0581 1.11826 33.9134 2.40139 33.9134 3.97854C33.9134 5.55569 33.0581 6.83882 32.0069 6.83882C30.9556 6.83882 30.1004 5.55569 30.1004 3.97854ZM15.4226 10.6797C15.2766 9.94772 15.3295 9.17433 15.5713 8.50196C15.8131 7.8296 16.215 7.33873 16.7029 7.11979C16.8836 7.03867 17.0681 6.99845 17.2517 6.99845C17.5634 6.99845 17.8723 7.11445 18.1544 7.34285C18.6026 7.70564 18.9298 8.30854 19.0757 9.04048C19.2216 9.77242 19.1688 10.5459 18.9271 11.2182C18.6852 11.8906 18.2833 12.3815 17.7955 12.6004C16.7884 13.0525 15.7238 12.1907 15.4226 10.6797ZM17.3403 13.8366C17.5622 13.8252 17.7866 13.7716 18.0091 13.6718C18.2315 13.572 18.4386 13.4318 18.6282 13.2585C19.8012 15.1238 22.3311 19.0776 24.9447 22.7214C24.3064 24.21 23.7181 25.4774 23.1865 26.5082C21.9575 28.8914 21.2594 29.5745 20.8902 29.728C20.4451 29.9128 19.1663 29.7463 15.5071 27.0534C16.3661 21.8224 17.0401 16.3827 17.3403 13.8366ZM0.75909 16.1034C0.75909 14.5262 1.61433 13.2431 2.66559 13.2431C3.71685 13.2431 4.57212 14.5262 4.57212 16.1034C4.57212 17.6805 3.71685 18.9637 2.66559 18.9637C1.61433 18.9637 0.75909 17.6806 0.75909 16.1034ZM53.2549 59.3856C52.9376 59.5883 51.6254 60.353 48.8322 61.1089C43.4175 62.5741 36.6938 62.8817 32.0069 62.8817C27.3199 62.8817 20.5963 62.5741 15.1815 61.1089C12.3867 60.3525 11.0747 59.5875 10.7589 59.3857C10.6151 59.0626 10.144 57.8011 10.144 55.151C10.144 53.0254 10.4445 52.0358 10.6186 51.6407C11.1401 51.9509 12.4691 52.6366 14.9733 53.3208C17.9977 54.1472 23.4079 55.1321 32.0068 55.1321C40.6057 55.1321 46.0159 54.1472 49.0403 53.3208C51.5446 52.6366 52.8735 51.9509 53.395 51.6407C53.5691 52.0357 53.8696 53.0254 53.8696 55.151C53.8697 57.801 53.3987 59.0624 53.2549 59.3856ZM53.1953 50.5551C52.7929 50.8023 51.4761 51.5255 48.8322 52.241C45.8435 53.0499 40.4984 54.0139 32.0069 54.0139C23.5153 54.0139 18.1702 53.0499 15.1815 52.241C12.5367 51.5253 11.2198 50.8018 10.8184 50.5551L3.91992 19.6077C4.14416 19.4263 4.34902 19.1978 4.52878 18.9311C6.45478 20.7391 9.90893 23.9067 13.1544 26.4996C15.0155 27.9864 16.5904 29.111 17.8353 29.8419C19.0367 30.5472 19.9453 30.8957 20.5893 30.8957C20.7785 30.8957 20.9449 30.8656 21.0891 30.8056C22.3392 30.2861 24.2068 26.8652 26.7988 20.3476C28.7157 15.5276 30.5203 10.2586 31.3347 7.82719C31.5495 7.91168 31.7747 7.95698 32.0068 7.95698C32.239 7.95698 32.4642 7.91163 32.6789 7.82719C33.4933 10.2586 35.298 15.5276 37.2148 20.3476C39.8068 26.8652 41.6744 30.2861 42.9245 30.8056C43.0688 30.8656 43.2351 30.8957 43.4243 30.8957C44.0683 30.8957 44.977 30.5472 46.1783 29.8419C47.4233 29.111 48.9982 27.9864 50.8593 26.4996C54.1048 23.9067 57.5589 20.7391 59.4849 18.9312C59.6646 19.1978 59.8695 19.4263 60.0938 19.6077L53.1953 50.5551ZM61.3482 18.9637C60.2969 18.9637 59.4416 17.6805 59.4416 16.1034C59.4416 14.5262 60.2969 13.2431 61.3482 13.2431C62.3994 13.2431 63.2547 14.5262 63.2547 16.1034C63.2547 17.6805 62.3994 18.9637 61.3482 18.9637Z"
            fill="#2B2B2B" />
    </g>
    <defs>
        <clipPath id="clip0_172_4270">
            <rect fill="white" height="64" width="64" />
        </clipPath>
    </defs>
</svg>
