<svg width="19" height="19" viewBox="0 0 19 19" fill="none" xmlns="http://www.w3.org/2000/svg">
<path fill-rule="evenodd" clip-rule="evenodd" d="M10.75 5.30078V9.37609L14.1362 11.4077C14.4914 11.621 14.6064 12.0818 14.3931 12.437C14.1798 12.7922 13.7189 12.9072 13.3638 12.6939L9.61375 10.4439C9.38799 10.3083 9.24992 10.0642 9.25 9.80078V5.30078C9.25 4.88657 9.58579 4.55078 10 4.55078C10.4142 4.55078 10.75 4.88657 10.75 5.30078ZM10 0.800781C7.61024 0.794829 5.3174 1.74511 3.6325 3.43984C2.95094 4.12984 2.34531 4.79359 1.75 5.48828V3.80078C1.75 3.38657 1.41421 3.05078 1 3.05078C0.585786 3.05078 0.25 3.38657 0.25 3.80078V7.55078C0.25 7.96499 0.585786 8.30078 1 8.30078H4.75C5.16421 8.30078 5.5 7.96499 5.5 7.55078C5.5 7.13657 5.16421 6.80078 4.75 6.80078H2.59375C3.26406 6.01141 3.93156 5.26797 4.69281 4.49734C7.6018 1.58837 12.3111 1.56567 15.248 4.44647C18.1849 7.32726 18.253 12.0361 15.4007 15.0007C12.5484 17.9652 7.84035 18.0788 4.84844 15.2552C4.6535 15.0709 4.3751 15.0047 4.1181 15.0814C3.8611 15.1581 3.66454 15.3661 3.60247 15.627C3.54041 15.888 3.62225 16.1622 3.81719 16.3464C6.75577 19.1195 11.1822 19.5943 14.6422 17.5077C18.1021 15.421 19.7473 11.2843 18.6656 7.39133C17.5839 3.49837 14.0404 0.803411 10 0.800781Z" fill="#B35000"/>
</svg>
