<svg width="21" height="21" viewBox="0 0 21 21" fill="none" xmlns="http://www.w3.org/2000/svg">
<path d="M20.9414 10.7871C20.8851 10.9241 20.7895 11.0413 20.6667 11.124C20.5439 11.2067 20.3994 11.2513 20.2513 11.252H18.001V18.7505C18.001 19.3471 17.7639 19.9193 17.3419 20.3411C16.9199 20.763 16.3475 21 15.7507 21H12.7503C12.5514 21 12.3606 20.921 12.2199 20.7804C12.0792 20.6398 12.0002 20.449 12.0002 20.2502V15.7511C12.0002 15.5522 11.9212 15.3615 11.7805 15.2209C11.6398 15.0802 11.449 15.0012 11.2501 15.0012H9.7499C9.55096 15.0012 9.36017 15.0802 9.2195 15.2209C9.07883 15.3615 8.99981 15.5522 8.99981 15.7511V20.2502C8.99981 20.449 8.92078 20.6398 8.78011 20.7804C8.63944 20.921 8.44865 21 8.24971 21H5.24932C4.65251 21 4.08013 20.763 3.65812 20.3411C3.23611 19.9193 2.99903 19.3471 2.99903 18.7505V11.252H0.748737C0.600649 11.2513 0.456093 11.2067 0.333287 11.124C0.21048 11.0413 0.11492 10.9241 0.0586473 10.7871C0.00120533 10.6506 -0.0144887 10.5001 0.0135455 10.3546C0.0415797 10.2091 0.112086 10.0752 0.216168 9.96978L9.96743 0.221803C10.0372 0.151521 10.1201 0.0957369 10.2115 0.0576683C10.3029 0.0195996 10.401 0 10.5 0C10.599 0 10.6971 0.0195996 10.7885 0.0576683C10.8799 0.0957369 10.9628 0.151521 11.0326 0.221803L20.7838 9.96978C20.8879 10.0752 20.9584 10.2091 20.9865 10.3546C21.0145 10.5001 20.9988 10.6506 20.9414 10.7871Z" fill="#FF9900"/>
</svg>
