<svg width="25" height="26" viewBox="0 0 25 26" fill="none" xmlns="http://www.w3.org/2000/svg">
<path d="M15.625 22.375V14.0417C15.625 13.7654 15.5153 13.5004 15.3199 13.3051C15.1246 13.1097 14.8596 13 14.5833 13H10.4167C10.1404 13 9.87545 13.1097 9.6801 13.3051C9.48475 13.5004 9.375 13.7654 9.375 14.0417V22.375" stroke="#52229E" stroke-width="2" stroke-linecap="round" stroke-linejoin="round"/>
<path d="M3.125 10.9148C3.12493 10.6118 3.19097 10.3123 3.31853 10.0374C3.44609 9.76254 3.63208 9.51878 3.86354 9.32316L11.1552 3.0742C11.5312 2.75639 12.0077 2.58203 12.5 2.58203C12.9923 2.58203 13.4688 2.75639 13.8448 3.0742L21.1365 9.32316C21.3679 9.51878 21.5539 9.76254 21.6815 10.0374C21.809 10.3123 21.8751 10.6118 21.875 10.9148V20.2898C21.875 20.8424 21.6555 21.3723 21.2648 21.763C20.8741 22.1537 20.3442 22.3732 19.7917 22.3732H5.20833C4.6558 22.3732 4.12589 22.1537 3.73519 21.763C3.34449 21.3723 3.125 20.8424 3.125 20.2898V10.9148Z" stroke="#52229E" stroke-width="2" stroke-linecap="round" stroke-linejoin="round"/>
</svg>
