<svg fill="none" height="24" viewBox="0 0 24 24" width="24" xmlns="http://www.w3.org/2000/svg">
    <g clip-path="url(#clip0_1378_4401)">
        <path
            d="M23.018 8.78482C21.839 7.67082 19.829 7.76382 18.764 8.98382L15.547 12.5178C14.996 11.6088 13.997 10.9988 12.858 10.9988H4C1.794 10.9988 0 12.7928 0 14.9988V19.9988C0 22.2048 1.794 23.9988 4 23.9988H8.965C11.814 23.9988 14.535 22.7788 16.432 20.6508L23.236 13.0138C24.33 11.7868 24.232 9.89082 23.018 8.78482ZM21.743 11.6838L14.939 19.3218C13.421 21.0228 11.245 21.9998 8.965 21.9998H4C2.897 21.9998 2 21.1028 2 19.9998V14.9998C2 13.8968 2.897 12.9998 4 12.9998H12.857C13.487 12.9998 14 13.5128 14 14.1428C14 14.7068 13.579 15.1938 13.02 15.2728L7.859 16.0098C7.312 16.0878 6.932 16.5948 7.01 17.1418C7.088 17.6878 7.594 18.0678 8.142 17.9908L13.303 17.2538C14.478 17.0858 15.432 16.2668 15.817 15.1958L20.243 10.3308C20.601 9.92282 21.277 9.88682 21.671 10.2648C22.079 10.6358 22.111 11.2738 21.743 11.6858V11.6838ZM2 7.99982V6.99982C2 5.34582 3.346 3.99982 5 3.99982H5.899C5.237 3.60982 4.734 3.24982 4.72 3.23982C3.925 2.64382 3.764 1.51482 4.36 0.71982C4.956 -0.0751803 6.085 -0.23618 6.88 0.35982C7.976 1.18082 8.387 2.62682 8.5 3.27282C8.613 2.62682 9.024 1.18182 10.12 0.35982C10.915 -0.23618 12.044 -0.0751803 12.64 0.71982C13.236 1.51482 13.075 2.64382 12.28 3.23982C12.267 3.24982 11.763 3.60982 11.101 3.99982H12C13.654 3.99982 15 5.34582 15 6.99982V7.99982C15 8.55282 14.553 8.99982 14 8.99982C13.447 8.99982 13 8.55282 13 7.99982V6.99982C13 6.44782 12.552 5.99982 12 5.99982H9.5V7.99982C9.5 8.55282 9.053 8.99982 8.5 8.99982C7.947 8.99982 7.5 8.55282 7.5 7.99982V5.99982H5C4.448 5.99982 4 6.44782 4 6.99982V7.99982C4 8.55282 3.553 8.99982 3 8.99982C2.447 8.99982 2 8.55282 2 7.99982Z"
            fill="#FF9900" />
    </g>
    <defs>
        <clipPath id="clip0_1378_4401">
            <rect fill="white" height="24" width="24" />
        </clipPath>
    </defs>
</svg>
