<svg width="20" height="32" viewBox="0 0 20 32" fill="none" xmlns="http://www.w3.org/2000/svg">
<path d="M10 0C4.4772 0 0 4.11178 0 9.18386C0.00401104 10.7411 0.439172 12.2719 0.844506 12.9521L10 32L18.7501 13.6323H18.7455C19.5673 12.271 19.999 10.7403 20 9.18386C20.0001 4.11178 15.5229 0 10 0ZM10 4.59187C10.6567 4.59187 11.3068 4.71064 11.9135 4.94141C12.5201 5.17218 13.0713 5.51043 13.5356 5.93684C13.9999 6.36325 14.3682 6.86947 14.6194 7.42659C14.8707 7.98372 15 8.58084 15 9.18386C15 10.4017 14.4732 11.5697 13.5355 12.4308C12.5979 13.2919 11.3261 13.7757 10 13.7757C8.67397 13.7757 7.40221 13.2919 6.46454 12.4308C5.52687 11.5697 5.00009 10.4017 5.00009 9.18386C5.00009 7.96603 5.52687 6.79807 6.46454 5.93693C7.40221 5.07578 8.67397 4.592 10 4.592V4.59187Z" fill="#FF9900"/>
</svg>
