<svg width="31" height="30" viewBox="0 0 31 30" fill="none" xmlns="http://www.w3.org/2000/svg">
<g clip-path="url(#clip0_1036_4000)">
<path d="M30.4842 15.2807C30.4842 14.0516 30.3821 13.1547 30.1613 12.2246H15.7988V17.7721H24.2292C24.0593 19.1507 23.1415 21.2269 21.1018 22.622L21.0732 22.8077L25.6144 26.2455L25.929 26.2762C28.8184 23.6685 30.4842 19.8317 30.4842 15.2807Z" fill="#4285F4"/>
<path d="M15.7989 29.8973C19.9291 29.8973 23.3964 28.5685 25.929 26.2764L21.1019 22.6223C19.8101 23.5026 18.0764 24.1171 15.7989 24.1171C11.7536 24.1171 8.32028 21.5095 7.09638 17.9053L6.91698 17.9202L2.19505 21.4912L2.1333 21.6589C4.64882 26.5421 9.8159 29.8973 15.7989 29.8973Z" fill="#34A853"/>
<path d="M7.09621 17.9045C6.77328 16.9744 6.58638 15.9777 6.58638 14.948C6.58638 13.9182 6.77328 12.9216 7.07922 11.9915L7.07067 11.7934L2.28956 8.16504L2.13313 8.23775C1.09636 10.2641 0.501465 12.5397 0.501465 14.948C0.501465 17.3564 1.09636 19.6318 2.13313 21.6582L7.09621 17.9045Z" fill="#FBBC05"/>
<path d="M15.7989 5.78004C18.6713 5.78004 20.6089 6.99252 21.7138 8.00576L26.031 3.8866C23.3796 1.47824 19.9291 0 15.7989 0C9.81591 0 4.64882 3.35507 2.1333 8.2382L7.0794 11.992C8.32028 8.38774 11.7536 5.78004 15.7989 5.78004Z" fill="#EB4335"/>
</g>
<defs>
<clipPath id="clip0_1036_4000">
<rect width="30" height="30" fill="white" transform="translate(0.5)"/>
</clipPath>
</defs>
</svg>
