<svg fill="none" height="24" viewBox="0 0 24 24" width="24" xmlns="http://www.w3.org/2000/svg">
    <path
        d="M9.18899 3.78629C9.02399 3.64029 8.95999 3.41029 9.02499 3.20029C9.08999 2.99029 9.27199 2.83629 9.49099 2.80829C9.99999 2.74229 10.453 2.69429 10.877 2.66229C11.065 2.20929 11.272 1.75829 11.497 1.31029C11.593 1.12029 11.788 0.986286 11.999 1.00129C12.211 0.985286 12.405 1.12029 12.501 1.31029C12.727 1.75929 12.934 2.21029 13.121 2.66229C13.546 2.69329 13.998 2.74229 14.507 2.80829C14.726 2.83629 14.908 2.98929 14.973 3.20029C15.038 3.41129 14.973 3.64029 14.809 3.78629C14.471 4.08629 14.146 4.37529 13.819 4.65329C13.962 5.15029 14.081 5.64829 14.176 6.14429C14.216 6.35129 14.136 6.56329 13.97 6.69329C13.803 6.82329 13.579 6.84929 13.387 6.76029C12.879 6.52529 12.423 6.28029 11.998 6.02129C11.574 6.27929 11.117 6.52429 10.609 6.76029C10.417 6.85029 10.193 6.82329 10.026 6.69329C9.85999 6.56329 9.78099 6.35129 9.81999 6.14429C9.91399 5.64829 10.034 5.15129 10.177 4.65329C9.84999 4.37529 9.52399 4.08529 9.18699 3.78629H9.18899ZM22.975 5.70029C22.91 5.48929 22.728 5.33629 22.509 5.30829C22 5.24229 21.547 5.19429 21.123 5.16229C20.935 4.70929 20.728 4.25829 20.503 3.81029C20.407 3.62029 20.212 3.48629 20.001 3.50129C19.789 3.48529 19.595 3.62029 19.499 3.81029C19.273 4.25929 19.066 4.71029 18.879 5.16229C18.454 5.19329 18.002 5.24229 17.493 5.30829C17.274 5.33629 17.092 5.48929 17.027 5.70029C16.962 5.91129 17.027 6.14029 17.191 6.28629C17.529 6.58629 17.854 6.87529 18.181 7.15329C18.038 7.65029 17.919 8.14829 17.824 8.64429C17.784 8.85129 17.864 9.06329 18.03 9.19329C18.197 9.32329 18.421 9.34929 18.613 9.26029C19.121 9.02529 19.577 8.78029 20.002 8.52129C20.426 8.77929 20.883 9.02429 21.391 9.26029C21.583 9.35029 21.807 9.32329 21.974 9.19329C22.14 9.06329 22.219 8.85129 22.18 8.64429C22.086 8.14829 21.966 7.65129 21.823 7.15329C22.15 6.87529 22.476 6.58529 22.813 6.28629C22.978 6.14029 23.042 5.91029 22.977 5.70029H22.975ZM2.02799 9.69429C2.19499 9.82429 2.41899 9.85029 2.61099 9.76129C3.11899 9.52629 3.57499 9.28129 3.99999 9.02229C4.42399 9.28029 4.88099 9.52529 5.38899 9.76129C5.58099 9.85129 5.80499 9.82429 5.97199 9.69429C6.13799 9.56429 6.21699 9.35229 6.17799 9.14529C6.08399 8.64929 5.96399 8.15229 5.82099 7.65429C6.14799 7.37629 6.47399 7.08629 6.81099 6.78729C6.97599 6.64129 7.03999 6.41129 6.97499 6.20129C6.90999 5.99129 6.72799 5.83729 6.50899 5.80929C5.99999 5.74329 5.54699 5.69529 5.12299 5.66329C4.93499 5.21029 4.72799 4.75929 4.50299 4.31129C4.40699 4.12129 4.21199 3.98729 4.00099 4.00229C3.78899 3.98629 3.59499 4.12129 3.49899 4.31129C3.27299 4.76029 3.06599 5.21129 2.87899 5.66329C2.45399 5.69429 2.00199 5.74329 1.49299 5.80929C1.27399 5.83729 1.09199 5.99029 1.02699 6.20129C0.961988 6.41229 1.02699 6.64129 1.19099 6.78729C1.52899 7.08729 1.85399 7.37629 2.18099 7.65429C2.03799 8.15129 1.91899 8.64929 1.82399 9.14529C1.78399 9.35229 1.86399 9.56429 2.02999 9.69429H2.02799ZM8.42899 17.2433C8.41099 17.1733 7.99899 15.4943 7.99899 13.0003C7.99899 10.5063 8.41099 8.82829 8.42899 8.75729C8.53999 8.31229 8.93999 8.00029 9.39899 8.00029H11.426C12.412 8.00429 15.399 8.01429 15.399 10.7503C15.399 11.2153 15.314 11.7123 15.059 12.1583C15.875 12.5963 16.499 13.3803 16.499 14.7793C16.499 17.9863 13.08 17.9963 11.792 18.0003H9.39899C8.93999 18.0003 8.53999 17.6883 8.42899 17.2433ZM10.048 11.6003H11.549C13.399 11.6003 13.399 11.0883 13.399 10.7503C13.399 10.4373 13.399 10.0083 11.424 10.0013H10.226C10.163 10.4003 10.093 10.9453 10.047 11.6003H10.048ZM10.008 13.6003C10.038 14.6163 10.138 15.4463 10.226 16.0003H11.79C14.499 15.9923 14.499 15.2913 14.499 14.7793C14.499 14.1993 14.499 13.6003 11.899 13.6003H10.008ZM20.999 11.9993C20.447 11.9993 19.999 12.4473 19.999 12.9993C19.999 18.9063 17.906 20.9993 11.999 20.9993C6.09199 20.9993 3.99899 18.9063 3.99899 12.9993C3.99899 12.4473 3.55099 11.9993 2.99899 11.9993C2.44699 11.9993 1.99899 12.4473 1.99899 12.9993C1.99899 20.0083 4.98999 22.9993 11.999 22.9993C19.008 22.9993 21.999 20.0083 21.999 12.9993C21.999 12.4473 21.551 11.9993 20.999 11.9993Z"
        fill="#FF9900" />
</svg>
