<svg width="18" height="22" viewBox="0 0 18 22" fill="none" xmlns="http://www.w3.org/2000/svg">
<mask id="mask0_418_4064" style="mask-type:luminance" maskUnits="userSpaceOnUse" x="0" y="0" width="18" height="22">
<path d="M13.525 2.5H16C16.2652 2.5 16.5196 2.60536 16.7071 2.79289C16.8946 2.98043 17 3.23478 17 3.5V20C17 20.2652 16.8946 20.5196 16.7071 20.7071C16.5196 20.8946 16.2652 21 16 21H2C1.73478 21 1.48043 20.8946 1.29289 20.7071C1.10536 20.5196 1 20.2652 1 20V3.5C1 3.23478 1.10536 2.98043 1.29289 2.79289C1.48043 2.60536 1.73478 2.5 2 2.5H5.5V4H12.5V2.5H13.525Z" fill="white" stroke="white" stroke-width="2" stroke-linejoin="round"/>
<path d="M5.5 1H12.5V4H5.5V1Z" stroke="white" stroke-width="2" stroke-linecap="round" stroke-linejoin="round"/>
<path d="M10.5 8.5L6.5 12.5005H11.502L7.5 16.5005" stroke="black" stroke-width="2" stroke-linecap="round" stroke-linejoin="round"/>
</mask>
<g mask="url(#mask0_418_4064)">
<path d="M-3 -1H21V23H-3V-1Z" fill="#FF9900"/>
</g>
</svg>
