<svg width="17" height="18" viewBox="0 0 17 18" fill="none" xmlns="http://www.w3.org/2000/svg">
<path fill-rule="evenodd" clip-rule="evenodd" d="M9.9374 2.12517H6.0624C5.93992 2.72572 5.64354 3.27701 5.21014 3.71041C4.77674 4.14381 4.22545 4.44019 3.6249 4.56267V5.10433C4.22545 5.22681 4.77674 5.52319 5.21014 5.95659C5.64354 6.38999 5.93992 6.94128 6.0624 7.54183H9.9374C10.0599 6.94128 10.3563 6.38999 10.7897 5.95659C11.2231 5.52319 11.7743 5.22681 12.3749 5.10433V4.56267C11.7743 4.44019 11.2231 4.14381 10.7897 3.71041C10.3563 3.27701 10.0599 2.72572 9.9374 2.12517ZM10.4416 0.877667C10.2127 0.875444 9.96879 0.874611 9.7099 0.875167H6.2899C6.03101 0.875167 5.7874 0.876 5.55906 0.877667C5.51352 0.874756 5.46781 0.875592 5.4224 0.880167C5.04573 0.886833 4.71156 0.902667 4.42156 0.941833C3.89823 1.01183 3.42573 1.16683 3.04656 1.546C2.66656 1.926 2.51156 2.3985 2.44156 2.921C2.4024 3.21183 2.38656 3.546 2.3799 3.92267C2.37537 3.9678 2.37453 4.01323 2.3774 4.0585C2.37517 4.28794 2.37434 4.53183 2.3749 4.79017V4.87683C2.3749 5.13517 2.37573 5.37906 2.3774 5.6085C2.37453 5.65377 2.37537 5.6992 2.3799 5.74433C2.38656 6.12183 2.4024 6.45517 2.44156 6.74517C2.51156 7.2685 2.66656 7.741 3.04656 8.12017C3.42573 8.50017 3.89823 8.65517 4.42156 8.72517C4.71156 8.76433 5.04573 8.78017 5.4224 8.78683C5.46781 8.79141 5.51352 8.79224 5.55906 8.78933C5.7874 8.79156 6.03101 8.79239 6.2899 8.79183H9.7099C9.96823 8.79183 10.2121 8.791 10.4416 8.78933C10.4868 8.7922 10.5323 8.79136 10.5774 8.78683C10.9549 8.78017 11.2891 8.76433 11.5782 8.72517C12.1016 8.65517 12.5741 8.50017 12.9532 8.12017C13.3332 7.741 13.4882 7.2685 13.5582 6.74517C13.597 6.41293 13.6176 6.07882 13.6199 5.74433C13.6244 5.6992 13.6253 5.65377 13.6224 5.6085C13.6246 5.37906 13.6255 5.13517 13.6249 4.87683V4.79017C13.6249 4.53183 13.6241 4.28794 13.6224 4.0585C13.6253 4.01323 13.6244 3.9678 13.6199 3.92267C13.6176 3.58818 13.597 3.25407 13.5582 2.92183C13.4882 2.3985 13.3332 1.926 12.9541 1.54683C12.5741 1.16683 12.1016 1.01183 11.5791 0.941833C11.2466 0.903002 10.9122 0.882416 10.5774 0.880167C10.5323 0.875638 10.4868 0.874802 10.4416 0.877667ZM11.2449 2.16183C11.3394 2.41107 11.4857 2.6374 11.6742 2.82588C11.8627 3.01435 12.089 3.16067 12.3382 3.25517C12.333 3.19949 12.3266 3.14392 12.3191 3.0885C12.2682 2.7035 12.1782 2.5385 12.0691 2.43017C11.9599 2.32183 11.7966 2.23267 11.4124 2.18017C11.357 2.17294 11.3014 2.16683 11.2457 2.16183M12.3391 6.41183C12.0898 6.50633 11.8635 6.65265 11.675 6.84113C11.4865 7.0296 11.3402 7.25594 11.2457 7.50517C11.3041 7.49961 11.3596 7.4935 11.4124 7.48683C11.7974 7.43433 11.9624 7.34517 12.0707 7.23683C12.1791 7.1285 12.2691 6.9635 12.3207 6.5785C12.3274 6.52572 12.3335 6.47017 12.3391 6.41183ZM4.75573 7.50517C4.66124 7.25594 4.51491 7.0296 4.32644 6.84113C4.13796 6.65265 3.91163 6.50633 3.6624 6.41183C3.66795 6.47017 3.67434 6.52572 3.68156 6.5785C3.73323 6.9635 3.8224 7.1285 3.93156 7.23683C4.04073 7.34517 4.20406 7.43433 4.58823 7.48683C4.64156 7.4935 4.6974 7.49961 4.75573 7.50517ZM3.6624 3.25517C3.91163 3.16067 4.13796 3.01435 4.32644 2.82588C4.51491 2.6374 4.66124 2.41107 4.75573 2.16183C4.6974 2.16739 4.64184 2.17378 4.58906 2.181C4.20406 2.23267 4.03906 2.32183 3.93073 2.431C3.8224 2.54017 3.73323 2.7035 3.68073 3.08767L3.6624 3.25517ZM7.9999 4.62517C7.94464 4.62517 7.89165 4.64712 7.85258 4.68619C7.81351 4.72526 7.79156 4.77825 7.79156 4.8335C7.79156 4.88875 7.81351 4.94174 7.85258 4.98081C7.89165 5.01988 7.94464 5.04183 7.9999 5.04183C8.05515 5.04183 8.10814 5.01988 8.14721 4.98081C8.18628 4.94174 8.20823 4.88875 8.20823 4.8335C8.20823 4.77825 8.18628 4.72526 8.14721 4.68619C8.10814 4.64712 8.05515 4.62517 7.9999 4.62517ZM6.54156 4.8335C6.54156 4.44673 6.69521 4.07579 6.9687 3.8023C7.24219 3.52881 7.61312 3.37517 7.9999 3.37517C8.38667 3.37517 8.7576 3.52881 9.03109 3.8023C9.30459 4.07579 9.45823 4.44673 9.45823 4.8335C9.45823 5.22027 9.30459 5.59121 9.03109 5.8647C8.7576 6.13819 8.38667 6.29183 7.9999 6.29183C7.61312 6.29183 7.24219 6.13819 6.9687 5.8647C6.69521 5.59121 6.54156 5.22027 6.54156 4.8335ZM5.23656 11.0402C6.79156 10.7393 8.45573 10.8068 9.80323 11.6102C9.99156 11.7227 10.1699 11.8635 10.3241 12.0368C10.6374 12.3893 10.7991 12.826 10.8066 13.2643C10.9655 13.161 11.1257 13.0479 11.2874 12.9252L12.7941 11.7877C13.1715 11.5106 13.6275 11.3613 14.0957 11.3613C14.5639 11.3613 15.0199 11.5106 15.3974 11.7877C16.0932 12.3127 16.3716 13.2568 15.8724 14.0568C15.5182 14.6243 14.9849 15.4102 14.4416 15.9135C13.8916 16.4218 13.1107 16.8502 12.5199 17.1352C11.8016 17.4818 11.0266 17.6735 10.2724 17.7952C8.73073 18.0452 7.1274 18.0068 5.60406 17.6927C4.81847 17.5311 4.01859 17.4493 3.21656 17.4485H1.33323C1.16747 17.4485 1.0085 17.3827 0.891288 17.2654C0.774078 17.1482 0.70823 16.9893 0.70823 16.8235C0.70823 16.6577 0.774078 16.4988 0.891288 16.3816C1.0085 16.2643 1.16747 16.1985 1.33323 16.1985H3.21656C4.10156 16.1985 4.99573 16.291 5.85656 16.4685C7.24504 16.7534 8.6736 16.7847 10.0732 16.561C10.7632 16.4493 11.4082 16.2835 11.9766 16.0093C12.5457 15.7343 13.1857 15.3727 13.5916 14.9968C14.0024 14.616 14.4616 13.9568 14.8124 13.3952C14.9182 13.2252 14.9032 12.981 14.6441 12.7852C14.3357 12.5518 13.8549 12.5518 13.5474 12.7852L12.0416 13.9227C11.4399 14.3768 10.6999 14.8627 9.7824 15.0093C9.68628 15.0245 9.58987 15.0379 9.49323 15.0493C9.44545 15.0577 9.39573 15.0632 9.34406 15.066C8.80865 15.118 8.26947 15.118 7.73406 15.066C7.65106 15.06 7.57009 15.0375 7.49591 14.9997C7.42173 14.962 7.35583 14.9098 7.30208 14.8463C7.24833 14.7828 7.20781 14.7091 7.1829 14.6297C7.15799 14.5503 7.14919 14.4667 7.15701 14.3839C7.16484 14.301 7.18913 14.2206 7.22847 14.1472C7.2678 14.0739 7.32139 14.0091 7.38609 13.9568C7.45078 13.9044 7.52528 13.8655 7.60521 13.8424C7.68514 13.8192 7.7689 13.8122 7.85156 13.8218C8.31386 13.8666 8.77943 13.8657 9.24156 13.8193L9.26656 13.8168C9.34431 13.7686 9.41039 13.7037 9.46001 13.6268C9.50964 13.5499 9.54158 13.463 9.55354 13.3723C9.5655 13.2815 9.55717 13.1893 9.52916 13.1022C9.50115 13.0151 9.45416 12.9353 9.39156 12.8685C9.32472 12.7959 9.2475 12.7335 9.1624 12.6835C8.17823 12.096 6.86323 11.9985 5.47406 12.2668C4.11702 12.5393 2.8306 13.0882 1.6949 13.8793C1.62792 13.9268 1.55225 13.9607 1.4722 13.9789C1.39215 13.9972 1.30928 13.9995 1.22834 13.9857C1.1474 13.9719 1.06996 13.9423 1.00046 13.8986C0.930946 13.8549 0.870725 13.798 0.82323 13.731C0.775735 13.664 0.741897 13.5884 0.723648 13.5083C0.705398 13.4283 0.703095 13.3454 0.716869 13.2644C0.744686 13.101 0.836303 12.9553 0.971563 12.8593C2.25267 11.9655 3.70472 11.3461 5.23656 11.0402Z" fill="url(#paint0_radial_3011_1764)"/>
<path fill-rule="evenodd" clip-rule="evenodd" d="M9.9374 2.12517H6.0624C5.93992 2.72572 5.64354 3.27701 5.21014 3.71041C4.77674 4.14381 4.22545 4.44019 3.6249 4.56267V5.10433C4.22545 5.22681 4.77674 5.52319 5.21014 5.95659C5.64354 6.38999 5.93992 6.94128 6.0624 7.54183H9.9374C10.0599 6.94128 10.3563 6.38999 10.7897 5.95659C11.2231 5.52319 11.7743 5.22681 12.3749 5.10433V4.56267C11.7743 4.44019 11.2231 4.14381 10.7897 3.71041C10.3563 3.27701 10.0599 2.72572 9.9374 2.12517ZM10.4416 0.877667C10.2127 0.875444 9.96879 0.874611 9.7099 0.875167H6.2899C6.03101 0.875167 5.7874 0.876 5.55906 0.877667C5.51352 0.874756 5.46781 0.875592 5.4224 0.880167C5.04573 0.886833 4.71156 0.902667 4.42156 0.941833C3.89823 1.01183 3.42573 1.16683 3.04656 1.546C2.66656 1.926 2.51156 2.3985 2.44156 2.921C2.4024 3.21183 2.38656 3.546 2.3799 3.92267C2.37537 3.9678 2.37453 4.01323 2.3774 4.0585C2.37517 4.28794 2.37434 4.53183 2.3749 4.79017V4.87683C2.3749 5.13517 2.37573 5.37906 2.3774 5.6085C2.37453 5.65377 2.37537 5.6992 2.3799 5.74433C2.38656 6.12183 2.4024 6.45517 2.44156 6.74517C2.51156 7.2685 2.66656 7.741 3.04656 8.12017C3.42573 8.50017 3.89823 8.65517 4.42156 8.72517C4.71156 8.76433 5.04573 8.78017 5.4224 8.78683C5.46781 8.79141 5.51352 8.79224 5.55906 8.78933C5.7874 8.79156 6.03101 8.79239 6.2899 8.79183H9.7099C9.96823 8.79183 10.2121 8.791 10.4416 8.78933C10.4868 8.7922 10.5323 8.79136 10.5774 8.78683C10.9549 8.78017 11.2891 8.76433 11.5782 8.72517C12.1016 8.65517 12.5741 8.50017 12.9532 8.12017C13.3332 7.741 13.4882 7.2685 13.5582 6.74517C13.597 6.41293 13.6176 6.07882 13.6199 5.74433C13.6244 5.6992 13.6253 5.65377 13.6224 5.6085C13.6246 5.37906 13.6255 5.13517 13.6249 4.87683V4.79017C13.6249 4.53183 13.6241 4.28794 13.6224 4.0585C13.6253 4.01323 13.6244 3.9678 13.6199 3.92267C13.6176 3.58818 13.597 3.25407 13.5582 2.92183C13.4882 2.3985 13.3332 1.926 12.9541 1.54683C12.5741 1.16683 12.1016 1.01183 11.5791 0.941833C11.2466 0.903002 10.9122 0.882416 10.5774 0.880167C10.5323 0.875638 10.4868 0.874802 10.4416 0.877667ZM11.2449 2.16183C11.3394 2.41107 11.4857 2.6374 11.6742 2.82588C11.8627 3.01435 12.089 3.16067 12.3382 3.25517C12.333 3.19949 12.3266 3.14392 12.3191 3.0885C12.2682 2.7035 12.1782 2.5385 12.0691 2.43017C11.9599 2.32183 11.7966 2.23267 11.4124 2.18017C11.357 2.17294 11.3014 2.16683 11.2457 2.16183M12.3391 6.41183C12.0898 6.50633 11.8635 6.65265 11.675 6.84113C11.4865 7.0296 11.3402 7.25594 11.2457 7.50517C11.3041 7.49961 11.3596 7.4935 11.4124 7.48683C11.7974 7.43433 11.9624 7.34517 12.0707 7.23683C12.1791 7.1285 12.2691 6.9635 12.3207 6.5785C12.3274 6.52572 12.3335 6.47017 12.3391 6.41183ZM4.75573 7.50517C4.66124 7.25594 4.51491 7.0296 4.32644 6.84113C4.13796 6.65265 3.91163 6.50633 3.6624 6.41183C3.66795 6.47017 3.67434 6.52572 3.68156 6.5785C3.73323 6.9635 3.8224 7.1285 3.93156 7.23683C4.04073 7.34517 4.20406 7.43433 4.58823 7.48683C4.64156 7.4935 4.6974 7.49961 4.75573 7.50517ZM3.6624 3.25517C3.91163 3.16067 4.13796 3.01435 4.32644 2.82588C4.51491 2.6374 4.66124 2.41107 4.75573 2.16183C4.6974 2.16739 4.64184 2.17378 4.58906 2.181C4.20406 2.23267 4.03906 2.32183 3.93073 2.431C3.8224 2.54017 3.73323 2.7035 3.68073 3.08767L3.6624 3.25517ZM7.9999 4.62517C7.94464 4.62517 7.89165 4.64712 7.85258 4.68619C7.81351 4.72526 7.79156 4.77825 7.79156 4.8335C7.79156 4.88875 7.81351 4.94174 7.85258 4.98081C7.89165 5.01988 7.94464 5.04183 7.9999 5.04183C8.05515 5.04183 8.10814 5.01988 8.14721 4.98081C8.18628 4.94174 8.20823 4.88875 8.20823 4.8335C8.20823 4.77825 8.18628 4.72526 8.14721 4.68619C8.10814 4.64712 8.05515 4.62517 7.9999 4.62517ZM6.54156 4.8335C6.54156 4.44673 6.69521 4.07579 6.9687 3.8023C7.24219 3.52881 7.61312 3.37517 7.9999 3.37517C8.38667 3.37517 8.7576 3.52881 9.03109 3.8023C9.30459 4.07579 9.45823 4.44673 9.45823 4.8335C9.45823 5.22027 9.30459 5.59121 9.03109 5.8647C8.7576 6.13819 8.38667 6.29183 7.9999 6.29183C7.61312 6.29183 7.24219 6.13819 6.9687 5.8647C6.69521 5.59121 6.54156 5.22027 6.54156 4.8335ZM5.23656 11.0402C6.79156 10.7393 8.45573 10.8068 9.80323 11.6102C9.99156 11.7227 10.1699 11.8635 10.3241 12.0368C10.6374 12.3893 10.7991 12.826 10.8066 13.2643C10.9655 13.161 11.1257 13.0479 11.2874 12.9252L12.7941 11.7877C13.1715 11.5106 13.6275 11.3613 14.0957 11.3613C14.5639 11.3613 15.0199 11.5106 15.3974 11.7877C16.0932 12.3127 16.3716 13.2568 15.8724 14.0568C15.5182 14.6243 14.9849 15.4102 14.4416 15.9135C13.8916 16.4218 13.1107 16.8502 12.5199 17.1352C11.8016 17.4818 11.0266 17.6735 10.2724 17.7952C8.73073 18.0452 7.1274 18.0068 5.60406 17.6927C4.81847 17.5311 4.01859 17.4493 3.21656 17.4485H1.33323C1.16747 17.4485 1.0085 17.3827 0.891288 17.2654C0.774078 17.1482 0.70823 16.9893 0.70823 16.8235C0.70823 16.6577 0.774078 16.4988 0.891288 16.3816C1.0085 16.2643 1.16747 16.1985 1.33323 16.1985H3.21656C4.10156 16.1985 4.99573 16.291 5.85656 16.4685C7.24504 16.7534 8.6736 16.7847 10.0732 16.561C10.7632 16.4493 11.4082 16.2835 11.9766 16.0093C12.5457 15.7343 13.1857 15.3727 13.5916 14.9968C14.0024 14.616 14.4616 13.9568 14.8124 13.3952C14.9182 13.2252 14.9032 12.981 14.6441 12.7852C14.3357 12.5518 13.8549 12.5518 13.5474 12.7852L12.0416 13.9227C11.4399 14.3768 10.6999 14.8627 9.7824 15.0093C9.68628 15.0245 9.58987 15.0379 9.49323 15.0493C9.44545 15.0577 9.39573 15.0632 9.34406 15.066C8.80865 15.118 8.26947 15.118 7.73406 15.066C7.65106 15.06 7.57009 15.0375 7.49591 14.9997C7.42173 14.962 7.35583 14.9098 7.30208 14.8463C7.24833 14.7828 7.20781 14.7091 7.1829 14.6297C7.15799 14.5503 7.14919 14.4667 7.15701 14.3839C7.16484 14.301 7.18913 14.2206 7.22847 14.1472C7.2678 14.0739 7.32139 14.0091 7.38609 13.9568C7.45078 13.9044 7.52528 13.8655 7.60521 13.8424C7.68514 13.8192 7.7689 13.8122 7.85156 13.8218C8.31386 13.8666 8.77943 13.8657 9.24156 13.8193L9.26656 13.8168C9.34431 13.7686 9.41039 13.7037 9.46001 13.6268C9.50964 13.5499 9.54158 13.463 9.55354 13.3723C9.5655 13.2815 9.55717 13.1893 9.52916 13.1022C9.50115 13.0151 9.45416 12.9353 9.39156 12.8685C9.32472 12.7959 9.2475 12.7335 9.1624 12.6835C8.17823 12.096 6.86323 11.9985 5.47406 12.2668C4.11702 12.5393 2.8306 13.0882 1.6949 13.8793C1.62792 13.9268 1.55225 13.9607 1.4722 13.9789C1.39215 13.9972 1.30928 13.9995 1.22834 13.9857C1.1474 13.9719 1.06996 13.9423 1.00046 13.8986C0.930946 13.8549 0.870725 13.798 0.82323 13.731C0.775735 13.664 0.741897 13.5884 0.723648 13.5083C0.705398 13.4283 0.703095 13.3454 0.716869 13.2644C0.744686 13.101 0.836303 12.9553 0.971563 12.8593C2.25267 11.9655 3.70472 11.3461 5.23656 11.0402Z" fill="url(#paint1_linear_3011_1764)"/>
<defs>
<radialGradient id="paint0_radial_3011_1764" cx="0" cy="0" r="1" gradientUnits="userSpaceOnUse" gradientTransform="translate(8.73833 9.41689) rotate(57.2208) scale(13.0006 21.6387)">
<stop stop-color="#250266"/>
<stop offset="1" stop-color="#010014"/>
</radialGradient>
<linearGradient id="paint1_linear_3011_1764" x1="-0.568814" y1="-1.43447" x2="14.6753" y2="7.53559" gradientUnits="userSpaceOnUse">
<stop offset="0.0736741" stop-color="#933EFF"/>
<stop offset="0.788339" stop-color="#230064" stop-opacity="0.6"/>
<stop offset="1" stop-color="#230064" stop-opacity="0"/>
</linearGradient>
</defs>
</svg>
