<svg fill="none" height="15" viewBox="0 0 16 15" width="16" xmlns="http://www.w3.org/2000/svg">
    <path
        d="M11.6667 0C10.916 0.0116766 10.1817 0.221235 9.5379 0.607514C8.8941 0.993793 8.36363 1.54311 8.00005 2.2C7.63648 1.54311 7.10601 0.993793 6.46221 0.607514C5.81841 0.221235 5.08409 0.0116766 4.33339 0C3.13668 0.0519938 2.00919 0.575503 1.19724 1.45616C0.385293 2.33681 -0.0451135 3.50302 5.35741e-05 4.7C5.35741e-05 7.73133 3.19072 11.042 5.86672 13.2867C6.4642 13.7888 7.21962 14.064 8.00005 14.064C8.78048 14.064 9.53591 13.7888 10.1334 13.2867C12.8094 11.042 16.0001 7.73133 16.0001 4.7C16.0452 3.50302 15.6148 2.33681 14.8029 1.45616C13.9909 0.575503 12.8634 0.0519938 11.6667 0Z"
        fill="#CE2326" />
</svg>
