<svg fill="none" height="16" viewBox="0 0 16 16" width="16" xmlns="http://www.w3.org/2000/svg">
    <g clip-path="url(#clip0_1583_4162)">
        <path
            d="M11.6667 1.27832C10.916 1.29 10.1817 1.49956 9.5379 1.88583C8.8941 2.27211 8.36363 2.82143 8.00005 3.47832C7.63648 2.82143 7.10601 2.27211 6.46221 1.88583C5.81841 1.49956 5.08409 1.29 4.33339 1.27832C3.13668 1.33031 2.00919 1.85382 1.19724 2.73448C0.385293 3.61513 -0.0451135 4.78134 5.35741e-05 5.97832C5.35741e-05 9.00965 3.19072 12.3203 5.86672 14.565C6.4642 15.0671 7.21962 15.3423 8.00005 15.3423C8.78048 15.3423 9.53591 15.0671 10.1334 14.565C12.8094 12.3203 16.0001 9.00965 16.0001 5.97832C16.0452 4.78134 15.6148 3.61513 14.8029 2.73448C13.9909 1.85382 12.8634 1.33031 11.6667 1.27832ZM9.27672 13.545C8.91938 13.8459 8.46722 14.0109 8.00005 14.0109C7.53289 14.0109 7.08073 13.8459 6.72339 13.545C3.29805 10.671 1.33339 7.91365 1.33339 5.97832C1.28781 5.1348 1.57763 4.30747 2.13963 3.67679C2.70163 3.0461 3.49021 2.66322 4.33339 2.61165C5.17656 2.66322 5.96515 3.0461 6.52714 3.67679C7.08914 4.30747 7.37896 5.1348 7.33339 5.97832C7.33339 6.15513 7.40363 6.3247 7.52865 6.44972C7.65367 6.57475 7.82324 6.64499 8.00005 6.64499C8.17686 6.64499 8.34643 6.57475 8.47146 6.44972C8.59648 6.3247 8.66672 6.15513 8.66672 5.97832C8.62115 5.1348 8.91096 4.30747 9.47296 3.67679C10.035 3.0461 10.8235 2.66322 11.6667 2.61165C12.5099 2.66322 13.2985 3.0461 13.8605 3.67679C14.4225 4.30747 14.7123 5.1348 14.6667 5.97832C14.6667 7.91365 12.7021 10.671 9.27672 13.5423V13.545Z"
            fill="#CE2326" />
    </g>
    <defs>
        <clipPath id="clip0_1583_4162">
            <rect fill="white" height="16" width="16" />
        </clipPath>
    </defs>
</svg>
