<svg width="20" height="20" viewBox="0 0 20 20" fill="none" xmlns="http://www.w3.org/2000/svg">
<g clip-path="url(#clip0_1240_7613)">
<path d="M6.66667 2.08333C6.66667 0.9325 7.59917 0 8.75 0C9.90083 0 10.8333 0.9325 10.8333 2.08333C10.8333 3.23417 9.90083 4.16667 8.75 4.16667C7.59917 4.16667 6.66667 3.23417 6.66667 2.08333ZM0 8.33333V6.66667C0 6.36167 0.0883333 6.07917 0.231667 5.83333C0.0883333 5.5875 0 5.305 0 5V3.33333C0 2.41417 0.7475 1.66667 1.66667 1.66667H3.33333C4.2525 1.66667 5 2.41417 5 3.33333V5C5 5.305 4.91167 5.5875 4.76833 5.83333C4.91167 6.07917 5 6.36167 5 6.66667V8.33333C5 9.2525 4.2525 10 3.33333 10H1.66667C0.7475 10 0 9.2525 0 8.33333ZM3.33333 6.66667H1.66667V8.33333H3.33333V6.66667ZM1.66667 5H3.33333V3.33333H1.66667V5ZM20 17.0833C20 18.6917 18.6917 20 17.0833 20C15.9242 20 14.9292 19.315 14.4592 18.3333H10C9.53917 18.3333 9.16667 17.96 9.16667 17.5C9.16667 17.04 9.53917 16.6667 10 16.6667H10.8333V14.7708C10.8333 14.4567 10.6592 14.1717 10.3792 14.0283L8.0225 12.8258C7.185 12.3925 6.66667 11.5417 6.66667 10.6033V7.03917C6.66667 6.4425 6.9025 5.9075 7.3325 5.53167C7.85833 5.07167 8.71667 4.84667 9.47583 5.06L13.4933 6.6675H14.8725C15.815 6.6675 16.6425 7.30333 16.885 8.21417L18.0508 12.5867C18.2117 13.1917 18.2742 13.7975 18.285 14.435C19.2933 14.895 19.9992 15.9067 19.9992 17.085L20 17.0833ZM8.78417 11.3433L9.16667 11.5383V6.73083L8.96583 6.65083C8.74 6.63833 8.54 6.68833 8.42917 6.78583C8.38083 6.8275 8.33333 6.89 8.33333 7.03833V10.6025C8.33333 10.915 8.50583 11.1992 8.78417 11.3433ZM12.5 14.7708V16.6667H14.2092C14.3917 15.4108 15.3683 14.4167 16.6175 14.2142C16.595 13.8067 16.5475 13.4125 16.4417 13.015L15.2767 8.64333C15.2275 8.46083 15.0625 8.33417 14.8742 8.33417H13.3342C13.2283 8.33417 13.1233 8.31417 13.025 8.275L10.8342 7.39833V12.39L11.1375 12.545C11.9783 12.9742 12.5008 13.8275 12.5008 14.7717L12.5 14.7708ZM18.3333 17.0833C18.3333 16.3942 17.7725 15.8333 17.0833 15.8333C16.3942 15.8333 15.8333 16.3942 15.8333 17.0833C15.8333 17.7725 16.3942 18.3333 17.0833 18.3333C17.7725 18.3333 18.3333 17.7725 18.3333 17.0833ZM6.9675 14.355C7.2975 14.9133 7.5 15.5558 7.5 16.25C7.5 18.3175 5.8175 20 3.75 20C1.6825 20 0 18.3175 0 16.25C0 15.0658 0.5625 14.0208 1.42167 13.3333H0.833333C0.3725 13.3333 0 12.96 0 12.5C0 12.04 0.3725 11.6667 0.833333 11.6667H3.88167C4.73 11.6667 5.51167 12.0908 5.97583 12.8008C5.97583 12.8008 6.95333 14.2967 6.9675 14.355ZM5.83333 16.25C5.83333 15.825 5.70417 15.43 5.48417 15.1L5.47 15.0775C5.09417 14.5283 4.46417 14.1667 3.75 14.1667C2.60083 14.1667 1.66667 15.1017 1.66667 16.25C1.66667 17.3983 2.60083 18.3333 3.75 18.3333C4.89917 18.3333 5.83333 17.3983 5.83333 16.25Z" fill="#2B2B2B"/>
</g>
<defs>
<clipPath id="clip0_1240_7613">
<rect width="20" height="20" fill="white"/>
</clipPath>
</defs>
</svg>
