<svg fill="none" height="24" viewBox="0 0 24 24" width="24" xmlns="http://www.w3.org/2000/svg">
    <g clip-path="url(#clip0_597_28)">
        <path
            d="M21.9509 5.324C19.7079 2.046 15.9659 0 11.9999 0C8.03393 0 4.29093 2.047 2.04893 5.325C1.67493 5.497 1.32593 5.726 1.02593 6.026C0.364932 6.688 0.00193175 7.568 0.00293175 8.503L0.00993175 15.503C0.0109317 16.907 0.848932 18.112 2.04693 18.668C4.28893 21.946 8.03493 23.999 12.0009 23.999C15.9669 23.999 19.7089 21.953 21.9519 18.675C23.1579 18.122 24.0009 16.91 24.0009 15.499V8.499C24.0009 7.088 23.1569 5.877 21.9519 5.323L21.9509 5.324ZM11.9999 1C15.2949 1 18.3839 2.486 20.4649 5H3.53493C5.61593 2.486 8.70493 1 11.9999 1ZM11.9999 23C8.70493 23 5.61593 21.514 3.53493 19H20.4649C18.3839 21.514 15.2949 23 11.9999 23ZM22.9999 15.5C22.9999 16.878 21.8789 18 20.4999 18H3.50993C2.13293 18 1.01193 16.879 1.00993 15.502L1.00293 8.502C1.00293 7.834 1.26193 7.206 1.73293 6.733C2.20593 6.26 2.83393 6 3.50293 6H20.4999C21.8789 6 22.9999 7.122 22.9999 8.5V15.5ZM18.4869 8H16.9999C16.4479 8 15.9999 8.449 15.9999 9V15C15.9999 15.551 16.4479 16 16.9999 16H18.4999C19.8789 16 20.9999 14.878 20.9999 13.5V10.512C20.9999 9.127 19.8729 8 18.4869 8ZM19.9999 13.5C19.9999 14.327 19.3269 15 18.4999 15H16.9999V9H18.4869C19.3209 9 19.9999 9.678 19.9999 10.512V13.5ZM4.99993 8H3.99993C3.44793 8 2.99993 8.449 2.99993 9V15.5C2.99993 15.776 3.22393 16 3.49993 16C3.77593 16 3.99993 15.776 3.99993 15.5V13H4.99993C6.37893 13 7.49993 11.878 7.49993 10.5C7.49993 9.122 6.37893 8 4.99993 8ZM4.99993 12H3.99993V9H4.99993C5.82693 9 6.49993 9.673 6.49993 10.5C6.49993 11.327 5.82693 12 4.99993 12ZM14.9999 8.5V15.5C14.9999 15.776 14.7759 16 14.4999 16C14.2239 16 13.9999 15.776 13.9999 15.5V8.5C13.9999 8.224 14.2239 8 14.4999 8C14.7759 8 14.9999 8.224 14.9999 8.5ZM10.4959 8C9.75893 8 9.36993 8.689 9.28893 9.088L8.00993 15.396C7.94893 15.698 8.17993 15.979 8.48993 15.981H8.50793C8.74293 15.982 8.94593 15.818 8.99293 15.589L9.31593 14H11.6919L12.0249 15.61C12.0719 15.836 12.2719 15.999 12.5049 16C12.8169 16.002 13.0509 15.718 12.9899 15.415L11.7099 9.119C11.6159 8.66 11.2329 8 10.4959 8ZM9.51993 13L10.2769 9.285C10.3009 9.167 10.3619 9.001 10.4959 9.001C10.6299 9.001 10.6849 9.133 10.7229 9.317L11.4859 13H9.51993Z"
            fill="white" />
    </g>
    <defs>
        <clipPath id="clip0_597_28">
            <rect fill="white" height="24" width="24" />
        </clipPath>
    </defs>
</svg>
