<svg fill="none" height="80" viewBox="0 0 80 80" width="80" xmlns="http://www.w3.org/2000/svg">
    <path
        d="M66.676 71.7455H15.8441C11.118 71.7455 7.27258 68.4865 7.27258 64.481V29.1478C7.27258 25.143 11.118 21.8839 15.8441 21.8839H66.676C71.4013 21.8839 75.2467 25.143 75.2467 29.1478V40.1505C75.2467 40.6533 74.7652 41.0607 74.1727 41.0607C73.5795 41.0607 73.0987 40.6527 73.0987 40.1505V29.1478C73.0987 26.146 70.2178 23.7044 66.676 23.7044H15.8441C12.3023 23.7044 9.42133 26.146 9.42133 29.1478V64.481C9.42133 67.4828 12.303 69.9244 15.8441 69.9244H66.676C70.2178 69.9244 73.0987 67.4821 73.0987 64.481V55.4409C73.0987 54.9381 73.5802 54.5306 74.1727 54.5306C74.766 54.5306 75.2467 54.9387 75.2467 55.4409V64.481C75.2467 68.4865 71.4013 71.7455 66.676 71.7455Z"
        fill="white" />
    <path
        d="M76.306 56.2483H53.2057C50.9673 56.2483 49.1449 54.7044 49.1449 52.8067V44.0762C49.1449 42.1791 50.9665 40.6346 53.2057 40.6346H71.8564C73.0451 40.6346 74.0125 39.8147 74.0125 38.8072V38.2907C74.0125 37.788 74.494 37.3805 75.0865 37.3805H76.3053C78.3423 37.3805 80 38.7854 80 40.5118V53.1163C80.0007 54.8434 78.343 56.2483 76.306 56.2483ZM53.2057 42.4557C52.1508 42.4557 51.2936 43.1821 51.2936 44.0762V52.8067C51.2936 53.7007 52.1508 54.4272 53.2057 54.4272H76.306C77.1588 54.4272 77.852 53.839 77.852 53.117V40.5125C77.852 39.7897 77.158 39.2016 76.306 39.2016H76.1362C75.9039 41.0283 74.0727 42.4557 71.8571 42.4557H53.2057Z"
        fill="white" />
    <path
        d="M57.2283 50.9981C58.9785 50.9981 60.3974 49.7956 60.3974 48.3122C60.3974 46.8289 58.9785 45.6263 57.2283 45.6263C55.4781 45.6263 54.0592 46.8289 54.0592 48.3122C54.0592 49.7956 55.4781 50.9981 57.2283 50.9981Z"
        fill="white" />
    <path
        d="M62.8967 65.9595H21.9992C21.4059 65.9595 20.9252 65.5514 20.9252 65.0492C20.9252 64.5464 21.4067 64.139 21.9992 64.139H62.8967C64.8249 64.139 66.3937 62.8094 66.3937 61.1752V58.3342C66.3937 57.8314 66.8752 57.424 67.4677 57.424C68.0609 57.424 68.5417 57.832 68.5417 58.3342V61.1752C68.5424 63.8131 66.0099 65.9595 62.8967 65.9595Z"
        fill="white" />
    <path
        d="M67.4677 35.2754C66.8745 35.2754 66.3937 34.8673 66.3937 34.3651V31.5241C66.3937 29.8899 64.8249 28.5604 62.8967 28.5604H21.9992C21.4059 28.5604 20.9252 28.1523 20.9252 27.6501C20.9252 27.1473 21.4067 26.7399 21.9992 26.7399H62.8967C66.0099 26.7399 68.5424 28.8862 68.5424 31.5247V34.3657C68.5424 34.8679 68.0609 35.2754 67.4677 35.2754Z"
        fill="white" />
    <path
        d="M8.34661 30.9976C8.204 30.9976 8.0614 30.9497 7.95554 30.855C7.75192 30.6718 7.76221 30.384 7.9776 30.2114L14.3165 25.1493C14.5334 24.9767 14.8722 24.9848 15.0759 25.168C15.2795 25.3511 15.2692 25.639 15.0538 25.8116L8.71491 30.8737C8.61053 30.9565 8.4782 30.9976 8.34661 30.9976Z"
        fill="white" />
    <path
        d="M8.34661 36.112C8.204 36.112 8.0614 36.0641 7.95554 35.9694C7.75192 35.7862 7.76221 35.4984 7.9776 35.3258L14.3165 30.2637C14.5334 30.0905 14.8722 30.0998 15.0759 30.2824C15.2795 30.4655 15.2692 30.7534 15.0538 30.926L8.71491 35.9881C8.61053 36.0709 8.4782 36.112 8.34661 36.112Z"
        fill="white" />
    <path
        d="M8.34661 41.2258C8.204 41.2258 8.0614 41.1779 7.95554 41.0832C7.75192 40.9 7.76221 40.6121 7.9776 40.4396L14.3165 35.3768C14.5334 35.2043 14.8722 35.213 15.0759 35.3955C15.2795 35.5787 15.2692 35.8665 15.0538 36.0391L8.71491 41.1018C8.61053 41.1847 8.4782 41.2258 8.34661 41.2258Z"
        fill="white" />
    <path
        d="M8.34661 46.3403C8.204 46.3403 8.0614 46.2923 7.95554 46.1976C7.75192 46.0145 7.76221 45.7266 7.9776 45.554L14.3165 40.4913C14.5334 40.3187 14.8722 40.3268 15.0759 40.51C15.2795 40.6932 15.2692 40.981 15.0538 41.1536L8.71491 46.2163C8.61053 46.2992 8.4782 46.3403 8.34661 46.3403Z"
        fill="white" />
    <path
        d="M8.34661 51.4535C8.204 51.4535 8.0614 51.4055 7.95554 51.3108C7.75192 51.1276 7.76221 50.8398 7.9776 50.6672L14.3165 45.6051C14.5334 45.4325 14.8722 45.4412 15.0759 45.6238C15.2795 45.807 15.2692 46.0948 15.0538 46.2674L8.71491 51.3295C8.61053 51.4124 8.4782 51.4535 8.34661 51.4535Z"
        fill="white" />
    <path
        d="M8.34661 56.568C8.204 56.568 8.0614 56.52 7.95554 56.4253C7.75192 56.2421 7.76221 55.9543 7.9776 55.7817L14.3165 50.7196C14.5334 50.547 14.8722 50.5557 15.0759 50.7383C15.2795 50.9215 15.2692 51.2093 15.0538 51.3819L8.71491 56.444C8.61053 56.5269 8.4782 56.568 8.34661 56.568Z"
        fill="white" />
    <path
        d="M8.34661 61.6817C8.204 61.6817 8.0614 61.6338 7.95554 61.5391C7.75192 61.3559 7.76221 61.0681 7.9776 60.8955L14.3165 55.8327C14.5334 55.6602 14.8722 55.6683 15.0759 55.8514C15.2795 56.0346 15.2692 56.3224 15.0538 56.495L8.71491 61.5578C8.61053 61.6412 8.4782 61.6817 8.34661 61.6817Z"
        fill="white" />
    <path
        d="M8.62078 66.4859C8.47669 66.4859 8.33186 66.4367 8.226 66.3395C8.02458 66.1551 8.03783 65.8673 8.25616 65.6966L14.3201 60.9441C14.5363 60.7752 14.8773 60.784 15.0788 60.9696C15.2802 61.1541 15.267 61.4419 15.0486 61.6126L8.98465 66.3651C8.88247 66.4454 8.75163 66.4859 8.62078 66.4859Z"
        fill="white" />
    <path
        d="M11.1805 69.8179C11.0394 69.8179 10.8982 69.7711 10.7924 69.6777C10.5873 69.4957 10.5954 69.2079 10.8093 69.0341L15.0149 65.6249C15.2288 65.451 15.5692 65.4567 15.7743 65.6392C15.9794 65.8211 15.9713 66.109 15.7574 66.2828L11.5518 69.692C11.4481 69.7755 11.3143 69.8179 11.1805 69.8179Z"
        fill="white" />
    <path
        d="M18.7683 23.6414C18.292 23.6414 17.8568 23.371 17.7304 22.9629C17.5789 22.4764 17.9222 21.9785 18.4956 21.8508C18.8271 21.7767 51.2738 14.6978 52.6551 14.3957C53.1851 14.2835 53.7372 14.5228 53.929 14.9589L57.015 21.9586C57.2231 22.4296 56.94 22.9542 56.385 23.1305C55.8322 23.3062 55.2111 23.0676 55.0023 22.5966L52.2544 16.3638C46.794 17.555 19.3491 23.543 19.0418 23.6115C18.9507 23.6321 18.8595 23.6414 18.7683 23.6414Z"
        fill="white" />
    <path
        d="M66.8583 23.0845C66.426 23.0845 66.0188 22.8621 65.8556 22.4995L63.143 16.4978L55.9183 17.9564C55.3721 18.066 54.9354 18.1539 54.584 18.2049C54.5502 18.2168 54.5156 18.2274 54.4796 18.2367L54.4737 18.2199C53.6284 18.3308 53.3145 18.2 53.1248 17.6043C52.9734 17.129 53.3034 16.6349 53.8599 16.4922C53.9106 16.4792 53.9628 16.4698 54.0143 16.463C54.648 16.3446 60.0026 15.2618 63.5583 14.5403C64.0847 14.4375 64.6191 14.6736 64.8117 15.1004L67.861 21.8478C68.0734 22.3169 67.7963 22.8434 67.242 23.0234C67.1163 23.0658 66.9862 23.0845 66.8583 23.0845Z"
        fill="white" />
    <path
        d="M46.686 12.331C46.622 12.331 46.5588 12.326 46.4934 12.3167C45.9105 12.2269 45.5223 11.7534 45.6267 11.2588L46.3736 7.74861C46.4802 7.25455 47.0389 6.92871 47.6218 7.01406C48.2048 7.10378 48.5929 7.57728 48.4885 8.07196L47.7416 11.5821C47.6483 12.022 47.1962 12.331 46.686 12.331Z"
        fill="white" />
    <path
        d="M56.863 12.65C56.7409 12.65 56.6167 12.6325 56.4961 12.5952C55.9389 12.4238 55.6515 11.9011 55.8544 11.4288C56.3587 10.2526 56.813 9.10993 57.2952 7.90063C58.1943 5.64215 59.1234 3.30703 60.4606 0.563212C60.687 0.0984324 61.317 -0.122742 61.8632 0.0691505C62.4116 0.261043 62.6733 0.793736 62.4462 1.25789C61.1355 3.94626 60.218 6.2521 59.33 8.48254C58.8448 9.70243 58.3869 10.8538 57.8723 12.0506C57.7142 12.4207 57.3011 12.65 56.863 12.65Z"
        fill="white" />
    <path
        d="M66.9495 13.767C66.7275 13.767 66.504 13.709 66.3121 13.5894C65.8343 13.2904 65.7329 12.7203 66.0857 12.3159L70.545 7.19465C70.8971 6.79031 71.569 6.70495 72.0475 7.00276C72.5253 7.30119 72.6268 7.87126 72.2739 8.27622L67.8147 13.3975C67.6037 13.6393 67.2788 13.767 66.9495 13.767Z"
        fill="white" />
    <path
        d="M70.6478 18.5563C70.2494 18.5563 69.8664 18.3675 69.6804 18.0436C69.4216 17.5913 69.6444 17.0467 70.1773 16.8268L78.2195 13.516C78.754 13.2961 79.3957 13.4855 79.6552 13.9372C79.914 14.3895 79.6912 14.934 79.1583 15.154L71.1161 18.4647C70.9654 18.527 70.8059 18.5563 70.6478 18.5563Z"
        fill="white" />
    <path
        d="M15.4985 76.3123C12.8543 76.3123 10.1983 75.7079 7.93565 74.5603C4.92608 73.0345 2.58692 70.5362 1.51733 67.7051C1.33649 67.226 1.64819 66.7139 2.2135 66.5606C2.77733 66.4074 3.38307 66.6715 3.56391 67.1506C4.47619 69.5649 6.47203 71.6963 9.03833 72.9978C11.6061 74.2993 14.7671 74.7821 17.7068 74.3223C18.2876 74.2276 18.8507 74.5572 18.958 75.0519C19.0661 75.546 18.6801 76.0213 18.0972 76.1123C17.2422 76.2462 16.3711 76.3123 15.4985 76.3123Z"
        fill="white" />
    <path
        d="M10.069 80C10.0014 80 9.93226 79.9944 9.86243 79.9832C6.01114 79.3489 2.48993 77.4362 0.201511 74.7347C-0.143995 74.3267 -0.0344685 73.7572 0.447769 73.4638C0.930006 73.1722 1.60191 73.2644 1.94741 73.6725C3.919 76.0008 6.95355 77.6493 10.2726 78.1951C10.8556 78.291 11.2356 78.7689 11.1224 79.2623C11.0224 79.6978 10.5726 80 10.069 80Z"
        fill="white" />
</svg>
