<svg width="152" height="87" viewBox="0 0 152 87" fill="none" xmlns="http://www.w3.org/2000/svg">
<g clip-path="url(#clip0_297_2498)">
<g opacity="0.1">
<path d="M111.755 85.7166C113.377 85.7166 114.692 84.02 114.692 81.9271C114.692 79.8343 113.377 78.1377 111.755 78.1377C110.132 78.1377 108.817 79.8343 108.817 81.9271C108.817 84.02 110.132 85.7166 111.755 85.7166Z" fill="#3F3D56"/>
<path d="M114.079 65.7155C114.491 65.0114 114.704 64.2118 114.698 63.3993C114.698 61.3021 113.383 59.6099 111.76 59.6099C110.138 59.6099 108.824 61.306 108.824 63.3993C108.816 64.2114 109.027 65.0109 109.437 65.7155C109.035 66.4229 108.824 67.2201 108.824 68.0309C108.824 68.8418 109.035 69.639 109.437 70.3464C109.035 71.0541 108.824 71.8515 108.824 72.6626C108.824 73.4736 109.035 74.271 109.437 74.9787C109.027 75.6833 108.816 76.4828 108.824 77.2948C108.824 79.3921 110.139 81.0843 111.76 81.0843C113.381 81.0843 114.698 79.3881 114.698 77.2948C114.706 76.4828 114.494 75.6833 114.085 74.9787C114.487 74.271 114.698 73.4736 114.698 72.6626C114.698 71.8515 114.487 71.0541 114.085 70.3464C114.487 69.639 114.698 68.8418 114.698 68.0309C114.698 67.2201 114.487 66.4229 114.085 65.7155H114.079Z" fill="#3F3D56"/>
<path d="M111.755 62.5579C113.377 62.5579 114.692 60.8613 114.692 58.7685C114.692 56.6756 113.377 54.979 111.755 54.979C110.132 54.979 108.817 56.6756 108.817 58.7685C108.817 60.8613 110.132 62.5579 111.755 62.5579Z" fill="#3F3D56"/>
<path d="M111.755 57.9256C113.377 57.9256 114.692 56.229 114.692 54.1361C114.692 52.0433 113.377 50.3467 111.755 50.3467C110.132 50.3467 108.817 52.0433 108.817 54.1361C108.817 56.229 110.132 57.9256 111.755 57.9256Z" fill="#3F3D56"/>
<path d="M122.75 22.439C123.151 21.9352 123.516 21.4049 123.843 20.8517L116.13 19.6025L124.477 19.6641C125.277 17.9468 125.714 16.0868 125.759 14.1977C125.805 12.3085 125.459 10.4301 124.743 8.67718L113.544 14.4L123.874 6.92074C122.906 5.27401 121.604 3.8413 120.05 2.71181C118.496 1.58232 116.723 0.780219 114.84 0.355438C112.958 -0.0693421 111.007 -0.10771 109.11 0.242723C107.212 0.593156 105.407 1.32489 103.809 2.39237C102.21 3.45986 100.852 4.84024 99.8176 6.4476C98.7837 8.05496 98.0965 9.85489 97.7988 11.7353C97.501 13.6158 97.5992 15.5365 98.0871 17.378C98.5751 19.2194 99.4423 20.9422 100.635 22.439C100.01 23.2227 99.4721 24.0704 99.0311 24.9675L109.049 30.0979L98.3675 26.5588C97.6159 28.7433 97.4291 31.0781 97.8238 33.3518C98.2186 35.6254 99.1825 37.7661 100.628 39.58C98.996 41.6254 97.9806 44.0822 97.6982 46.6696C97.4158 49.257 97.8777 51.8704 99.0312 54.2112C100.185 56.552 101.983 58.5257 104.221 59.9065C106.459 61.2873 109.046 62.0196 111.686 62.0196C114.326 62.0196 116.913 61.2873 119.151 59.9065C121.388 58.5257 123.187 56.552 124.34 54.2112C125.494 51.8704 125.956 49.257 125.673 46.6696C125.391 44.0822 124.376 41.6254 122.743 39.58C124.694 37.1359 125.754 34.1165 125.754 31.0069C125.754 27.8972 124.694 24.8779 122.743 22.4338L122.75 22.439Z" fill="#6C63FF"/>
<path opacity="0.1" d="M97.624 31.0129C97.6192 34.1231 98.6801 37.1438 100.635 39.5853C99.0025 41.6307 97.9872 44.0876 97.7048 46.6749C97.4223 49.2623 97.8843 51.8758 99.0378 54.2166C100.191 56.5574 101.99 58.531 104.228 59.9118C106.465 61.2927 109.052 62.0249 111.692 62.0249C114.333 62.0249 116.919 61.2927 119.157 59.9118C121.395 58.531 123.193 56.5574 124.347 54.2166C125.5 51.8758 125.962 49.2623 125.68 46.6749C125.398 44.0876 124.382 41.6307 122.75 39.5853C124.636 37.226 97.624 29.4557 97.624 31.0129Z" fill="black"/>
</g>
<g opacity="0.1">
<path d="M29.3641 81.6637C30.3512 81.6637 31.1514 80.6309 31.1514 79.3568C31.1514 78.0827 30.3512 77.0498 29.3641 77.0498C28.377 77.0498 27.5768 78.0827 27.5768 79.3568C27.5768 80.6309 28.377 81.6637 29.3641 81.6637Z" fill="#3F3D56"/>
<path d="M30.7857 69.4879C31.0352 69.0588 31.1642 68.572 31.1594 68.0775C31.1594 66.8034 30.3615 65.7705 29.3708 65.7705C28.38 65.7705 27.5835 66.8034 27.5835 68.0775C27.5783 68.5719 27.7068 69.0587 27.9558 69.4879C27.7117 69.9188 27.5836 70.4041 27.5836 70.8976C27.5836 71.3911 27.7117 71.8764 27.9558 72.3073C27.7117 72.7382 27.5836 73.2235 27.5836 73.7171C27.5836 74.2106 27.7117 74.6959 27.9558 75.1268C27.7066 75.5554 27.5781 76.0419 27.5835 76.5359C27.5835 77.8113 28.3814 78.8442 29.3708 78.8442C30.3602 78.8442 31.1594 77.8113 31.1594 76.5359C31.1644 76.0418 31.0354 75.5553 30.7857 75.1268C31.0306 74.6962 31.1591 74.2107 31.1591 73.7171C31.1591 73.2234 31.0306 72.738 30.7857 72.3073C31.0306 71.8767 31.1591 71.3913 31.1591 70.8976C31.1591 70.4039 31.0306 69.9185 30.7857 69.4879Z" fill="#3F3D56"/>
<path d="M29.3641 67.5651C30.3512 67.5651 31.1514 66.5322 31.1514 65.2581C31.1514 63.984 30.3512 62.9512 29.3641 62.9512C28.377 62.9512 27.5768 63.984 27.5768 65.2581C27.5768 66.5322 28.377 67.5651 29.3641 67.5651Z" fill="#3F3D56"/>
<path d="M29.3641 64.7455C30.3512 64.7455 31.1514 63.7127 31.1514 62.4386C31.1514 61.1645 30.3512 60.1316 29.3641 60.1316C28.377 60.1316 27.5768 61.1645 27.5768 62.4386C27.5768 63.7127 28.377 64.7455 29.3641 64.7455Z" fill="#3F3D56"/>
<path d="M22.6737 43.1414C22.4296 42.835 22.2074 42.5122 22.0088 42.1754L26.7071 41.4151L21.6258 41.4531C21.1393 40.4082 20.8739 39.2766 20.8458 38.1273C20.8177 36.9779 21.0274 35.835 21.4622 34.7682L28.2749 38.2562L21.9888 33.6947C22.5784 32.6929 23.3709 31.8214 24.3168 31.1344C25.2628 30.4474 26.3421 29.9596 27.4875 29.7015C28.6329 29.4433 29.82 29.4202 30.9749 29.6336C32.1298 29.847 33.2278 30.2924 34.2005 30.942C35.1733 31.5916 36 32.4316 36.6293 33.4097C37.2585 34.3878 37.6768 35.483 37.8582 36.6273C38.0396 37.7716 37.9802 38.9404 37.6836 40.0611C37.387 41.1818 36.8596 42.2303 36.1343 43.1414C36.5148 43.6179 36.842 44.1333 37.1104 44.679L31.0117 47.8038L37.5146 45.6529C37.9713 46.9832 38.0843 48.4048 37.8433 49.789C37.6022 51.1732 37.0149 52.4763 36.1343 53.5804C37.1278 54.8256 37.7458 56.3212 37.9177 57.8962C38.0895 59.4713 37.8083 61.0622 37.1061 62.4871C36.4039 63.912 35.309 65.1134 33.9468 65.9539C32.5845 66.7945 31.0098 67.2402 29.4026 67.2402C27.7955 67.2402 26.2208 66.7945 24.8585 65.9539C23.4962 65.1134 22.4014 63.912 21.6992 62.4871C20.997 61.0622 20.7158 59.4713 20.8876 57.8962C21.0595 56.3212 21.6775 54.8256 22.671 53.5804C21.4838 52.0923 20.8384 50.2541 20.8384 48.3609C20.8384 46.4678 21.4838 44.6296 22.671 43.1414H22.6737Z" fill="#FF9900"/>
<path opacity="0.1" d="M37.9667 48.3609C37.9695 50.2544 37.3239 52.0935 36.1342 53.5804C37.1277 54.8255 37.7457 56.3211 37.9176 57.8962C38.0895 59.4712 37.8082 61.0621 37.106 62.487C36.4038 63.9119 35.309 65.1133 33.9467 65.9539C32.5845 66.7944 31.0097 67.2402 29.4026 67.2402C27.7954 67.2402 26.2207 66.7944 24.8584 65.9539C23.4962 65.1133 22.4014 63.9119 21.6992 62.487C20.9969 61.0621 20.7157 59.4712 20.8875 57.8962C21.0594 56.3211 21.6774 54.8255 22.671 53.5804C21.5233 52.1503 37.9667 47.4132 37.9667 48.3609Z" fill="black"/>
</g>
<g opacity="0.1">
<path d="M69.657 83.6718C70.9782 83.6718 72.0493 82.2898 72.0493 80.5849C72.0493 78.8801 70.9782 77.498 69.657 77.498C68.3357 77.498 67.2646 78.8801 67.2646 80.5849C67.2646 82.2898 68.3357 83.6718 69.657 83.6718Z" fill="#3F3D56"/>
<path d="M71.5509 67.3775C71.8844 66.8031 72.0565 66.1516 72.0496 65.49C72.0496 63.7859 70.9858 62.4031 69.6559 62.4031C68.3261 62.4031 67.2622 63.7859 67.2622 65.49C67.2552 66.1518 67.4278 66.8035 67.7622 67.3775C67.4345 67.9539 67.2623 68.6036 67.2623 69.2643C67.2623 69.9251 67.4345 70.5748 67.7622 71.1512C67.4345 71.7273 67.2623 72.3768 67.2623 73.0374C67.2623 73.6979 67.4345 74.3474 67.7622 74.9236C67.4278 75.4976 67.2552 76.1493 67.2622 76.8111C67.2622 78.5151 68.3341 79.898 69.6559 79.898C70.9778 79.898 72.0496 78.5151 72.0496 76.8111C72.0565 76.1494 71.8844 75.4979 71.5509 74.9236C71.878 74.3472 72.0497 73.6978 72.0497 73.0374C72.0497 72.377 71.878 71.7276 71.5509 71.1512C71.878 70.5746 72.0497 69.9249 72.0497 69.2643C72.0497 68.6037 71.878 67.9541 71.5509 67.3775Z" fill="#3F3D56"/>
<path d="M69.657 64.8046C70.9782 64.8046 72.0493 63.4226 72.0493 61.7177C72.0493 60.0129 70.9782 58.6309 69.657 58.6309C68.3357 58.6309 67.2646 60.0129 67.2646 61.7177C67.2646 63.4226 68.3357 64.8046 69.657 64.8046Z" fill="#3F3D56"/>
<path d="M69.657 61.0309C70.9782 61.0309 72.0493 59.6489 72.0493 57.944C72.0493 56.2392 70.9782 54.8572 69.657 54.8572C68.3357 54.8572 67.2646 56.2392 67.2646 57.944C67.2646 59.6489 68.3357 61.0309 69.657 61.0309Z" fill="#3F3D56"/>
<path d="M60.7063 32.1217C60.3793 31.7117 60.0815 31.2799 59.8153 30.8293L66.1014 29.8121L59.3033 29.8619C58.651 28.463 58.2951 26.9477 58.2574 25.4086C58.2196 23.8695 58.5009 22.3389 59.0839 20.9106L68.2065 25.5744L59.7927 19.4793C60.5787 18.1328 61.6381 16.9606 62.9046 16.0359C64.171 15.1112 65.6173 14.4538 67.1532 14.105C68.689 13.7561 70.2813 13.7232 71.8306 14.0083C73.3799 14.2934 74.8529 14.8904 76.1576 15.7619C77.4623 16.6335 78.5706 17.7609 79.4132 19.0737C80.2559 20.3865 80.8148 21.8565 81.055 23.3919C81.2953 24.9272 81.2117 26.4949 80.8095 27.9969C80.4073 29.499 79.6951 30.9032 78.7175 32.1217C79.2266 32.7604 79.6644 33.4512 80.0234 34.1822L71.8636 38.361L80.5647 35.4773C81.1759 37.2574 81.3271 39.1597 81.0046 41.012C80.682 42.8642 79.896 44.608 78.7175 46.0854C80.0471 47.7516 80.8741 49.753 81.104 51.8607C81.334 53.9685 80.9576 56.0974 80.0179 58.0042C79.0782 59.911 77.6131 61.5187 75.7902 62.6435C73.9672 63.7683 71.8599 64.3648 69.7092 64.3648C67.5585 64.3648 65.4513 63.7683 63.6283 62.6435C61.8053 61.5187 60.3402 59.911 59.4005 58.0042C58.4609 56.0974 58.0845 53.9685 58.3144 51.8607C58.5444 49.753 59.3714 47.7516 60.7009 46.0854C59.1124 44.0939 58.2488 41.6342 58.2488 39.1009C58.2488 36.5677 59.1124 34.1079 60.7009 32.1164L60.7063 32.1217Z" fill="#FF9900"/>
<path opacity="0.1" d="M81.1693 39.1068C81.1733 41.6406 80.3092 44.1014 78.7171 46.0907C80.0466 47.7569 80.8736 49.7583 81.1036 51.866C81.3336 53.9737 80.9572 56.1027 80.0175 58.0095C79.0778 59.9163 77.6127 61.524 75.7898 62.6488C73.9668 63.7736 71.8595 64.3701 69.7088 64.3701C67.5581 64.3701 65.4508 63.7736 63.6279 62.6488C61.8049 61.524 60.3398 59.9163 59.4001 58.0095C58.4604 56.1027 58.084 53.9737 58.314 51.866C58.544 49.7583 59.371 47.7569 60.7005 46.0907C59.1646 44.1691 81.1693 37.838 81.1693 39.1068Z" fill="black"/>
</g>
<path d="M152 83.3939C152 84.2944 145.321 85.1176 134.28 85.7533C132.271 85.8673 130.12 85.9761 127.838 86.0784C125.866 86.1658 123.8 86.2483 121.638 86.3261C119.544 86.3995 117.37 86.4677 115.115 86.5306C107.995 86.7311 100.124 86.8753 91.7621 86.9474C89.7328 86.9658 87.6764 86.9797 85.593 86.9894C83.4227 86.999 81.2276 87.0033 79.0077 87.0025C38.6951 87.0025 6.01709 85.3889 6.01709 83.3978C6.01709 81.4068 38.6951 79.7932 79.0077 79.7932C96.3633 79.7932 112.301 80.0934 124.828 80.5915L126.198 80.6465H126.206C141.986 81.3058 152 82.2981 152 83.3939Z" fill="#3F3D56"/>
<path opacity="0.15" d="M152 83.3939C152 84.2944 145.321 85.1176 134.28 85.7533C132.271 85.8673 130.12 85.9761 127.838 86.0784C125.866 86.1658 123.8 86.2483 121.638 86.3261C119.544 86.3995 117.37 86.4677 115.115 86.5306C107.995 86.7311 100.124 86.8753 91.7621 86.9474C89.7328 86.9658 87.6764 86.9797 85.593 86.9894C83.4227 86.999 81.2276 87.0033 79.0077 87.0025C38.6951 87.0025 6.01709 85.3889 6.01709 83.3978C6.01709 81.4068 38.6951 79.7932 79.0077 79.7932C96.3633 79.7932 112.301 80.0934 124.828 80.5915L126.198 80.6465H126.206C141.986 81.3058 152 82.2981 152 83.3939Z" fill="black"/>
<path d="M145.982 82.7597C145.982 83.5121 139.304 84.2015 128.262 84.7258C126.255 84.8215 124.102 84.912 121.822 84.9972C119.849 85.0706 117.783 85.1396 115.622 85.2043C113.528 85.2654 111.354 85.3227 109.099 85.376C101.978 85.5438 94.1068 85.6644 85.7448 85.7247C83.7172 85.7395 81.6609 85.7509 79.5757 85.7587C77.4054 85.7666 75.2107 85.7705 72.9917 85.7705C32.6791 85.7705 -0.000244141 84.4217 -0.000244141 82.7557C-0.000244141 81.0898 32.6791 79.741 72.9917 79.741C90.346 79.741 106.284 79.9913 118.811 80.4082L120.181 80.454H120.19C135.975 81.0137 145.982 81.8382 145.982 82.7597Z" fill="#3F3D56"/>
<path d="M18.8517 55.3735L17.0192 49.8433L60.9037 49.3701L62.7016 54.8452L18.8517 55.3735Z" fill="#3F3D56"/>
<path opacity="0.15" d="M18.8517 55.3735L17.0192 49.8433L60.9037 49.3701L62.7016 54.8452L18.8517 55.3735Z" fill="black"/>
<path d="M15.9261 55.3735L14.0936 49.8433L57.9781 49.3701L59.776 54.8452L15.9261 55.3735Z" fill="#3F3D56"/>
<path d="M101.077 82.8829C101.624 81.8814 101.002 80.6545 100.287 79.7606C99.5712 78.8666 98.6988 77.9386 98.7175 76.7995C98.7441 75.165 100.505 74.199 101.909 73.3312C102.953 72.6881 103.917 71.9252 104.779 71.0584C105.14 70.7244 105.438 70.3304 105.661 69.8944C105.952 69.2547 105.942 68.5272 105.926 67.8273C105.865 65.4924 105.748 63.1609 105.575 60.833" stroke="#3F3D56" stroke-width="0.408" stroke-miterlimit="10"/>
<path d="M108.251 60.7044C108.231 60.2773 108.102 59.8621 107.876 59.4969C107.651 59.1318 107.335 58.8285 106.96 58.6151L106.38 59.745L106.397 58.3765C106.121 58.2969 105.833 58.2628 105.545 58.2756C105.033 58.2992 104.541 58.4717 104.129 58.7713C103.717 59.0709 103.405 59.4841 103.231 59.9588C103.058 60.4334 103.031 60.948 103.154 61.4377C103.277 61.9273 103.545 62.3699 103.924 62.7096C104.302 63.0492 104.774 63.2706 105.28 63.3458C105.786 63.421 106.304 63.3466 106.767 63.132C107.23 62.9173 107.618 62.5722 107.882 62.1401C108.147 61.708 108.275 61.2084 108.251 60.7044Z" fill="#6C63FF"/>
<path d="M103.636 77.9727C103.365 78.4928 102.92 78.905 102.377 79.1402C101.834 79.3754 101.225 79.4194 100.653 79.2648C100.08 79.1101 99.5794 78.7662 99.2339 78.2908C98.8883 77.8153 98.7191 77.2372 98.7546 76.6534C98.7902 76.0696 99.0283 75.5156 99.429 75.0842C99.8298 74.6529 100.369 74.3705 100.956 74.2844C101.543 74.1983 102.142 74.3137 102.653 74.6112C103.163 74.9088 103.555 75.3704 103.761 75.9187L102.144 77.2151L103.926 76.8061C103.926 77.2122 103.826 77.6123 103.636 77.9727Z" fill="#6C63FF"/>
<path d="M102.358 73.0166C102.019 73.0323 101.679 72.9819 101.36 72.8683C101.04 72.7547 100.746 72.5802 100.495 72.3546C100.243 72.1291 100.04 71.857 99.895 71.5538C99.7504 71.2506 99.6678 70.9224 99.652 70.5877C99.6318 70.1882 99.7084 69.7897 99.8754 69.4251C100.03 69.0843 100.258 68.7811 100.545 68.5368C100.831 68.2924 101.168 68.1129 101.532 68.0107L101.518 69.0594L102.104 67.9164C102.79 67.8847 103.46 68.1229 103.968 68.5784C104.475 69.0339 104.778 69.6694 104.81 70.3452C104.842 71.021 104.601 71.6817 104.139 72.182C103.677 72.6822 103.032 72.981 102.346 73.0126L102.358 73.0166Z" fill="#6C63FF"/>
<path d="M108.641 68.8967C108.297 68.9192 107.952 68.874 107.627 68.7636C107.301 68.6532 107.001 68.48 106.744 68.2539C106.488 68.0279 106.279 67.7537 106.131 67.4473C105.983 67.1409 105.899 66.8085 105.883 66.4696C105.866 66.1306 105.919 65.7919 106.037 65.4732C106.156 65.1545 106.337 64.8623 106.572 64.6136C106.806 64.365 107.088 64.1649 107.402 64.025C107.716 63.8852 108.054 63.8084 108.398 63.7991C108.882 63.7759 109.363 63.8882 109.784 64.1229L109.327 65.3576L110.268 64.4676C110.774 64.9216 111.075 65.5548 111.107 66.228C111.119 66.4641 111.097 66.7007 111.041 66.9306C110.912 67.471 110.608 67.9554 110.175 68.3102C109.742 68.665 109.203 68.8709 108.641 68.8967Z" fill="#6C63FF"/>
<path opacity="0.1" d="M107.902 61.3847C107.305 61.4489 106.726 61.6324 106.126 61.6691C105.526 61.7058 104.868 61.5642 104.489 61.1042C104.284 60.8577 104.183 60.5445 104.01 60.2744C103.847 60.0231 103.623 59.8155 103.358 59.6702C103.192 59.9935 103.098 60.348 103.082 60.71C103.066 61.0721 103.128 61.4334 103.264 61.7699C103.401 62.1064 103.609 62.4104 103.874 62.6615C104.139 62.9127 104.455 63.1053 104.802 63.2265C105.148 63.3477 105.517 63.3947 105.883 63.3644C106.25 63.3342 106.605 63.2273 106.927 63.0509C107.248 62.8745 107.527 62.6327 107.746 62.3415C107.965 62.0504 108.119 61.7166 108.196 61.3624C108.098 61.3676 108.001 61.3742 107.902 61.3847Z" fill="black"/>
<path opacity="0.1" d="M108.641 68.8968C108.195 68.9168 107.751 68.8229 107.353 68.6242C106.955 68.4255 106.615 68.1287 106.368 67.7626C106.12 67.3965 105.972 66.9735 105.939 66.5347C105.906 66.0959 105.989 65.6561 106.179 65.2581C106.384 65.395 106.561 65.5694 106.699 65.7719C106.884 66.0458 106.996 66.363 107.213 66.6147C107.612 67.0827 108.304 67.2347 108.928 67.2072C109.552 67.1797 110.156 67.004 110.778 66.945C110.864 66.9372 110.952 66.9319 111.044 66.9293C110.915 67.4704 110.611 67.9554 110.177 68.3105C109.744 68.6656 109.204 68.8714 108.641 68.8968Z" fill="black"/>
<path opacity="0.1" d="M102.358 73.0166C102.019 73.0323 101.679 72.9819 101.36 72.8683C101.04 72.7547 100.746 72.5802 100.495 72.3546C100.243 72.1291 100.04 71.857 99.895 71.5538C99.7504 71.2506 99.6678 70.9223 99.652 70.5877C99.6318 70.1882 99.7084 69.7897 99.8754 69.425C100.089 69.5652 100.274 69.7429 100.422 69.9494C100.623 70.2286 100.749 70.551 100.984 70.8092C101.421 71.2877 102.155 71.4567 102.816 71.441C103.477 71.4253 104.074 71.2732 104.711 71.2247C104.553 71.7254 104.242 72.166 103.821 72.4866C103.4 72.8072 102.89 72.9923 102.358 73.0166Z" fill="black"/>
<path opacity="0.1" d="M103.636 77.9726C103.335 78.5559 102.818 79.0029 102.192 79.2209C101.566 79.4389 100.879 79.4114 100.273 79.1441C99.6668 78.8767 99.1881 78.3899 98.936 77.7844C98.6839 77.1789 98.6775 76.5011 98.9182 75.8911C99.1313 76.0293 99.3226 76.1976 99.4861 76.3905C99.7321 76.6868 99.8943 77.0223 100.179 77.2976C100.711 77.8088 101.562 78.0198 102.323 78.0395C102.762 78.043 103.2 78.0207 103.636 77.9726Z" fill="black"/>
<path d="M141.105 82.7518C141.653 81.7503 141.03 80.5234 140.315 79.6295C139.599 78.7355 138.727 77.8075 138.746 76.6684C138.772 75.0339 140.533 74.0679 141.937 73.2001C142.982 72.557 143.945 71.7941 144.807 70.9273C145.168 70.5933 145.466 70.1993 145.689 69.7633C145.98 69.1236 145.971 68.3961 145.955 67.6962C145.893 65.3613 145.776 63.0298 145.603 60.7019" stroke="#3F3D56" stroke-width="0.408" stroke-miterlimit="10"/>
<path d="M148.279 60.5733C148.259 60.1462 148.13 59.731 147.904 59.3658C147.679 59.0007 147.364 58.6974 146.988 58.484L146.408 59.6139L146.425 58.2454C146.149 58.1658 145.861 58.1317 145.573 58.1445C145.061 58.1681 144.569 58.3406 144.157 58.6402C143.745 58.9398 143.433 59.353 143.259 59.8276C143.086 60.3022 143.059 60.8169 143.182 61.3065C143.305 61.7962 143.573 62.2388 143.952 62.5785C144.33 62.9181 144.802 63.1395 145.308 63.2147C145.814 63.2899 146.332 63.2155 146.795 63.0009C147.258 62.7862 147.646 62.4411 147.91 62.009C148.175 61.5769 148.303 61.0773 148.279 60.5733Z" fill="#6C63FF"/>
<path d="M143.664 77.8416C143.393 78.3617 142.948 78.7738 142.405 79.0091C141.862 79.2443 141.253 79.2883 140.681 79.1337C140.108 78.979 139.608 78.6351 139.262 78.1597C138.916 77.6842 138.747 77.1061 138.783 76.5223C138.818 75.9385 139.056 75.3844 139.457 74.9531C139.858 74.5218 140.397 74.2394 140.984 74.1533C141.571 74.0672 142.17 74.1826 142.681 74.4801C143.191 74.7777 143.583 75.2393 143.789 75.7876L142.172 77.084L143.954 76.675C143.954 77.0811 143.854 77.4812 143.664 77.8416Z" fill="#6C63FF"/>
<path d="M142.386 72.8855C142.047 72.9012 141.707 72.8508 141.388 72.7372C141.068 72.6236 140.774 72.4491 140.523 72.2235C140.271 71.998 140.068 71.7259 139.923 71.4227C139.778 71.1195 139.696 70.7912 139.68 70.4566C139.66 70.0571 139.736 69.6586 139.903 69.294C140.058 68.9532 140.287 68.65 140.573 68.4056C140.859 68.1613 141.196 67.9817 141.56 67.8796L141.546 68.9283L142.132 67.7853H142.139C142.478 67.7696 142.818 67.82 143.137 67.9336C143.457 68.0472 143.751 68.2217 144.002 68.4472C144.254 68.6728 144.457 68.9449 144.602 69.2481C144.747 69.5512 144.829 69.8795 144.845 70.2141C144.861 70.5487 144.81 70.8832 144.695 71.1983C144.579 71.5135 144.402 71.8032 144.173 72.0509C143.945 72.2986 143.669 72.4994 143.361 72.6419C143.053 72.7845 142.72 72.8659 142.381 72.8815L142.386 72.8855Z" fill="#6C63FF"/>
<path d="M148.669 68.7659C148.325 68.7884 147.98 68.7431 147.655 68.6327C147.329 68.5224 147.029 68.3491 146.773 68.1231C146.516 67.8971 146.307 67.6229 146.159 67.3165C146.011 67.0101 145.927 66.6777 145.911 66.3387C145.895 65.9997 145.947 65.661 146.066 65.3423C146.184 65.0237 146.365 64.7315 146.6 64.4828C146.834 64.2341 147.116 64.034 147.43 63.8942C147.744 63.7543 148.082 63.6775 148.427 63.6683C148.91 63.6451 149.391 63.7573 149.812 63.992L149.355 65.2268L150.296 64.3368C150.802 64.7908 151.103 65.4239 151.135 66.0971C151.147 66.3333 151.125 66.5698 151.069 66.7997C150.94 67.3402 150.636 67.8245 150.203 68.1793C149.77 68.5342 149.231 68.7401 148.669 68.7659Z" fill="#6C63FF"/>
<path opacity="0.1" d="M147.931 61.2538C147.333 61.318 146.754 61.5015 146.154 61.5382C145.554 61.5749 144.896 61.4334 144.517 60.9733C144.312 60.7269 144.211 60.4136 144.038 60.1436C143.875 59.8922 143.651 59.6846 143.386 59.5393C143.22 59.8626 143.126 60.2171 143.11 60.5792C143.094 60.9413 143.156 61.3026 143.292 61.6391C143.429 61.9756 143.637 62.2795 143.902 62.5307C144.167 62.7818 144.483 62.9744 144.83 63.0956C145.176 63.2168 145.545 63.2638 145.911 63.2336C146.278 63.2033 146.633 63.0964 146.955 62.92C147.276 62.7436 147.555 62.5018 147.774 62.2107C147.993 61.9195 148.147 61.5857 148.224 61.2315C148.126 61.2368 148.029 61.2433 147.931 61.2538Z" fill="black"/>
<path opacity="0.1" d="M148.668 68.7657C148.223 68.7857 147.779 68.6918 147.381 68.4931C146.982 68.2944 146.643 67.9976 146.395 67.6315C146.148 67.2654 146 66.8424 145.967 66.4036C145.934 65.9648 146.017 65.525 146.207 65.127C146.412 65.2639 146.588 65.4383 146.727 65.6408C146.912 65.9147 147.023 66.2319 147.24 66.4836C147.639 66.9515 148.332 67.1036 148.956 67.0761C149.579 67.0485 150.183 66.8729 150.806 66.8139C150.892 66.8061 150.98 66.8008 151.071 66.7982C150.943 67.3393 150.639 67.8243 150.205 68.1794C149.771 68.5345 149.232 68.7403 148.668 68.7657Z" fill="black"/>
<path opacity="0.1" d="M142.386 72.8855C142.047 72.9012 141.707 72.8508 141.388 72.7372C141.068 72.6236 140.774 72.4491 140.523 72.2235C140.271 71.998 140.068 71.7259 139.923 71.4227C139.778 71.1195 139.696 70.7912 139.68 70.4566C139.66 70.0571 139.736 69.6585 139.903 69.2939C140.117 69.4341 140.302 69.6118 140.45 69.8183C140.651 70.0974 140.777 70.4199 141.013 70.6781C141.449 71.1566 142.183 71.3256 142.844 71.3099C143.485 71.2968 144.102 71.1421 144.739 71.0936C144.581 71.5943 144.27 72.0349 143.849 72.3555C143.428 72.6761 142.918 72.8612 142.386 72.8855Z" fill="black"/>
<path opacity="0.1" d="M143.665 77.8415C143.363 78.4248 142.846 78.8718 142.22 79.0898C141.594 79.3078 140.907 79.2803 140.301 79.013C139.695 78.7456 139.216 78.2588 138.964 77.6533C138.712 77.0478 138.706 76.37 138.946 75.76C139.159 75.8982 139.351 76.0665 139.514 76.2594C139.76 76.5556 139.922 76.8912 140.207 77.1665C140.739 77.6777 141.59 77.8887 142.351 77.9084C142.79 77.9119 143.228 77.8896 143.665 77.8415Z" fill="black"/>
<path d="M14.6185 81.0476C14.0706 80.0462 14.693 78.8193 15.4084 77.9254C16.1239 77.0314 16.9962 76.1034 16.9776 74.9643C16.951 73.3298 15.1903 72.3638 13.786 71.496C12.7416 70.8529 11.7783 70.09 10.9162 69.2232C10.5553 68.8892 10.2568 68.4952 10.0346 68.0592C9.74333 67.4195 9.75264 66.692 9.7686 65.9921C9.82977 63.6572 9.9468 61.3257 10.1197 58.9978" stroke="#3F3D56" stroke-width="0.408" stroke-miterlimit="10"/>
<path d="M7.44435 58.8695C7.46435 58.4424 7.59312 58.0271 7.81879 57.662C8.04446 57.2968 8.35976 56.9935 8.73562 56.7801L9.31543 57.91L9.29814 56.5415C9.57471 56.4619 9.86272 56.4278 10.1506 56.4406C10.6618 56.4642 11.1545 56.6368 11.5663 56.9364C11.978 57.236 12.2905 57.6492 12.464 58.1238C12.6375 58.5984 12.6643 59.1131 12.5411 59.6027C12.4179 60.0923 12.1501 60.535 11.7717 60.8746C11.3933 61.2143 10.9212 61.4357 10.4151 61.5109C9.90896 61.586 9.39161 61.5116 8.92842 61.297C8.46523 61.0824 8.07701 60.7372 7.81285 60.3051C7.54869 59.873 7.42045 59.3734 7.44435 58.8695Z" fill="#6C63FF"/>
<path d="M12.0585 76.1375C12.3301 76.6575 12.7747 77.0697 13.318 77.305C13.8612 77.5402 14.47 77.5842 15.0423 77.4296C15.6145 77.2749 16.1154 76.931 16.461 76.4556C16.8065 75.9801 16.9757 75.402 16.9402 74.8182C16.9047 74.2344 16.6666 73.6803 16.2658 73.249C15.8651 72.8177 15.3261 72.5353 14.7392 72.4492C14.1523 72.3631 13.5532 72.4785 13.0424 72.776C12.5315 73.0736 12.14 73.5352 11.9335 74.0835L13.5506 75.3799L11.7686 74.9709C11.7694 75.377 11.8688 75.777 12.0585 76.1375Z" fill="#6C63FF"/>
<path d="M13.3369 71.1816C13.6764 71.1973 14.0157 71.1469 14.3355 71.0334C14.6552 70.9198 14.9491 70.7452 15.2004 70.5197C15.4517 70.2941 15.6555 70.022 15.8001 69.7188C15.9447 69.4157 16.0273 69.0874 16.0432 68.7528C16.0633 68.3532 15.9867 67.9547 15.8197 67.5901C15.6652 67.2494 15.4367 66.9461 15.1504 66.7018C14.8641 66.4574 14.527 66.2779 14.1628 66.1758L14.1774 67.2244L13.5909 66.0814C12.9053 66.0498 12.235 66.2879 11.7275 66.7434C11.22 67.1989 10.9168 67.8345 10.8847 68.5103C10.8526 69.1861 11.0942 69.8468 11.5563 70.347C12.0185 70.8473 12.6633 71.1461 13.3489 71.1777L13.3369 71.1816Z" fill="#6C63FF"/>
<path d="M7.05485 67.0617C7.39837 67.0842 7.74299 67.0389 8.06854 66.9286C8.3941 66.8182 8.69406 66.6449 8.95086 66.4189C9.20767 66.1929 9.41617 65.9187 9.56416 65.6123C9.71216 65.3059 9.79667 64.9735 9.81277 64.6346C9.82886 64.2956 9.77621 63.9569 9.65789 63.6382C9.53958 63.3195 9.35797 63.0273 9.1237 62.7786C8.88943 62.53 8.6072 62.3299 8.29353 62.19C7.97985 62.0502 7.64103 61.9734 7.29688 61.9641C6.81547 61.9422 6.33752 62.0544 5.91784 62.2879L6.37531 63.5226L5.42713 62.6366C4.92276 63.0896 4.62104 63.7212 4.58801 64.393C4.57623 64.6291 4.59862 64.8657 4.6545 65.0956C4.7832 65.636 5.08718 66.1204 5.52034 66.4752C5.95351 66.83 6.49224 67.0359 7.05485 67.0617Z" fill="#6C63FF"/>
<path opacity="0.1" d="M7.79279 59.5497C8.38989 59.6139 8.9697 59.7974 9.56945 59.8341C10.1692 59.8708 10.8275 59.7293 11.2065 59.2692C11.4113 59.0228 11.5123 58.7095 11.6852 58.4395C11.8485 58.1881 12.0723 57.9805 12.3368 57.8352C12.503 58.1585 12.5973 58.513 12.6135 58.8751C12.6297 59.2372 12.5675 59.5985 12.4309 59.935C12.2943 60.2714 12.0866 60.5754 11.8215 60.8266C11.5565 61.0777 11.2401 61.2703 10.8936 61.3915C10.5471 61.5127 10.1784 61.5597 9.81195 61.5295C9.44555 61.4992 9.08991 61.3923 8.7687 61.2159C8.4475 61.0395 8.16811 60.7977 7.94916 60.5066C7.73021 60.2154 7.57671 59.8816 7.4989 59.5274C7.59731 59.5327 7.69439 59.5392 7.79279 59.5497Z" fill="black"/>
<path opacity="0.1" d="M7.05444 67.0618C7.50039 67.0818 7.94402 66.9879 8.34231 66.7892C8.7406 66.5905 9.08003 66.2937 9.32769 65.9276C9.57534 65.5615 9.72282 65.1386 9.7558 64.6997C9.78879 64.2609 9.70617 63.8212 9.51596 63.4231C9.31093 63.5601 9.13443 63.7345 8.996 63.9369C8.81115 64.2109 8.69944 64.5281 8.48268 64.7797C8.08373 65.2477 7.39089 65.3997 6.76719 65.3722C6.1435 65.3447 5.53976 65.169 4.9174 65.1101C4.83096 65.1022 4.74319 65.097 4.65143 65.0943C4.78 65.6354 5.08427 66.1204 5.51799 66.4755C5.95171 66.8306 6.49119 67.0365 7.05444 67.0618Z" fill="black"/>
<path opacity="0.1" d="M13.3366 71.1816C13.6761 71.1973 14.0154 71.1469 14.3352 71.0333C14.6549 70.9198 14.9488 70.7452 15.2001 70.5197C15.4514 70.2941 15.6552 70.022 15.7998 69.7188C15.9444 69.4157 16.0269 69.0874 16.0428 68.7527C16.063 68.3532 15.9864 67.9547 15.8194 67.5901C15.606 67.7302 15.4207 67.908 15.2728 68.1144C15.072 68.3936 14.9457 68.716 14.7103 68.9743C14.2741 69.4527 13.5401 69.6218 12.8791 69.6061C12.2382 69.593 11.6211 69.4383 10.9841 69.3898C11.142 69.8905 11.4525 70.3311 11.8734 70.6517C12.2944 70.9723 12.8052 71.1573 13.3366 71.1816Z" fill="black"/>
<path opacity="0.1" d="M12.059 76.1377C12.3602 76.721 12.8773 77.1679 13.5033 77.3859C14.1294 77.604 14.8166 77.5765 15.4227 77.3091C16.0287 77.0417 16.5074 76.5549 16.7595 75.9495C17.0116 75.344 17.018 74.6661 16.7773 74.0562C16.5642 74.1943 16.3729 74.3626 16.2094 74.5556C15.9634 74.8518 15.8012 75.1873 15.5166 75.4626C14.9847 75.9738 14.1336 76.1849 13.3729 76.2045C12.934 76.208 12.4952 76.1857 12.059 76.1377Z" fill="black"/>
<path d="M89.5644 68.7645C89.5669 68.4467 89.4939 68.1328 89.3512 67.8478C89.2084 67.5629 89 67.3148 88.7426 67.1234C88.7107 65.9215 87.841 64.9397 86.7226 64.7876C86.6362 64.3793 86.4422 64.0005 86.1602 63.6894C85.8782 63.3783 85.5181 63.1459 85.1161 63.0155C85.0183 62.9849 84.9183 62.9617 84.8169 62.946H84.7877L84.7358 62.9395H84.6919H84.648H84.5908H84.5563H84.4618C83.3209 62.9395 82.3714 63.7993 82.1759 64.9331C81.4378 64.7654 80.7609 64.9829 80.6399 65.443C80.6087 65.565 80.6156 65.6934 80.6599 65.8114C80.7849 66.1679 81.1918 66.5087 81.7437 66.6778L81.8155 66.6988C81.8514 66.7092 81.8873 66.7171 81.9232 66.725H81.9471C81.7442 67.1514 81.7154 67.6383 81.8667 68.0851C82.0179 68.5318 82.3376 68.9041 82.7597 69.125C82.743 69.134 82.727 69.144 82.7118 69.1551C82.6436 69.2168 82.5893 69.2918 82.5522 69.3753C82.4189 69.606 82.3152 69.8521 82.2437 70.1081C82.1905 70.327 82.1812 70.5564 82.1107 70.7726C81.9897 71.1659 81.6785 71.5106 81.6426 71.9287C81.6266 72.1149 81.6572 72.3338 81.5229 72.4609C81.4895 72.4893 81.4539 72.5151 81.4165 72.5382C81.3224 72.6018 81.2427 72.6839 81.1825 72.7794C81.1433 72.8584 81.0907 72.9303 81.0269 72.9918C80.9059 73.0822 80.7064 73.073 80.6466 73.212C80.5867 73.3509 80.741 73.5148 80.7051 73.6668C80.6758 73.79 80.5388 73.8464 80.4391 73.929C80.3276 74.0482 80.2496 74.1942 80.213 74.3524C80.0144 74.3901 79.8097 74.3842 79.6136 74.335C79.4175 74.2859 79.2349 74.1947 79.0787 74.0679C79.1323 74.2029 79.1715 74.3431 79.1957 74.4861C79.0375 74.3196 78.7768 74.2711 78.584 74.1846C78.3353 74.0723 78.1133 73.9097 77.9324 73.7075L78.2808 73.6603L76.7382 71.3533L76.2834 71.2616L76.6916 72.0336C76.6582 72.0494 76.6289 72.0725 76.6059 72.1011C76.5828 72.1297 76.5667 72.1631 76.5586 72.1988C76.5367 72.2844 76.5312 72.3733 76.5427 72.4609C76.5643 72.6678 76.5994 72.8732 76.6477 73.0757L76.7661 73.6183C76.7761 73.6692 76.789 73.7196 76.8047 73.7691C76.6504 73.7636 76.4963 73.7808 76.3472 73.8202C76.0414 73.7087 75.723 73.6343 75.399 73.5987C75.3278 73.5863 75.2546 73.5899 75.1849 73.6092C75.1059 73.6451 75.0373 73.7001 74.9855 73.7691C74.7195 74.0721 74.4834 74.3996 74.2806 74.7469C73.4522 76.1678 72.3457 77.4078 71.3098 78.6923C70.5943 78.9794 69.8736 79.252 69.1515 79.5221L67.5996 80.1054C67.2897 80.222 66.9679 80.3413 66.6381 80.3203C66.4891 80.3111 66.3083 80.2889 66.2245 80.4134C66.1837 80.4751 66.1519 80.5422 66.1301 80.6126C66.0756 80.6126 66.021 80.6257 65.9705 80.6283H65.9612C65.8628 80.3872 65.7777 80.1289 65.5889 79.9533C65.5508 79.959 65.5149 79.974 65.4842 79.9969C65.4536 80.0198 65.4292 80.0499 65.4133 80.0844C65.3761 80.1525 65.3535 80.2272 65.3109 80.2902C65.2271 80.4108 65.0822 80.4697 64.9785 80.572C64.8747 80.6742 64.8096 80.8341 64.6979 80.9338C64.5414 81.0458 64.3581 81.1158 64.1659 81.1369C63.878 81.2037 63.6004 81.3078 63.3401 81.4463C63.2441 81.5044 63.1414 81.5511 63.0342 81.5852C62.9163 81.6075 62.7956 81.6115 62.6765 81.597L61.8547 81.538C61.7815 81.5286 61.7073 81.5317 61.6353 81.5472C61.5506 81.5778 61.4786 81.6351 61.4305 81.7103C61.3824 81.7855 61.3608 81.8742 61.3693 81.9627C61.3793 82.0505 61.4075 82.1354 61.4521 82.212C61.4967 82.2887 61.5568 82.3555 61.6286 82.4084C61.7713 82.5115 61.9291 82.5924 62.0967 82.6482C62.8109 82.9209 63.5471 83.1336 64.2976 83.284V83.4478C64.8178 83.7061 65.3921 83.8407 65.9745 83.8411C66.0174 83.8444 66.0605 83.8367 66.0995 83.8188C66.1533 83.7789 66.1907 83.7212 66.2046 83.6562C66.3789 83.1422 66.4892 82.6092 66.533 82.0689C66.6357 82.0624 66.7363 82.037 66.8296 81.9942C67.1128 81.9181 67.3934 82.1095 67.6847 82.141C68.0437 82.179 68.3775 81.9732 68.7166 81.8461C68.7658 81.8277 68.815 81.812 68.8642 81.7962C68.7675 81.9196 68.6533 82.0286 68.5251 82.12C68.3842 82.2196 68.2259 82.293 68.0876 82.3966C67.9727 82.5001 67.8495 82.5943 67.7192 82.6784C67.6274 82.7206 67.5328 82.7565 67.436 82.7859C67.2956 82.8363 67.1618 82.9028 67.037 82.9838C66.9253 83.0487 66.8306 83.1385 66.7604 83.246C66.7251 83.2961 66.7034 83.3544 66.6973 83.4152C66.6913 83.476 66.7011 83.5373 66.7259 83.5932C66.7507 83.6492 66.7896 83.698 66.839 83.7349C66.8883 83.7719 66.9464 83.7958 67.0078 83.8044C67.1189 83.8238 67.2322 83.8269 67.3442 83.8135C67.7884 83.7808 68.2312 83.7401 68.6741 83.7008C68.8615 83.6885 69.0478 83.6622 69.2313 83.6222C69.3283 83.5986 69.4241 83.5671 69.5212 83.5422C69.6868 83.4991 69.8567 83.4741 70.0278 83.4675C70.0775 83.4636 70.1275 83.4685 70.1754 83.4819C70.2792 83.5147 70.3523 83.613 70.4574 83.6392C70.5256 83.6457 70.5944 83.6363 70.6582 83.6117C70.9824 83.5423 71.3132 83.5076 71.6449 83.5081C71.7899 83.5003 71.9601 83.4727 72.0279 83.3403C72.1104 83.1765 71.972 82.993 71.9175 82.816C71.8897 82.7035 71.8746 82.5884 71.8723 82.4726C71.847 82.187 71.7638 81.9093 71.6276 81.656C71.5552 81.5378 71.4942 81.4132 71.4454 81.2837C72.0809 81.0455 72.689 80.7414 73.2593 80.3767C73.5865 80.1761 73.9242 79.9599 74.2939 79.8864C74.7248 79.8012 75.169 79.914 75.5932 80.0346C76.6037 80.3227 77.5976 80.6645 78.5707 81.0583C79.0361 81.2457 79.5016 81.445 79.9776 81.5826C80.1168 81.7677 80.2852 81.9297 80.4763 82.0623C80.7955 82.2655 81.1851 82.3245 81.5602 82.3533C82.0668 82.399 82.5755 82.4178 83.0841 82.4097C83.4725 82.4031 83.8727 82.3769 84.2198 82.2026C84.3046 82.1597 84.3844 82.1078 84.4579 82.0479C84.7238 82.0951 84.9964 81.9549 85.2052 81.7753C85.4816 81.5436 85.6808 81.2353 85.7771 80.8905C85.8994 80.4173 85.805 79.8655 86.1002 79.4788C86.1787 79.3752 86.2811 79.2914 86.3582 79.1865C86.4532 79.0461 86.4998 78.8792 86.4912 78.7107L86.5045 78.691C86.5713 78.5389 86.6161 78.3783 86.6375 78.2139C86.6724 78.0855 86.7169 77.9597 86.7704 77.8377C86.9204 77.472 87.0509 77.0988 87.1614 76.7196C87.2383 76.4681 87.2987 76.212 87.3423 75.9528C87.3742 75.7457 87.3928 75.5373 87.4101 75.3289C87.4314 75.0027 87.4958 74.6806 87.6016 74.3707C87.8641 73.6312 88.0124 72.8571 88.0418 72.0742C88.0418 72.0585 88.0418 72.0441 88.0418 72.0284C88.4278 71.9866 88.7842 71.8044 89.0413 71.5174C89.2983 71.2304 89.4374 70.8592 89.4314 70.4764C89.4318 70.2457 89.3829 70.0175 89.2878 69.8066C89.4713 69.4892 89.5667 69.1298 89.5644 68.7645ZM82.0442 77.7709C82.0668 77.8508 82.0934 77.9308 82.12 78.0107C81.9977 77.8914 81.8767 77.7682 81.753 77.6503C81.8022 77.6647 81.8514 77.6804 81.8993 77.6975C81.9502 77.7174 81.9992 77.7419 82.0455 77.7709H82.0442ZM81.4484 77.3776C80.7224 76.7563 79.8819 76.274 79.1385 75.6736C79.5375 75.8716 79.9364 76.1009 80.3354 76.3211C80.7999 76.5833 81.2698 76.8341 81.745 77.0735C81.6671 77.1901 81.5679 77.2914 81.4524 77.3724L81.4484 77.3776ZM81.7583 75.8126L81.7929 75.7772C81.7929 75.865 81.7929 75.9476 81.7929 76.0223C81.7277 76.0013 81.6599 75.9803 81.5974 75.9567C81.6548 75.9106 81.709 75.8607 81.7596 75.8073L81.7583 75.8126ZM75.3658 77.4956C75.6648 77.1623 75.9248 76.7969 76.1411 76.4063C76.4283 76.9031 76.8964 77.261 77.2954 77.6765C76.6544 77.5874 76.0121 77.5179 75.3671 77.4904L75.3658 77.4956Z" fill="url(#paint0_linear_297_2498)"/>
<path d="M76.4028 71.4529L76.8616 71.5446L78.4242 73.8201L77.734 73.9119L76.4028 71.4529Z" fill="#2F2E41"/>
<path d="M65.292 80.6886C65.4157 81.0919 65.5681 81.4861 65.7481 81.8683C66.2659 81.7615 66.7752 81.6183 67.2721 81.4397C67.1759 81.292 67.0702 81.1506 66.9556 81.0163C66.8335 80.8824 66.6874 80.7718 66.5248 80.6899C66.3665 80.6218 66.171 80.6729 66.0021 80.6821C65.7654 80.6908 65.5287 80.693 65.292 80.6886Z" fill="#FBBEBE"/>
<path d="M66.5277 81.2968C66.2697 81.2168 66.1115 80.9599 66.0064 80.7122C65.9013 80.4644 65.8162 80.1944 65.6168 80.0122C65.5788 80.0181 65.5429 80.0331 65.5123 80.056C65.4816 80.0789 65.4572 80.1088 65.4412 80.1433C65.4027 80.2088 65.3801 80.2835 65.3362 80.3465C65.2537 80.4644 65.1074 80.5221 65.0024 80.623C64.8973 80.724 64.8322 80.8773 64.7191 80.9782C64.5623 81.0894 64.3791 81.1589 64.1872 81.1801C63.8973 81.2449 63.6174 81.3471 63.3547 81.4842C63.2575 81.5398 63.1539 81.5838 63.0462 81.6153C62.9274 81.6376 62.8058 81.6415 62.6858 81.6271L61.8573 81.5681C61.7837 81.5591 61.709 81.5626 61.6366 81.5786C61.5522 81.6075 61.4801 81.6636 61.4319 81.7377C61.3836 81.8119 61.3621 81.8999 61.3706 81.9875C61.3816 82.0749 61.4109 82.1591 61.4567 82.2347C61.5025 82.3103 61.5637 82.3757 61.6366 82.4267C61.7806 82.5281 61.9393 82.6077 62.1073 82.6626C62.8291 82.9301 63.5719 83.1392 64.3282 83.2878V83.4491C64.8538 83.7055 65.4319 83.84 66.0184 83.8423C66.0639 83.8463 66.1097 83.8386 66.1514 83.82C66.2052 83.7811 66.243 83.7243 66.2577 83.6601C66.4565 83.0874 66.5725 82.4899 66.6022 81.8853C66.6174 81.7324 66.6057 81.5781 66.5676 81.4292C66.5224 81.2823 66.6766 81.344 66.533 81.2863" fill="#2F2E41"/>
<path d="M82.4109 78.2191C79.9547 78.3659 77.5291 77.6555 75.0689 77.5794C74.7635 77.5611 74.4571 77.5805 74.1566 77.6371C73.8434 77.7199 73.5402 77.8359 73.2523 77.9832C71.9344 78.5874 70.57 79.0881 69.207 79.5889L67.6431 80.163C67.3292 80.277 67.0061 80.3937 66.6723 80.374C66.5234 80.3648 66.3412 80.3425 66.2561 80.4658C66.0021 80.8367 66.1231 81.3833 66.2906 81.8001C66.3452 81.9312 66.4369 82.0819 66.5832 82.0977C66.6867 82.0907 66.788 82.0654 66.8824 82.023C67.167 81.9482 67.4516 82.137 67.7441 82.1671C68.1072 82.2052 68.4436 82.002 68.7854 81.8775C69.3519 81.6717 69.9716 81.6782 70.5674 81.5799C71.5674 81.4161 72.493 80.9586 73.36 80.4369C73.6898 80.239 74.0249 80.0266 74.4026 79.9546C74.8375 79.8707 75.2856 79.9808 75.7125 80.1C76.7302 80.384 77.732 80.7205 78.7139 81.108C79.225 81.3269 79.749 81.5151 80.2831 81.6717C81.4472 81.9738 82.6786 81.9031 83.7992 81.4698C84.1982 81.3164 84.6184 81.0464 84.641 80.6283C84.6543 80.3897 84.4668 80.18 84.3418 79.9729C84.2607 79.8418 84.1809 79.7107 84.0931 79.5862C83.6702 78.978 83.1569 78.1745 82.4109 78.2191Z" fill="#2F2E41"/>
<path opacity="0.1" d="M82.4109 78.2191C79.9547 78.3659 77.5291 77.6555 75.0689 77.5794C74.7635 77.5611 74.4571 77.5805 74.1566 77.6371C73.8434 77.7199 73.5402 77.8359 73.2523 77.9832C71.9344 78.5874 70.57 79.0881 69.207 79.5889L67.6431 80.163C67.3292 80.277 67.0061 80.3937 66.6723 80.374C66.5234 80.3648 66.3412 80.3425 66.2561 80.4658C66.0021 80.8367 66.1231 81.3833 66.2906 81.8001C66.3452 81.9312 66.4369 82.0819 66.5832 82.0977C66.6867 82.0907 66.788 82.0654 66.8824 82.023C67.167 81.9482 67.4516 82.137 67.7441 82.1671C68.1072 82.2052 68.4436 82.002 68.7854 81.8775C69.3519 81.6717 69.9716 81.6782 70.5674 81.5799C71.5674 81.4161 72.493 80.9586 73.36 80.4369C73.6898 80.239 74.0249 80.0266 74.4026 79.9546C74.8375 79.8707 75.2856 79.9808 75.7125 80.1C76.7302 80.384 77.732 80.7205 78.7139 81.108C79.225 81.3269 79.749 81.5151 80.2831 81.6717C81.4472 81.9738 82.6786 81.9031 83.7992 81.4698C84.1982 81.3164 84.6184 81.0464 84.641 80.6283C84.6543 80.3897 84.4668 80.18 84.3418 79.9729C84.2607 79.8418 84.1809 79.7107 84.0931 79.5862C83.6702 78.978 83.1569 78.1745 82.4109 78.2191Z" fill="black"/>
<path d="M70.0062 80.8066C70.3909 80.935 70.7784 81.0539 71.1684 81.1631C71.3879 80.8079 71.7974 80.5615 71.8905 80.1564C71.8958 80.1389 71.8958 80.1202 71.8905 80.1027C71.8804 80.0855 71.865 80.0717 71.8467 80.0634C71.5663 79.9109 71.2552 79.8214 70.9357 79.8012C70.683 79.7855 70.5687 80.045 70.4543 80.2272C70.4144 80.3006 70.1086 80.8407 70.0062 80.8066Z" fill="#FBBEBE"/>
<path d="M70.5476 80.5471C70.4328 80.5282 70.3232 80.486 70.2259 80.423C70.1285 80.36 70.0456 80.2777 69.9824 80.1813C69.9279 80.0883 69.8707 79.9624 69.7617 79.969C69.6526 79.9755 69.6154 80.0935 69.5928 80.1918C69.5192 80.5591 69.4128 80.9192 69.275 81.268C69.136 81.6178 68.9006 81.9224 68.5954 82.1475C68.4531 82.2445 68.2949 82.3179 68.1552 82.4201C68.0389 82.5224 67.9144 82.6154 67.7829 82.698C67.6903 82.7398 67.5947 82.7748 67.497 82.8029C67.3537 82.8522 67.2167 82.9178 67.0887 82.9982C66.9765 83.063 66.8814 83.1527 66.8108 83.2604C66.7767 83.315 66.7568 83.377 66.7526 83.4409C66.7484 83.5049 66.7602 83.5689 66.7868 83.6274C66.8155 83.6749 66.854 83.7159 66.8998 83.7477C66.9457 83.7796 66.9978 83.8015 67.0528 83.8122C67.1649 83.8305 67.2791 83.8332 67.3919 83.8201C67.8401 83.7873 68.2869 83.748 68.7337 83.7086C68.9229 83.6971 69.1109 83.6717 69.2962 83.6326C69.3946 83.609 69.4904 83.5776 69.5875 83.5527C69.7551 83.5106 69.9267 83.486 70.0995 83.4793C70.1496 83.4755 70.2 83.4804 70.2484 83.4937C70.3521 83.5264 70.4253 83.6247 70.5317 83.6483C70.6002 83.6554 70.6694 83.6464 70.7338 83.6221C71.0608 83.5539 71.3942 83.5196 71.7285 83.5199C71.8748 83.512 72.0477 83.4845 72.1142 83.3547C72.1979 83.1935 72.0596 83.0126 72.0038 82.8396C71.9762 82.7288 71.9606 82.6154 71.9572 82.5014C71.9321 82.2198 71.8483 81.9463 71.7112 81.6979C71.5968 81.4908 71.4452 81.2627 71.521 81.0425C71.5618 80.9738 71.5876 80.8975 71.5969 80.8184C71.5782 80.4632 70.7497 80.5942 70.5476 80.5471Z" fill="#2F2E41"/>
<path d="M78.7284 74.3366C78.2933 74.1473 77.9447 73.806 77.7496 73.3784C77.7098 73.2867 77.6752 73.191 77.6366 73.0979C77.5072 72.7902 77.3068 72.5165 77.0515 72.2984C77.0242 72.2687 76.9906 72.2453 76.9532 72.2296C76.9158 72.214 76.8753 72.2066 76.8347 72.2079C76.7954 72.2194 76.7599 72.241 76.7319 72.2705C76.7039 72.3 76.6843 72.3363 76.6751 72.3757C76.6524 72.4612 76.6465 72.5502 76.6579 72.6378C76.6806 72.8412 76.7161 73.0431 76.7642 73.2421L76.8839 73.7769C76.899 73.8591 76.924 73.9391 76.9584 74.0155C77.0096 74.1052 77.0772 74.1847 77.1579 74.2501C77.2669 74.3497 77.3773 74.4454 77.489 74.5385C77.5506 74.5934 77.6179 74.6417 77.6898 74.6827C77.8078 74.7378 77.9339 74.7741 78.0635 74.7901C78.5515 74.8793 79.0476 75.0077 79.4585 75.3144C79.4585 75.3144 79.4585 74.9566 79.4492 74.9212C79.4442 74.8175 79.4081 74.7176 79.3454 74.6342C79.1912 74.4703 78.9252 74.4218 78.7284 74.3366Z" fill="#FBBEBE"/>
<path opacity="0.1" d="M78.7284 74.3366C78.2933 74.1473 77.9447 73.806 77.7496 73.3784C77.7098 73.2867 77.6752 73.191 77.6366 73.0979C77.5072 72.7902 77.3068 72.5165 77.0515 72.2984C77.0242 72.2687 76.9906 72.2453 76.9532 72.2296C76.9158 72.214 76.8753 72.2066 76.8347 72.2079C76.7954 72.2194 76.7599 72.241 76.7319 72.2705C76.7039 72.3 76.6843 72.3363 76.6751 72.3757C76.6524 72.4612 76.6465 72.5502 76.6579 72.6378C76.6806 72.8412 76.7161 73.0431 76.7642 73.2421L76.8839 73.7769C76.899 73.8591 76.924 73.9391 76.9584 74.0155C77.0096 74.1052 77.0772 74.1847 77.1579 74.2501C77.2669 74.3497 77.3773 74.4454 77.489 74.5385C77.5506 74.5934 77.6179 74.6417 77.6898 74.6827C77.8078 74.7378 77.9339 74.7741 78.0635 74.7901C78.5515 74.8793 79.0476 75.0077 79.4585 75.3144C79.4585 75.3144 79.4585 74.9566 79.4492 74.9212C79.4442 74.8175 79.4081 74.7176 79.3454 74.6342C79.1912 74.4703 78.9252 74.4218 78.7284 74.3366Z" fill="black"/>
<path d="M83.7288 70.2469C84.0586 70.2469 84.3259 69.9817 84.3259 69.6545C84.3259 69.3273 84.0586 69.062 83.7288 69.062C83.399 69.062 83.1317 69.3273 83.1317 69.6545C83.1317 69.9817 83.399 70.2469 83.7288 70.2469Z" fill="#2F2E41"/>
<path d="M83.3594 69.2967C83.1991 69.2606 83.0309 69.2845 82.8873 69.3635C82.8183 69.4237 82.7634 69.4979 82.7264 69.5811C82.5921 69.8074 82.4875 70.0497 82.4153 70.302C82.3621 70.5183 82.3527 70.7438 82.2823 70.9574C82.1599 71.3506 81.8461 71.6849 81.8102 72.0952C81.7942 72.2787 81.8248 72.495 81.6892 72.6195C81.6555 72.6473 81.6194 72.6723 81.5814 72.6942C81.487 72.7567 81.4068 72.8379 81.3461 72.9328C81.3054 73.0179 81.2491 73.0948 81.1798 73.1595C81.0575 73.2487 80.8567 73.2395 80.7968 73.3771C80.737 73.5147 80.8913 73.6746 80.8554 73.8241C80.8261 73.946 80.6878 74.0023 80.5894 74.0862C80.4773 74.2033 80.3988 74.3476 80.362 74.5044C80.1622 74.5414 79.9567 74.5354 79.7595 74.4868C79.5623 74.4382 79.3782 74.348 79.2197 74.2226C79.3859 74.6276 79.3899 75.0746 79.3965 75.511C79.4157 75.6507 79.3779 75.7921 79.2915 75.9043C79.7676 75.9148 80.2303 76.0354 80.6944 76.1441C80.8929 76.2097 81.1077 76.2097 81.3062 76.1441C81.4123 76.0878 81.5073 76.0132 81.5868 75.9239C81.8394 75.671 82.1041 75.3996 82.1652 75.047C82.1814 74.8486 82.185 74.6495 82.1759 74.4506C82.2003 74.2052 82.2516 73.963 82.3288 73.7284C82.4624 73.2413 82.5514 72.7434 82.5948 72.2407C82.6227 71.93 82.894 71.681 83.0376 71.4031C83.3036 70.8788 83.5828 70.3348 83.6041 69.7476C83.6227 69.5562 83.5563 69.3216 83.3594 69.2967Z" fill="#2F2E41"/>
<path opacity="0.1" d="M83.3594 69.2967C83.1991 69.2606 83.0309 69.2845 82.8873 69.3635C82.8183 69.4237 82.7634 69.4979 82.7264 69.5811C82.5921 69.8074 82.4875 70.0497 82.4153 70.302C82.3621 70.5183 82.3527 70.7438 82.2823 70.9574C82.1599 71.3506 81.8461 71.6849 81.8102 72.0952C81.7942 72.2787 81.8248 72.495 81.6892 72.6195C81.6555 72.6473 81.6194 72.6723 81.5814 72.6942C81.487 72.7567 81.4068 72.8379 81.3461 72.9328C81.3054 73.0179 81.2491 73.0948 81.1798 73.1595C81.0575 73.2487 80.8567 73.2395 80.7968 73.3771C80.737 73.5147 80.8913 73.6746 80.8554 73.8241C80.8261 73.946 80.6878 74.0023 80.5894 74.0862C80.4773 74.2033 80.3988 74.3476 80.362 74.5044C80.1622 74.5414 79.9567 74.5354 79.7595 74.4868C79.5623 74.4382 79.3782 74.348 79.2197 74.2226C79.3859 74.6276 79.3899 75.0746 79.3965 75.511C79.4157 75.6507 79.3779 75.7921 79.2915 75.9043C79.7676 75.9148 80.2303 76.0354 80.6944 76.1441C80.8929 76.2097 81.1077 76.2097 81.3062 76.1441C81.4123 76.0878 81.5073 76.0132 81.5868 75.9239C81.8394 75.671 82.1041 75.3996 82.1652 75.047C82.1814 74.8486 82.185 74.6495 82.1759 74.4506C82.2003 74.2052 82.2516 73.963 82.3288 73.7284C82.4624 73.2413 82.5514 72.7434 82.5948 72.2407C82.6227 71.93 82.894 71.681 83.0376 71.4031C83.3036 70.8788 83.5828 70.3348 83.6041 69.7476C83.6227 69.5562 83.5563 69.3216 83.3594 69.2967Z" fill="black"/>
<path d="M82.8006 78.7289C82.2886 78.489 81.9149 78.042 81.5014 77.6593C80.7114 76.9279 79.746 76.4114 78.9162 75.7259C78.367 75.2724 77.8749 74.7441 77.2698 74.364C76.7377 74.0294 76.1341 73.8208 75.5065 73.7545C75.4348 73.7422 75.3612 73.7457 75.291 73.765C75.2118 73.8 75.1427 73.8541 75.0902 73.9223C74.8221 74.2201 74.5839 74.5427 74.3788 74.8857C73.3269 76.6448 71.8335 78.1246 70.5954 79.7618C70.5557 79.8003 70.5321 79.8522 70.5294 79.9071C70.5267 79.962 70.5451 80.0158 70.5808 80.058L70.8321 80.5443C70.9731 80.8156 71.1992 81.1329 71.497 81.0791C71.6337 81.0403 71.7561 80.9634 71.8494 80.8576L72.9798 79.7919L74.1647 78.6751C74.8589 78.0198 75.565 77.3513 76.0185 76.515C76.3722 77.1193 76.9999 77.5151 77.4308 78.0696C77.5943 78.2793 77.7273 78.5113 77.8736 78.7341C78.109 79.092 78.3749 79.4275 78.6409 79.7618L80.0013 81.4723C80.173 81.716 80.3857 81.9288 80.6303 82.1015C80.9521 82.3021 81.3444 82.3558 81.7234 82.3886C82.234 82.4345 82.7468 82.4528 83.2594 82.4436C83.6504 82.4371 84.0573 82.4122 84.4031 82.2405C84.7488 82.0687 85.0427 81.7161 85.0241 81.3321C85.0029 81.1308 84.9361 80.9369 84.8286 80.7645C84.3485 79.8863 83.7129 79.1523 82.8006 78.7289Z" fill="#2F2E41"/>
<path d="M84.0958 70.5195C84.3491 70.5195 84.5546 70.3159 84.5546 70.0647C84.5546 69.8135 84.3491 69.6099 84.0958 69.6099C83.8424 69.6099 83.637 69.8135 83.637 70.0647C83.637 70.3159 83.8424 70.5195 84.0958 70.5195Z" fill="#E8E8F0"/>
<path d="M83.9945 69.7226C84.0982 69.926 84.1164 70.1615 84.0451 70.378C83.9742 70.591 83.8749 70.7938 83.7499 70.981C83.6423 71.1744 83.5134 71.3555 83.3655 71.521C84.0743 71.5551 84.7619 71.2811 85.3869 70.9482C85.8909 70.6861 86.3936 70.3518 86.6622 69.8524C86.5822 69.8712 86.4992 69.8733 86.4184 69.8586C86.3375 69.844 86.2607 69.8128 86.1928 69.7672C86.0575 69.6743 85.9362 69.5631 85.8324 69.4369L85.4773 69.0437C85.3935 68.9574 85.3198 68.8619 85.2579 68.7592C85.1802 68.6197 85.1472 68.4601 85.1635 68.3018C85.0221 68.4476 84.8642 68.577 84.6927 68.6871C84.4387 68.851 84.1608 68.9689 83.9041 69.1302C83.8137 69.1878 83.6129 69.2809 83.6648 69.3923C83.7166 69.5037 83.9227 69.5968 83.9945 69.7226Z" fill="#FBBEBE"/>
<path opacity="0.1" d="M83.9945 69.7226C84.0982 69.926 84.1164 70.1615 84.0451 70.378C83.9742 70.591 83.8749 70.7938 83.7499 70.981C83.6423 71.1744 83.5134 71.3555 83.3655 71.521C84.0743 71.5551 84.7619 71.2811 85.3869 70.9482C85.8909 70.6861 86.3936 70.3518 86.6622 69.8524C86.5822 69.8712 86.4992 69.8733 86.4184 69.8586C86.3375 69.844 86.2607 69.8128 86.1928 69.7672C86.0575 69.6743 85.9362 69.5631 85.8324 69.4369L85.4773 69.0437C85.3935 68.9574 85.3198 68.8619 85.2579 68.7592C85.1802 68.6197 85.1472 68.4601 85.1635 68.3018C85.0221 68.4476 84.8642 68.577 84.6927 68.6871C84.4387 68.851 84.1608 68.9689 83.9041 69.1302C83.8137 69.1878 83.6129 69.2809 83.6648 69.3923C83.7166 69.5037 83.9227 69.5968 83.9945 69.7226Z" fill="black"/>
<path d="M84.0041 69.7909C83.9324 69.8907 83.8939 70.01 83.8939 70.1323C83.8939 70.2546 83.9324 70.3739 84.0041 70.4738C84.024 70.4987 84.0998 70.6547 84.137 70.656C84.1684 70.6533 84.1975 70.6388 84.2182 70.6153C84.3788 70.4499 84.5289 70.2748 84.6677 70.091C84.8078 69.9049 85.0104 69.7739 85.2395 69.7214C85.5174 69.6781 85.7847 69.8236 86.0281 69.9626C86.1326 70.0138 86.2237 70.0883 86.294 70.1802C86.3453 70.2713 86.3757 70.3724 86.3831 70.4764C86.453 71.1013 86.4796 71.7302 86.4629 72.3587C86.4759 72.8118 86.4456 73.2651 86.3725 73.7127C86.3273 73.9434 86.2595 74.1688 86.2275 74.4022C86.2043 74.6075 86.1949 74.8142 86.1996 75.0208V75.886C86.1938 76.0445 86.2054 76.2031 86.2342 76.3591C86.2891 76.5453 86.3534 76.7286 86.427 76.9084C86.4918 77.1223 86.5363 77.3417 86.56 77.5637L86.6797 78.459C86.7183 78.7421 86.7462 79.0502 86.572 79.2769C86.4948 79.3805 86.3911 79.4617 86.306 79.564C86.0068 79.9389 86.1065 80.4828 85.9735 80.9482C85.8752 81.2896 85.6739 81.5936 85.3964 81.8198C85.185 81.9968 84.911 82.137 84.6371 82.082C84.2687 82.0138 84.0466 81.635 83.9456 81.2772C83.8445 80.9193 83.8126 80.5287 83.5905 80.2286C83.4123 79.9808 83.137 79.8261 82.8883 79.6492C82.6397 79.4722 82.395 79.2455 82.3404 78.9466C82.3165 78.8155 82.3311 78.6845 82.3178 78.5534C82.2981 78.3863 82.2331 78.2276 82.1297 78.0938C82.0262 77.9601 81.8882 77.8562 81.7301 77.7931C81.5412 77.721 81.3072 77.6948 81.1981 77.531C81.4689 77.3634 81.6662 77.102 81.7513 76.7982C81.8339 76.499 81.8785 76.1908 81.8843 75.8807L81.9481 74.84C81.9761 74.3746 81.9894 73.9132 82.1968 73.4951C82.2899 73.309 82.4056 73.1333 82.5014 72.9485C82.6296 72.6891 82.7389 72.421 82.8285 72.1463C82.9788 71.7203 83.1304 71.293 83.2647 70.8618C83.3184 70.6529 83.3989 70.4516 83.504 70.2627C83.6277 70.0661 83.7913 69.8302 84.0041 69.7909Z" fill="#E8E8F0"/>
<path d="M81.6597 76.5531L81.939 76.5623L81.9988 76.1468C82.0068 76.0637 82.0265 75.982 82.0573 75.9043C82.1037 75.8223 82.1576 75.7446 82.2182 75.6723C82.4935 75.2895 82.4736 74.7809 82.5414 74.3156C82.6318 73.6956 82.8951 73.1136 83.1558 72.5421L83.6983 71.3506C83.7467 71.2527 83.7854 71.1504 83.814 71.0452C83.8377 70.9292 83.8489 70.811 83.8473 70.6926C83.8473 70.5091 83.9085 69.8393 83.9124 69.6545C83.9124 69.5863 83.7608 69.6244 83.7289 69.5641C83.6611 69.433 83.568 69.7895 83.4404 69.8682C83.32 69.9588 83.2324 70.0852 83.1903 70.2286C83.0733 70.5288 83.0015 70.8447 82.8925 71.1462C82.7968 71.4549 82.6223 71.7343 82.3858 71.9575C82.2754 72.0545 82.1464 72.1306 82.0414 72.2328C81.7036 72.5618 81.6717 73.0809 81.6597 73.5436C81.6517 73.8306 81.5972 76.5531 81.6597 76.5531Z" fill="#2F2E41"/>
<path d="M85.6824 69.2941C85.4164 69.3989 85.2621 69.6873 85.1863 69.9678C85.1105 70.2483 85.0786 70.5445 84.9323 70.7936C84.5919 71.3782 83.7235 71.5486 83.4828 72.1804C83.4215 72.3937 83.3889 72.6141 83.3857 72.8358C83.3432 73.288 83.1916 73.7258 83.1464 74.178C83.1229 74.5298 83.1314 74.8829 83.1716 75.2332L83.4762 78.8024C83.5352 79.3281 83.5042 79.8598 83.3844 80.3754C83.6967 80.4197 84.0153 80.368 84.2967 80.2272C84.5826 80.0962 84.8432 79.9231 85.1172 79.7737C85.5893 79.5116 86.1106 79.3346 86.5228 78.9872C86.5976 78.9298 86.6619 78.8602 86.713 78.7815C86.7792 78.6314 86.8239 78.473 86.846 78.3109C86.881 78.1846 86.9254 78.0611 86.979 77.9412C87.1317 77.5815 87.2649 77.2139 87.3779 76.8402C87.4554 76.5923 87.5162 76.3396 87.5601 76.0839C87.5933 75.8807 87.6106 75.6749 87.6292 75.4704C87.6505 75.1488 87.7154 74.8314 87.8221 74.5267C88.0859 73.7997 88.2352 73.0372 88.2649 72.2656C88.2741 72.1541 88.2665 72.0419 88.2423 71.9327C88.1964 71.8002 88.1348 71.6735 88.0588 71.5552C87.9324 71.3205 87.8566 71.0623 87.737 70.8251C87.471 70.2876 86.9936 69.88 86.4949 69.5379C86.2396 69.3714 85.959 69.1905 85.6824 69.2941Z" fill="#2F2E41"/>
<path d="M79.3336 75.1178C79.1176 75.0065 78.9221 74.8603 78.7551 74.6852C78.6793 74.5974 78.6221 74.4991 78.5397 74.4126C78.3444 74.2074 78.0909 74.0649 77.8123 74.0036C77.5355 73.9435 77.2524 73.9167 76.9691 73.9237C76.7799 73.9108 76.5899 73.9335 76.4093 73.9905C76.3186 74.0198 76.2369 74.0711 76.1718 74.1399C76.1067 74.2087 76.0603 74.2926 76.0369 74.3837C75.9957 74.6066 76.1433 74.8229 76.3202 74.9644C76.4847 75.0969 76.6782 75.1898 76.8854 75.2358C77.0544 75.2646 77.2248 75.2843 77.396 75.2947C78.4014 75.3983 79.299 75.937 80.1794 76.4286C80.9533 76.8594 81.7424 77.2626 82.5465 77.6384C82.5784 77.4012 82.5917 77.1619 82.5864 76.9227C82.5864 76.7445 82.5731 76.4718 82.4015 76.367C82.202 76.2437 81.8696 76.2162 81.6488 76.1428C81.1306 75.9761 80.6245 75.7747 80.1342 75.5399C79.8562 75.4075 79.5903 75.2672 79.3336 75.1178Z" fill="#FBBEBE"/>
<path d="M83.7285 69.5195C84.7178 69.5195 85.5198 68.7243 85.5198 67.7434C85.5198 66.7625 84.7178 65.9673 83.7285 65.9673C82.7392 65.9673 81.9373 66.7625 81.9373 67.7434C81.9373 68.7243 82.7392 69.5195 83.7285 69.5195Z" fill="#FBBEBE"/>
<path d="M86.1943 71.3073C86.0517 71.5048 85.9351 71.7193 85.8472 71.9457C85.6251 72.3953 85.278 72.7806 85.1052 73.2564C84.9216 73.7506 84.9283 74.3391 84.5732 74.7284C84.5019 74.7875 84.4481 74.8645 84.4176 74.9513C84.4155 75.0054 84.4092 75.0593 84.399 75.1125C84.3485 75.254 84.1131 75.2606 84.0692 75.4048C84.0573 75.4467 84.0692 75.4926 84.0479 75.5359C84.012 75.6289 83.8884 75.642 83.8046 75.6984C83.6304 75.8151 83.6716 76.0851 83.5386 76.2529C83.4846 76.3151 83.4148 76.3623 83.3363 76.3894C83.2578 76.4166 83.1735 76.4228 83.0918 76.4075C82.9288 76.3737 82.7719 76.3158 82.6264 76.2358C82.5752 76.2075 82.5186 76.19 82.4601 76.1847C82.3907 76.1861 82.3234 76.2086 82.2673 76.2489C81.9362 76.456 81.7806 76.8676 81.7832 77.2556C81.8066 77.6436 81.8998 78.0244 82.0585 78.3802C82.0772 78.4417 82.1085 78.4988 82.1503 78.548C82.2593 78.6621 82.4508 78.6437 82.5971 78.5795C82.7341 78.4995 82.88 78.4353 83.032 78.3881C83.3086 78.3383 83.5798 78.5271 83.8604 78.5113C84.0657 78.4806 84.259 78.3964 84.4203 78.2675C84.7051 78.097 84.9602 77.8824 85.1756 77.6318C85.298 77.4732 85.3884 77.2923 85.4961 77.1232C85.6337 76.9155 85.7847 76.7167 85.9483 76.5281L86.9816 75.2816C87.0852 75.1635 87.1782 75.0368 87.2595 74.9028C87.3527 74.7215 87.4253 74.5308 87.4763 74.3339C87.5869 74.0054 87.6588 73.6654 87.6904 73.3207C87.6956 73.0353 87.6702 72.7501 87.6146 72.47C87.5799 72.1914 87.5051 71.919 87.3925 71.6612C87.1624 71.2024 86.6158 70.8223 86.1943 71.3073Z" fill="#2F2E41"/>
<path d="M89.7929 68.994C89.7943 68.679 89.7198 68.3683 89.5755 68.0873C89.4312 67.8063 89.2213 67.5632 88.963 67.3778C88.9552 66.8187 88.7462 66.2806 88.3734 65.8593C88.0005 65.438 87.4879 65.1609 86.9271 65.0774C86.8186 64.5478 86.5241 64.073 86.0953 63.7365C85.6665 63.4001 85.131 63.2236 84.5831 63.2381C84.0352 63.2527 83.5101 63.4574 83.1004 63.8162C82.6906 64.1749 82.4224 64.6647 82.3431 65.1993C81.5984 65.0341 80.9176 65.2491 80.7939 65.7013C80.6609 66.1745 81.1928 66.7276 81.9801 66.9374C82.2268 67.0061 82.4838 67.0314 82.7394 67.0121C82.9225 67.277 83.1597 67.5014 83.4359 67.6707C83.7121 67.84 84.0211 67.9505 84.3432 67.9952C84.4378 68.4227 84.6516 68.8157 84.9605 69.13C85.2695 69.4443 85.6613 69.6673 86.0919 69.7739C86.2111 70.0576 86.396 70.3099 86.6318 70.5105C86.6318 70.5656 86.6225 70.6219 86.6225 70.6796C86.614 70.8811 86.6468 71.0822 86.7192 71.2709C86.7915 71.4595 86.9018 71.6318 87.0434 71.7774C87.185 71.923 87.355 72.0388 87.5432 72.1179C87.7314 72.197 87.9339 72.2378 88.1386 72.2378C88.3432 72.2378 88.5457 72.197 88.7339 72.1179C88.9221 72.0388 89.0921 71.923 89.2337 71.7774C89.3753 71.6318 89.4856 71.4595 89.5579 71.2709C89.6303 71.0822 89.6631 70.8811 89.6546 70.6796C89.6546 70.4534 89.6052 70.2299 89.5096 70.0242C89.6965 69.7123 89.7944 69.3563 89.7929 68.994Z" fill="#F86D70"/>
<path opacity="0.1" d="M81.2993 65.7915C81.423 65.3393 82.0972 65.1243 82.8486 65.2895C82.936 64.7466 83.2152 64.2516 83.6369 63.8918C84.0585 63.5321 84.5956 63.3307 85.1532 63.3233C85.2051 63.3233 85.2569 63.3233 85.3075 63.3233C85.092 63.2585 84.8678 63.2258 84.6425 63.2263C84.0849 63.2337 83.5479 63.4351 83.1262 63.7948C82.7045 64.1546 82.4253 64.6496 82.3379 65.1925C81.5932 65.0273 80.9124 65.2423 80.7887 65.6945C80.6557 66.1677 81.1876 66.7208 81.9749 66.9306C82.1213 66.9706 82.2715 66.9961 82.4231 67.0066C81.6757 66.7916 81.173 66.2542 81.2993 65.7915Z" fill="black"/>
<path opacity="0.1" d="M87.1277 70.7712C87.1277 70.7136 87.1277 70.6572 87.137 70.6008C86.9011 70.4008 86.7161 70.1489 86.5971 69.8655C86.1668 69.7578 85.7754 69.5343 85.4666 69.22C85.1577 68.9056 84.9437 68.5128 84.8483 68.0855C84.5262 68.041 84.2171 67.9306 83.9409 67.7613C83.6646 67.592 83.4274 67.3675 83.2446 67.1024C83.0956 67.114 82.9458 67.11 82.7977 67.0906C82.9816 67.3348 83.2129 67.5406 83.4782 67.6958C83.7435 67.8511 84.0374 67.9528 84.343 67.995C84.4376 68.4226 84.6514 68.8156 84.9603 69.1299C85.2693 69.4441 85.6611 69.6671 86.0917 69.7737C86.2109 70.0575 86.3958 70.3098 86.6316 70.5104C86.6316 70.5654 86.6223 70.6218 86.6223 70.6795C86.6156 71.0813 86.7703 71.4695 87.0528 71.7593C87.3354 72.0491 87.7227 72.2169 88.1304 72.2262C87.8329 72.1131 87.5775 71.9132 87.3983 71.6532C87.2191 71.3932 87.1247 71.0855 87.1277 70.7712Z" fill="black"/>
<path d="M84.5484 68.3941C84.67 68.303 84.6689 68.0997 84.5458 67.94C84.4228 67.7803 84.2244 67.7247 84.1028 67.8158C83.9811 67.9069 83.9823 68.1102 84.1053 68.2698C84.2284 68.4295 84.4267 68.4851 84.5484 68.3941Z" fill="#FBBEBE"/>
<path d="M41.7301 77.2321L43.5015 76.2058C43.2621 75.8025 42.956 75.4414 42.5958 75.1375L39.2553 76.1612L41.8724 74.6447C41.2244 74.2949 40.495 74.1174 39.7563 74.1298C39.0175 74.1421 38.2947 74.3439 37.6591 74.7151C37.0234 75.0864 36.4968 75.6144 36.131 76.2472C35.7652 76.88 35.5729 77.5957 35.573 78.324C35.573 80.6401 37.4786 80.7201 39.8285 80.7201C42.1783 80.7201 44.0839 80.6401 44.0839 78.324C44.0853 77.7369 43.9607 77.1562 43.7182 76.62L41.7301 77.2321Z" fill="#6C63FF"/>
<path opacity="0.1" d="M42.1809 79.4838C41.9923 79.2975 41.7815 79.1342 41.5533 78.9975C41.2328 78.7865 40.899 78.5715 40.52 78.5008C40.1875 78.4378 39.8444 78.4916 39.5053 78.4719C38.9165 78.4365 38.3622 78.186 37.9507 77.7693C37.7087 77.5229 37.5185 77.2201 37.2273 77.0314C36.9018 76.8407 36.5177 76.7714 36.1448 76.8361C36.0367 76.8509 35.9297 76.8724 35.8243 76.9003C35.6577 77.3569 35.5726 77.8385 35.573 78.3238C35.573 80.6399 37.4787 80.7199 39.8285 80.7199C40.9695 80.7199 42.0041 80.7016 42.7687 80.4171L42.6357 80.1825C42.515 79.9315 42.3621 79.6967 42.1809 79.4838Z" fill="black"/>
</g>
<defs>
<linearGradient id="paint0_linear_297_2498" x1="75.4682" y1="83.8424" x2="75.4682" y2="62.9172" gradientUnits="userSpaceOnUse">
<stop stop-color="#808080" stop-opacity="0.25"/>
<stop offset="0.54" stop-color="#808080" stop-opacity="0.12"/>
<stop offset="1" stop-color="#808080" stop-opacity="0.1"/>
</linearGradient>
<clipPath id="clip0_297_2498">
<rect width="152" height="87" fill="white"/>
</clipPath>
</defs>
</svg>
