<svg width="73" height="72" viewBox="0 0 73 72" fill="none" xmlns="http://www.w3.org/2000/svg">
<path d="M18.772 36.3491C14.2346 36.3491 10.6587 34.5739 8.04424 31.0234C5.42978 27.473 4.12256 23.1719 4.12256 18.1201C4.12256 13.0343 5.38678 8.74199 7.91524 5.2431C10.4437 1.74421 14.0103 -0.00349017 18.6151 5.23263e-06C23.4982 5.23263e-06 27.1774 1.84339 29.6527 5.53016C32.128 9.21693 33.366 13.4839 33.3669 18.3312C33.3669 23.1435 32.0859 27.3502 29.5237 30.9513C26.9616 34.5524 23.3777 36.3517 18.772 36.3491ZM18.905 32.3552C21.89 32.3552 24.121 31.0728 25.598 28.508C27.075 25.9433 27.8135 22.71 27.8135 18.8083C27.8135 14.4653 27.0578 10.9091 25.5462 8.13991C24.0346 5.37068 21.7163 3.98563 18.5911 3.98476C12.6512 3.98476 9.68126 8.63539 9.68126 17.9366C9.68126 27.5499 12.755 32.356 18.9023 32.3552H18.905ZM20.3997 70.6022H13.837L56.8013 0.711757H63.2403L20.3997 70.6022ZM58.409 71.3192C53.8034 71.3192 50.2128 69.5278 47.6374 65.945C45.0619 62.3623 43.7689 58.0607 43.7583 53.0405C43.7583 47.9888 45.0136 43.7134 47.5243 40.2146C50.0351 36.7157 53.6105 34.968 58.2508 34.9715C63.0993 34.9715 66.7529 36.8148 69.2113 40.5016C71.6697 44.1884 72.8993 48.455 72.9002 53.3013C72.9002 58.0822 71.6276 62.281 69.0823 65.8979C66.537 69.5147 62.9783 71.3218 58.4064 71.3192H58.409ZM58.4862 67.2231C61.457 67.2231 63.6761 65.9625 65.1433 63.4415C66.6106 60.9204 67.3442 57.7003 67.3442 53.7811C67.3442 49.5866 66.6017 46.0689 65.1167 43.228C63.6317 40.3871 61.3183 38.9645 58.1763 38.9601C52.2018 38.9601 49.2146 43.6108 49.2146 52.912C49.2128 62.4536 52.3024 67.2239 58.4835 67.2231H58.4862Z" fill="#3F3D56"/>
<path d="M18.772 36.3491C14.2346 36.3491 10.6587 34.5739 8.04424 31.0234C5.42978 27.473 4.12256 23.1719 4.12256 18.1201C4.12256 13.0343 5.38678 8.74199 7.91524 5.2431C10.4437 1.74421 14.0103 -0.00349017 18.6151 5.23263e-06C23.4982 5.23263e-06 27.1774 1.84339 29.6527 5.53016C32.128 9.21693 33.366 13.4839 33.3669 18.3312C33.3669 23.1435 32.0859 27.3502 29.5237 30.9513C26.9616 34.5524 23.3777 36.3517 18.772 36.3491ZM18.905 32.3552C21.89 32.3552 24.121 31.0728 25.598 28.508C27.075 25.9433 27.8135 22.71 27.8135 18.8083C27.8135 14.4653 27.0578 10.9091 25.5462 8.13991C24.0346 5.37068 21.7163 3.98563 18.5911 3.98476C12.6512 3.98476 9.68126 8.63539 9.68126 17.9366C9.68126 27.5499 12.755 32.356 18.9023 32.3552H18.905ZM20.3997 70.6022H13.837L56.8013 0.711757H63.2403L20.3997 70.6022ZM58.409 71.3192C53.8034 71.3192 50.2128 69.5278 47.6374 65.945C45.0619 62.3623 43.7689 58.0607 43.7583 53.0405C43.7583 47.9888 45.0136 43.7134 47.5243 40.2146C50.0351 36.7157 53.6105 34.968 58.2508 34.9715C63.0993 34.9715 66.7529 36.8148 69.2113 40.5016C71.6697 44.1884 72.8993 48.455 72.9002 53.3013C72.9002 58.0822 71.6276 62.281 69.0823 65.8979C66.537 69.5147 62.9783 71.3218 58.4064 71.3192H58.409ZM58.4862 67.2231C61.457 67.2231 63.6761 65.9625 65.1433 63.4415C66.6106 60.9204 67.3442 57.7003 67.3442 53.7811C67.3442 49.5866 66.6017 46.0689 65.1167 43.228C63.6317 40.3871 61.3183 38.9645 58.1763 38.9601C52.2018 38.9601 49.2146 43.6108 49.2146 52.912C49.2128 62.4536 52.3024 67.2239 58.4835 67.2231H58.4862Z" fill="#3F3D56"/>
<path opacity="0.15" d="M18.772 36.3491C14.2346 36.3491 10.6587 34.5739 8.04424 31.0234C5.42978 27.473 4.12256 23.1719 4.12256 18.1201C4.12256 13.0343 5.38678 8.74199 7.91524 5.2431C10.4437 1.74421 14.0103 -0.00349017 18.6151 5.23263e-06C23.4982 5.23263e-06 27.1774 1.84339 29.6527 5.53016C32.128 9.21693 33.366 13.4839 33.3669 18.3312C33.3669 23.1435 32.0859 27.3502 29.5237 30.9513C26.9616 34.5524 23.3777 36.3517 18.772 36.3491ZM18.905 32.3552C21.89 32.3552 24.121 31.0728 25.598 28.508C27.075 25.9433 27.8135 22.71 27.8135 18.8083C27.8135 14.4653 27.0578 10.9091 25.5462 8.13991C24.0346 5.37068 21.7163 3.98563 18.5911 3.98476C12.6512 3.98476 9.68126 8.63539 9.68126 17.9366C9.68126 27.5499 12.755 32.356 18.9023 32.3552H18.905ZM20.3997 70.6022H13.837L56.8013 0.711757H63.2403L20.3997 70.6022ZM58.409 71.3192C53.8034 71.3192 50.2128 69.5278 47.6374 65.945C45.0619 62.3623 43.7689 58.0607 43.7583 53.0405C43.7583 47.9888 45.0136 43.7134 47.5243 40.2146C50.0351 36.7157 53.6105 34.968 58.2508 34.9715C63.0993 34.9715 66.7529 36.8148 69.2113 40.5016C71.6697 44.1884 72.8993 48.455 72.9002 53.3013C72.9002 58.0822 71.6276 62.281 69.0823 65.8979C66.537 69.5147 62.9783 71.3218 58.4064 71.3192H58.409ZM58.4862 67.2231C61.457 67.2231 63.6761 65.9625 65.1433 63.4415C66.6106 60.9204 67.3442 57.7003 67.3442 53.7811C67.3442 49.5866 66.6017 46.0689 65.1167 43.228C63.6317 40.3871 61.3183 38.9645 58.1763 38.9601C52.2018 38.9601 49.2146 43.6108 49.2146 52.912C49.2128 62.4536 52.3024 67.2239 58.4835 67.2231H58.4862Z" fill="black"/>
<path d="M14.6494 36.3491C10.1121 36.3491 6.53613 34.5739 3.92168 31.0234C1.30723 27.473 0 23.1719 0 18.1201C0 13.0343 1.26422 8.74199 3.79268 5.2431C6.32114 1.74421 9.88775 -0.00349017 14.4925 5.23263e-06C19.3757 5.23263e-06 23.0549 1.84339 25.5301 5.53016C28.0054 9.21693 29.2435 13.4839 29.2444 18.3312C29.2444 23.1435 27.9633 27.3502 25.4012 30.9513C22.839 34.5524 19.2551 36.3517 14.6494 36.3491ZM14.7824 32.3552C17.7675 32.3552 19.9985 31.0728 21.4755 28.508C22.9525 25.9433 23.691 22.71 23.691 18.8083C23.691 14.4653 22.9352 10.9091 21.4236 8.13991C19.912 5.37068 17.5937 3.98563 14.4686 3.98476C8.52867 3.98476 5.5587 8.63539 5.5587 17.9366C5.5587 27.5499 8.6324 32.356 14.7798 32.3552H14.7824ZM16.2772 70.6022H9.71443L52.6787 0.711757H59.1178L16.2772 70.6022ZM54.2865 71.3192C49.6808 71.3192 46.0903 69.5278 43.5148 65.945C40.9394 62.3623 39.6463 58.0607 39.6357 53.0405C39.6357 47.9888 40.8911 43.7134 43.4018 40.2146C45.9125 36.7157 49.488 34.968 54.1282 34.9715C58.9768 34.9715 62.6303 36.8148 65.0887 40.5016C67.5471 44.1884 68.7768 48.455 68.7777 53.3013C68.7777 58.0822 67.505 62.281 64.9597 65.8979C62.4144 69.5147 58.8558 71.3218 54.2838 71.3192H54.2865ZM54.3636 67.2231C57.3344 67.2231 59.5535 65.9625 61.0208 63.4415C62.488 60.9204 63.2216 57.7003 63.2216 53.7811C63.2216 49.5866 62.4791 46.0689 60.9941 43.228C59.5092 40.3871 57.1948 38.9645 54.0511 38.9601C48.0766 38.9601 45.0893 43.6108 45.0893 52.912C45.0893 62.4536 48.1799 67.2239 54.3609 67.2231H54.3636Z" fill="#FF9900"/>
</svg>
