<svg fill="none" height="20" viewBox="0 0 20 20" width="20" xmlns="http://www.w3.org/2000/svg">
    <g clip-path="url(#clip0_1043_14417)">
        <path
            d="M8.33638 18.3345H4.16972C2.79138 18.3345 1.66972 17.2128 1.66972 15.8345V10.0011C1.66972 8.62279 2.79138 7.50112 4.16972 7.50112H5.00305C5.46305 7.50112 5.83638 7.12779 5.83638 6.66779V5.00112H9.14722L9.16972 6.67862C9.17555 7.13445 9.54722 7.50112 10.0031 7.50112H10.8364C11.9781 7.50112 12.9731 8.27195 13.2572 9.37612C13.3706 9.82529 13.8389 10.0903 14.2722 9.97529C14.7181 9.86029 14.9864 9.40612 14.8722 8.96029C14.3981 7.12029 12.7381 5.83529 10.8364 5.83529L10.8172 4.85445C11.7956 4.51445 12.5031 3.59445 12.5031 2.50195C12.5031 1.12362 11.3814 0.00195312 10.0031 0.00195312H5.00305C3.62472 0.00195312 2.50305 1.12362 2.50305 2.50195C2.50305 3.58695 3.20222 4.50362 4.16972 4.84862V5.83529C1.87305 5.83445 0.00305176 7.70362 0.00305176 10.0011V15.8345C0.00305176 18.132 1.87305 20.0011 4.16972 20.0011H8.33638C8.79638 20.0011 9.16972 19.6278 9.16972 19.1678C9.16972 18.7078 8.79638 18.3345 8.33638 18.3345ZM5.00305 1.66779H10.0031C10.4622 1.66779 10.8364 2.04195 10.8364 2.50112C10.8364 2.96029 10.4622 3.33445 10.0031 3.33445H5.00305C4.54388 3.33445 4.16972 2.96029 4.16972 2.50112C4.16972 2.04195 4.54388 1.66779 5.00305 1.66779ZM10.8364 12.5011C10.8364 12.9611 10.4631 13.3345 10.0031 13.3345H8.33638V15.0011C8.33638 15.4611 7.96305 15.8345 7.50305 15.8345C7.04305 15.8345 6.66972 15.4611 6.66972 15.0011V13.3345H5.00305C4.54305 13.3345 4.16972 12.9611 4.16972 12.5011C4.16972 12.0411 4.54305 11.6678 5.00305 11.6678H6.66972V10.0011C6.66972 9.54112 7.04305 9.16779 7.50305 9.16779C7.96305 9.16779 8.33638 9.54112 8.33638 10.0011V11.6678H10.0031C10.4631 11.6678 10.8364 12.0411 10.8364 12.5011ZM19.1489 11.6886C18.0472 10.587 16.1264 10.587 15.0247 11.6886L11.6914 15.022C10.5597 16.1078 10.5597 18.0611 11.6914 19.147C12.7772 20.2778 14.7297 20.2786 15.8156 19.147L19.1489 15.8136C20.2806 14.7278 20.2806 12.7736 19.1489 11.6886ZM12.8697 17.9686C12.3847 17.5036 12.3847 16.6661 12.8697 16.2011L13.9939 15.077L15.7614 16.8445L14.6372 17.9686C14.1506 18.4561 13.3564 18.4561 12.8697 17.9686ZM17.9706 14.6353L16.9397 15.6661L15.1722 13.8986L16.2031 12.8678C16.6906 12.3803 17.4839 12.3803 17.9706 12.8678C18.4556 13.3328 18.4556 14.1703 17.9706 14.6353Z"
            fill="#FF9900" />
    </g>
    <defs>
        <clipPath id="clip0_1043_14417">
            <rect fill="white" height="20" width="20" />
        </clipPath>
    </defs>
</svg>
