<svg width="25" height="25" viewBox="0 0 25 25" fill="none" xmlns="http://www.w3.org/2000/svg">
<path d="M14.4085 17.257C14.6236 17.3558 14.866 17.3784 15.0957 17.321C15.3254 17.2637 15.5286 17.1298 15.672 16.9414L16.0418 16.457C16.2359 16.1983 16.4875 15.9883 16.7768 15.8436C17.0661 15.699 17.3851 15.6237 17.7085 15.6237H20.8335C21.386 15.6237 21.9159 15.8432 22.3066 16.2339C22.6973 16.6246 22.9168 17.1545 22.9168 17.707V20.832C22.9168 21.3846 22.6973 21.9145 22.3066 22.3052C21.9159 22.6959 21.386 22.9154 20.8335 22.9154C15.8607 22.9154 11.0916 20.9399 7.57524 17.4236C4.05894 13.9073 2.0835 9.13817 2.0835 4.16536C2.0835 3.61283 2.30299 3.08293 2.69369 2.69223C3.08439 2.30152 3.6143 2.08203 4.16683 2.08203H7.29183C7.84436 2.08203 8.37427 2.30152 8.76497 2.69223C9.15567 3.08293 9.37516 3.61283 9.37516 4.16536V7.29036C9.37516 7.61379 9.29986 7.93278 9.15522 8.22206C9.01058 8.51134 8.80057 8.76298 8.54183 8.95703L8.05433 9.32266C7.8631 9.46868 7.72831 9.67639 7.67286 9.91052C7.61742 10.1447 7.64473 10.3908 7.75016 10.607C9.17379 13.4986 11.5152 15.837 14.4085 17.257Z" stroke="#FF9900" stroke-width="2" stroke-linecap="round" stroke-linejoin="round"/>
</svg>
