<svg fill="none" height="20" viewBox="0 0 20 20" width="20" xmlns="http://www.w3.org/2000/svg">
    <g clip-path="url(#clip0_1378_3816)">
        <path
            d="M10.8333 0.833688C10.8333 0.612674 10.9211 0.400712 11.0774 0.244432C11.2337 0.0881516 11.4457 0.000354244 11.6667 0.000354244C13.8761 0.00278057 15.9943 0.881533 17.5565 2.44381C19.1188 4.00609 19.9976 6.1243 20 8.33369C20 8.5547 19.9122 8.76666 19.7559 8.92294C19.5996 9.07922 19.3877 9.16702 19.1667 9.16702C18.9457 9.16702 18.7337 9.07922 18.5774 8.92294C18.4211 8.76666 18.3333 8.5547 18.3333 8.33369C18.3313 6.56619 17.6283 4.87165 16.3785 3.62183C15.1287 2.37202 13.4342 1.66901 11.6667 1.66702C11.4457 1.66702 11.2337 1.57922 11.0774 1.42294C10.9211 1.26666 10.8333 1.0547 10.8333 0.833688ZM11.6667 5.00035C12.5507 5.00035 13.3986 5.35154 14.0237 5.97667C14.6488 6.60179 15 7.44963 15 8.33369C15 8.5547 15.0878 8.76666 15.2441 8.92294C15.4004 9.07922 15.6123 9.16702 15.8333 9.16702C16.0543 9.16702 16.2663 9.07922 16.4226 8.92294C16.5789 8.76666 16.6667 8.5547 16.6667 8.33369C16.6653 7.00801 16.1381 5.73701 15.2007 4.79962C14.2633 3.86222 12.9923 3.33501 11.6667 3.33369C11.4457 3.33369 11.2337 3.42149 11.0774 3.57777C10.9211 3.73405 10.8333 3.94601 10.8333 4.16702C10.8333 4.38803 10.9211 4.6 11.0774 4.75628C11.2337 4.91256 11.4457 5.00035 11.6667 5.00035ZM19.2442 13.9495C19.7271 14.4338 19.9983 15.0898 19.9983 15.7737C19.9983 16.4576 19.7271 17.1136 19.2442 17.5979L18.4858 18.472C11.6608 25.0062 -4.9475 8.40202 1.48583 1.55535L2.44417 0.722021C2.92897 0.252585 3.57911 -0.00710486 4.25392 -0.000866721C4.92873 0.00537141 5.57395 0.277036 6.05 0.755354C6.07583 0.781188 7.62 2.78702 7.62 2.78702C8.07819 3.26838 8.33325 3.9078 8.33217 4.57236C8.33108 5.23692 8.07393 5.8755 7.61417 6.35535L6.64917 7.56869C7.18321 8.86628 7.96839 10.0456 8.95959 11.0388C9.9508 12.032 11.1285 12.8195 12.425 13.3562L13.6458 12.3854C14.1258 11.926 14.7642 11.6691 15.4286 11.6682C16.0929 11.6672 16.7321 11.9223 17.2133 12.3804C17.2133 12.3804 19.2183 13.9237 19.2442 13.9495ZM18.0975 15.1612C18.0975 15.1612 16.1033 13.627 16.0775 13.6012C15.9058 13.431 15.6738 13.3355 15.4321 13.3355C15.1903 13.3355 14.9583 13.431 14.7867 13.6012C14.7642 13.6245 13.0833 14.9637 13.0833 14.9637C12.9701 15.0538 12.8353 15.1129 12.6922 15.1352C12.5491 15.1574 12.4028 15.1419 12.2675 15.0904C10.5879 14.465 9.06228 13.486 7.79403 12.2196C6.52578 10.9532 5.5445 9.42905 4.91667 7.75036C4.861 7.61323 4.84285 7.46376 4.86409 7.3173C4.88532 7.17085 4.94518 7.03268 5.0375 6.91702C5.0375 6.91702 6.37667 5.23535 6.39917 5.21369C6.56939 5.04201 6.6649 4.81003 6.6649 4.56827C6.6649 4.32651 6.56939 4.09453 6.39917 3.92285C6.37333 3.89785 4.83917 1.90202 4.83917 1.90202C4.66492 1.74578 4.4375 1.6621 4.20354 1.66814C3.96958 1.67419 3.74678 1.76949 3.58083 1.93452L2.6225 2.76785C-2.07917 8.42119 12.3133 22.0154 17.2675 17.3337L18.0267 16.4587C18.2046 16.2939 18.3114 16.0664 18.3246 15.8243C18.3379 15.5821 18.2564 15.3444 18.0975 15.1612Z"
            fill="#FF9900" />
    </g>
    <defs>
        <clipPath id="clip0_1378_3816">
            <rect fill="white" height="20" width="20" />
        </clipPath>
    </defs>
</svg>
