<svg fill="none" height="24" viewBox="0 0 24 24" width="24" xmlns="http://www.w3.org/2000/svg">
    <path
        d="M19.9998 12.9995C19.9998 17.9995 16.4998 20.4995 12.3398 21.9495C12.122 22.0233 11.8854 22.0198 11.6698 21.9395C7.49985 20.4995 3.99985 17.9995 3.99985 12.9995V5.99947C3.99985 5.73426 4.1052 5.4799 4.29274 5.29237C4.48028 5.10483 4.73463 4.99947 4.99985 4.99947C6.99985 4.99947 9.49985 3.79947 11.2398 2.27947C11.4517 2.09847 11.7212 1.99902 11.9998 1.99902C12.2785 1.99902 12.548 2.09847 12.7598 2.27947C14.5098 3.80947 16.9998 4.99947 18.9998 4.99947C19.2651 4.99947 19.5194 5.10483 19.707 5.29237C19.8945 5.4799 19.9998 5.73426 19.9998 5.99947V12.9995Z"
        stroke="#FF9900" stroke-linecap="round" stroke-linejoin="round" stroke-width="2" />
</svg>
