<svg width="25" height="26" viewBox="0 0 25 26" fill="none" xmlns="http://www.w3.org/2000/svg">
<path d="M20.8332 14.0408C20.8332 19.2492 17.1873 21.8533 12.854 23.3638C12.6271 23.4406 12.3806 23.437 12.1561 23.3533C7.81234 21.8533 4.1665 19.2492 4.1665 14.0408V6.74917C4.1665 6.4729 4.27625 6.20795 4.4716 6.0126C4.66695 5.81725 4.9319 5.7075 5.20817 5.7075C7.2915 5.7075 9.89567 4.4575 11.7082 2.87417C11.9289 2.68562 12.2096 2.58203 12.4998 2.58203C12.7901 2.58203 13.0708 2.68562 13.2915 2.87417C15.1144 4.46792 17.7082 5.7075 19.7915 5.7075C20.0678 5.7075 20.3327 5.81725 20.5281 6.0126C20.7234 6.20795 20.8332 6.4729 20.8332 6.74917V14.0408Z" stroke="#FF9900" stroke-width="2" stroke-linecap="round" stroke-linejoin="round"/>
</svg>
