<svg fill="none" height="24" viewBox="0 0 24 24" width="24" xmlns="http://www.w3.org/2000/svg">
    <path
        d="M12.0049 22.0028C6.48204 22.0028 2.00488 17.5257 2.00488 12.0028C2.00488 6.47996 6.48204 2.00281 12.0049 2.00281C17.5277 2.00281 22.0049 6.47996 22.0049 12.0028C22.0049 17.5257 17.5277 22.0028 12.0049 22.0028ZM12.0049 20.0028C16.4232 20.0028 20.0049 16.4211 20.0049 12.0028C20.0049 7.58453 16.4232 4.00281 12.0049 4.00281C7.5866 4.00281 4.00488 7.58453 4.00488 12.0028C4.00488 16.4211 7.5866 20.0028 12.0049 20.0028ZM7.00488 13.0028H16.0049V15.0028H12.0049V18.0028L7.00488 13.0028ZM12.0049 9.00281V6.00281L17.0049 11.0028H8.00488V9.00281H12.0049Z"
        fill="white" />
</svg>
