<svg fill="none" height="20" viewBox="0 0 20 20" width="20" xmlns="http://www.w3.org/2000/svg">
    <path
        d="M19.2626 0.734464C18.9638 0.432086 18.5921 0.211871 18.1834 0.0950949C17.7747 -0.0216812 17.3428 -0.031071 16.9294 0.0678327L3.59675 2.87602C2.82893 2.98132 2.10577 3.29889 1.50869 3.79298C0.911615 4.28707 0.46434 4.93804 0.217238 5.67259C-0.0298638 6.40714 -0.0669782 7.19609 0.110075 7.95059C0.287128 8.7051 0.671315 9.39518 1.21937 9.94314L2.65096 11.3739C2.72845 11.4514 2.78989 11.5433 2.83179 11.6446C2.87368 11.7458 2.8952 11.8543 2.89512 11.9639V14.6037C2.89696 14.9749 2.9824 15.3409 3.1451 15.6745L3.13844 15.6803L3.1601 15.702C3.40427 16.1929 3.80305 16.5899 4.29504 16.8319L4.31671 16.8536L4.32254 16.8469C4.65616 17.0096 5.02214 17.0951 5.39332 17.0969H8.03318C8.25404 17.0968 8.46594 17.1843 8.62231 17.3402L10.0531 18.771C10.4368 19.159 10.8936 19.4672 11.397 19.6779C11.9004 19.8885 12.4405 19.9975 12.9862 19.9984C13.441 19.9979 13.8927 19.9236 14.3237 19.7784C15.0515 19.5395 15.6981 19.1018 16.1904 18.5149C16.6828 17.9281 17.0014 17.2153 17.1102 16.457L19.9225 3.09517C20.0266 2.67823 20.0204 2.2414 19.9047 1.82754C19.789 1.41368 19.5678 1.03701 19.2626 0.734464ZM3.8309 10.1973L2.39848 8.76654C2.06493 8.44102 1.83115 8.02711 1.72458 7.5734C1.61802 7.11968 1.64308 6.64498 1.79684 6.20501C1.94591 5.75363 2.22149 5.35457 2.5908 5.05529C2.9601 4.756 3.4076 4.56908 3.88006 4.51676L17.0802 1.73774L4.56003 14.2596V11.9639C4.56129 11.6358 4.4975 11.3108 4.37235 11.0076C4.2472 10.7043 4.06316 10.4289 3.8309 10.1973ZM15.4728 16.172C15.4088 16.6322 15.2178 17.0655 14.9212 17.4233C14.6247 17.781 14.2342 18.049 13.7938 18.1972C13.3534 18.3453 12.8804 18.3678 12.4279 18.2621C11.9754 18.1563 11.5613 17.9266 11.2322 17.5986L9.79892 16.1653C9.56757 15.9327 9.29239 15.7483 8.98931 15.6227C8.68622 15.4971 8.36125 15.4329 8.03318 15.4337H5.73747L18.2593 2.91601L15.4728 16.172Z"
        fill="white" />
</svg>
