<svg fill="none" height="16" viewBox="0 0 16 16" width="16" xmlns="http://www.w3.org/2000/svg">
    <g clip-path="url(#clip0_1645_3696)">
        <path
            d="M4.66671 15.9997C5.40309 15.9997 6.00004 15.4027 6.00004 14.6663C6.00004 13.93 5.40309 13.333 4.66671 13.333C3.93033 13.333 3.33337 13.93 3.33337 14.6663C3.33337 15.4027 3.93033 15.9997 4.66671 15.9997Z"
            fill="#FF9900" />
        <path
            d="M11.3333 15.9997C12.0697 15.9997 12.6667 15.4027 12.6667 14.6663C12.6667 13.93 12.0697 13.333 11.3333 13.333C10.597 13.333 10 13.93 10 14.6663C10 15.4027 10.597 15.9997 11.3333 15.9997Z"
            fill="#FF9900" />
        <path
            d="M15.79 0.890503C15.665 0.765523 15.4955 0.695312 15.3187 0.695312C15.1419 0.695312 14.9724 0.765523 14.8474 0.890503L11.408 4.33317L10.374 3.25384C10.3134 3.19072 10.2409 3.14016 10.1607 3.10506C10.0805 3.06996 9.99412 3.051 9.90658 3.04927C9.81905 3.04754 9.73203 3.06306 9.65049 3.09496C9.56896 3.12686 9.4945 3.1745 9.43138 3.23517C9.36826 3.29584 9.31771 3.36835 9.28261 3.44856C9.24751 3.52877 9.22855 3.6151 9.22682 3.70264C9.22331 3.87942 9.29019 4.05036 9.41272 4.17784L10.4887 5.29717C10.6034 5.42101 10.7419 5.5203 10.8961 5.58905C11.0502 5.65781 11.2166 5.69459 11.3854 5.69717H11.4074C11.5728 5.69772 11.7366 5.66541 11.8894 5.60212C12.0421 5.53883 12.1808 5.44583 12.2974 5.3285L15.79 1.83317C15.915 1.70815 15.9852 1.53861 15.9852 1.36184C15.9852 1.18506 15.915 1.01552 15.79 0.890503Z"
            fill="#FF9900" />
        <path
            d="M14.6 6.01067C14.5138 5.99509 14.4254 5.99666 14.3398 6.01527C14.2542 6.03388 14.1731 6.06918 14.1012 6.11914C14.0292 6.16911 13.9679 6.23276 13.9205 6.30646C13.8732 6.38016 13.8408 6.46246 13.8253 6.54867L13.74 7.02133C13.6568 7.48288 13.4141 7.90053 13.0543 8.20128C12.6944 8.50203 12.2403 8.66675 11.7713 8.66667H3.612L2.98533 3.33333H7.33333C7.51014 3.33333 7.67971 3.2631 7.80474 3.13807C7.92976 3.01305 8 2.84348 8 2.66667C8 2.48986 7.92976 2.32029 7.80474 2.19526C7.67971 2.07024 7.51014 2 7.33333 2H2.828L2.8 1.76533C2.74255 1.27907 2.50871 0.830769 2.14279 0.505403C1.77688 0.180036 1.30432 0.000208558 0.814667 0L0.666667 0C0.489856 0 0.320286 0.0702379 0.195262 0.195262C0.0702379 0.320286 0 0.489856 0 0.666667C0 0.843478 0.0702379 1.01305 0.195262 1.13807C0.320286 1.2631 0.489856 1.33333 0.666667 1.33333H0.814667C0.977956 1.33335 1.13556 1.3933 1.25758 1.50181C1.3796 1.61032 1.45756 1.75983 1.47667 1.922L2.394 9.722C2.48923 10.5332 2.87899 11.2812 3.48927 11.824C4.09956 12.3668 4.8879 12.6667 5.70467 12.6667H12.6667C12.8435 12.6667 13.013 12.5964 13.1381 12.4714C13.2631 12.3464 13.3333 12.1768 13.3333 12C13.3333 11.8232 13.2631 11.6536 13.1381 11.5286C13.013 11.4036 12.8435 11.3333 12.6667 11.3333H5.70467C5.29101 11.3334 4.88751 11.2052 4.54974 10.9664C4.21197 10.7276 3.95655 10.39 3.81867 10H11.7713C12.5529 10 13.3096 9.72549 13.9092 9.22429C14.5089 8.7231 14.9134 8.02713 15.052 7.258L15.1373 6.78467C15.1686 6.61079 15.1296 6.4316 15.0288 6.28648C14.9281 6.14135 14.7738 6.04215 14.6 6.01067Z"
            fill="#FF9900" />
    </g>
    <defs>
        <clipPath id="clip0_1645_3696">
            <rect fill="white" height="16" width="16" />
        </clipPath>
    </defs>
</svg>
