<svg fill="none" height="24" viewBox="0 0 24 24" width="24" xmlns="http://www.w3.org/2000/svg">
    <path
        d="M22.789 8.84982C22.324 7.59182 21.235 6.85082 19.923 6.90482C18.921 6.93682 17.918 6.96382 16.917 6.98382C16.472 7.02182 16.051 6.69982 15.913 6.25582C15.616 5.29582 15.318 4.33682 15.015 3.37882C14.607 2.07782 13.424 1.23682 12.002 1.23682C10.58 1.23682 9.39699 2.07782 8.98899 3.37782C8.68499 4.33582 8.38698 5.29482 8.09098 6.25482C7.95298 6.69982 7.55099 7.02382 7.08699 6.98382C6.08499 6.96382 5.08199 6.93782 4.09099 6.90582C2.77999 6.85382 1.67699 7.59382 1.21299 8.85082C0.705985 10.2228 1.13199 11.7438 2.27899 12.6398C3.09099 13.2628 3.89599 13.8708 4.69999 14.4708C5.08199 14.7558 5.22899 15.2658 5.06699 15.7408C4.73299 16.7198 4.38399 17.7028 4.02299 18.6868C3.53099 19.9878 3.88099 21.3438 4.91499 22.1398C6.00499 22.9808 7.54999 22.9678 8.76199 22.1038L11.32 20.2668C11.734 19.9708 12.27 19.9698 12.685 20.2668L15.247 22.1068C15.86 22.5428 16.559 22.7618 17.241 22.7618C17.905 22.7618 18.553 22.5548 19.09 22.1408C20.123 21.3448 20.473 19.9888 19.985 18.6958C19.62 17.7038 19.273 16.7198 18.938 15.7418C18.775 15.2678 18.923 14.7578 19.304 14.4728C20.109 13.8718 20.915 13.2638 21.733 12.6358C22.873 11.7448 23.299 10.2238 22.792 8.85182L22.789 8.84982Z"
        fill="#FF9900" />
</svg>
