<svg fill="none" height="80" viewBox="0 0 80 80" width="80" xmlns="http://www.w3.org/2000/svg">
    <path
        d="M26.2451 52.0784C25.3204 52.0784 22.636 50.5187 10.5542 43.2471C6.29385 40.6829 1.47512 37.7829 0.715594 37.4633C0.360069 37.3927 0.0691797 37.0891 0.0105241 36.6847C-0.0636932 36.1732 0.262519 35.6937 0.740143 35.6135C6.31123 34.6821 37.604 21.9354 41.6925 18.5041C41.9493 18.289 42.2946 18.2448 42.5903 18.3873C42.6801 18.4309 42.7615 18.49 42.8315 18.5599C44.6037 19.567 63.3592 25.9426 65.3798 26.225C65.3804 26.225 65.381 26.225 65.3816 26.2243C65.6228 26.1897 65.8706 26.2641 66.0597 26.4317C66.3745 26.7122 66.4811 27.1666 66.3303 27.5909C65.7126 29.3271 51.6298 38.1161 47.3282 40.7682C41.9948 44.0571 29.6292 51.5226 26.487 52.0303C26.4205 52.0605 26.3433 52.0784 26.2451 52.0784ZM25.8597 50.2485C25.7663 50.2857 25.667 50.3454 25.5742 50.4398C25.6562 50.3563 25.7544 50.2915 25.8597 50.2485ZM26.1859 50.183C26.1979 50.183 26.2104 50.183 26.2206 50.183C27.3243 50.183 33.9697 46.8235 46.0133 39.4158C54.504 34.1943 61.1877 29.7084 63.7105 27.7334C63.434 27.6538 63.1234 27.562 62.7744 27.458C59.8985 26.6005 54.808 24.9227 50.1084 23.2821C45.4716 21.6639 43.3049 20.8623 42.2851 20.3481C37.1587 23.9079 12.421 34.1224 3.42692 36.8471C4.92742 37.7168 7.36523 39.1764 11.4101 41.611C17.1242 45.0501 24.9044 49.7324 26.1757 50.183C26.1799 50.183 26.1829 50.183 26.1859 50.183ZM64.9142 26.4599C64.8681 26.5042 64.8238 26.5568 64.7831 26.6191C64.8214 26.5607 64.8657 26.5068 64.9142 26.4599ZM43.1044 19.1761C43.1044 19.1767 43.1044 19.1774 43.1044 19.178C43.1044 19.1767 43.1044 19.1761 43.1044 19.1761Z"
        fill="white" />
    <path
        d="M26.6581 46.6362C26.591 46.6362 26.5234 46.6202 26.4618 46.59C21.1109 43.9539 15.8283 41.0566 10.7606 37.9795C10.5978 37.8813 10.5057 37.6887 10.5242 37.4891C10.5428 37.2901 10.6703 37.1213 10.8474 37.0604C20.294 33.7843 29.5053 29.7509 38.2252 25.073C39.6282 24.3207 41.0455 23.5364 42.4376 22.7431C42.5568 22.675 42.6962 22.6647 42.8231 22.7161C47.4425 24.564 52.2098 26.2476 56.9926 27.7194C57.1686 27.7733 57.299 27.9318 57.3272 28.1257C57.3559 28.3202 57.2769 28.5134 57.1249 28.6231C47.6688 35.4454 37.483 41.4911 26.849 46.592C26.7892 46.6215 26.7233 46.6362 26.6581 46.6362ZM12.1564 37.6637C16.8536 40.4808 21.7274 43.14 26.6611 45.5772C36.8612 40.6708 46.6465 34.8902 55.7614 28.3876C51.3503 27.0031 46.9601 25.4421 42.6932 23.7411C41.3537 24.5024 39.9939 25.254 38.6472 25.9761C30.1984 30.5076 21.2911 34.4371 12.1564 37.6637Z"
        fill="white" />
    <path
        d="M43.2833 29.8035C44.2362 31.7098 41.7792 34.9518 37.6153 36.8729C33.4567 38.7978 29.2688 38.6014 28.4375 36.6142C27.6025 34.6232 30.339 31.6565 34.3761 29.8112C38.4185 27.971 42.3251 27.892 43.2833 29.8035Z"
        fill="white" />
    <path
        d="M27.1189 57.248C27.1081 57.248 27.0985 57.248 27.0883 57.2474L27.0889 57.239C26.1594 57.1479 23.6396 55.8674 14.727 50.5797C13.5293 49.8698 2.99882 43.6066 2.08188 42.5411C1.7886 42.2003 1.7551 41.8049 1.86941 41.4884C1.89575 41.4031 1.92328 41.3318 1.98732 41.2599C2.01964 41.2137 2.05555 41.1701 2.09565 41.1309L2.11361 41.1521C2.50205 40.8857 3.57102 40.5327 6.88865 39.4371C7.34951 39.2862 7.83971 39.5622 7.98215 40.0577C8.1246 40.5533 7.86545 41.0777 7.40339 41.2304C6.19676 41.629 5.27263 41.9358 4.58792 42.1637C9.28575 45.3191 25.2706 54.755 27.1027 55.3725C27.1135 55.3725 27.123 55.3725 27.1338 55.3731C27.135 55.3731 27.1368 55.3731 27.138 55.3731C28.1944 55.3731 34.6202 52.0136 46.2525 44.6271C54.6217 39.3125 61.1696 34.7669 63.4632 32.8798C62.8275 32.6725 61.9405 32.3862 60.7596 32.0146C60.2964 31.8689 60.0306 31.3471 60.1671 30.8503C60.3036 30.3535 60.7902 30.0711 61.2528 30.2148C64.1365 31.1237 65.1791 31.4517 65.5909 31.7168L65.6029 31.7007C65.64 31.7322 65.6735 31.7662 65.7047 31.8021C65.7956 31.8837 65.8375 31.9639 65.8669 32.0595C65.971 32.3009 65.9836 32.5839 65.8908 32.8567C65.3054 34.5743 51.7189 43.3286 47.5687 45.9712C42.3657 49.2832 30.2216 56.8533 27.3247 57.2339C27.2942 57.2397 27.2613 57.2429 27.2254 57.2442C27.1889 57.2467 27.153 57.248 27.1189 57.248ZM26.5221 55.6164C26.5215 55.617 26.5215 55.6177 26.5209 55.6183C26.5221 55.6177 26.5221 55.617 26.5221 55.6164ZM26.5592 55.5824C26.5467 55.5933 26.5347 55.6048 26.5221 55.6164C26.5341 55.6048 26.5467 55.5933 26.5592 55.5824Z"
        fill="white" />
    <path
        d="M27.7092 62.7623C27.699 62.7623 27.6888 62.7623 27.6792 62.7617V62.7533C26.7503 62.6622 24.2305 61.3823 15.3173 56.094C14.1196 55.3835 3.58917 49.1202 2.67222 48.0548C2.37895 47.7139 2.34542 47.3185 2.45974 47.0021C2.48608 46.9161 2.5136 46.8448 2.57765 46.7736C2.60997 46.7267 2.64648 46.6837 2.68598 46.6446L2.70393 46.6658C3.09178 46.3994 4.16074 46.0464 7.47898 44.9514C7.94044 44.8005 8.43065 45.0765 8.5725 45.572C8.71495 46.0676 8.45578 46.592 7.99372 46.7447C6.79307 47.1407 5.86715 47.4482 5.17885 47.6773C9.87728 50.8334 25.8609 60.2687 27.693 60.8868C27.7038 60.8874 27.714 60.8868 27.7235 60.8874C27.7253 60.8874 27.7271 60.8874 27.7283 60.8874C28.7841 60.8874 35.2105 57.5279 46.8429 50.1414C55.2917 44.7761 61.8844 40.1946 64.1181 38.3415C63.4035 38.0758 62.3507 37.7061 60.9286 37.2574C60.4653 37.1111 60.1996 36.5899 60.336 36.0931C60.4725 35.5963 60.9627 35.3139 61.4218 35.4576C64.6023 36.4602 65.7419 36.9069 66.1819 37.2298L66.1926 37.215C66.2465 37.2613 66.2944 37.3126 66.3363 37.3678C66.3937 37.4326 66.4267 37.4949 66.45 37.5591C66.5613 37.8036 66.5763 38.0931 66.4811 38.371C65.8964 40.088 52.3104 48.843 48.1596 51.4855C42.956 54.7981 30.8119 62.3688 27.9157 62.7488C27.8857 62.7546 27.8522 62.7578 27.8163 62.7591C27.7786 62.761 27.7427 62.7623 27.7092 62.7623ZM27.1418 61.1037C27.1334 61.1108 27.125 61.1191 27.1166 61.1268C27.1244 61.1191 27.1328 61.1114 27.1418 61.1037ZM27.143 61.1018C27.1424 61.1025 27.1418 61.1031 27.1412 61.1031C27.1424 61.1031 27.143 61.1025 27.143 61.1018Z"
        fill="white" />
    <path
        d="M28.8049 67.6435C28.7947 67.6435 28.7846 67.6435 28.775 67.6428V67.6345C27.8461 67.5433 25.3257 66.2635 16.4124 60.9746C15.2142 60.264 4.6831 54.0001 3.76736 52.9359C3.46031 52.5784 3.43816 52.1618 3.57343 51.8383C3.72725 51.4436 4.03849 51.3428 4.36648 51.2363C4.75613 51.1098 5.7012 50.8024 7.8164 50.1034C8.27726 49.9538 8.76745 50.2286 8.9099 50.7241C9.05235 51.2196 8.79318 51.744 8.33112 51.8967C7.47164 52.1804 6.80488 52.4 6.29014 52.5688C11.0077 55.7344 26.9597 65.1499 28.7888 65.7673C28.8001 65.7686 28.8097 65.7673 28.8193 65.768C28.8211 65.768 28.8229 65.768 28.8241 65.768C29.8799 65.768 36.3063 62.4085 47.9386 55.022C56.4054 49.6451 63.0083 45.0558 65.2289 43.2098C64.5346 42.9447 63.5093 42.5782 62.1093 42.1373C61.6461 41.9909 61.3803 41.4698 61.5168 40.973C61.6532 40.4762 62.1423 40.1937 62.6025 40.3375C65.7005 41.3144 66.8329 41.7849 67.2746 42.1148L67.2896 42.0962C67.3662 42.1623 67.4314 42.2387 67.4835 42.3221C67.5051 42.3536 67.5224 42.385 67.5356 42.4165C67.6565 42.6655 67.6756 42.9646 67.5775 43.2516C66.9927 44.9685 53.4062 53.7235 49.256 56.3654C44.0518 59.6786 31.9071 67.2487 29.0114 67.6293C28.9815 67.6351 28.948 67.6383 28.9126 67.6396C28.8743 67.6422 28.8384 67.6435 28.8049 67.6435ZM28.2082 66.0119C28.2076 66.0125 28.207 66.0125 28.2064 66.0131C28.207 66.0119 28.2076 66.0119 28.2082 66.0119Z"
        fill="white" />
    <path
        d="M39.0428 66.3681C39.0392 66.155 39.0517 65.9426 39.0739 65.7314C33.5914 68.9503 30.4593 70.4683 29.7512 70.4683H29.747C29.7363 70.4677 29.7273 70.4689 29.7159 70.4677C27.8862 69.8502 11.9343 60.4348 7.21671 57.2691C7.73144 57.0997 8.3982 56.8808 9.25829 56.5971C9.72035 56.4443 9.9789 55.9199 9.83705 55.4244C9.6952 54.9295 9.20441 54.6542 8.74354 54.8037C6.62955 55.5021 5.68388 55.8095 5.29424 55.936C4.96505 56.0432 4.65261 56.1446 4.49939 56.5406C4.36472 56.8635 4.38808 57.2807 4.69452 57.6369C5.61326 58.703 16.1431 64.9656 17.3408 65.6755C26.2534 70.9632 28.7732 72.2437 29.7027 72.3348L29.7021 72.3432C29.7123 72.3438 29.7219 72.3438 29.7327 72.3438C29.7662 72.3438 29.8027 72.3425 29.8404 72.3393C29.8757 72.338 29.908 72.3342 29.9386 72.3291C31.381 72.1397 35.1182 70.1666 39.1493 67.8245C39.1062 67.3386 39.0505 66.8521 39.0428 66.3681Z"
        fill="white" />
    <path
        d="M68.4627 47.1163C68.4489 47.0849 68.4321 47.0528 68.41 47.0207C68.3573 46.9379 68.2927 46.8621 68.2167 46.796L68.2023 46.8146C67.7606 46.4847 66.6282 46.0149 63.5296 45.038C63.0657 44.8948 62.5803 45.1766 62.4439 45.6734C62.308 46.1702 62.5732 46.692 63.0364 46.8377C64.4364 47.2787 65.4616 47.6452 66.1559 47.9096C63.9366 49.755 57.3331 54.3449 48.8663 59.7218C48.0918 60.2134 47.3443 60.6846 46.6158 61.1409C47.4209 61.0947 48.2259 61.0594 49.0315 61.0645C49.399 61.0665 49.7659 61.0793 50.1334 61.0973C50.1496 61.087 50.1669 61.0761 50.1825 61.0658C54.3327 58.4233 67.9192 49.669 68.5046 47.9514C68.6021 47.6645 68.5824 47.3653 68.4627 47.1163Z"
        fill="white" />
    <path d="M29.1346 70.7135L29.1316 70.7165C29.1336 70.7155 29.1346 70.7135 29.1346 70.7135Z"
        fill="white" />
    <path
        d="M29.1701 70.6802C29.1587 70.6898 29.1467 70.7007 29.1354 70.7116C29.1467 70.7007 29.1581 70.6898 29.1701 70.6802Z"
        fill="white" />
    <path
        d="M38.9666 70.2335C33.438 73.3619 30.2754 74.835 29.55 74.835C29.5368 74.8344 29.5207 74.8337 29.5057 74.8337C27.6856 74.1867 11.8719 64.5049 7.20042 61.2616C7.71815 61.1011 8.3885 60.8925 9.25157 60.6236C9.71543 60.4792 9.98237 59.958 9.84711 59.4612C9.71244 58.9644 9.22765 58.6762 8.76319 58.8225C6.65997 59.4792 5.7083 59.7712 5.30968 59.8938C4.95595 60.0023 4.64771 60.0979 4.49149 60.4965C4.35622 60.8168 4.37479 61.2295 4.67406 61.5877C5.57603 62.6686 16.0143 69.1058 17.2012 69.8362C26.0367 75.2721 28.5379 76.5943 29.465 76.7002V76.7092C29.4812 76.7099 29.4973 76.7099 29.5153 76.7099C29.5434 76.7099 29.5728 76.7092 29.6033 76.7073C29.6392 76.7067 29.6715 76.7035 29.702 76.6983C31.0607 76.543 34.4693 74.8453 38.249 72.7528C38.404 71.8889 38.7224 71.0737 38.9666 70.2335Z"
        fill="white" />
    <path
        d="M68.5758 52.1086C68.547 52.0373 68.5075 51.9693 68.4345 51.8967C68.4064 51.8653 68.3771 51.8345 68.3447 51.8062L68.3387 51.8139C67.9611 51.5258 66.9974 51.1329 64.267 50.2234C63.8043 50.07 63.3153 50.346 63.1717 50.8409C63.028 51.3358 63.286 51.8614 63.7475 52.0155C64.8882 52.3955 65.6957 52.6856 66.2553 52.8974C64.4232 54.3692 59.6972 57.5881 53.4301 61.5381C54.1094 61.6902 54.7827 61.8834 55.4213 62.1652C55.5087 62.2037 55.5925 62.2531 55.6787 62.2961C61.2115 58.7858 68.1867 54.1734 68.6171 52.9674C68.7212 52.6728 68.7027 52.364 68.5758 52.1086Z"
        fill="white" />
    <path
        d="M28.9569 75.0377C28.9456 75.0473 28.9342 75.0576 28.9222 75.0685C28.9336 75.0576 28.9456 75.0473 28.9569 75.0377Z"
        fill="white" />
    <path d="M28.9594 75.036L28.9564 75.038C28.9584 75.038 28.9594 75.036 28.9594 75.036Z"
        fill="white" />
    <path
        d="M68.968 65.0609C63.4107 65.0609 59.0582 62.7996 59.0582 59.9125C59.0582 57.0254 63.4107 54.7642 68.968 54.7642C74.5254 54.7642 78.8784 57.0254 78.8784 59.9125C78.8784 62.7996 74.526 65.0609 68.968 65.0609ZM68.968 56.1172C63.8716 56.1172 60.3199 58.1179 60.3199 59.9125C60.3199 61.7071 63.8716 63.7078 68.968 63.7078C74.0645 63.7078 77.6167 61.7071 77.6167 59.9125C77.6167 58.1179 74.0645 56.1172 68.968 56.1172Z"
        fill="white" />
    <path
        d="M47.7662 80.0001C42.2089 80.0001 37.8564 77.7388 37.8564 74.8523V72.4377C37.8564 72.0641 38.1389 71.7612 38.4873 71.7612C38.8356 71.7612 39.1181 72.0641 39.1181 72.4377V74.8523C39.1181 76.647 42.6698 78.647 47.7662 78.647C52.8627 78.647 56.4149 76.647 56.4149 74.8523V72.2701C56.4149 71.8966 56.6974 71.5936 57.0458 71.5936C57.3941 71.5936 57.6766 71.8966 57.6766 72.2701V74.8523C57.676 77.7388 53.3236 80.0001 47.7662 80.0001Z"
        fill="white" />
    <path
        d="M68.968 67.9158C63.4107 67.9158 59.0582 65.6545 59.0582 62.7675V60.3534C59.0582 59.9799 59.3407 59.6769 59.6891 59.6769C60.0374 59.6769 60.3199 59.9799 60.3199 60.3534V62.7675C60.3199 64.5621 63.8716 66.5628 68.968 66.5628C74.0645 66.5628 77.6167 64.5621 77.6167 62.7675V60.1859C77.6167 59.8123 77.8992 59.5094 78.2476 59.5094C78.5959 59.5094 78.8784 59.8123 78.8784 60.1859V62.7675C78.8784 65.6545 74.526 67.9158 68.968 67.9158Z"
        fill="white" />
    <path
        d="M57.1224 70.2822C57.12 70.288 57.12 70.295 57.1177 70.3008C57.071 70.4183 57.0093 70.5287 56.9375 70.6301C56.8639 70.7334 56.7801 70.8278 56.6885 70.9131C56.5933 71.0017 56.491 71.0807 56.3845 71.1519C56.3294 71.1885 56.2701 71.218 56.2127 71.2508C56.3413 71.4998 56.415 71.7501 56.415 71.9966C56.415 73.7912 52.8627 75.7919 47.7663 75.7919C42.6698 75.7919 39.1182 73.7912 39.1182 71.9966C39.1182 71.3881 39.5347 70.7572 40.2739 70.1872C40.247 70.1622 40.2183 70.1391 40.1913 70.1134C40.0393 69.9683 39.8927 69.8156 39.7622 69.6487C39.6443 69.4978 39.5401 69.3342 39.4605 69.1564C38.446 69.9658 37.8571 70.9382 37.8571 71.9966C37.8571 74.8837 42.2095 77.1449 47.7669 77.1449C53.3242 77.1449 57.6773 74.8837 57.6773 71.9966C57.6761 71.392 57.4756 70.8169 57.1224 70.2822Z"
        fill="white" />
    <path
        d="M48.4609 73.4138C42.9036 73.4138 38.5505 71.1525 38.5505 68.2654V65.8508C38.5505 65.4772 38.833 65.1742 39.1814 65.1742C39.5297 65.1742 39.8122 65.4772 39.8122 65.8508V68.2654C39.8122 70.0601 43.3645 72.0607 48.4609 72.0607C53.5574 72.0607 57.109 70.0601 57.109 68.2654V65.6832C57.109 65.3097 57.3916 65.0067 57.7399 65.0067C58.0882 65.0067 58.3707 65.3097 58.3707 65.6832V68.2654C58.3707 71.1525 54.0182 73.4138 48.4609 73.4138Z"
        fill="white" />
    <path
        d="M48.4608 70.5588C42.9035 70.5588 38.5504 68.2975 38.5504 65.4104C38.5504 62.524 42.9029 60.2627 48.4608 60.2627C54.0181 60.2627 58.3706 62.524 58.3706 65.4104C58.3706 68.2975 54.0181 70.5588 48.4608 70.5588ZM48.4608 61.6157C43.3644 61.6157 39.8121 63.6158 39.8121 65.4104C39.8121 67.205 43.3644 69.2057 48.4608 69.2057C53.5573 69.2057 57.1089 67.205 57.1089 65.4104C57.1089 63.6151 53.5573 61.6157 48.4608 61.6157Z"
        fill="white" />
    <path
        d="M70.0903 70.1553C64.533 70.1553 60.1799 67.894 60.1799 65.007C60.1799 64.6334 60.4624 64.3304 60.8108 64.3304C61.1591 64.3304 61.4416 64.6334 61.4416 65.007C61.4416 66.8016 64.9939 68.8023 70.0903 68.8023C75.1868 68.8023 78.7384 66.8016 78.7384 65.007C78.7384 64.6334 79.021 64.3304 79.3693 64.3304C79.7176 64.3304 80.0001 64.6334 80.0001 65.007C79.9995 67.894 75.647 70.1553 70.0903 70.1553Z"
        fill="white" />
    <path
        d="M70.0903 73.0095C64.533 73.0095 60.1799 70.7482 60.1799 67.8611V65.4471C60.1799 65.0735 60.4624 64.7706 60.8108 64.7706C61.1591 64.7706 61.4416 65.0735 61.4416 65.4471V67.8611C61.4416 69.6557 64.9939 71.6564 70.0903 71.6564C75.1868 71.6564 78.7384 69.6557 78.7384 67.8611V65.2795C78.7384 64.906 79.021 64.603 79.3693 64.603C79.7176 64.603 80.0001 64.906 80.0001 65.2795V67.8611C79.9995 70.7482 75.647 73.0095 70.0903 73.0095Z"
        fill="white" />
    <path
        d="M78.0082 68.1133C77.7867 68.1133 77.5718 67.9882 77.4563 67.7661C77.2863 67.44 77.3953 67.028 77.6999 66.845C78.2003 66.5453 78.5618 65.8668 78.6659 65.0305C78.6911 64.8264 78.6977 64.5382 78.5863 64.327C78.5181 64.1967 78.3954 64.128 78.32 64.1274C77.9693 64.171 77.6604 63.9034 77.6215 63.5318C77.5814 63.1608 77.8304 62.8244 78.177 62.7827C78.7659 62.7102 79.3698 63.0632 79.6852 63.6595C79.9103 64.0857 79.9905 64.621 79.9181 65.2089C79.7613 66.467 79.1627 67.5203 78.3158 68.0273C78.2177 68.0851 78.1123 68.1133 78.0082 68.1133Z"
        fill="white" />
    <path
        d="M70.0903 76.512C64.533 76.512 60.1799 74.2507 60.1799 71.3637C60.1799 70.9901 60.4624 70.6871 60.8108 70.6871C61.1591 70.6871 61.4416 70.9901 61.4416 71.3637C61.4416 73.1583 64.9939 75.159 70.0903 75.159C75.1868 75.159 78.7384 73.1583 78.7384 71.3637C78.7384 70.9901 79.021 70.6871 79.3693 70.6871C79.7176 70.6871 80.0001 70.9901 80.0001 71.3637C79.9995 74.2507 75.647 76.512 70.0903 76.512Z"
        fill="white" />
    <path
        d="M70.0903 79.367C64.533 79.367 60.1799 77.1058 60.1799 74.2187V71.804C60.1799 71.4304 60.4624 71.1275 60.8108 71.1275C61.1591 71.1275 61.4416 71.4304 61.4416 71.804V74.2187C61.4416 76.0133 64.9939 78.014 70.0903 78.014C75.1868 78.014 78.7384 76.0133 78.7384 74.2187V71.6365C78.7384 71.2629 79.021 70.96 79.3693 70.96C79.7176 70.96 80.0001 71.2629 80.0001 71.6365V74.2187C79.9995 77.1058 75.647 79.367 70.0903 79.367Z"
        fill="white" />
    <path
        d="M62.906 74.8145C62.815 74.8145 62.7216 74.7934 62.6337 74.7478C61.5401 74.1862 61.0248 73.672 60.5873 73.0725C60.1199 72.4332 59.9672 71.0038 60.2611 70.0134C60.4921 69.2355 60.9237 68.9512 61.2451 68.8485C61.5809 68.7419 61.9304 68.9473 62.0298 69.3055C62.1291 69.6636 61.9382 70.0404 61.6036 70.1469C61.5838 70.1579 61.4911 70.2644 61.4276 70.5699C61.29 71.2387 61.445 72.0513 61.5809 72.2368C61.919 72.7003 62.3039 73.077 63.1795 73.5263C63.4937 73.6881 63.6266 74.0924 63.4764 74.4294C63.3675 74.6727 63.1412 74.8145 62.906 74.8145Z"
        fill="white" />
    <path
        d="M77.6071 74.6425C77.3754 74.6425 77.1522 74.5051 77.0415 74.2676C76.8858 73.9332 77.0121 73.5269 77.3246 73.3594C77.6346 73.1931 78.0871 72.7496 78.354 72.3485C78.6114 71.9627 78.7425 71.5558 78.7233 71.204C78.7042 70.8709 78.5216 70.557 78.29 70.4582C77.9656 70.3208 77.8064 69.9274 77.9345 69.5801C78.0625 69.2322 78.4294 69.0615 78.7532 69.1989C79.4397 69.4896 79.9341 70.2624 79.9826 71.1225C80.0299 71.9698 79.6821 72.6848 79.3811 73.1354C79.0633 73.6116 78.4612 74.2631 77.8878 74.5706C77.7974 74.6194 77.7016 74.6425 77.6071 74.6425Z"
        fill="white" />
    <path
        d="M35.5874 17.7075C35.2049 17.7075 34.853 17.436 34.7453 17.0214L33.4536 12.0412C33.3244 11.5425 33.5967 11.0251 34.0623 10.8865C34.5256 10.7485 35.0098 11.0405 35.1391 11.5393L36.4307 16.5188C36.56 17.0182 36.2877 17.5355 35.8226 17.6741C35.7436 17.6966 35.6646 17.7075 35.5874 17.7075Z"
        fill="white" />
    <path
        d="M40.484 16.1383C40.4787 16.1383 40.4739 16.1383 40.4691 16.1383C39.9861 16.1299 39.6006 15.7031 39.6084 15.1851L39.8275 0.922993C39.8353 0.410148 40.2255 0 40.7013 0C40.7067 0 40.7115 0 40.7163 0C41.1999 0.00834417 41.5847 0.435181 41.5769 0.953161L41.3579 15.2153C41.3501 15.7288 40.9605 16.1383 40.484 16.1383Z"
        fill="white" />
    <path
        d="M46.0581 16.653C46.0043 16.653 45.9492 16.6478 45.8947 16.6363C45.4201 16.5407 45.1077 16.0503 45.1981 15.5406C45.778 12.2453 46.1509 8.8775 46.3053 5.53149C46.3299 5.01479 46.7171 4.61235 47.2223 4.64123C47.7047 4.66691 48.0764 5.10722 48.0524 5.62456C47.8944 9.05658 47.5114 12.5098 46.9164 15.8892C46.8374 16.3391 46.4699 16.653 46.0581 16.653Z"
        fill="white" />
    <path
        d="M50.1677 18.6807C50.018 18.6807 49.866 18.6397 49.7277 18.553C49.3106 18.2918 49.1699 17.7173 49.4129 17.2699L54.2604 8.36094C54.504 7.9142 55.0402 7.76272 55.4568 8.02332C55.874 8.28455 56.0147 8.85902 55.7716 9.30639L50.9242 18.2154C50.7608 18.5139 50.4681 18.6807 50.1677 18.6807Z"
        fill="white" />
    <path
        d="M55.5103 20.8482C55.2601 20.8482 55.0111 20.7416 54.8256 20.5318C54.4683 20.1261 54.4856 19.4875 54.8639 19.1049C56.5344 17.4136 58.3581 15.8725 60.2829 14.5265C60.7187 14.2204 61.301 14.3539 61.5853 14.8205C61.8696 15.2871 61.7469 15.9129 61.3112 16.2172C59.4791 17.499 57.7452 18.9643 56.1561 20.5735C55.9747 20.757 55.7425 20.8482 55.5103 20.8482Z"
        fill="white" />
    <path
        d="M12.3874 21.1159C8.58253 21.6961 8.1438 22.1666 7.60273 26.2469C7.06166 22.1666 6.62295 21.6961 2.81812 21.1159C6.62295 20.5356 7.06166 20.0652 7.60273 15.9849C8.1438 20.0645 8.58253 20.535 12.3874 21.1159Z"
        fill="white" />
    <path
        d="M7.60282 26.9235C7.2886 26.9235 7.02227 26.6757 6.97798 26.3419C6.47881 22.5768 6.23999 22.3213 2.72904 21.786C2.4184 21.7392 2.18677 21.4529 2.18677 21.1159C2.18617 20.7789 2.4172 20.4933 2.72904 20.4458C6.24059 19.9099 6.47881 19.6544 6.97798 15.8893C7.02167 15.5561 7.288 15.3077 7.60282 15.3077C7.91705 15.3071 8.1834 15.5549 8.22769 15.8893C8.72746 19.6544 8.96567 19.9099 12.4766 20.4458C12.7879 20.4927 13.0195 20.7789 13.0189 21.1159C13.0189 21.4529 12.7879 21.7385 12.4766 21.786C8.96567 22.3213 8.72746 22.5768 8.22769 26.3419C8.1834 26.6757 7.91705 26.9235 7.60282 26.9235ZM5.73184 21.1159C6.6817 21.5152 7.23054 22.1037 7.60282 23.1224C7.97571 22.1031 8.52396 21.5152 9.47442 21.1159C8.52456 20.716 7.97571 20.1275 7.60282 19.1088C7.23054 20.1281 6.6823 20.716 5.73184 21.1159Z"
        fill="white" />
    <path
        d="M26.8781 10.0465C23.0733 10.6268 22.6345 11.0973 22.0935 15.1776C21.5524 11.0973 21.1137 10.6268 17.3088 10.0465C21.1137 9.46631 21.5524 8.99582 22.0935 4.91553C22.6345 8.99582 23.0733 9.46631 26.8781 10.0465Z"
        fill="white" />
    <path
        d="M22.0937 15.8545C21.7795 15.8552 21.5131 15.6074 21.4688 15.273C20.9691 11.5072 20.7308 11.2518 17.2199 10.7164C16.9092 10.6696 16.6776 10.3833 16.6776 10.0463C16.677 9.70936 16.908 9.42374 17.2199 9.37624C20.7308 8.84029 20.9691 8.58483 21.4688 4.81968C21.5125 4.48592 21.7795 4.23816 22.0937 4.23816C22.4079 4.23816 22.6742 4.48592 22.7185 4.81968C23.2177 8.58483 23.4559 8.84029 26.9675 9.37624C27.2787 9.4231 27.5103 9.70936 27.5097 10.0463C27.5097 10.3833 27.2787 10.6689 26.9675 10.7164C23.4565 11.2518 23.2177 11.5079 22.7185 15.273C22.6742 15.6068 22.4079 15.8545 22.0937 15.8545ZM20.2215 10.0463C21.1719 10.4456 21.7202 11.0342 22.0931 12.0528C22.4654 11.0342 23.0142 10.4456 23.9641 10.0463C23.0142 9.64646 22.4654 9.05852 22.0931 8.03925C21.7202 9.05788 21.1713 9.64646 20.2215 10.0463Z"
        fill="white" />
</svg>
