<svg width="250" height="250" viewBox="0 0 250 250" fill="none" xmlns="http://www.w3.org/2000/svg">
<path d="M219.187 175.773C207.084 198.224 187.36 215.613 163.57 224.807C139.779 234 113.487 234.394 89.4327 225.916C65.378 217.438 45.1427 200.646 32.3742 178.567C19.6056 156.489 15.1436 130.575 19.7924 105.497C24.4412 80.4195 37.895 57.827 57.7289 41.7919C77.5628 25.7569 102.472 17.3339 127.967 18.0413C153.463 18.7486 177.867 28.5397 196.781 45.6497C215.695 62.7598 227.876 86.0635 231.127 111.36L225.497 112.084C222.419 88.1289 210.884 66.0615 192.973 49.859C175.062 33.6565 151.953 24.3849 127.81 23.7151C103.667 23.0452 80.0792 31.0214 61.2974 46.2058C42.5156 61.3903 29.7755 82.7843 25.3733 106.532C20.9711 130.279 25.1964 154.818 37.2877 175.726C49.3789 196.633 68.5407 212.534 91.3195 220.563C114.098 228.591 138.995 228.218 161.524 219.512C184.052 210.806 202.73 194.339 214.19 173.08L219.187 175.773Z" fill="url(#paint0_radial_2003_3344)"/>
<path d="M219.187 175.773C207.084 198.224 187.36 215.613 163.57 224.807C139.779 234 113.487 234.394 89.4327 225.916C65.378 217.438 45.1427 200.646 32.3742 178.567C19.6056 156.489 15.1436 130.575 19.7924 105.497C24.4412 80.4195 37.895 57.827 57.7289 41.7919C77.5628 25.7569 102.472 17.3339 127.967 18.0413C153.463 18.7486 177.867 28.5397 196.781 45.6497C215.695 62.7598 227.876 86.0635 231.127 111.36L225.497 112.084C222.419 88.1289 210.884 66.0615 192.973 49.859C175.062 33.6565 151.953 24.3849 127.81 23.7151C103.667 23.0452 80.0792 31.0214 61.2974 46.2058C42.5156 61.3903 29.7755 82.7843 25.3733 106.532C20.9711 130.279 25.1964 154.818 37.2877 175.726C49.3789 196.633 68.5407 212.534 91.3195 220.563C114.098 228.591 138.995 228.218 161.524 219.512C184.052 210.806 202.73 194.339 214.19 173.08L219.187 175.773Z" fill="url(#paint1_linear_2003_3344)"/>
<path d="M189.72 88.3498L107.282 171.702C106.564 172.43 105.711 173.008 104.772 173.403C103.832 173.797 102.825 174 101.808 174C100.791 174 99.7838 173.797 98.8444 173.403C97.9049 173.008 97.0518 172.43 96.3338 171.702L60.2675 135.235C59.5486 134.508 58.9784 133.645 58.5893 132.696C58.2002 131.746 58 130.728 58 129.7C58 128.672 58.2002 127.654 58.5893 126.705C58.9784 125.755 59.5486 124.892 60.2675 124.165C60.9864 123.438 61.8399 122.862 62.7792 122.468C63.7185 122.075 64.7252 121.872 65.7419 121.872C66.7586 121.872 67.7653 122.075 68.7046 122.468C69.6439 122.862 70.4973 123.438 71.2162 124.165L101.815 155.103L178.784 77.2927C180.236 75.8247 182.205 75 184.258 75C186.311 75 188.281 75.8247 189.732 77.2927C191.184 78.7607 192 80.7517 192 82.8278C192 84.9038 191.184 86.8949 189.732 88.3629L189.72 88.3498Z" fill="#FF9900"/>
<defs>
<radialGradient id="paint0_radial_2003_3344" cx="0" cy="0" r="1" gradientUnits="userSpaceOnUse" gradientTransform="translate(129.385 124.197) rotate(44.111) scale(168.2 290.79)">
<stop stop-color="#250266"/>
<stop offset="1" stop-color="#010014"/>
</radialGradient>
<linearGradient id="paint1_linear_2003_3344" x1="-22.1739" y1="13.7695" x2="197.913" y2="105.938" gradientUnits="userSpaceOnUse">
<stop offset="0.0736741" stop-color="#933EFF"/>
<stop offset="0.788339" stop-color="#230064" stop-opacity="0.6"/>
<stop offset="1" stop-color="#230064" stop-opacity="0"/>
</linearGradient>
</defs>
</svg>
