<svg fill="none" height="80" viewBox="0 0 80 80" width="80" xmlns="http://www.w3.org/2000/svg">
    <path
        d="M42.7144 59.0678C42.7021 59.0678 42.6891 59.0678 42.6768 59.0671L36.1809 58.7969C35.924 58.7861 35.6832 58.6682 35.5119 58.4695C35.3406 58.2714 35.2543 58.0093 35.2732 57.7432L35.4827 54.6764C34.0916 54.0828 32.9606 53.2837 32.1138 52.294C31.8127 51.941 31.7939 51.4161 32.0703 51.0415L34.6872 47.495C34.8436 47.2828 35.0753 47.146 35.3309 47.1157C35.5892 47.0827 35.8435 47.1635 36.0414 47.3333C36.4586 47.6756 39.0308 48.707 40.383 48.8748C41.4121 49.0021 42.2544 48.8317 42.4432 48.6013C42.4951 48.5373 42.4776 48.3884 42.4549 48.2752C42.366 48.1964 42.2083 48.0926 42.133 48.0609C42.0941 48.0502 41.793 47.9761 40.6127 47.8696C38.1178 47.5732 36.2627 46.9628 34.9137 46.002C33.442 44.9537 32.6855 43.5294 32.6666 41.7696C32.6524 40.4841 33.03 39.2633 33.7885 38.1429C34.4225 37.2098 35.2543 36.4343 36.2659 35.8306L36.4282 32.245C36.4502 31.7431 36.8337 31.3402 37.3165 31.3085L43.8376 30.8874C44.1056 30.8713 44.3684 30.9723 44.5605 31.167C44.7519 31.3624 44.855 31.6339 44.844 31.9122L44.7194 34.9379C45.4767 35.1522 46.2112 35.4271 46.9087 35.7592C47.8684 36.2187 48.6749 36.7637 49.3069 37.3795C49.6528 37.7157 49.706 38.2668 49.4309 38.6677L47.3169 41.7575C47.0184 42.194 46.4376 42.3025 46.0133 42.0027C45.38 41.558 43.4003 40.6728 41.3317 40.7954C40.5258 40.8405 40.0806 41.05 39.9431 41.2151C39.9243 41.2373 39.9113 41.2569 39.9074 41.2919C39.9249 41.3182 39.9483 41.3478 39.9684 41.3674C40.1235 41.4085 40.5277 41.4812 41.5711 41.5466C43.7597 41.6962 45.5993 42.2904 47.0443 43.3138L47.045 43.3145C48.6178 44.4315 49.4263 46.0182 49.4484 48.0293C49.4672 49.7513 48.8651 51.3158 47.6582 52.6774C46.6401 53.8261 45.3242 54.6642 43.7377 55.1769L43.6631 58.1084C43.6566 58.3718 43.5489 58.6217 43.3639 58.8009C43.1861 58.9727 42.9545 59.0678 42.7144 59.0678ZM37.2334 56.8707L41.7917 57.06L41.8598 54.3974C41.8709 53.9528 42.1681 53.5707 42.5846 53.4663C44.14 53.0762 45.343 52.3823 46.2624 51.3454C47.143 50.351 47.5647 49.2737 47.5511 48.0522C47.5368 46.702 47.021 45.6847 45.9737 44.9409C44.8122 44.1182 43.2906 43.6379 41.4511 43.5126C40.0716 43.4263 39.5966 43.3151 39.3377 43.2282C38.6934 43.0174 38.0867 42.2466 38.0198 41.5486C37.9627 40.9443 38.1288 40.3857 38.5026 39.9337C39.0425 39.2808 39.9853 38.8988 41.2285 38.8294C43.1829 38.7196 45.0627 39.3064 46.2611 39.9L47.3681 38.2823C47.0035 38.0189 46.5843 37.7737 46.1158 37.5493C45.308 37.1646 44.4404 36.8682 43.5391 36.6674C43.0875 36.567 42.7709 36.1426 42.7903 35.6622L42.9032 32.9214L38.282 33.2199L38.134 36.4828C38.1178 36.8412 37.9154 37.1612 37.6065 37.3202C36.652 37.808 35.8896 38.4663 35.3393 39.2768C34.8079 40.0624 34.5536 40.8715 34.5633 41.7487C34.575 42.8597 35.0272 43.6951 35.9869 44.379C37.0595 45.143 38.6804 45.6591 40.8041 45.9124C42.0772 46.0276 42.4886 46.1186 42.7021 46.1846C43.0447 46.2958 44.0264 46.8293 44.2445 47.6001C44.565 48.7273 44.2289 49.4583 43.8921 49.874C42.9454 51.0382 40.9664 50.9331 40.1579 50.832C38.9957 50.6878 36.9356 49.9892 35.6923 49.3734L34.0851 51.5522C34.7923 52.1822 35.6975 52.6969 36.787 53.087C37.1932 53.2319 37.454 53.6428 37.4242 54.0875L37.2334 56.8707Z"
        fill="white" />
    <path
        d="M40.531 76.9615C31.1794 76.9615 22.5365 74.0011 16.1931 68.624C9.62784 63.0596 6.01233 55.2558 6.01233 46.6501C6.01233 33.899 13.9584 22.2481 26.2558 16.9674C29.0622 15.7614 30.4391 12.4776 29.4074 9.47137L26.8307 4.28428C26.8125 4.2479 26.797 4.21084 26.7833 4.17244C26.4323 3.17733 27.0358 1.91207 27.7969 1.31177C28.5814 0.693278 29.5261 0.678451 30.3249 1.27336C33.2201 3.43403 34.61 2.48608 35.438 1.92082C35.6242 1.79416 35.8059 1.6648 35.9863 1.53746C37.0433 0.787595 38.136 0.012801 39.6089 0C39.6232 0 39.6368 0 39.6511 0C41.3232 0 42.3861 0.896744 43.3244 1.68906C44.4411 2.63161 45.3229 3.37542 47.2494 2.95366C48.2253 2.73941 49.9902 1.88579 51.2172 1.18241C52.125 0.660938 53.2287 0.772771 54.0262 1.46605C54.825 2.16134 55.1241 3.27165 54.7873 4.29439L52.8784 10.1067C51.931 12.991 53.2417 16.2134 55.8625 17.4417C67.6986 22.9899 75.0516 34.182 75.0516 46.6501C75.0516 55.2558 71.4361 63.0596 64.8708 68.624C58.5255 74.0011 49.8825 76.9615 40.531 76.9615ZM28.5781 3.50814L31.121 8.62583C31.1392 8.66221 31.1548 8.69927 31.1684 8.73835C32.5875 12.7552 30.7479 17.1695 26.9806 18.7878C15.395 23.7633 7.90898 34.6994 7.90898 46.6515C7.90898 62.809 21.933 74.9935 40.5316 74.9935C59.1302 74.9935 73.1543 62.809 73.1543 46.6515C73.1543 34.9669 66.2289 24.4627 55.0813 19.2372C51.5209 17.569 49.802 13.3703 51.0823 9.47205L52.9913 3.65973C53.1119 3.29254 52.903 3.05943 52.807 2.97656C52.7116 2.89369 52.4566 2.72054 52.1328 2.90784C51.8466 3.07156 49.2907 4.51941 47.6413 4.88121C44.8298 5.49768 43.3309 4.23442 42.1272 3.21708C41.2953 2.51505 40.6432 1.94709 39.6245 1.97C38.7291 1.97741 37.9537 2.52785 37.0556 3.16386C36.8655 3.29861 36.6741 3.43471 36.4781 3.56811C34.9397 4.61644 32.7231 5.4869 29.2186 2.87415C29.0998 2.78589 29.0667 2.80476 29.0051 2.83912C28.7754 2.96983 28.5976 3.3323 28.5781 3.50814Z"
        fill="white" />
    <path
        d="M39.764 16.0612C36.6676 16.0612 33.5906 15.537 30.5974 14.4853C30.101 14.3108 29.835 13.7523 30.003 13.2376C30.1711 12.7222 30.7083 12.4459 31.2047 12.6204C37.6668 14.8923 44.5559 14.5258 51.1283 11.5654C51.6085 11.3491 52.1672 11.5782 52.3755 12.0767C52.5844 12.5753 52.3638 13.1554 51.883 13.3717C47.9073 15.1624 43.8188 16.0612 39.764 16.0612Z"
        fill="white" />
    <path
        d="M40.8359 20.2936C36.8713 20.2936 32.6465 19.444 28.5307 17.7348C28.0447 17.5326 27.8085 16.96 28.0032 16.4547C28.1978 15.95 28.7481 15.7048 29.236 15.9069C37.4767 19.3295 46.1196 19.1173 51.7895 15.3497C52.2307 15.0573 52.8166 15.1901 53.0995 15.6482C53.3818 16.1063 53.2527 16.7154 52.8121 17.0085C49.523 19.1934 45.3488 20.2936 40.8359 20.2936Z"
        fill="white" />
    <path
        d="M15.2405 58.8629C14.92 58.8629 14.6072 58.6945 14.4288 58.3886C11.538 53.4346 10.505 47.7018 11.5205 42.2459C12.5354 36.8001 15.5688 31.7505 20.0636 28.0274C20.4736 27.6905 21.0693 27.7579 21.3963 28.183C21.7227 28.6081 21.6559 29.228 21.2465 29.5669C17.1041 32.9975 14.3113 37.6328 13.3821 42.6198C12.4562 47.5947 13.4035 52.8316 16.0509 57.3672C16.3222 57.8321 16.1794 58.4378 15.731 58.7194C15.5779 58.8164 15.4086 58.8629 15.2405 58.8629Z"
        fill="white" />
    <path
        d="M65.2653 59.1298C65.0901 59.1298 64.9129 59.0799 64.7539 58.9741C64.3134 58.6811 64.1849 58.072 64.4678 57.6139C67.3786 52.897 68.4434 47.0396 67.3884 41.5446C66.3327 36.0496 63.1869 31.064 58.7564 27.8664C58.3269 27.5565 58.2205 26.9427 58.5196 26.4961C58.8181 26.0494 59.4079 25.9382 59.8394 26.2501C64.6689 29.7361 68.0982 35.1704 69.248 41.1606C70.3978 47.1508 69.2383 53.5344 66.0647 58.677C65.8836 58.9694 65.578 59.1298 65.2653 59.1298Z"
        fill="white" />
    <path
        d="M40.5673 70.9713C34.3862 70.9713 28.1973 69.4089 22.835 66.3272C22.3769 66.0638 22.2108 65.4648 22.4645 64.9885C22.7176 64.5122 23.2957 64.3424 23.7531 64.6038C32.8484 69.8306 44.4508 70.4491 54.034 66.2174C54.5161 66.0045 55.0722 66.2376 55.2779 66.7382C55.4823 67.2388 55.2584 67.8168 54.7763 68.0297C50.3179 69.9984 45.4449 70.9713 40.5673 70.9713Z"
        fill="white" />
    <path
        d="M53.9457 73.6312C53.0341 74.181 52.0757 74.6418 51.1069 75.0191C48.9565 75.8552 46.6544 76.147 44.3846 76.2622C41.9079 76.3875 39.4279 76.2716 36.9524 76.1577C35.8883 76.1092 34.8196 76.0957 33.7587 75.9927C32.7873 75.8983 31.8205 75.7393 30.868 75.5123C29.8973 75.2805 28.9369 74.9794 28.0181 74.5657C27.6937 74.4195 27.3751 74.2537 27.0643 74.0739C23.6402 74.7031 21.5398 75.5494 21.5398 76.4805C21.5398 78.4242 30.6811 80 41.9565 80C53.232 80 62.3733 78.4242 62.3733 76.4805C62.3739 75.3082 59.0517 74.2706 53.9457 73.6312Z"
        fill="white" />
    <path
        d="M45.8037 11.3255C45.3275 11.3255 44.918 10.9543 44.8629 10.4516C44.6137 8.17375 45.0751 5.81971 46.1626 3.82411C46.4208 3.3498 47.0003 3.18541 47.4545 3.45154C47.91 3.71968 48.0709 4.31998 47.8133 4.79294C46.9217 6.43012 46.5428 8.36105 46.7472 10.23C46.8062 10.7703 46.4325 11.2581 45.9121 11.3187C45.8751 11.3235 45.8394 11.3255 45.8037 11.3255Z"
        fill="white" />
    <path
        d="M36.3775 11.2204C35.8961 11.2204 35.4827 10.8404 35.4347 10.3318C35.2128 7.98177 34.4913 6.20244 33.0248 4.38066C32.6887 3.96429 32.7419 3.3431 33.1442 2.99411C33.5459 2.64444 34.1435 2.69969 34.4796 3.11808C36.1868 5.23698 37.0634 7.40236 37.3229 10.1391C37.3742 10.6801 36.9933 11.1618 36.4716 11.215C36.4405 11.2191 36.4087 11.2204 36.3775 11.2204Z"
        fill="white" />
    <path
        d="M15.3398 75.8869C15.1458 75.8869 14.9505 75.8256 14.7812 75.6976C8.12114 70.6493 2.89189 63.4417 0.0582658 55.4013C-0.12212 54.8906 0.13029 54.3253 0.622783 54.1387C1.11398 53.9501 1.65903 54.2142 1.83877 54.7249C4.54586 62.4028 9.53957 69.2863 15.9005 74.1069C16.3235 74.4283 16.4157 75.0434 16.1074 75.4833C15.9212 75.7474 15.6325 75.8869 15.3398 75.8869Z"
        fill="white" />
    <path
        d="M11.3045 77.5598C11.1611 77.5598 11.0164 77.5268 10.8795 77.4553C6.31467 75.0757 2.68423 70.8568 0.918653 65.8799C0.736969 65.3699 0.988732 64.8039 1.48058 64.616C1.96918 64.4266 2.51617 64.6881 2.69786 65.1994C4.29992 69.7121 7.59229 73.5376 11.7308 75.6955C12.1986 75.9394 12.3875 76.5317 12.1532 77.0174C11.9858 77.361 11.6516 77.5598 11.3045 77.5598Z"
        fill="white" />
    <path
        d="M58.0712 14.4139C57.9641 14.4139 57.8564 14.3951 57.75 14.3553C57.2575 14.1714 57.0018 13.6075 57.179 13.0961C58.2989 9.86285 59.8316 6.7987 61.7347 3.9872C62.0358 3.54119 62.6295 3.43676 63.0558 3.74735C63.4841 4.05996 63.5872 4.67441 63.2868 5.11907C61.4804 7.78707 60.0262 10.6949 58.9634 13.7624C58.8245 14.164 58.4592 14.4139 58.0712 14.4139Z"
        fill="white" />
    <path
        d="M64.5859 18.422C64.3309 18.422 64.0771 18.3155 63.8903 18.1067C63.5347 17.7071 63.5574 17.0846 63.9415 16.7154L75.7867 5.32995C76.1695 4.96007 76.7697 4.98432 77.1259 5.38385C77.4815 5.7827 77.4588 6.40523 77.074 6.77443L65.2302 18.1599C65.0472 18.3357 64.8169 18.422 64.5859 18.422Z"
        fill="white" />
    <path
        d="M70.0137 24.7335C69.6386 24.7335 69.2837 24.5017 69.1338 24.1184C68.9372 23.6144 69.1714 23.0404 69.6574 22.8363L78.6956 19.0377C79.1835 18.8336 79.7331 19.0775 79.9304 19.5814C80.127 20.0854 79.8927 20.6594 79.4067 20.8636L70.3686 24.6621C70.2524 24.7099 70.1318 24.7335 70.0137 24.7335Z"
        fill="white" />
</svg>
