<svg width="19" height="19" viewBox="0 0 19 19" fill="none" xmlns="http://www.w3.org/2000/svg">
<path d="M13.5 8.025C13.2167 8.025 12.979 7.929 12.787 7.737C12.5957 7.54567 12.5 7.30833 12.5 7.025C12.5 6.74167 12.5957 6.504 12.787 6.312C12.979 6.12067 13.2167 6.025 13.5 6.025C13.7833 6.025 14.0207 6.12067 14.212 6.312C14.404 6.504 14.5 6.74167 14.5 7.025C14.5 7.30833 14.404 7.54567 14.212 7.737C14.0207 7.929 13.7833 8.025 13.5 8.025ZM10.525 5.075C10.3583 4.90833 10.275 4.71667 10.275 4.5C10.275 4.28333 10.3667 4.10833 10.55 3.975C10.9833 3.65833 11.45 3.41667 11.95 3.25C12.45 3.08333 12.9667 3 13.5 3C14.0333 3 14.55 3.08333 15.05 3.25C15.55 3.41667 16.0167 3.65833 16.45 3.975C16.6333 4.10833 16.725 4.28333 16.725 4.5C16.725 4.71667 16.6417 4.90833 16.475 5.075C16.3417 5.20833 16.1833 5.279 16 5.287C15.8167 5.29567 15.6417 5.24167 15.475 5.125C15.1917 4.925 14.8833 4.77067 14.55 4.662C14.2167 4.554 13.8667 4.5 13.5 4.5C13.1333 4.5 12.7833 4.554 12.45 4.662C12.1167 4.77067 11.8083 4.925 11.525 5.125C11.3583 5.24167 11.1833 5.29567 11 5.287C10.8167 5.279 10.6583 5.20833 10.525 5.075ZM8.425 2.925C8.25833 2.75833 8.175 2.56667 8.175 2.35C8.175 2.13333 8.25833 1.95833 8.425 1.825C9.14167 1.24167 9.93333 0.791667 10.8 0.475C11.6667 0.158333 12.5667 0 13.5 0C14.4333 0 15.3333 0.158333 16.2 0.475C17.0667 0.791667 17.8583 1.24167 18.575 1.825C18.7417 1.95833 18.825 2.13333 18.825 2.35C18.825 2.56667 18.7417 2.75833 18.575 2.925C18.4417 3.05833 18.2833 3.129 18.1 3.137C17.9167 3.14567 17.75 3.08333 17.6 2.95C17.0167 2.48333 16.375 2.125 15.675 1.875C14.975 1.625 14.25 1.5 13.5 1.5C12.75 1.5 12.025 1.625 11.325 1.875C10.625 2.125 9.98333 2.48333 9.4 2.95C9.25 3.08333 9.08333 3.14567 8.9 3.137C8.71667 3.129 8.55833 3.05833 8.425 2.925ZM16.95 18.025C14.8 18.025 12.7043 17.5457 10.663 16.587C8.621 15.629 6.81267 14.3623 5.238 12.787C3.66267 11.2123 2.396 9.404 1.438 7.362C0.479334 5.32067 0 3.225 0 1.075C0 0.775 0.0999999 0.525 0.3 0.325C0.5 0.125 0.75 0.0250001 1.05 0.0250001H5.1C5.33333 0.0250001 5.54167 0.1 5.725 0.25C5.90833 0.4 6.01667 0.591667 6.05 0.825L6.7 4.325C6.73333 4.55833 6.72933 4.77067 6.688 4.962C6.646 5.154 6.55 5.325 6.4 5.475L4 7.925C4.7 9.125 5.575 10.25 6.625 11.3C7.675 12.35 8.83333 13.2583 10.1 14.025L12.45 11.675C12.6 11.525 12.796 11.4123 13.038 11.337C13.2793 11.2623 13.5167 11.2417 13.75 11.275L17.2 11.975C17.4333 12.025 17.625 12.1373 17.775 12.312C17.925 12.4873 18 12.6917 18 12.925V16.975C18 17.275 17.9 17.525 17.7 17.725C17.5 17.925 17.25 18.025 16.95 18.025Z" fill="#52229E"/>
</svg>
