<svg width="24" height="25" viewBox="0 0 24 25" fill="none" xmlns="http://www.w3.org/2000/svg">
<path fill-rule="evenodd" clip-rule="evenodd" d="M20.0306 8.52016L14.7806 3.27016C14.6399 3.12954 14.449 3.05062 14.25 3.05078H5.25C4.42157 3.05078 3.75 3.72235 3.75 4.55078V21.0508C3.75 21.8792 4.42157 22.5508 5.25 22.5508H18.75C19.5784 22.5508 20.25 21.8792 20.25 21.0508V9.05078C20.2502 8.85181 20.1712 8.66093 20.0306 8.52016ZM15 5.61109L17.6897 8.30078H15V5.61109ZM18.75 21.0508H5.25V4.55078H13.5V9.05078C13.5 9.46499 13.8358 9.80078 14.25 9.80078H18.75V21.0508ZM15.75 13.5508C15.75 13.965 15.4142 14.3008 15 14.3008H9C8.58579 14.3008 8.25 13.965 8.25 13.5508C8.25 13.1366 8.58579 12.8008 9 12.8008H15C15.4142 12.8008 15.75 13.1366 15.75 13.5508ZM15.75 16.5508C15.75 16.965 15.4142 17.3008 15 17.3008H9C8.58579 17.3008 8.25 16.965 8.25 16.5508C8.25 16.1366 8.58579 15.8008 9 15.8008H15C15.4142 15.8008 15.75 16.1366 15.75 16.5508Z" fill="#B35000"/>
</svg>
