<svg width="30" height="28" viewBox="0 0 30 28" fill="none" xmlns="http://www.w3.org/2000/svg">
<path d="M15.0411 0.436523L11.935 6.7304L4.98941 7.73952L10.0152 12.6386L8.82884 19.5561L15.0411 16.2901L21.2534 19.5561L20.067 12.6386L25.0928 7.73959L18.1473 6.73046L15.0411 0.436523ZM6.00047 17.3016L4.33334 20.6798L0.605469 21.2213L3.30297 23.8509L2.66622 27.5636L6.00047 25.8106L9.33472 27.5635L8.69797 23.8508L11.3955 21.2213L7.66759 20.6798L6.00047 17.3016ZM24.0005 17.3016L22.3333 20.6798L18.6055 21.2213L21.303 23.8509L20.6662 27.5636L24.0005 25.8106L27.3347 27.5635L26.698 23.8508L29.3955 21.2213L25.6676 20.6798L24.0005 17.3016Z" fill="#FF9900"/>
</svg>
