<svg width="21" height="20" viewBox="0 0 21 20" fill="none" xmlns="http://www.w3.org/2000/svg">
<path d="M2.16699 2.5V1.875C2.00123 1.875 1.84226 1.94085 1.72505 2.05806C1.60784 2.17527 1.54199 2.33424 1.54199 2.5H2.16699ZM11.3337 2.5H11.9587C11.9587 2.33424 11.8928 2.17527 11.7756 2.05806C11.6584 1.94085 11.4994 1.875 11.3337 1.875V2.5ZM11.3337 7.5V6.875C11.1679 6.875 11.0089 6.94085 10.8917 7.05806C10.7745 7.17527 10.7087 7.33424 10.7087 7.5H11.3337ZM2.16699 3.125H11.3337V1.875H2.16699V3.125ZM10.7087 2.5V15.8333H11.9587V2.5H10.7087ZM2.79199 14.1667V2.5H1.54199V14.1667H2.79199ZM11.3337 8.125H15.5003V6.875H11.3337V8.125ZM18.2087 10.8333V14.1667H19.4587V10.8333H18.2087ZM11.9587 15.8333V7.5H10.7087V15.8333H11.9587ZM16.237 16.57C16.1403 16.6668 16.0254 16.7435 15.899 16.7959C15.7726 16.8482 15.6371 16.8752 15.5003 16.8752C15.3635 16.8752 15.228 16.8482 15.1016 16.7959C14.9752 16.7435 14.8604 16.6668 14.7637 16.57L13.8803 17.4533C14.3101 17.8831 14.893 18.1245 15.5007 18.1245C16.1085 18.1245 16.6914 17.8831 17.1212 17.4533L16.237 16.57ZM14.7637 15.0967C14.8604 14.9999 14.9752 14.9232 15.1016 14.8708C15.228 14.8184 15.3635 14.7915 15.5003 14.7915C15.6371 14.7915 15.7726 14.8184 15.899 14.8708C16.0254 14.9232 16.1403 14.9999 16.237 15.0967L17.1203 14.2133C16.6906 13.7836 16.1077 13.5422 15.4999 13.5422C14.8921 13.5422 14.3093 13.7836 13.8795 14.2133L14.7637 15.0967ZM6.23699 16.57C6.14026 16.6668 6.02542 16.7435 5.89902 16.7959C5.77262 16.8482 5.63714 16.8752 5.50033 16.8752C5.36351 16.8752 5.22803 16.8482 5.10163 16.7959C4.97523 16.7435 4.86039 16.6668 4.76366 16.57L3.88033 17.4533C4.31009 17.8831 4.89297 18.1245 5.50074 18.1245C6.10851 18.1245 6.69139 17.8831 7.12116 17.4533L6.23699 16.57ZM4.76366 15.0967C4.86039 14.9999 4.97523 14.9232 5.10163 14.8708C5.22803 14.8184 5.36351 14.7915 5.50033 14.7915C5.63714 14.7915 5.77262 14.8184 5.89902 14.8708C6.02542 14.9232 6.14026 14.9999 6.23699 15.0967L7.12033 14.2133C6.69056 13.7836 6.10768 13.5422 5.49991 13.5422C4.89214 13.5422 4.30926 13.7836 3.87949 14.2133L4.76366 15.0967ZM16.237 15.0967C16.4403 15.3 16.542 15.5658 16.542 15.8333H17.792C17.792 15.2475 17.5678 14.66 17.1212 14.2125L16.237 15.0967ZM16.542 15.8333C16.542 16.1008 16.4403 16.3667 16.237 16.57L17.1212 17.4533C17.3344 17.2409 17.5026 16.9884 17.6179 16.7104C17.7332 16.4324 17.7923 16.1343 17.792 15.8333H16.542ZM13.8337 15.2083H11.3337V16.4583H13.8337V15.2083ZM14.7637 16.57C14.6666 16.4735 14.5896 16.3587 14.5372 16.2323C14.4849 16.1058 14.4582 15.9702 14.4587 15.8333H13.2087C13.2087 16.4192 13.4328 17.0067 13.8795 17.4542L14.7637 16.57ZM14.4587 15.8333C14.4587 15.5658 14.5603 15.3 14.7637 15.0967L13.8795 14.2133C13.6663 14.4258 13.498 14.6783 13.3828 14.9563C13.2675 15.2343 13.2083 15.5324 13.2087 15.8333H14.4587ZM4.76366 16.57C4.66657 16.4735 4.58961 16.3587 4.53725 16.2323C4.48489 16.1058 4.45818 15.9702 4.45866 15.8333H3.20866C3.20866 16.4192 3.43283 17.0067 3.87949 17.4542L4.76366 16.57ZM4.45866 15.8333C4.45866 15.5658 4.56033 15.3 4.76366 15.0967L3.88033 14.2133C3.66713 14.4258 3.49803 14.6783 3.38276 14.9563C3.26749 15.2343 3.20832 15.5324 3.20866 15.8333H4.45866ZM11.3337 15.2083H7.16699V16.4583H11.3337V15.2083ZM6.23699 15.0967C6.44033 15.3 6.54199 15.5658 6.54199 15.8333H7.79199C7.79199 15.2475 7.56783 14.66 7.12116 14.2125L6.23699 15.0967ZM6.54199 15.8333C6.54199 16.1008 6.44033 16.3667 6.23699 16.57L7.12033 17.4533C7.33352 17.2409 7.50262 16.9884 7.61789 16.7104C7.73316 16.4324 7.79233 16.1343 7.79199 15.8333H6.54199ZM18.2087 14.1667C18.2087 14.7417 17.742 15.2083 17.167 15.2083V16.4583C17.7748 16.4583 18.3577 16.2169 18.7874 15.7871C19.2172 15.3573 19.4587 14.7745 19.4587 14.1667H18.2087ZM15.5003 8.125C16.2186 8.125 16.9075 8.41034 17.4154 8.91825C17.9233 9.42616 18.2087 10.115 18.2087 10.8333H19.4587C19.4587 9.78352 19.0416 8.7767 18.2993 8.03437C17.557 7.29204 16.5501 6.875 15.5003 6.875V8.125ZM1.54199 14.1667C1.54199 14.7745 1.78344 15.3573 2.21321 15.7871C2.64298 16.2169 3.22587 16.4583 3.83366 16.4583V15.2083C3.25866 15.2083 2.79199 14.7417 2.79199 14.1667H1.54199Z" fill="#250266"/>
</svg>
