<svg width="24" height="25" viewBox="0 0 24 25" fill="none" xmlns="http://www.w3.org/2000/svg">
<path d="M15 10.8008L19.553 8.52478C19.7054 8.44862 19.8748 8.41266 20.045 8.42033C20.2152 8.42799 20.3806 8.47903 20.5256 8.56859C20.6706 8.65815 20.7902 8.78326 20.8733 8.93205C20.9563 9.08085 20.9999 9.24839 21 9.41878V16.1828C20.9999 16.3532 20.9563 16.5207 20.8733 16.6695C20.7902 16.8183 20.6706 16.9434 20.5256 17.033C20.3806 17.1225 20.2152 17.1736 20.045 17.1812C19.8748 17.1889 19.7054 17.1529 19.553 17.0768L15 14.8008V10.8008ZM3 8.80078C3 8.27035 3.21071 7.76164 3.58579 7.38657C3.96086 7.01149 4.46957 6.80078 5 6.80078H13C13.5304 6.80078 14.0391 7.01149 14.4142 7.38657C14.7893 7.76164 15 8.27035 15 8.80078V16.8008C15 17.3312 14.7893 17.8399 14.4142 18.215C14.0391 18.5901 13.5304 18.8008 13 18.8008H5C4.46957 18.8008 3.96086 18.5901 3.58579 18.215C3.21071 17.8399 3 17.3312 3 16.8008V8.80078Z" stroke="#B35000" stroke-width="2" stroke-linecap="round" stroke-linejoin="round"/>
</svg>
