<svg fill="none" height="32" viewBox="0 0 32 32" width="32" xmlns="http://www.w3.org/2000/svg">
    <path
        d="M30.8133 5.91064H1.18667C0.530667 5.91064 0 6.44264 0 7.09864V24.9026C0 25.5586 0.530667 26.0906 1.18667 26.0906H30.8133C31.4693 26.0906 32 25.5586 32 24.9026V7.09864C32 6.44264 31.4693 5.91064 30.8133 5.91064ZM6.27733 20.2493L4.52667 13.4693C4.41867 13.0506 4.32667 12.8986 4.004 12.7213C3.47467 12.436 2.604 12.168 1.83467 12L1.888 11.7533H5.62667C6.10267 11.7533 6.532 12.0706 6.64 12.62L7.56533 17.5373L9.85333 11.7533H12.1627L8.60267 20.2493H6.27733ZM11.2867 20.2493L13.1053 11.7533H15.304L13.4853 20.2493H11.2867ZM17.4387 20.384C16.456 20.372 15.5067 20.168 14.9933 19.932L15.3907 18.0693C15.9027 18.308 16.544 18.624 17.6493 18.6066C18.2813 18.596 18.9587 18.3466 18.964 17.776C18.9667 17.4026 18.6813 17.136 17.824 16.72C16.9907 16.3133 15.8853 15.6306 15.9 14.408C15.9133 12.7546 17.4427 11.6 19.6147 11.6C20.46 11.6 21.1413 11.784 21.6707 11.976L21.2853 13.7773C20.3013 13.3253 19.4333 13.356 19.1173 13.3986C18.4827 13.48 18.192 13.804 18.1853 14.1106C18.1627 15.1133 21.2747 15.236 21.264 17.4773C21.2587 19.2413 19.748 20.384 17.4387 20.384ZM27.0027 20.2493L26.7373 18.98H23.9173L23.46 20.2493H21.1533L24.4493 12.376C24.6067 12 24.9613 11.7533 25.384 11.7533H27.26L29.0347 20.2493H27.0027ZM24.5493 17.2386H26.372L25.7067 14.048L24.5493 17.2386Z"
        fill="#FF9900" />
</svg>
