<svg fill="none" height="32" viewBox="0 0 32 32" width="32" xmlns="http://www.w3.org/2000/svg">
    <path
        d="M2.67322 5.33309C2.67322 4.5967 3.27018 3.99976 4.00655 3.99976H28.0066C28.743 3.99976 29.3399 4.5967 29.3399 5.33309V12.6664C27.499 12.6664 26.0066 14.1588 26.0066 15.9998C26.0066 17.8407 27.499 19.3331 29.3399 19.3331V26.6664C29.3399 27.4028 28.743 27.9998 28.0066 27.9998H4.00655C3.27018 27.9998 2.67322 27.4028 2.67322 26.6664V5.33309ZM10.787 25.3331C11.0616 24.5563 11.8024 23.9998 12.6732 23.9998C13.544 23.9998 14.2848 24.5563 14.5594 25.3331H26.6732V21.376C24.6976 20.3943 23.3399 18.3555 23.3399 15.9998C23.3399 13.6439 24.6976 11.6052 26.6732 10.6234V6.66642H14.5594C14.2848 7.44321 13.544 7.99976 12.6732 7.99976C11.8024 7.99976 11.0616 7.44321 10.787 6.66642H5.33988V25.3331H10.787ZM12.6732 14.6664C11.5687 14.6664 10.6732 13.771 10.6732 12.6664C10.6732 11.5618 11.5687 10.6664 12.6732 10.6664C13.7778 10.6664 14.6732 11.5618 14.6732 12.6664C14.6732 13.771 13.7778 14.6664 12.6732 14.6664ZM12.6732 21.3331C11.5687 21.3331 10.6732 20.4376 10.6732 19.3331C10.6732 18.2286 11.5687 17.3331 12.6732 17.3331C13.7778 17.3331 14.6732 18.2286 14.6732 19.3331C14.6732 20.4376 13.7778 21.3331 12.6732 21.3331Z"
        fill="#FF9900" />
</svg>
