<svg fill="none" height="24" viewBox="0 0 24 24" width="24" xmlns="http://www.w3.org/2000/svg">
    <path
        d="M19.335 10.5825C19.3366 10.555 19.3366 10.5275 19.335 10.5V8.6175C19.335 8.6175 19.335 8.55 19.335 8.52C19.335 8.49 19.335 8.52 19.335 8.475V6.3075C19.3741 5.67039 19.1593 5.04373 18.7377 4.56449C18.3161 4.08525 17.7219 3.79241 17.085 3.75H5.25002C4.61312 3.79241 4.01892 4.08525 3.5973 4.56449C3.17568 5.04373 2.96094 5.67039 3.00002 6.3075V17.6925C2.96094 18.3296 3.17568 18.9563 3.5973 19.4355C4.01892 19.9148 4.61312 20.2076 5.25002 20.25H17.115C17.7519 20.2076 18.3461 19.9148 18.7677 19.4355C19.1894 18.9563 19.4041 18.3296 19.365 17.6925V16.5C19.3666 16.4725 19.3666 16.445 19.365 16.4175C19.8364 16.2836 20.2512 15.9994 20.5463 15.6081C20.8414 15.2169 21.0007 14.74 21 14.25V12.75C20.9989 12.256 20.8353 11.7762 20.5343 11.3845C20.2334 10.9927 19.812 10.7109 19.335 10.5825ZM5.25002 5.25H17.115C17.4825 5.25 17.805 5.6925 17.865 6.21C17.6273 6.11117 17.3724 6.0602 17.115 6.06H5.25002C4.99416 6.06203 4.74052 6.10768 4.50002 6.195C4.55252 5.6775 4.86752 5.25 5.25002 5.25ZM17.85 17.6925C17.85 18.255 17.505 18.75 17.1 18.75H5.25002C4.86002 18.75 4.50002 18.255 4.50002 17.6925V8.31C4.50002 8.11109 4.57903 7.92032 4.71969 7.77967C4.86034 7.63902 5.0511 7.56 5.25002 7.56H17.115C17.505 7.56 17.865 8.055 17.865 8.6175V10.5H15C14.4033 10.5 13.831 10.7371 13.409 11.159C12.9871 11.581 12.75 12.1533 12.75 12.75V14.25C12.75 14.8467 12.9871 15.419 13.409 15.841C13.831 16.2629 14.4033 16.5 15 16.5H17.85V17.6925ZM19.5 14.25C19.5 14.4489 19.421 14.6397 19.2803 14.7803C19.1397 14.921 18.9489 15 18.75 15H15C14.8011 15 14.6103 14.921 14.4697 14.7803C14.329 14.6397 14.25 14.4489 14.25 14.25V12.75C14.25 12.5511 14.329 12.3603 14.4697 12.2197C14.6103 12.079 14.8011 12 15 12H18.75C18.9489 12 19.1397 12.079 19.2803 12.2197C19.421 12.3603 19.5 12.5511 19.5 12.75V14.25Z"
        fill="#FF9900" />
    <path
        d="M15.7875 14.4298C16.2887 14.4298 16.695 14.0134 16.695 13.4998C16.695 12.9862 16.2887 12.5698 15.7875 12.5698C15.2863 12.5698 14.88 12.9862 14.88 13.4998C14.88 14.0134 15.2863 14.4298 15.7875 14.4298Z"
        fill="#FF9900" />
    <path
        d="M6.37499 15.5024C6.20358 15.4128 6.00416 15.3928 5.81838 15.4467C5.6326 15.5006 5.47483 15.6242 5.37802 15.7917C5.28121 15.9591 5.25286 16.1575 5.29888 16.3454C5.3449 16.5333 5.46174 16.6962 5.62499 16.7999C5.96499 16.9986 6.24688 17.2831 6.44249 17.6249C6.48938 17.7146 6.55391 17.7938 6.6322 17.8578C6.7105 17.9219 6.80094 17.9694 6.89809 17.9976C6.99523 18.0258 7.09708 18.034 7.19749 18.0218C7.2979 18.0096 7.39481 17.9772 7.48239 17.9266C7.56996 17.876 7.64639 17.8082 7.70708 17.7273C7.76776 17.6463 7.81145 17.554 7.83552 17.4557C7.85958 17.3575 7.86353 17.2554 7.84711 17.1556C7.83069 17.0558 7.79425 16.9603 7.73999 16.8749C7.41294 16.3059 6.94226 15.8326 6.37499 15.5024Z"
        fill="#FF9900" />
    <path
        d="M6.21005 12.9974C6.01909 12.9407 5.81344 12.9622 5.63833 13.0571C5.46321 13.152 5.33299 13.3127 5.2763 13.5036C5.21961 13.6946 5.2411 13.9002 5.33604 14.0753C5.43098 14.2505 5.59159 14.3807 5.78255 14.4374C6.49073 14.6522 7.135 15.0383 7.65829 15.5616C8.18158 16.0849 8.56773 16.7292 8.78255 17.4374C8.81062 17.5319 8.85704 17.62 8.91915 17.6966C8.98127 17.7732 9.05787 17.8369 9.14458 17.8839C9.23128 17.9309 9.3264 17.9604 9.4245 17.9706C9.52259 17.9809 9.62175 17.9717 9.7163 17.9436C9.81085 17.9155 9.89895 17.8691 9.97556 17.807C10.0522 17.7449 10.1158 17.6683 10.1628 17.5816C10.2098 17.4949 10.2393 17.3998 10.2495 17.3017C10.2598 17.2036 10.2506 17.1044 10.2225 17.0099C9.93673 16.0619 9.42075 15.1994 8.72063 14.4993C8.02051 13.7992 7.15801 13.2832 6.21005 12.9974Z"
        fill="#FF9900" />
    <path
        d="M6.14996 10.6652C6.05147 10.6455 5.95007 10.6454 5.85153 10.6649C5.753 10.6844 5.65927 10.7231 5.5757 10.7788C5.40692 10.8914 5.28975 11.0663 5.24996 11.2652C5.21018 11.4642 5.25105 11.6707 5.36357 11.8395C5.47609 12.0083 5.65105 12.1255 5.84996 12.1652C7.14243 12.4314 8.32855 13.0705 9.26163 14.0036C10.1947 14.9367 10.8338 16.1228 11.1 17.4152C11.135 17.5872 11.2293 17.7414 11.3663 17.851C11.5034 17.9607 11.6745 18.0188 11.85 18.0152H12C12.0965 17.9956 12.1882 17.9571 12.2698 17.9019C12.3515 17.8468 12.4215 17.7761 12.4758 17.6939C12.5301 17.6118 12.5677 17.5197 12.5865 17.4229C12.6052 17.3262 12.6047 17.2268 12.585 17.1302C12.2669 15.5393 11.4868 14.0774 10.3422 12.9275C9.19765 11.7776 7.73943 10.9907 6.14996 10.6652Z"
        fill="#FF9900" />
</svg>
