<svg fill="none" height="64" viewBox="0 0 64 64" width="64" xmlns="http://www.w3.org/2000/svg">
    <g clip-path="url(#clip0_172_2980)">
        <path
            d="M49.4583 61.646H47.9638V54.0289C47.9638 53.9483 47.9534 53.8701 47.9337 53.7954L47.9311 53.7857C47.8836 53.6132 47.7869 53.4598 47.6561 53.3401L47.6531 53.3373L47.6223 53.3106L47.5827 53.2791L47.5637 53.2652C47.5276 53.2394 47.4895 53.2158 47.4499 53.1948L47.4212 53.1801C47.3801 53.16 47.3372 53.1425 47.293 53.1279L47.28 53.1237C47.1817 53.0927 47.0768 53.0759 46.9677 53.0759H42.8737C42.8584 52.779 42.8111 52.4915 42.7357 52.2177C42.728 52.1895 42.7199 52.1615 42.7116 52.1336C42.6865 52.0498 42.6588 51.9674 42.6286 51.8865C42.6134 51.8461 42.5976 51.806 42.5813 51.7663L42.5647 51.7268C42.5479 51.6873 42.5305 51.6483 42.5125 51.6097C42.4526 51.4809 42.3859 51.3567 42.3131 51.2377C42.2403 51.1186 42.1614 51.0047 42.0769 50.8966L42.0514 50.8643C41.8887 50.6611 41.706 50.4788 41.5069 50.3217L41.4753 50.2971C40.968 49.9069 40.3574 49.6785 39.7022 49.6785H37.2181H37.2196H36.1576C33.9977 44.5733 32.3936 38.87 32.1155 33.1544C32.2971 33.096 32.4742 33.0236 32.6444 32.9373C33.2641 32.623 33.8013 32.1153 34.0645 31.4723C34.3276 30.8293 34.2871 30.0489 33.8831 29.4837C33.5669 29.0413 33.069 28.7642 32.7069 28.3584C32.3722 27.9834 32.236 27.3755 32.4493 26.981H32.4496C33.1492 25.8544 33.9409 24.8028 34.758 23.7729C36.8395 23.5061 38.8796 22.8732 40.6317 21.6911C42.1945 20.6367 43.4754 19.2202 44.4122 17.5867C45.241 16.1416 45.8147 14.5469 46.1776 12.9237C46.4694 11.6179 46.6381 10.2787 46.6927 8.94192C46.7177 8.33155 46.7318 7.71115 46.6809 7.10135L46.6789 7.07549C46.6468 6.68768 46.3753 6.35577 45.9592 6.35577H41.8017C41.7634 5.89676 41.7087 5.43945 41.6372 4.98513H41.6371V4.98484L41.6371 4.98372C41.6371 4.89248 41.5021 4.80412 41.2493 4.72027L41.2315 4.71442C40.8832 4.60161 40.3216 4.49702 39.5892 4.40466L39.5512 4.3999C39.3221 4.37137 39.0766 4.34399 38.8161 4.31795L38.7725 4.31363C38.6123 4.29776 38.4464 4.28243 38.2752 4.26761C38.2441 4.2649 38.2128 4.26223 38.1813 4.25956C38.1498 4.25689 38.1182 4.25426 38.0863 4.25163L38.0385 4.2477C38.0065 4.2451 37.9743 4.2425 37.942 4.23991C37.8935 4.23605 37.8446 4.23223 37.7953 4.22844C37.7461 4.22465 37.6964 4.2209 37.6464 4.21719C37.5797 4.21225 37.5124 4.20738 37.4445 4.20258C37.3935 4.19897 37.3421 4.1954 37.2904 4.1919C37.2732 4.19071 37.2559 4.18956 37.2386 4.18841C37.204 4.18606 37.1692 4.18375 37.1343 4.18148C37.0644 4.1769 36.9939 4.17243 36.9228 4.16799C36.8872 4.16579 36.8515 4.16359 36.8156 4.16143C36.7977 4.16035 36.7798 4.15927 36.7618 4.15818C36.7258 4.15606 36.6896 4.15393 36.6533 4.1518C36.4537 4.14019 36.2495 4.12915 36.0412 4.11873C36.0033 4.11682 35.9653 4.11498 35.9271 4.1131C35.8127 4.10755 35.697 4.10217 35.5801 4.09698C35.5412 4.09525 35.5021 4.09355 35.4629 4.09186C35.4432 4.09103 35.4236 4.0902 35.4039 4.08937C35.3646 4.08771 35.3251 4.08609 35.2855 4.08443C35.2063 4.08118 35.1266 4.07805 35.0464 4.07498C34.9061 4.06961 34.7642 4.06452 34.6209 4.05969C34.5799 4.05832 34.5389 4.05695 34.4977 4.05561C34.4565 4.05428 34.4152 4.05294 34.3738 4.05168C34.3531 4.05103 34.3324 4.05042 34.3117 4.04977C34.2701 4.04851 34.2285 4.04725 34.1868 4.04602C34.145 4.04479 34.1032 4.0436 34.0612 4.04245C33.0751 4.01486 32.0286 4 30.9444 4C30.9056 4 30.867 4.00004 30.8283 4.00007H30.7968L30.773 4.00011C30.7531 4.00014 30.7331 4.00018 30.7132 4.00022H30.7042C30.6875 4.00025 30.6707 4.00029 30.654 4.00036C30.5947 4.0005 30.5355 4.00069 30.4765 4.0009L30.429 4.00108C30.4085 4.00119 30.388 4.0013 30.3676 4.00137C30.3346 4.00155 30.3016 4.0017 30.2687 4.00188C30.2437 4.00202 30.2188 4.00216 30.1939 4.00234L30.1878 4.00238L30.1411 4.0027L30.1107 4.00289L30.0666 4.00321L30.0427 4.00339C30.0252 4.00353 30.0076 4.00364 29.9901 4.00379L29.9737 4.00393L29.9302 4.00429C29.8911 4.00462 29.8521 4.00501 29.8132 4.00537C29.7883 4.00563 29.7635 4.00588 29.7388 4.00613L29.7113 4.00642L29.703 4.00653C29.6835 4.00674 29.664 4.00692 29.6445 4.00714C29.6253 4.00736 29.6061 4.00757 29.587 4.00779L29.5811 4.00786C29.5608 4.00811 29.5405 4.00833 29.5202 4.00858L29.5123 4.00869L29.4648 4.0093C29.4485 4.00952 29.4322 4.00974 29.416 4.00995L29.4036 4.01013C29.3586 4.01071 29.3137 4.01132 29.2689 4.01197L29.2525 4.01223L29.2396 4.01244C29.2033 4.01298 29.1669 4.01352 29.1307 4.0141L29.1146 4.01435L29.091 4.01475C29.0503 4.0154 29.0098 4.01609 28.9692 4.01677L28.9361 4.01735L28.9087 4.01785L28.863 4.01865L28.8428 4.01901L28.7952 4.01991L28.7701 4.02038L28.7318 4.0211C28.6606 4.02247 28.5897 4.02391 28.5191 4.02543L28.5155 4.0255C28.4712 4.02647 28.4269 4.02741 28.3828 4.02842L28.3476 4.02921L28.3163 4.02993L28.2927 4.03051L28.2511 4.03149C28.1913 4.03289 28.1317 4.03437 28.0723 4.03589C28.0319 4.03693 27.9917 4.03798 27.9515 4.03906L27.9221 4.03985C27.9052 4.04032 27.8883 4.04075 27.8714 4.04122L27.86 4.04155C27.843 4.04198 27.826 4.04249 27.809 4.04299L27.7821 4.04375L27.7441 4.04483L27.7141 4.04573L27.6867 4.04652C27.6441 4.04779 27.6015 4.04905 27.559 4.05035C27.5006 4.05215 27.4423 4.05399 27.3843 4.05587L27.3424 4.05724L27.3203 4.05796L27.2956 4.05879C27.2581 4.06001 27.2207 4.06131 27.1834 4.06257L27.1523 4.06366L27.1173 4.06488L27.0924 4.06575C27.0272 4.06806 26.9622 4.07044 26.8976 4.07285L26.8654 4.07408L26.8351 4.07523L26.8012 4.07653L26.7687 4.07779L26.742 4.07888L26.695 4.08071L26.6815 4.08126L26.6433 4.08277L26.6041 4.08436L26.6009 4.0845C26.5625 4.08605 26.5242 4.08768 26.486 4.0893C26.4648 4.0902 26.4435 4.0911 26.4223 4.092C26.3862 4.09355 26.3503 4.09514 26.3144 4.09673L26.3048 4.09716L26.2683 4.09878L26.236 4.10023C26.1842 4.10257 26.1326 4.10495 26.0812 4.10737L26.0435 4.10913L26.0215 4.11018L26.01 4.11072C25.965 4.11288 25.9202 4.11505 25.8757 4.11729C25.8411 4.11898 25.8066 4.12071 25.7723 4.12248L25.7538 4.12342L25.7245 4.12493L25.6887 4.12677L25.6655 4.128C25.6147 4.13063 25.5642 4.13333 25.5139 4.13608C25.4935 4.13719 25.4731 4.13831 25.4528 4.13943L25.4444 4.1399C25.4266 4.14087 25.4088 4.14188 25.391 4.14286L25.3691 4.14408L25.3424 4.1456C25.3083 4.14751 25.2743 4.14949 25.2404 4.15144L25.2247 4.15238L25.1877 4.15454L25.1727 4.15541L25.132 4.15782L25.1008 4.15966L25.0739 4.16129L25.0708 4.16147C25.0201 4.16453 24.9697 4.16767 24.9196 4.17081L24.9116 4.17128L24.8646 4.17427L24.8567 4.17477L24.8246 4.17683L24.7896 4.17907L24.7707 4.18033L24.741 4.18228C24.6454 4.18855 24.5509 4.19497 24.4577 4.2015L24.4368 4.20298C24.4056 4.20518 24.3745 4.20738 24.3436 4.20965L24.3419 4.20976C24.2463 4.21668 24.152 4.22375 24.0591 4.23093L24.0393 4.23244L24.0191 4.23403L23.9898 4.23634L23.9558 4.23904L23.9392 4.24034L23.9126 4.24247L23.8823 4.24492L23.8526 4.2473L23.8484 4.24766C23.773 4.25383 23.6985 4.26007 23.625 4.26642L23.6098 4.26771C23.5828 4.27006 23.5559 4.27244 23.529 4.27482L23.5121 4.27633L23.4749 4.27965L23.4743 4.27969L23.4364 4.28311L23.417 4.28488C23.3912 4.28723 23.3656 4.28961 23.34 4.29199L23.2931 4.29639C23.2347 4.30191 23.1771 4.30746 23.1202 4.31305L23.11 4.31406L23.0815 4.31687L23.0632 4.31871C22.9833 4.32672 22.9049 4.33483 22.8279 4.34309L22.8133 4.34468C22.7893 4.34724 22.7655 4.34984 22.7419 4.35243L22.7222 4.3546L22.6994 4.35712L22.6858 4.35864L22.6635 4.36112H22.6638C21.1562 4.53067 20.2516 4.74739 20.2516 4.98354L20.2517 4.98499H20.2516C20.1802 5.4393 20.1255 5.89662 20.0872 6.35562H16.0183C15.6055 6.35562 15.3308 6.68678 15.2986 7.07535C15.2569 7.57821 15.261 8.0876 15.2733 8.59144C15.3045 9.86426 15.4447 11.1388 15.6881 12.3884C16.0017 13.998 16.5159 15.5754 17.2662 17.0358C18.1195 18.6964 19.3114 20.1583 20.7947 21.2936C22.5171 22.612 24.6082 23.3921 26.7439 23.7079C26.8696 23.7264 26.9954 23.744 27.1213 23.7604C27.5174 24.2596 27.9077 24.7638 28.2844 25.2791L28.2805 25.2771C28.6584 25.7939 29.0242 26.3208 29.3675 26.8659L29.3732 26.8749C29.3954 26.9102 29.4174 26.9455 29.4394 26.9809H29.4397C29.653 27.3754 29.5168 27.9833 29.1821 28.3583C28.82 28.7641 28.3221 29.0412 28.0059 29.4836C27.6019 30.0488 27.5614 30.8292 27.8246 31.4722C28.0877 32.1152 28.625 32.6229 29.2446 32.9372C29.4421 33.0373 29.6487 33.1188 29.861 33.1813C29.559 38.8879 27.9094 44.5813 25.737 49.6784H24.878H24.8765H22.1869C20.5022 49.6784 19.1129 51.1883 19.0153 53.0758H14.8635C14.3134 53.0758 13.8674 53.5024 13.8674 54.0288V61.6458H12.3729C11.9764 61.6458 11.655 61.9808 11.655 62.394V64.4073C11.655 64.8204 11.9764 65.1554 12.3729 65.1554H49.4584C49.8549 65.1554 50.1763 64.8204 50.1763 64.4073V62.394C50.1763 61.9809 49.8548 61.646 49.4583 61.646ZM42.5631 17.8171C42.5055 17.8995 42.4469 17.9813 42.3872 18.0623C42.3552 18.1057 42.3228 18.1487 42.2905 18.1918L42.2803 18.2058L42.2667 18.2227C41.7114 18.9184 41.0891 19.5387 40.3961 20.0969L40.3886 20.1033L40.3699 20.1167C40.3291 20.1471 40.2884 20.1776 40.2473 20.2077C40.1467 20.2813 40.0449 20.3532 39.9418 20.4234C39.7442 20.5579 39.5422 20.6859 39.3362 20.8072C38.9187 21.0532 38.4856 21.262 38.0442 21.4604C38.0195 21.4703 37.995 21.4808 37.9703 21.4908C37.9174 21.5121 37.8643 21.5331 37.8111 21.5538C37.68 21.6045 37.548 21.653 37.4153 21.6993C37.1581 21.7889 36.898 21.8702 36.6356 21.9436C36.4665 21.9908 36.2964 22.0347 36.1255 22.0755C37.4301 20.4588 38.7067 18.8226 39.6923 16.9554C39.9723 16.4252 40.226 15.8785 40.4531 15.3185C40.4771 15.2596 40.5007 15.2005 40.524 15.1413C40.559 15.0524 40.5933 14.9632 40.6269 14.8738C40.6494 14.8141 40.6715 14.7543 40.6933 14.6944C40.7916 14.4247 40.8839 14.1524 40.9701 13.8776C40.9892 13.8165 41.0081 13.7554 41.0266 13.6941C41.0452 13.6328 41.0634 13.5714 41.0814 13.5099C41.0993 13.4484 41.117 13.3868 41.1343 13.3251C41.2037 13.0782 41.2683 12.8296 41.328 12.5796C41.3429 12.5171 41.3575 12.4546 41.3718 12.3918C41.379 12.3605 41.3861 12.3292 41.3931 12.2978C41.4071 12.235 41.4208 12.1722 41.4342 12.1092C41.4409 12.0778 41.4476 12.0463 41.4541 12.0148C41.4672 11.9518 41.48 11.8887 41.4925 11.8255C41.5174 11.6992 41.5411 11.5726 41.5637 11.4457C41.5749 11.3823 41.5859 11.3188 41.5965 11.2552C41.6444 10.9691 41.6861 10.6817 41.7214 10.3934C41.741 10.2332 41.7587 10.0728 41.7744 9.91205C41.781 9.84522 41.7872 9.77839 41.7931 9.71145C41.7985 9.64964 41.8036 9.58782 41.8085 9.52593C41.8135 9.46152 41.8183 9.39707 41.8227 9.33262C41.8249 9.30038 41.827 9.26813 41.8291 9.23589C41.8313 9.20192 41.8333 9.16794 41.8353 9.13397C41.8408 9.04034 41.8456 8.94668 41.8498 8.85298C41.8512 8.81926 41.8526 8.78554 41.854 8.75182C41.8665 8.43314 41.8712 8.11414 41.8683 7.79525H45.2717C45.2748 8.04317 45.2714 8.29119 45.266 8.53795C45.2543 9.06829 45.223 9.59821 45.173 10.1263C45.1584 10.2812 45.1421 10.4359 45.1241 10.5905C45.1155 10.6655 45.1063 10.7404 45.0968 10.8154C45.0946 10.8331 45.0923 10.8508 45.09 10.8684L45.0837 10.9151C45.0364 11.2525 44.981 11.5887 44.9172 11.9234C44.7775 12.657 44.5975 13.3833 44.3713 14.0951C44.2506 14.4751 44.1167 14.851 43.9686 15.2212C43.9498 15.2682 43.9307 15.3152 43.9115 15.362L43.907 15.3728L43.8573 15.4889C43.8343 15.5417 43.811 15.5943 43.7873 15.6468C43.7026 15.8348 43.614 16.0211 43.5213 16.2053C43.3358 16.5739 43.1341 16.9345 42.9153 17.2844C42.8024 17.4648 42.685 17.6425 42.5631 17.8171ZM24.5386 21.691C24.4215 21.6499 24.3052 21.6071 24.1894 21.5625C24.1361 21.542 24.0828 21.5211 24.0298 21.4998C23.9996 21.4877 23.9697 21.4753 23.9395 21.4632L23.9364 21.4619C23.711 21.3624 23.4871 21.2609 23.2673 21.1496C22.8353 20.9307 22.4172 20.6842 22.0174 20.4108C21.9266 20.3487 21.8367 20.2853 21.7478 20.2205C21.7008 20.1863 21.6543 20.1513 21.6076 20.1166L21.5887 20.1027L21.5814 20.0969C21.4033 19.9536 21.2269 19.8092 21.0564 19.657C20.7242 19.3605 20.4104 19.0436 20.1161 18.7094C19.972 18.5457 19.8348 18.3767 19.6982 18.2067L19.6963 18.2043L19.6871 18.1918C19.6589 18.154 19.6303 18.1165 19.6023 18.0786C19.5346 17.9869 19.4681 17.8942 19.403 17.8006C19.1648 17.4584 18.9441 17.1042 18.7404 16.7404C18.5379 16.3786 18.3522 16.0075 18.1823 15.6292C18.1444 15.5447 18.1127 15.4544 18.0702 15.3721L18.0661 15.362C18.0468 15.3151 18.0277 15.2681 18.0089 15.2211C17.9343 15.0346 17.8633 14.8466 17.7957 14.6574C17.5372 13.9332 17.3295 13.1911 17.1657 12.4398C17.0908 12.0961 17.0252 11.7505 16.9682 11.4035C16.9406 11.2358 16.9156 11.0678 16.8917 10.8995L16.8911 10.896C16.8883 10.8741 16.8854 10.8523 16.8826 10.8304C16.8718 10.7455 16.8615 10.6605 16.8517 10.5755C16.7868 10.0134 16.7435 9.44879 16.7219 8.88335C16.708 8.5192 16.7146 8.15728 16.7229 7.79511H20.0207C19.991 10.9904 20.7402 14.1963 22.1966 16.9552C23.1769 18.8121 24.4448 20.4407 25.742 22.0486C25.3356 21.9483 24.9336 21.8296 24.5386 21.691Z"
            fill="#FFD004" />
        <path
            d="M49.4583 60.5251H47.9638V52.9441C47.9638 52.4203 47.5179 51.9956 46.9677 51.9956H14.8635C14.3134 51.9956 13.8674 52.4203 13.8674 52.9441V60.5251H12.3729C11.9764 60.5251 11.655 60.8584 11.655 61.2696V63.2734C11.655 63.6846 11.9764 64.018 12.3729 64.018H49.4584C49.8549 64.018 50.1763 63.6846 50.1763 63.2734V61.2696C50.1763 60.8584 49.8548 60.5251 49.4583 60.5251Z"
            fill="#151227" />
        <path
            d="M30.9444 5.1105C36.8446 5.1105 41.6286 4.67291 41.6371 4.13284L41.6371 4.1314C41.6371 3.59069 36.8499 3.15234 30.9445 3.15234C25.0391 3.15234 20.2518 3.59069 20.2518 4.1314L20.2519 4.13284C20.2603 4.67291 25.0443 5.1105 30.9444 5.1105Z"
            fill="#FAB715" />
        <path
            d="M16.4839 59.7562H45.3474C45.7917 59.7562 46.1518 59.4132 46.1518 58.9901V54.0854C46.1518 53.6623 45.7917 53.3193 45.3474 53.3193H16.4839C16.0396 53.3193 15.6794 53.6623 15.6794 54.0854V58.9901C15.6794 59.4132 16.0396 59.7562 16.4839 59.7562Z"
            fill="#FFDC96" />
        <path
            d="M36.5273 55.3861C35.0603 57.1363 33.2572 58.6139 31.2754 59.7562H45.3474C45.4515 59.7562 45.551 59.7374 45.6424 59.7031L45.6785 59.6885C45.7379 59.663 45.7934 59.6307 45.8441 59.5928L45.8739 59.5694L45.9024 59.5447C45.9304 59.5193 45.9564 59.492 45.9803 59.4631L46.0035 59.4336L46.0252 59.403L46.0453 59.3714L46.0639 59.3389L46.0726 59.3222L46.0887 59.2883L46.1031 59.2535C46.1099 59.2359 46.116 59.218 46.1214 59.1998C46.1322 59.1635 46.1403 59.126 46.1454 59.0877L46.1496 59.049C46.1511 59.0296 46.1519 59.0099 46.1519 58.9901V54.0853L46.1516 54.0655L46.1496 54.0264C46.1475 54.0004 46.144 53.9749 46.1393 53.9497C46.1334 53.9183 46.1255 53.8875 46.1157 53.8575L46.1096 53.8396L46.0961 53.8045L46.0809 53.7701L46.0639 53.7366C46.055 53.7201 46.0455 53.7039 46.0354 53.6881C46.0187 53.6618 46.0002 53.6365 45.9803 53.6124C45.9604 53.5883 45.939 53.5654 45.9163 53.5437L45.8739 53.5061C45.8155 53.458 45.7498 53.4177 45.6785 53.387L45.6424 53.3725C45.5511 53.3382 45.4516 53.3193 45.3475 53.3193H38.0377C37.5795 54.0399 37.0751 54.7327 36.5273 55.3861Z"
            fill="#E8C47B" />
        <path
            d="M29.4397 26.0244L29.4316 26.0099H31.2596C31.0349 26.4019 31.1703 27.0175 31.5092 27.3954C31.8713 27.7992 32.3692 28.075 32.6854 28.5153C33.0893 29.0778 33.1298 29.8545 32.8667 30.4945C32.6036 31.1344 32.0663 31.6397 31.4467 31.9525C31.2764 32.0385 31.0994 32.1105 30.9178 32.1686C31.1959 37.8571 32.8 43.5334 34.9598 48.6143H36.1575C33.9977 43.5334 32.3935 37.8571 32.1155 32.1686C32.297 32.1105 32.4741 32.0385 32.6443 31.9525C33.264 31.6398 33.8012 31.1345 34.0644 30.4945C34.3275 29.8545 34.287 29.0779 33.8831 28.5153C33.5669 28.075 33.069 27.7992 32.7069 27.3954C32.3722 27.0221 32.236 26.4171 32.4492 26.0244H32.4495C32.5952 25.7911 32.7448 25.5609 32.8978 25.3335C33.0508 25.1061 33.2071 24.8815 33.3663 24.6592C33.5348 24.4237 33.7065 24.1908 33.8805 23.96C33.9386 23.883 33.9968 23.8063 34.0554 23.7297C34.1139 23.6532 34.1727 23.5768 34.2317 23.5007C34.2906 23.4245 34.3499 23.3485 34.4093 23.2727C34.4488 23.2221 34.4885 23.1716 34.5283 23.1212C34.5674 23.0716 34.6065 23.0221 34.6457 22.9727C34.6616 22.9527 34.6775 22.9328 34.6933 22.9128C34.7149 22.8857 34.7364 22.8586 34.758 22.8315L34.7676 22.8194C34.8477 22.719 34.928 22.6188 35.0085 22.5188C35.0487 22.4688 35.089 22.4188 35.1293 22.3689C35.1697 22.319 35.2099 22.269 35.2504 22.2192C35.311 22.1443 35.3716 22.0696 35.4323 21.9948C35.5132 21.8952 35.5942 21.7957 35.6752 21.6961C35.7157 21.6463 35.7562 21.5966 35.7967 21.5468C35.9064 21.4119 36.016 21.2771 36.1255 21.142C36.1574 21.1026 36.1894 21.0632 36.2213 21.0238C36.2616 20.974 36.302 20.9241 36.3423 20.8741C36.4027 20.7993 36.463 20.7244 36.5232 20.6493C36.5834 20.5743 36.6435 20.4992 36.7035 20.4239C36.9033 20.1732 37.1015 19.9212 37.2972 19.6672C37.3363 19.6164 37.3753 19.5656 37.4142 19.5146C37.7255 19.1069 38.0297 18.6937 38.3228 18.2718C38.3594 18.2191 38.3959 18.1662 38.4322 18.1132C38.8857 17.4505 39.3108 16.7655 39.6924 16.0462C39.9281 15.6018 40.1453 15.1458 40.3437 14.6801C40.3685 14.6219 40.393 14.5635 40.4172 14.505C40.5987 14.0661 40.7637 13.6189 40.9118 13.1649C40.9316 13.1044 40.951 13.0437 40.9702 12.983C40.9797 12.9526 40.9892 12.9222 40.9986 12.8918C41.0175 12.8309 41.036 12.7699 41.0543 12.7088C41.0726 12.6477 41.0905 12.5865 41.1082 12.5252C41.1435 12.4026 41.1776 12.2795 41.2105 12.156C41.2187 12.1251 41.2268 12.0943 41.2349 12.0633C41.2591 11.9706 41.2826 11.8776 41.3055 11.7845C41.3207 11.7224 41.3356 11.6602 41.3502 11.5979C41.3795 11.4733 41.4075 11.3484 41.4343 11.2231C41.4544 11.1292 41.4738 11.035 41.4926 10.9408C41.4988 10.9093 41.505 10.8779 41.5111 10.8464C41.5233 10.7835 41.5351 10.7204 41.5467 10.6574C41.5814 10.4682 41.6133 10.2783 41.6424 10.0879C41.6521 10.0245 41.6615 9.96098 41.6707 9.89741C41.6797 9.83384 41.6885 9.7702 41.697 9.70656C41.7055 9.64288 41.7136 9.57917 41.7215 9.51538C41.7293 9.45163 41.7369 9.38781 41.7441 9.32396C41.7477 9.29205 41.7513 9.2601 41.7547 9.22815C41.7616 9.16426 41.7682 9.1003 41.7746 9.03633C41.7809 8.97233 41.7868 8.90833 41.7925 8.8443C41.7982 8.78026 41.8036 8.71619 41.8086 8.65208C41.8111 8.62003 41.8136 8.58797 41.8159 8.55588C41.823 8.45969 41.8294 8.36342 41.8351 8.26711C41.8408 8.17081 41.8458 8.07443 41.85 7.97802C41.8543 7.8816 41.8579 7.78519 41.8607 7.68874C41.8645 7.56013 41.867 7.43149 41.8683 7.3028C41.8686 7.27064 41.8688 7.23848 41.869 7.20628C41.8692 7.17412 41.8692 7.14193 41.8692 7.10976C41.8692 7.04971 41.8689 6.98962 41.8683 6.92957L41.8682 6.91676C41.8663 6.72375 41.8615 6.53082 41.8538 6.33799C41.8487 6.20946 41.8423 6.08099 41.8346 5.95263C41.8288 5.85633 41.8223 5.76013 41.8151 5.66393C41.8109 5.60826 41.8064 5.55259 41.8018 5.49695C41.7984 5.4565 41.7949 5.41608 41.7913 5.37566C41.7536 4.95957 41.7024 4.54492 41.6373 4.13281H41.6371L41.6369 4.13852L41.6366 4.14136L41.636 4.14566L41.6355 4.14886L41.6345 4.15324L41.6338 4.15604L41.6317 4.163L41.6312 4.16444L41.6289 4.17025L41.6277 4.17291L41.6256 4.17732L41.624 4.18044L41.6215 4.18479L41.6199 4.18759L41.6155 4.19434L41.6137 4.19674L41.6101 4.20155L41.6079 4.20439L41.6044 4.20862L41.6016 4.21178L41.5974 4.21638L41.5953 4.21864L41.5882 4.22564L41.5862 4.22757L41.5804 4.23289L41.5778 4.23518L41.5719 4.24021L41.5691 4.24251L41.5626 4.24757L41.5598 4.24976L41.5505 4.25665L41.5483 4.25816L41.5402 4.26376L41.5366 4.26613L41.5299 4.2705L41.5253 4.27341L41.517 4.27858L41.5143 4.28023L41.5024 4.28719L41.4989 4.28917L41.4901 4.29409L41.4855 4.2966L41.4757 4.3018L41.4725 4.30346L41.4604 4.30956L41.4575 4.31103L41.4443 4.31742L41.4395 4.31968L41.4289 4.3246L41.4243 4.32671L41.4125 4.33196L41.4086 4.33368L41.3764 4.34721L41.3698 4.34987L41.3581 4.3545L41.3529 4.35654L41.3386 4.36204L41.3351 4.36336L41.2969 4.37733L41.2927 4.3788L41.2764 4.38443L41.272 4.38594L41.2546 4.39183L41.2518 4.3928L41.2087 4.40665L41.2044 4.40802L41.1843 4.41419L41.1824 4.4148L41.161 4.42119L41.1582 4.42202L41.1345 4.42894L41.1324 4.42955L41.1109 4.43562L41.106 4.43698L41.0869 4.44226L41.08 4.44416C41.0552 4.45091 41.0296 4.45762 41.0032 4.4643L40.9979 4.46563L40.9793 4.47029L40.9692 4.47281C40.9424 4.47941 40.9149 4.48594 40.8866 4.49248L40.8818 4.49355L40.8591 4.49872L40.8502 4.50073C40.8317 4.5049 40.8128 4.50906 40.7936 4.51319L40.7842 4.5152L40.7619 4.51994L40.7551 4.52137L40.7258 4.52747L40.7251 4.52765C40.7036 4.5321 40.6818 4.53648 40.6597 4.5409L40.6544 4.54194L40.6257 4.54757L40.6211 4.54847L40.5881 4.55483C40.5647 4.55928 40.5409 4.56373 40.5168 4.56814L40.5147 4.56854L40.4859 4.57378L40.4754 4.57564C40.4401 4.582 40.4041 4.58828 40.3674 4.59452L40.3631 4.59524C40.3388 4.59937 40.3141 4.6035 40.2891 4.60759C40.2641 4.61168 40.2387 4.61577 40.2131 4.61987L40.199 4.62209L40.1677 4.62701L40.1659 4.62726L40.1281 4.63311L40.1239 4.63376C40.0979 4.63774 40.0716 4.64169 40.045 4.6456L40.0342 4.64722C39.9941 4.65314 39.9533 4.65899 39.9119 4.66481L39.9059 4.66563L39.8685 4.67087L39.8603 4.67198L39.8281 4.6764L39.817 4.67791C39.7979 4.68049 39.7787 4.68308 39.7593 4.68566L39.7285 4.68972L39.7006 4.69338L39.6939 4.69428C39.7722 4.91104 39.84 5.13104 39.8979 5.35179C40.4983 7.63975 40.1534 10.1674 39.0211 12.2378C38.0121 14.0825 36.4897 15.5637 35.207 17.2109C34.4678 18.1601 33.9637 19.1313 33.5456 20.1756C33.5593 20.2318 33.5717 20.2905 33.5824 20.3511C33.5917 20.4037 33.5989 20.4579 33.605 20.5128C33.6599 20.5168 33.7144 20.5219 33.7672 20.5292C33.907 20.5486 34.0377 20.577 34.1499 20.6111C34.2621 20.6448 34.3558 20.6833 34.4214 20.7148C34.4543 20.7299 34.4801 20.7456 34.4977 20.7546C34.5153 20.7643 34.5247 20.7706 34.5247 20.7706C34.5247 20.7706 34.5156 20.7772 34.4983 20.7876C34.4811 20.7972 34.4558 20.8139 34.4236 20.8302C34.3592 20.8642 34.2671 20.9062 34.1562 20.9441C34.0455 20.9825 33.9159 21.0158 33.777 21.0406C33.7247 21.0498 33.6707 21.0569 33.6161 21.0631C33.6121 21.1181 33.6071 21.1725 33.5999 21.2254C33.5808 21.3654 33.5523 21.4962 33.5182 21.6085C33.4845 21.7208 33.4458 21.8145 33.4142 21.8803C33.399 21.9131 33.3833 21.939 33.3742 21.9566C33.3645 21.9742 33.3582 21.9837 33.3582 21.9837C33.3582 21.9837 33.3515 21.9745 33.3411 21.9573C33.3314 21.94 33.3147 21.9147 33.2983 21.8825C33.2642 21.818 33.222 21.7258 33.184 21.6148C33.1572 21.5374 33.1328 21.4509 33.1122 21.3584C33.0751 21.4677 33.0383 21.5778 33.0017 21.689C32.6301 22.8164 32.1533 24.2319 30.9254 24.6878C30.4789 24.8536 30.0138 24.871 29.5519 24.7878C29.5968 24.8578 29.6414 24.928 29.6854 24.9985C29.7247 25.0615 29.7053 25.1443 29.6419 25.1835C29.6198 25.1971 29.5952 25.2037 29.5708 25.2037C29.5258 25.2037 29.4817 25.1812 29.4561 25.1402C29.3632 24.9913 29.2682 24.8437 29.1716 24.6972C28.8697 24.6083 28.5719 24.4817 28.2844 24.3307L28.2805 24.3287C28.6573 24.8415 29.0219 25.3643 29.3644 25.9051L29.3755 25.9226C29.3957 25.9547 29.4159 25.9867 29.4359 26.0189L29.4394 26.0244H29.4397V26.0244Z"
            fill="#FBBB10" />
        <path
            d="M39.268 4.32792C39.268 4.56296 38.3636 4.77861 36.8562 4.94735L36.8559 4.94739C36.8864 4.94552 36.9168 4.94365 36.947 4.94175L36.9881 4.9392L36.9976 4.93859L37.0408 4.93587L37.0692 4.93407C37.0861 4.93299 37.103 4.93192 37.1198 4.9308L37.1243 4.93052L37.1568 4.9284C37.1952 4.92589 37.2334 4.92334 37.2715 4.92079L37.3153 4.91781L37.3226 4.91734C37.3433 4.91594 37.3639 4.91451 37.3844 4.91307H37.3846C37.4015 4.91192 37.4184 4.91074 37.4352 4.90955C37.4522 4.90837 37.4692 4.90719 37.4861 4.90597L37.4979 4.90514L37.5297 4.90288L37.5631 4.90051L37.5872 4.89875C37.604 4.89753 37.6208 4.89631 37.6376 4.89505L37.6401 4.89487L37.6751 4.89229C37.6944 4.89085 37.7136 4.88942 37.7327 4.88798L37.7555 4.88626L37.7734 4.88493L37.8182 4.88148L37.8338 4.8803C37.8717 4.87739 37.9093 4.87445 37.9467 4.87147L37.9585 4.87054L38.0056 4.86677L38.0182 4.86573C38.0346 4.8644 38.0511 4.86304 38.0675 4.86171L38.0733 4.86124C38.1108 4.85815 38.1481 4.85507 38.1852 4.85194L38.2057 4.85019L38.2431 4.84703L38.2571 4.84581L38.293 4.84272L38.3213 4.84028C38.3537 4.83744 38.386 4.83457 38.4181 4.83174L38.4342 4.8303C38.4699 4.8271 38.5054 4.82387 38.5406 4.82061C38.5758 4.81738 38.6108 4.81407 38.6455 4.81077L38.6677 4.80866L38.6986 4.80571L38.7169 4.80395L38.7531 4.80044L38.767 4.79911C38.8014 4.79573 38.8355 4.79232 38.8693 4.78891L38.8806 4.7878L38.9232 4.78346L38.93 4.78274C38.9828 4.77732 39.0348 4.77186 39.0862 4.76634L39.0875 4.76619L39.1342 4.76113L39.1409 4.76041C39.1918 4.75485 39.2422 4.74925 39.2917 4.74354L39.2943 4.74326L39.3351 4.73855L39.3479 4.73708C39.3676 4.73478 39.3872 4.73249 39.4068 4.73015L39.4126 4.72947C39.4295 4.72746 39.4463 4.72545 39.4631 4.72344L39.4721 4.72233C39.5097 4.71781 39.5467 4.71325 39.5834 4.70862L39.5932 4.7074C39.6107 4.70521 39.628 4.70302 39.6453 4.70079L39.6548 4.69957L39.7006 4.69365L39.7284 4.68999L39.7593 4.68593C39.7786 4.68335 39.7979 4.68076 39.817 4.67818L39.8281 4.67667L39.8602 4.67226L39.8684 4.67114L39.9059 4.6659L39.9118 4.66508C39.9533 4.65926 39.994 4.65338 40.0341 4.64749L40.045 4.64587C40.0716 4.64196 40.0978 4.63798 40.1238 4.63403L40.1281 4.63338L40.1659 4.62753L40.1676 4.62728L40.199 4.62236L40.213 4.62014C40.2387 4.61604 40.264 4.61199 40.289 4.60786C40.314 4.60377 40.3387 4.59964 40.3631 4.59551L40.3673 4.5948C40.404 4.58855 40.4401 4.58227 40.4753 4.57591L40.4858 4.57405L40.5147 4.56881L40.5168 4.56841C40.5409 4.564 40.5647 4.55955 40.588 4.5551L40.621 4.54874L40.6257 4.54785L40.6543 4.54221L40.6596 4.54117C40.6818 4.53679 40.7036 4.53237 40.725 4.52792L40.7258 4.52774L40.7551 4.52164L40.7618 4.52021L40.7842 4.51547L40.7936 4.51346C40.8127 4.50929 40.8316 4.50517 40.8501 4.501L40.8591 4.49899L40.8817 4.49382L40.8865 4.49275C40.9148 4.48621 40.9424 4.47965 40.9692 4.47308L40.9792 4.47056L40.9979 4.4659L41.0032 4.46457C41.0295 4.45789 41.0551 4.45118 41.0799 4.44443L41.0869 4.44253L41.1059 4.43725L41.1109 4.43589L41.1323 4.42982L41.1345 4.42921L41.1582 4.42229L41.1609 4.42146L41.1823 4.41507L41.1843 4.41446L41.2043 4.40829L41.2087 4.40692L41.2517 4.39307L41.2545 4.3921L41.272 4.38621L41.2764 4.3847L41.2926 4.37907L41.2968 4.3776L41.335 4.36363L41.3386 4.36231L41.3529 4.35681L41.358 4.35477L41.3697 4.35014L41.3764 4.34748L41.4085 4.33395L41.4125 4.33223L41.4242 4.32699L41.4289 4.32487L41.4395 4.31995L41.4443 4.31769L41.4574 4.3113L41.4604 4.30983L41.4724 4.30373L41.4756 4.30208L41.4854 4.29687L41.49 4.29436L41.4988 4.28944L41.5023 4.28747L41.5142 4.2805L41.5169 4.27885L41.5253 4.27368L41.5299 4.27077L41.5366 4.2664L41.5401 4.26403L41.5482 4.25843L41.5504 4.25692L41.5598 4.25003L41.5626 4.24784L41.569 4.24278L41.5718 4.24048L41.5777 4.23546L41.5803 4.23316L41.5861 4.22785L41.5882 4.22591L41.5952 4.21891L41.5973 4.21665L41.6016 4.21205L41.6043 4.20889L41.6078 4.20466L41.6101 4.20182L41.6136 4.19701L41.6154 4.19461L41.6198 4.18786L41.6215 4.18506L41.6239 4.18072L41.6255 4.17759L41.6277 4.17318L41.6288 4.17052L41.6311 4.16471L41.6316 4.16327L41.6338 4.15631L41.6345 4.15351L41.6354 4.14913L41.636 4.14593L41.6365 4.14163L41.6368 4.13879L41.6371 4.13283L41.6372 4.13165C41.6372 4.05139 41.5317 3.97339 41.3327 3.89873L41.3168 3.89284C41.2954 3.88498 41.2729 3.87719 41.2494 3.86944L41.2316 3.86362C41.1475 3.83652 41.051 3.80989 40.9427 3.78379L40.9193 3.77819C40.8407 3.7596 40.7561 3.74129 40.6657 3.72328L40.6384 3.71789C40.556 3.70174 40.4689 3.68584 40.3774 3.67015L40.3467 3.66495C40.3055 3.65802 40.2635 3.65113 40.2205 3.64431L40.1882 3.63917C40.1557 3.63408 40.1227 3.62898 40.0892 3.62396L40.0555 3.61889C39.9992 3.61049 39.9415 3.60224 39.8825 3.59402L39.8469 3.5891C39.7993 3.58257 39.7509 3.57607 39.7016 3.56965C39.6523 3.56322 39.6022 3.55687 39.5513 3.55055C39.1949 3.50636 38.7989 3.46501 38.3681 3.42697L38.3218 3.42291C38.0123 3.39588 37.6852 3.37054 37.3421 3.34706C37.3239 3.34581 37.3055 3.34459 37.2872 3.34333C36.8237 3.312 36.3315 3.28403 35.8149 3.2598L35.8098 3.25955C35.3501 3.23802 34.8711 3.21942 34.3758 3.20406L34.372 3.20395C33.2961 3.17064 32.1433 3.15259 30.9445 3.15259C30.0932 3.15259 29.2652 3.16171 28.4713 3.1789L28.462 3.17908C28.0562 3.18791 27.6593 3.19886 27.2729 3.21178L27.2611 3.21217L27.214 3.21375L27.1939 3.21447L27.1476 3.21605L27.1429 3.21623C27.0649 3.21896 26.9874 3.22176 26.9103 3.22463L26.8991 3.22502L26.8683 3.22621L26.8345 3.2275L26.8028 3.22872L26.768 3.23005L26.7332 3.23141L26.7169 3.23202C26.6793 3.23349 26.6418 3.235 26.6043 3.23655L26.601 3.23669C26.5636 3.2382 26.5263 3.23974 26.4892 3.24132L26.4753 3.24189C26.4221 3.24415 26.3691 3.24642 26.3163 3.24875L26.3038 3.24929L26.2569 3.25137L26.2481 3.25176C26.1924 3.25424 26.137 3.25679 26.082 3.25937L26.0392 3.26138L26.0226 3.26217L26.007 3.26293C25.9002 3.26802 25.7945 3.27327 25.6899 3.27869L25.6643 3.28001C25.6148 3.2826 25.5656 3.28518 25.5166 3.28787L25.4945 3.28906C25.3715 3.29574 25.2501 3.30263 25.1304 3.30977L25.1204 3.31038C25.0885 3.31228 25.0567 3.31419 25.025 3.31612C25.0058 3.31731 24.9866 3.31846 24.9674 3.31964L24.9205 3.32255L24.9117 3.32309L24.867 3.32589L24.8551 3.32664L24.8263 3.32847L24.7887 3.33088L24.7713 3.33199L24.7411 3.33396C24.6933 3.33709 24.6459 3.34024 24.5987 3.3434L24.5814 3.34459C24.5405 3.34735 24.4999 3.35015 24.4594 3.35299L24.4358 3.35464L24.396 3.35744L24.3931 3.35765L24.3453 3.36106L24.3404 3.36142C24.2915 3.36494 24.2429 3.36849 24.1948 3.37208L24.1791 3.37327C24.1195 3.37775 24.0604 3.38228 24.0018 3.38684L23.9917 3.38763L23.9581 3.39028L23.9378 3.39186L23.9131 3.39383L23.8818 3.39635L23.8548 3.39854L23.8468 3.39918C23.7542 3.40672 23.663 3.41437 23.5734 3.42219L23.5622 3.42316L23.5331 3.42571L23.512 3.42758L23.477 3.4307L23.4708 3.43127L23.4368 3.43432L23.4167 3.43612C23.3911 3.43842 23.3656 3.44079 23.3403 3.44312L23.2925 3.44757C23.2348 3.45295 23.1779 3.45845 23.1217 3.46397L23.1076 3.46534L23.0831 3.46774L23.062 3.46982C22.9829 3.47776 22.9051 3.48576 22.8288 3.49391L22.8134 3.49556C22.7898 3.49807 22.7663 3.50062 22.743 3.50317L22.721 3.50558L22.6998 3.50791L22.6859 3.50945L22.6636 3.51193L22.6639 3.51189C24.3572 3.40884 26.3896 3.34879 28.5752 3.34879C34.4807 3.34886 39.268 3.7872 39.268 4.32792Z"
            fill="#F59B1A" />
        <path
            d="M22.0737 12.1356C22.8689 14.1812 23.7959 16.1493 24.9919 17.9916C26.092 19.6863 27.196 21.1333 28.2528 22.7873C28.3341 22.9145 28.531 22.8295 28.4932 22.6835C27.6659 19.4866 27.0678 17.5812 26.1519 15.033C25.4478 13.0741 24.8922 10.9275 24.7072 8.80089C24.6161 8.82401 24.5201 8.84472 24.4208 8.86238C24.3447 8.8758 24.2661 8.88621 24.1868 8.89512C24.181 8.97512 24.1737 9.05434 24.1632 9.1313C24.1354 9.33479 24.094 9.52499 24.0444 9.68831C23.9953 9.85163 23.9392 9.988 23.8932 10.0836C23.8711 10.1314 23.8483 10.169 23.8351 10.1946C23.8209 10.2203 23.8117 10.234 23.8117 10.234C23.8117 10.234 23.802 10.2206 23.7869 10.1955C23.7727 10.1704 23.7485 10.1337 23.7246 10.0868C23.675 9.99299 23.6136 9.85888 23.5583 9.69754C23.5025 9.53623 23.4538 9.34771 23.4182 9.14544C23.4049 9.0692 23.3946 8.99056 23.3858 8.91109C23.3061 8.90531 23.2272 8.89799 23.1506 8.88754C22.9473 8.85965 22.7573 8.81823 22.5941 8.76848C22.431 8.71934 22.2947 8.66309 22.1992 8.617C22.1514 8.59493 22.1138 8.5721 22.0883 8.55889C22.0626 8.54468 22.0489 8.53549 22.0489 8.53549C22.0489 8.53549 22.0623 8.5258 22.0873 8.51061C22.1124 8.49643 22.1491 8.47221 22.1959 8.44834C22.2896 8.39866 22.4236 8.33728 22.5848 8.28197C22.7459 8.22608 22.9342 8.17748 23.1363 8.1419C23.2127 8.12852 23.2915 8.11818 23.3711 8.10935C23.377 8.02963 23.3844 7.95069 23.3949 7.87402C23.4231 7.6705 23.4643 7.4803 23.5139 7.31701C23.5628 7.15373 23.6187 7.01733 23.6644 6.92174C23.6863 6.87397 23.7091 6.83635 23.7221 6.81072C23.7362 6.78509 23.7454 6.77138 23.7454 6.77138C23.7454 6.77138 23.755 6.78473 23.7701 6.80982C23.7841 6.83491 23.8083 6.8717 23.832 6.91858C23.8814 7.01237 23.9425 7.14651 23.9976 7.30782C24.0533 7.46913 24.1018 7.65765 24.1378 7.85992C24.1512 7.93641 24.1617 8.01527 24.1706 8.09495C24.2505 8.10084 24.3296 8.10827 24.4065 8.11886C24.4948 8.13114 24.5806 8.14589 24.6628 8.16269C24.6288 7.49702 24.6333 6.83534 24.6836 6.18414C22.448 6.2443 21.2335 5.77222 21.2335 5.77222C21.2252 5.822 21.2175 5.87172 21.21 5.9215C21.1416 6.55486 21.1087 7.19411 21.1105 7.83422C21.1715 9.29749 21.5319 10.7416 22.0737 12.1356Z"
            fill="#FEF074" />
        <path
            d="M32.2471 25.1835C32.2692 25.1972 32.2938 25.2037 32.3182 25.2037C32.3632 25.2037 32.4074 25.1812 32.4329 25.1402C33.3176 23.7223 34.3839 22.4119 35.415 21.1445C36.711 19.5516 38.0512 17.9044 39.0484 16.0245C40.7721 12.7748 41.4243 8.78105 40.8375 5.06697C40.826 4.99378 40.7577 4.94385 40.6833 4.95523C40.6096 4.96668 40.5594 5.03549 40.5709 5.10879C41.1487 8.76673 40.5068 12.6996 38.8098 15.8991C37.8248 17.7559 36.4931 19.3926 35.2053 20.9755C34.169 22.2492 33.0973 23.5663 32.2036 24.9985C32.1643 25.0615 32.1838 25.1443 32.2471 25.1835Z"
            fill="#241A39" />
        <path
            d="M23.0792 15.8991C21.7982 13.4841 21.1185 10.6512 21.1107 7.83411C21.1088 7.19404 21.1418 6.55476 21.2102 5.9214C21.2396 5.64932 21.2755 5.37832 21.318 5.10882C21.3296 5.03552 21.2794 4.96675 21.2057 4.95526C21.1313 4.94374 21.063 4.99381 21.0514 5.067C20.4647 8.78105 21.1169 12.7748 22.8406 16.0245C23.8377 17.9045 25.1779 19.5516 26.4739 21.1445C27.3968 22.2788 28.3477 23.4477 29.1716 24.6972C29.2682 24.8438 29.3632 24.9914 29.4561 25.1402C29.4817 25.1812 29.5258 25.2037 29.5708 25.2037C29.5951 25.2037 29.6198 25.1971 29.6419 25.1835C29.7053 25.1443 29.7247 25.0615 29.6854 24.9986C29.6414 24.928 29.5968 24.8578 29.5519 24.7878C28.6861 23.4368 27.669 22.1865 26.6837 20.9755C25.3958 19.3927 24.0642 17.7559 23.0792 15.8991Z"
            fill="#241A39" />
        <path
            d="M21.7064 51.9955H24.2201C24.3176 50.117 25.7069 48.6143 27.3916 48.6143H24.878C23.1933 48.6142 21.8039 50.1169 21.7064 51.9955Z"
            fill="#FEF074" />
        <path
            d="M38.9634 49.209C39.7755 49.8169 40.3293 50.8344 40.3896 51.9956H42.8737C42.8291 51.1369 42.5147 50.3567 42.0254 49.7627C41.9994 49.7311 41.9729 49.7001 41.9459 49.6696C41.8919 49.6085 41.836 49.5496 41.7783 49.4931L41.7493 49.465C41.5258 49.2511 41.276 49.0713 41.0065 48.9329L40.9712 48.9151C40.9476 48.9034 40.9239 48.892 40.9 48.8809C40.8403 48.8532 40.7797 48.8275 40.7183 48.8038C40.6937 48.7944 40.669 48.7853 40.6442 48.7765C40.5076 48.7281 40.3672 48.6901 40.2236 48.663C40.1975 48.658 40.1712 48.6535 40.1449 48.6493C40.0001 48.6262 39.8523 48.6143 39.7022 48.6143H37.2181C37.82 48.6143 38.3843 48.8061 38.8654 49.1385C38.9081 49.1454 38.9441 49.1722 38.9634 49.209Z"
            fill="#FBBB10" />
        <path
            d="M30.3106 31.3008C30.4321 31.241 30.5433 31.1513 30.6032 31.0304C30.6677 30.9002 30.6669 30.7451 30.6277 30.6053C30.5194 30.2192 30.1785 29.9794 29.8958 29.7223C29.6733 29.5199 29.4965 29.2744 29.3795 28.9977C29.3018 28.8138 29.2807 28.2956 29.0696 28.2255C28.8315 28.1464 28.6303 28.5742 28.5598 28.735C28.5264 28.8111 28.4985 28.8896 28.4761 28.9695C28.4216 29.1638 28.399 29.3672 28.407 29.5684C28.4294 30.1348 28.6635 30.7904 29.1281 31.1425C29.4614 31.3951 29.935 31.4855 30.3106 31.3008Z"
            fill="#FEF074" />
        <path
            d="M22.5662 63.2734V62.218H15.8075C15.7082 62.218 15.6276 62.1378 15.6276 62.0389C15.6276 61.9401 15.7082 61.8599 15.8075 61.8599H22.5662V61.2696C22.5662 60.8584 22.2448 60.5251 21.8483 60.5251H30.1527C30.5529 60.2768 30.9485 60.0211 31.3385 59.7562H16.4839C16.0396 59.7562 15.6794 59.4132 15.6794 58.9902V54.0854C15.6794 53.6623 16.0396 53.3194 16.4839 53.3194H38.0984C38.3957 52.8896 38.673 52.4483 38.9268 51.9956H14.8635C14.3134 51.9956 13.8674 52.4203 13.8674 52.9441V60.5251H12.3729C11.9764 60.5251 11.655 60.8584 11.655 61.2696V63.2734C11.655 63.6846 11.9764 64.018 12.3729 64.018H21.8483C22.2448 64.018 22.5662 63.6846 22.5662 63.2734Z"
            fill="#241A39" />
        <path
            d="M49.4583 60.5251H47.9638V52.9442C47.9638 52.9114 47.9621 52.879 47.9587 52.8472C47.9562 52.8232 47.9527 52.7996 47.9483 52.7762L47.9383 52.7299L47.9275 52.6894C47.9116 52.6352 47.8909 52.5828 47.8656 52.5329L47.8549 52.5123C47.8377 52.4803 47.8186 52.4495 47.7978 52.4198L47.78 52.395L47.7659 52.3766L47.7363 52.3408L47.705 52.3063L47.6805 52.2816L47.6549 52.2575C47.6377 52.2418 47.6198 52.2267 47.6013 52.2122L47.5579 52.18C47.5336 52.1629 47.5084 52.1469 47.4824 52.1319L47.4562 52.1173L47.4284 52.1029L47.3996 52.0891L47.3777 52.0793L47.333 52.0614L47.3044 52.0512L47.2639 52.0382C47.1937 52.0174 47.1202 52.0039 47.0444 51.9984C47.0275 51.9971 47.0105 51.9963 46.9934 51.9959L46.9677 51.9956H38.9269C38.6731 52.4483 38.3958 52.8895 38.0984 53.3194H45.3474C45.4515 53.3194 45.5511 53.3382 45.6424 53.3725L45.6785 53.387C45.7497 53.4177 45.8155 53.458 45.8739 53.5062L45.9163 53.5437C45.939 53.5654 45.9604 53.5883 45.9803 53.6124C46.0002 53.6366 46.0186 53.6619 46.0354 53.6882C46.0455 53.704 46.055 53.7202 46.0638 53.7366L46.0808 53.7701L46.0961 53.8045L46.1096 53.8397L46.1157 53.8575C46.1254 53.8875 46.1334 53.9183 46.1393 53.9497C46.144 53.9749 46.1474 54.0005 46.1495 54.0264L46.1516 54.0656L46.1518 54.0854V58.9901C46.1518 59.0099 46.151 59.0296 46.1495 59.0491L46.1454 59.0877C46.1403 59.126 46.1321 59.1635 46.1213 59.1998C46.1159 59.218 46.1098 59.2359 46.103 59.2535L46.0887 59.2883L46.0725 59.3223L46.0638 59.3389L46.0453 59.3714L46.0251 59.403L46.0034 59.4336L45.9802 59.4631C45.9564 59.492 45.9304 59.5193 45.9024 59.5447L45.8738 59.5694L45.844 59.5928C45.7934 59.6307 45.7378 59.663 45.6784 59.6886L45.6423 59.7031C45.551 59.7374 45.4514 59.7562 45.3473 59.7562H31.3384C30.9485 60.0211 30.5529 60.2768 30.1526 60.5251H43.1185C43.5151 60.5251 43.8365 60.8585 43.8365 61.2697V61.8599H45.8524C45.9518 61.8599 46.0324 61.9401 46.0324 62.039C46.0324 62.1379 45.9518 62.2181 45.8524 62.2181H43.8365V63.2734C43.8365 63.6846 43.5151 64.018 43.1185 64.018H49.4583C49.8548 64.018 50.1763 63.6846 50.1763 63.2734V61.2696C50.1763 60.8584 49.8548 60.5251 49.4583 60.5251Z"
            fill="#372F48" />
        <path
            d="M16.8949 53.7837C16.6632 53.7837 16.4747 53.9712 16.4747 54.2018C16.4747 54.4323 16.6632 54.6199 16.8949 54.6199C17.1264 54.6199 17.3149 54.4323 17.3149 54.2018C17.3149 53.9712 17.1264 53.7837 16.8949 53.7837ZM16.8949 54.4856C16.7376 54.4856 16.6097 54.3583 16.6097 54.2018C16.6097 54.0453 16.7376 53.918 16.8949 53.918C17.052 53.918 17.18 54.0453 17.18 54.2018C17.18 54.3583 17.052 54.4856 16.8949 54.4856Z"
            fill="#241B37" />
        <path
            d="M16.8949 58.2407C16.6632 58.2407 16.4747 58.4283 16.4747 58.6589C16.4747 58.8893 16.6632 59.0769 16.8949 59.0769C17.1264 59.0769 17.3149 58.8894 17.3149 58.6589C17.3149 58.4283 17.1264 58.2407 16.8949 58.2407ZM16.8949 58.9426C16.7376 58.9426 16.6097 58.8153 16.6097 58.6589C16.6097 58.5024 16.7376 58.375 16.8949 58.375C17.052 58.375 17.18 58.5024 17.18 58.6589C17.18 58.8153 17.052 58.9426 16.8949 58.9426Z"
            fill="#241B37" />
        <path
            d="M44.8724 54.6196C45.104 54.6196 45.2924 54.4321 45.2924 54.2015C45.2924 53.971 45.104 53.7834 44.8724 53.7834C44.6408 53.7834 44.4523 53.971 44.4523 54.2015C44.4523 54.4321 44.6408 54.6196 44.8724 54.6196ZM44.8724 53.9178C45.0296 53.9178 45.1575 54.0451 45.1575 54.2015C45.1575 54.358 45.0296 54.4854 44.8724 54.4854C44.7152 54.4854 44.5873 54.358 44.5873 54.2015C44.5873 54.0451 44.7152 53.9178 44.8724 53.9178Z"
            fill="#241B37" />
        <path
            d="M44.8724 59.0769C45.104 59.0769 45.2924 58.8894 45.2924 58.6589C45.2924 58.4283 45.104 58.2407 44.8724 58.2407C44.6408 58.2407 44.4523 58.4283 44.4523 58.6589C44.4523 58.8894 44.6408 59.0769 44.8724 59.0769ZM44.8724 58.375C45.0296 58.375 45.1575 58.5024 45.1575 58.6589C45.1575 58.8153 45.0296 58.9426 44.8724 58.9426C44.7152 58.9426 44.5873 58.8153 44.5873 58.6589C44.5873 58.5024 44.7152 58.375 44.8724 58.375Z"
            fill="#241B37" />
        <path
            d="M38.8654 49.1386L38.8438 49.1367H29.2221C29.1475 49.1367 29.0871 49.1969 29.0871 49.271C29.0871 49.3452 29.1475 49.4054 29.2221 49.4054H38.8438C38.9183 49.4054 38.9787 49.3452 38.9787 49.271C38.9787 49.2487 38.9732 49.2277 38.9634 49.2091C38.9441 49.1722 38.9082 49.1455 38.8654 49.1386Z"
            fill="#241A39" />
        <path
            d="M15.8075 61.8599C15.7081 61.8599 15.6276 61.9401 15.6276 62.0389C15.6276 62.1378 15.7081 62.218 15.8075 62.218H45.8524C45.9518 62.218 46.0323 62.1378 46.0323 62.0389C46.0323 61.9401 45.9518 61.8599 45.8524 61.8599H15.8075Z"
            fill="white" />
        <path
            d="M40.113 49.3521C40.9427 49.8924 41.5003 50.8009 41.6044 51.7823C41.6118 51.8513 41.6703 51.9025 41.7385 51.9025L41.7528 51.9018C41.8269 51.8939 41.8807 51.8279 41.8728 51.7541C41.7602 50.6933 41.1577 49.7114 40.2608 49.1274C40.1989 49.0868 40.1149 49.1041 40.074 49.1662C40.0332 49.2283 40.0506 49.3115 40.113 49.3521Z"
            fill="#241A39" />
        <path
            d="M30.3596 32.3883C30.2836 32.3848 30.2212 32.4403 30.2166 32.5142C29.8905 37.8295 28.7019 43.0253 26.6838 47.9576C26.6556 48.0262 26.6889 48.1047 26.7579 48.1326C26.7745 48.1394 26.7918 48.1425 26.8087 48.1425C26.862 48.1425 26.9125 48.1109 26.9338 48.0588C28.9629 43.0995 30.158 37.875 30.486 32.5306C30.4906 32.4565 30.4339 32.3929 30.3596 32.3883Z"
            fill="#241A39" />
        <path
            d="M32.2473 31.5845C32.1767 31.6083 32.1389 31.6846 32.1629 31.7548C32.182 31.8108 32.2344 31.8459 32.2907 31.8459L32.334 31.8387C33.2092 31.5429 33.8552 30.7248 33.905 29.8493C33.9321 29.3689 33.7798 28.875 33.4762 28.4587C33.4325 28.3988 33.348 28.3854 33.2878 28.4289C33.2274 28.4724 33.214 28.5565 33.2578 28.6165C33.525 28.9829 33.6591 29.4153 33.6354 29.8341C33.5918 30.6033 33.0209 31.323 32.2473 31.5845Z"
            fill="#241A39" />
        <path
            d="M43.4972 16.7072C43.5199 16.722 43.5454 16.729 43.5707 16.729C43.6148 16.729 43.6581 16.7075 43.6839 16.668C45.4203 14.0134 46.1917 11.1936 46.263 7.2393C46.2643 7.16507 46.205 7.10387 46.1306 7.10254C46.0547 7.10254 45.9945 7.16026 45.9932 7.23441C45.9228 11.1348 45.1646 13.9122 43.4578 16.5214C43.417 16.5836 43.4347 16.6667 43.4972 16.7072Z"
            fill="#241A39" />
        <path
            d="M16.066 7.66193C16.065 7.61254 16.0218 7.57237 15.9744 7.57402C15.9247 7.57499 15.8852 7.6158 15.8861 7.66523C15.9215 9.56165 16.2546 13.1901 18.089 16.1841C18.106 16.2118 18.1356 16.227 18.1659 16.227L18.2126 16.2139C18.255 16.1882 18.2685 16.1331 18.2426 16.0909C16.8995 13.8986 16.1264 10.9051 16.066 7.66193Z"
            fill="#241A39" />
        <path
            d="M24.1707 8.09482C24.1618 8.01513 24.1514 7.93627 24.1379 7.85978C24.1019 7.65751 24.0535 7.46899 23.9977 7.30768C23.9426 7.14637 23.8815 7.01224 23.8321 6.91844C23.8084 6.87153 23.7842 6.83477 23.7702 6.80968C23.7551 6.78463 23.7455 6.77124 23.7455 6.77124C23.7455 6.77124 23.7364 6.78495 23.7223 6.81058C23.7092 6.83621 23.6865 6.87386 23.6646 6.9216C23.6188 7.01719 23.5629 7.15355 23.514 7.31687C23.4645 7.48016 23.4232 7.6704 23.395 7.87389C23.3845 7.95056 23.3772 8.02949 23.3713 8.10921C23.2916 8.118 23.2128 8.12834 23.1364 8.14177C22.9343 8.17734 22.746 8.22597 22.5849 8.28183C22.4238 8.33714 22.2897 8.39848 22.1961 8.4482C22.1492 8.47207 22.1125 8.49633 22.0874 8.51047C22.0624 8.52566 22.0491 8.53535 22.0491 8.53535C22.0491 8.53535 22.0628 8.54454 22.0884 8.55875C22.114 8.57196 22.1516 8.59479 22.1993 8.61687C22.2948 8.66296 22.431 8.7192 22.5942 8.76834C22.7574 8.81809 22.9474 8.85951 23.1507 8.8874C23.2274 8.89785 23.3062 8.90517 23.3859 8.91095C23.3948 8.99042 23.405 9.06903 23.4184 9.14531C23.454 9.34761 23.5026 9.53609 23.5585 9.6974C23.6137 9.85875 23.6751 9.99285 23.7247 10.0866C23.7486 10.1336 23.7728 10.1703 23.787 10.1954C23.8021 10.2205 23.8118 10.2338 23.8118 10.2338C23.8118 10.2338 23.821 10.2201 23.8352 10.1945C23.8484 10.1689 23.8712 10.1312 23.8933 10.0834C23.9393 9.98786 23.9955 9.8515 24.0445 9.68818C24.0942 9.52486 24.1355 9.33465 24.1633 9.13116C24.1738 9.05421 24.1811 8.97499 24.1869 8.89498C24.2662 8.88608 24.3448 8.8757 24.4209 8.86224C24.5202 8.84458 24.6162 8.82383 24.7073 8.80075C24.8015 8.77685 24.8905 8.75039 24.9724 8.72204C25.1336 8.66687 25.2676 8.60581 25.3613 8.55638C25.4081 8.53266 25.4448 8.50846 25.4699 8.49443C25.495 8.47932 25.5083 8.4697 25.5083 8.4697C25.5083 8.4697 25.4946 8.46055 25.469 8.44644C25.4434 8.43334 25.4058 8.41058 25.3581 8.38865C25.2626 8.34281 25.1263 8.28685 24.9631 8.23786C24.8709 8.20979 24.77 8.18441 24.663 8.16251C24.5808 8.14572 24.495 8.13093 24.4066 8.11869C24.3298 8.10813 24.2506 8.1007 24.1707 8.09482Z"
            fill="white" />
        <path
            d="M25.0351 6.81486C25.0718 6.83256 25.1242 6.8542 25.1869 6.87308C25.2497 6.89218 25.3227 6.90811 25.4009 6.91885C25.4303 6.92287 25.4607 6.92567 25.4913 6.92789C25.4947 6.95844 25.4986 6.98866 25.5038 7.01799C25.5175 7.09574 25.5361 7.16821 25.5576 7.23027C25.5789 7.29229 25.6024 7.34384 25.6215 7.37988C25.6307 7.3979 25.64 7.41204 25.6455 7.42169L25.655 7.43648L25.664 7.42133C25.6691 7.4115 25.6779 7.39703 25.6863 7.37866C25.704 7.3419 25.7256 7.28946 25.7445 7.22668C25.7636 7.1639 25.7795 7.09078 25.7902 7.01253C25.7942 6.98295 25.797 6.95252 25.7992 6.92175C25.8297 6.91834 25.8599 6.91432 25.8892 6.90919C25.9669 6.89537 26.0393 6.87671 26.1012 6.85528C26.1632 6.83406 26.2147 6.81059 26.2507 6.79156C26.2687 6.78245 26.2829 6.77315 26.2925 6.76773L26.3072 6.75822L26.2921 6.74928C26.2823 6.74426 26.2678 6.7355 26.2495 6.72706C26.2127 6.70944 26.1604 6.68794 26.0977 6.66909C26.0349 6.65003 25.9619 6.63413 25.8837 6.62326C25.8542 6.6192 25.8237 6.61633 25.793 6.61407C25.7896 6.58341 25.7856 6.55312 25.7804 6.52372C25.7665 6.44597 25.7479 6.3735 25.7265 6.31147C25.7053 6.24945 25.6818 6.19787 25.6628 6.16183C25.6537 6.14381 25.6444 6.12967 25.639 6.12001L25.6295 6.10522L25.6206 6.12037C25.6156 6.13021 25.6068 6.14471 25.5984 6.16305C25.5808 6.19981 25.5593 6.25221 25.5405 6.31499C25.5215 6.37777 25.5056 6.45089 25.4948 6.52914C25.4907 6.55861 25.4879 6.58898 25.4857 6.61963C25.455 6.623 25.4247 6.62699 25.3954 6.63212C25.3177 6.64583 25.2453 6.6645 25.1834 6.686C25.1214 6.70725 25.0699 6.73083 25.0339 6.74996C25.0159 6.75912 25.0018 6.76845 24.9921 6.7739L24.9774 6.78345L24.9925 6.79243C25.0023 6.7976 25.0167 6.80635 25.0351 6.81486Z"
            fill="white" />
        <path
            d="M33.3722 19.704C33.3559 19.6718 33.3393 19.6465 33.3296 19.6292C33.3192 19.612 33.3126 19.6028 33.3126 19.6028C33.3126 19.6028 33.3063 19.6122 33.2966 19.6298C33.2876 19.6474 33.272 19.6733 33.2569 19.7062C33.2255 19.7719 33.1871 19.8657 33.1534 19.978C33.1194 20.0903 33.091 20.2211 33.0716 20.361C33.0644 20.4137 33.0593 20.468 33.0553 20.5228C33.0005 20.5289 32.9463 20.536 32.8938 20.5452C32.7548 20.5696 32.6253 20.6031 32.5145 20.6415C32.4037 20.6795 32.3116 20.7218 32.2471 20.7559C32.2149 20.7723 32.1897 20.789 32.1724 20.7988C32.1552 20.8092 32.1461 20.8158 32.1461 20.8158C32.1461 20.8158 32.1555 20.8222 32.1731 20.8319C32.1907 20.841 32.2165 20.8567 32.2493 20.8719C32.315 20.9036 32.4087 20.9423 32.5209 20.9761C32.6331 21.0103 32.7638 21.0388 32.9035 21.058C32.9562 21.0651 33.0105 21.0702 33.0653 21.0741C33.0713 21.1288 33.0784 21.1829 33.0876 21.2353C33.095 21.2773 33.1032 21.3185 33.1121 21.3585C33.1327 21.451 33.1571 21.5375 33.1839 21.6149C33.2219 21.7258 33.2641 21.8181 33.2982 21.8826C33.3147 21.9148 33.3313 21.9401 33.3411 21.9574C33.3515 21.9746 33.3581 21.9838 33.3581 21.9838C33.3581 21.9838 33.3644 21.9744 33.3742 21.9567C33.3832 21.9391 33.399 21.9132 33.4141 21.8804C33.4458 21.8146 33.4844 21.7208 33.5181 21.6086C33.5523 21.4963 33.5807 21.3655 33.5999 21.2255C33.6071 21.1726 33.6121 21.1181 33.6161 21.0632C33.6706 21.057 33.7246 21.0499 33.777 21.0406C33.9159 21.0159 34.0454 20.9826 34.1562 20.9442C34.267 20.9063 34.3592 20.8643 34.4236 20.8303C34.4558 20.814 34.4811 20.7973 34.4983 20.7877C34.5155 20.7773 34.5247 20.7707 34.5247 20.7707C34.5247 20.7707 34.5153 20.7644 34.4977 20.7547C34.4801 20.7457 34.4542 20.73 34.4214 20.7149C34.3557 20.6834 34.262 20.6449 34.1499 20.6112C34.0377 20.5771 33.907 20.5487 33.7672 20.5293C33.7144 20.522 33.6599 20.5169 33.605 20.5129C33.5989 20.458 33.5917 20.4038 33.5824 20.3512C33.5717 20.2906 33.5592 20.2319 33.5455 20.1757C33.5277 20.1028 33.5077 20.0342 33.486 19.9716C33.4481 19.8608 33.4062 19.7685 33.3722 19.704Z"
            fill="white" />
    </g>
    <defs>
        <clipPath id="clip0_172_2980">
            <rect fill="white" height="64" width="64" />
        </clipPath>
    </defs>
</svg>
