<svg width="25" height="26" viewBox="0 0 25 26" fill="none" xmlns="http://www.w3.org/2000/svg">
<path d="M16.6668 21.332V4.66536C16.6668 4.11283 16.4473 3.58293 16.0566 3.19223C15.6659 2.80152 15.136 2.58203 14.5835 2.58203H10.4168C9.86429 2.58203 9.33439 2.80152 8.94369 3.19223C8.55299 3.58293 8.3335 4.11283 8.3335 4.66536V21.332" stroke="#FF9900" stroke-width="2" stroke-linecap="round" stroke-linejoin="round"/>
<path d="M20.8335 6.75H4.16683C3.01624 6.75 2.0835 7.68274 2.0835 8.83333V19.25C2.0835 20.4006 3.01624 21.3333 4.16683 21.3333H20.8335C21.9841 21.3333 22.9168 20.4006 22.9168 19.25V8.83333C22.9168 7.68274 21.9841 6.75 20.8335 6.75Z" stroke="#FF9900" stroke-width="2" stroke-linecap="round" stroke-linejoin="round"/>
</svg>
