<svg fill="none" height="1024" viewBox="0 0 1024 1024" width="1024"
    xmlns="http://www.w3.org/2000/svg">
    <g clip-path="url(#clip0_1266_8349)">
        <path
            d="M0 2C337.92 2 675.84 2 1024 2C1024 339.92 1024 677.84 1024 1026C686.08 1026 348.16 1026 0 1026C0 688.08 0 350.16 0 2Z"
            fill="#EBE3FE" />
        <path
            d="M654 199C646.424 211.282 638.567 223.371 630.667 235.447C625.891 242.762 621.195 250.127 616.496 257.492C607.416 271.716 598.229 285.865 588.978 299.978C586.018 304.5 583.07 309.03 580.125 313.562C579.608 314.359 579.09 315.155 578.557 315.975C575.961 319.971 573.372 323.972 570.789 327.977C570.277 328.77 569.765 329.563 569.238 330.381C568.27 331.882 567.303 333.384 566.337 334.887C563.111 339.889 563.111 339.889 562 341C560.194 341.271 558.379 341.48 556.562 341.664C555.401 341.784 554.24 341.904 553.044 342.028C551.78 342.154 550.517 342.28 549.215 342.41C547.929 342.542 546.643 342.674 545.318 342.809C541.894 343.16 538.47 343.506 535.045 343.85C531.553 344.202 528.061 344.559 524.569 344.916C517.713 345.616 510.857 346.309 504 347C511.481 346.76 518.962 346.51 526.443 346.255C528.974 346.17 531.506 346.087 534.038 346.005C546.823 345.593 559.573 345.1 572.324 344.059C592.261 342.455 612.261 341.854 632.243 341.067C636.559 340.895 640.876 340.719 645.192 340.543C649.467 340.369 653.742 340.197 658.017 340.026C660.003 339.946 661.99 339.866 663.976 339.785C693.658 338.586 723.353 337.884 753.052 337.293C755.446 337.245 757.839 337.197 760.232 337.149C768.657 336.978 777.082 336.81 785.507 336.643C793.244 336.489 800.982 336.332 808.719 336.174C815.472 336.036 822.224 335.9 828.977 335.766C832.963 335.687 836.948 335.607 840.934 335.525C860.959 335.112 880.97 334.91 901 335C901 335.33 901 335.66 901 336C874.446 337.951 847.878 339.635 821.298 341.191C806.025 342.085 790.756 342.995 775.492 344.039C773.626 344.167 773.626 344.167 771.723 344.297C770.485 344.382 769.247 344.466 767.971 344.553C717.22 348.021 666.446 350.068 615.596 351.354C612.774 351.426 609.952 351.498 607.129 351.57C606.456 351.587 605.782 351.605 605.088 351.622C596.11 351.854 587.143 352.167 578.177 352.683C571.447 353.068 564.741 353.1 558 353C557.726 353.733 557.452 354.466 557.17 355.221C556.065 357.846 554.82 360.076 553.285 362.469C552.764 363.287 552.243 364.106 551.705 364.949C551.163 365.791 550.621 366.633 550.063 367.5C548.991 369.177 547.919 370.854 546.848 372.531C546.374 373.269 545.899 374.007 545.411 374.768C543.902 377.156 542.45 379.575 541 382C574.603 380.596 608.187 379.049 641.75 376.875C642.419 376.832 643.087 376.788 643.776 376.744C657.187 375.875 670.595 374.966 684 374C682.682 376.92 681.268 378.975 678.991 381.22C678.383 381.825 677.776 382.429 677.15 383.051C676.495 383.693 675.839 384.335 675.164 384.996C674.489 385.667 673.813 386.337 673.117 387.028C670.957 389.169 668.792 391.304 666.625 393.437C664.467 395.568 662.31 397.701 660.155 399.836C658.816 401.163 657.474 402.488 656.129 403.81C652.841 407.063 649.87 410.365 647 414C645.357 415.69 643.687 417.353 642 419C640.805 420.187 639.612 421.376 638.419 422.565C637.762 423.219 637.105 423.873 636.428 424.547C633.477 427.485 630.528 430.425 627.579 433.366C626.02 434.92 624.461 436.473 622.9 438.025C620.645 440.268 618.392 442.514 616.141 444.762C615.44 445.458 614.739 446.153 614.017 446.87C613.372 447.515 612.728 448.159 612.064 448.823C611.495 449.39 610.926 449.956 610.34 450.54C608.896 451.979 608.896 451.979 608 454C607.34 454 606.68 454 606 454C605.728 454.598 605.456 455.195 605.175 455.811C604.027 457.95 602.917 459.326 601.203 461.024C600.642 461.585 600.082 462.145 599.505 462.722C598.902 463.314 598.3 463.906 597.68 464.516C596.752 465.439 596.752 465.439 595.805 466.382C593.833 468.343 591.854 470.296 589.875 472.25C588.535 473.58 587.195 474.911 585.856 476.242C582.576 479.5 579.29 482.752 576 486C594.326 486.067 612.648 485.981 630.973 485.781C631.984 485.77 632.995 485.759 634.036 485.748C642.432 485.656 650.827 485.56 659.222 485.464C666.514 485.379 673.806 485.297 681.098 485.219C682.107 485.208 683.116 485.197 684.156 485.186C704.104 484.974 724.051 484.944 744 485C744 485.33 744 485.66 744 486C723.429 487.88 702.827 489.115 682.208 490.339C678.64 490.551 675.071 490.768 671.503 490.984C602.939 495.134 602.939 495.134 574.866 495.407C556.416 495.601 538.036 496.294 519.625 497.5C518.609 497.566 517.593 497.632 516.546 497.7C513.689 497.888 510.833 498.082 507.977 498.281C507.137 498.339 506.296 498.396 505.431 498.455C501.546 498.738 497.803 499.107 494 500C494.97 500.105 494.97 500.105 495.958 500.212C513.038 502.078 530.021 504.373 547 507C545.665 509.962 544.199 512.057 541.91 514.355C541.296 514.974 540.681 515.593 540.047 516.23C539.392 516.876 538.738 517.522 538.063 518.187C537.396 518.851 536.728 519.514 536.041 520.197C530.638 525.508 525.015 530.386 519 535C533.63 534.415 547.756 532.25 562.104 529.411C570.066 527.836 577.773 526.536 585.895 526.176C593.838 525.726 601.135 524.07 608.813 522.062C639.388 514.094 639.388 514.094 649.438 518.562C655.694 522.311 659.917 528.054 662 535C662.864 542.109 662.431 548.199 658 554C653.484 558.825 649.509 562.395 643 564C639.249 564.104 635.523 563.871 631.778 563.676C629.523 563.613 627.269 563.557 625.014 563.506C621.493 563.425 617.987 563.316 614.472 563.098C603.315 562.442 593.428 562.059 584.634 569.79C579.278 574.753 574.519 580.274 570 586C570.902 586.004 571.804 586.007 572.733 586.011C581.308 586.049 589.882 586.106 598.456 586.184C602.862 586.223 607.268 586.255 611.674 586.271C615.941 586.286 620.207 586.321 624.474 586.368C626.087 586.383 627.7 586.391 629.313 586.392C643.957 586.407 657.61 588.912 671.375 594.062C672.153 594.353 672.931 594.643 673.732 594.942C685.698 599.626 709.976 609.951 716 622C708.355 622.631 700.709 623.255 693.063 623.875C691.93 623.967 690.797 624.059 689.629 624.153C674.033 625.412 658.44 626.563 642.815 627.404C641.604 627.47 640.393 627.537 639.145 627.605C637.603 627.685 637.603 627.685 636.031 627.766C632.659 628.026 629.346 628.509 626 629C626.816 629.089 627.631 629.178 628.471 629.27C698.197 636.897 698.197 636.897 721.813 639.937C722.605 640.039 723.397 640.14 724.214 640.244C739.687 642.229 739.687 642.229 742.75 646.184C743.531 647.19 743.531 647.19 744.328 648.217C744.88 648.95 745.432 649.682 746 650.437C746.862 651.577 746.862 651.577 747.741 652.74C765.309 676.36 783 708.682 783 739C776.38 739.751 769.832 740.176 763.172 740.281C762.221 740.299 761.269 740.317 760.289 740.336C757.11 740.395 753.93 740.448 750.75 740.5C748.484 740.54 746.219 740.58 743.953 740.621C709.971 741.211 675.985 741.592 642 742C642.564 742.048 643.128 742.097 643.708 742.147C657.046 743.303 670.343 744.639 683.625 746.312C684.475 746.419 685.325 746.526 686.2 746.636C697.503 748.065 708.772 749.628 720 751.562C721.67 751.841 721.67 751.841 723.374 752.124C730.663 753.447 736.928 755.158 742.5 760.312C744.464 763.831 744.497 766.022 744 770C742.179 774.121 739.666 776.434 736 779C732.823 780.059 730.586 780.123 727.249 780.12C726.05 780.122 724.851 780.123 723.615 780.124C722.298 780.121 720.981 780.117 719.625 780.113C718.225 780.113 716.826 780.113 715.426 780.114C711.625 780.114 707.823 780.108 704.022 780.101C700.05 780.095 696.078 780.094 692.107 780.093C684.584 780.09 677.062 780.082 669.54 780.072C660.976 780.061 652.413 780.055 643.85 780.05C626.233 780.04 608.617 780.022 591 780C590.982 782.251 590.969 784.503 590.959 786.754C590.951 788.008 590.943 789.262 590.935 790.554C591.111 799.89 594.609 808.252 601 815C601.502 815.541 602.003 816.083 602.52 816.641C609.485 823.352 618.069 826.288 627.625 826.5C637.169 826.129 644.05 824.403 651.406 818.207C653 817 653 817 655 817C655.268 816.437 655.536 815.873 655.813 815.293C657.504 812.027 659.549 809.001 661.563 805.926C663.56 802.151 663.56 802.151 665 794C685.295 795.485 685.295 795.485 706 797C702.302 821.036 692.033 838.996 672.938 853.969C663.374 860.582 653.194 864.253 642 867C641.376 867.175 640.751 867.35 640.107 867.53C627.459 870.349 613.004 868.294 601 864C599.981 863.661 598.961 863.322 597.91 862.973C578.53 855.817 564.413 840.55 555.207 822.48C549.079 808.999 545.919 794.687 549 780C548.029 780.003 547.058 780.005 546.058 780.008C522.421 780.075 498.785 780.124 475.148 780.155C463.717 780.171 452.287 780.192 440.856 780.226C430.892 780.256 420.928 780.276 410.963 780.282C405.688 780.286 400.414 780.295 395.139 780.317C390.171 780.338 385.203 780.344 380.234 780.339C378.414 780.34 376.594 780.346 374.774 780.358C363.2 780.427 353.662 780.3 344 773C343.072 772.319 342.144 771.639 341.188 770.937C337.441 767.753 334.548 763.855 331.485 760.031C327.21 754.815 322.627 749.904 318 745C317.198 744.144 316.397 743.288 315.571 742.406C308.935 735.531 301.68 729.654 294 724C293.072 723.315 292.144 722.631 291.188 721.926C271.975 708.746 244.19 706.069 221.688 710.187C208.697 712.878 197.116 717.59 185.408 723.697C179.937 726.456 176.139 727.683 170 727C166.655 725.327 164.657 723.971 162.563 720.875C161.066 713.227 162.778 707.07 167.016 700.633C180.911 682.197 199.18 669.314 221 662C221.94 661.682 221.94 661.682 222.899 661.358C236.353 657.027 250.01 657.58 264 658C264.165 657.419 264.33 656.839 264.5 656.241C266.519 649.313 268.889 642.561 271.438 635.812C272.122 634 272.122 634 272.819 632.151C278.416 617.502 284.681 603.123 290.918 588.738C294.666 580.067 298.373 571.393 301.606 562.516C301.855 561.851 302.104 561.186 302.36 560.501C303.868 556.215 304.366 552.529 304 548C301.798 544.461 299.835 542.539 296 541C293.833 540.673 291.653 540.435 289.469 540.254C287.539 540.081 287.539 540.081 285.571 539.904C282.889 539.677 280.206 539.455 277.524 539.232C262.55 537.885 251.841 536.017 241.766 524.309C236.346 517.221 235.081 508.728 236 500C237.364 494.995 239.018 491.802 243.063 488.5C253.743 483.046 267.722 485.617 278.746 488.914C281.392 489.797 284.008 490.728 286.625 491.687C297.4 495.339 310.035 494.156 321.303 494.199C324.15 494.211 326.996 494.231 329.843 494.252C337.926 494.313 346.008 494.368 354.091 494.401C359.06 494.422 364.029 494.458 368.997 494.502C370.882 494.516 372.767 494.525 374.651 494.528C377.281 494.533 379.91 494.556 382.539 494.583C383.311 494.58 384.082 494.577 384.877 494.574C389.653 494.648 392.96 495.434 397 498C400.949 503.122 402.812 507.53 402 514C399.831 523.145 395.433 530.271 387.621 535.633C381.571 539.121 377.065 540.127 370.047 540.098C369.387 540.096 368.727 540.095 368.046 540.093C365.948 540.088 363.849 540.075 361.75 540.062C360.323 540.057 358.896 540.053 357.469 540.049C353.979 540.038 350.49 540.021 347 540C346.951 540.594 346.901 541.188 346.85 541.801C346.261 548.28 345.243 554.606 344.063 561C343.36 564.997 342.674 568.997 342 573C341.874 573.747 341.749 574.494 341.619 575.264C335.782 611.766 336.143 661.171 357.914 692.25C369.591 707.644 386.572 714.967 405.31 717.701C415.467 718.828 425.794 718.594 436 718.687C438.529 718.721 441.058 718.755 443.586 718.791C449.724 718.875 455.862 718.944 462 719C462.301 718.224 462.602 717.448 462.912 716.649C464.044 713.893 465.409 711.629 467.055 709.148C467.665 708.223 468.274 707.297 468.902 706.344C469.553 705.364 470.204 704.384 470.875 703.375C472.229 701.32 473.582 699.264 474.934 697.207C475.613 696.174 476.292 695.141 476.992 694.077C480.022 689.435 482.986 684.754 485.938 680.062C486.451 679.246 486.965 678.43 487.494 677.589C488.664 675.727 489.832 673.864 491 672C490.164 671.945 489.327 671.889 488.465 671.832C485.326 671.623 482.188 671.413 479.05 671.2C477.037 671.065 475.025 670.932 473.012 670.799C466.644 670.367 460.321 669.895 454 669C459.106 660.57 464.809 652.642 470.606 644.68C473.78 640.316 476.899 635.915 480 631.5C490.373 616.768 500.977 602.253 512 588C506.735 587.776 501.473 587.614 496.204 587.506C494.415 587.461 492.627 587.399 490.839 587.321C480.549 586.542 480.549 586.542 471.172 589.868C469.164 592.144 467.628 594.445 466 597C464.354 598.687 462.684 600.351 461 602C460.254 602.744 459.507 603.489 458.738 604.256C457.587 605.402 457.587 605.402 456.413 606.572C452.057 610.912 447.703 615.254 443.35 619.598C440.728 622.215 438.105 624.831 435.48 627.445C432.924 629.99 430.37 632.538 427.818 635.087C426.389 636.514 424.958 637.937 423.526 639.361C419.049 643.837 414.727 648.367 410.604 653.171C408.002 656.139 405.214 658.91 402.41 661.687C401.821 662.275 401.232 662.863 400.624 663.469C398.773 665.315 396.918 667.158 395.063 669C393.794 670.264 392.525 671.528 391.256 672.793C388.173 675.865 385.088 678.933 382 682C380.266 678.532 381.87 674.645 382.612 670.965C382.887 669.557 382.887 669.557 383.168 668.12C383.783 664.986 384.407 661.854 385.031 658.723C385.465 656.523 385.898 654.322 386.331 652.122C387.479 646.287 388.636 640.453 389.795 634.619C390.944 628.826 392.085 623.031 393.227 617.236C395.201 607.226 397.183 597.217 399.172 587.209C400.339 581.333 401.504 575.455 402.664 569.577C403.321 566.25 403.981 562.922 404.641 559.595C404.94 558.086 405.238 556.578 405.535 555.069C405.934 553.041 406.337 551.013 406.74 548.986C406.962 547.868 407.183 546.75 407.411 545.598C408 543 408 543 409 541C411.817 540.403 414.572 539.932 417.418 539.527C418.693 539.335 418.693 539.335 419.994 539.14C422.724 538.73 425.456 538.334 428.188 537.937C430.011 537.667 431.835 537.395 433.658 537.123C437.023 536.621 440.389 536.125 443.755 535.633C447.177 535.129 450.59 534.583 454 534C452.987 534.061 451.974 534.121 450.93 534.184C447.134 534.41 443.338 534.633 439.541 534.854C437.905 534.951 436.269 535.048 434.633 535.145C432.267 535.287 429.901 535.425 427.535 535.562C426.457 535.628 426.457 535.628 425.356 535.695C420.23 535.988 415.134 536.035 410 536C410.601 530.853 411.363 525.814 412.383 520.729C412.586 519.713 412.586 519.713 412.792 518.676C413.234 516.466 413.68 514.256 414.125 512.047C414.436 510.498 414.746 508.95 415.055 507.402C415.703 504.17 416.352 500.94 417.002 497.709C417.835 493.571 418.665 489.433 419.494 485.295C420.133 482.103 420.773 478.912 421.414 475.721C421.72 474.195 422.026 472.668 422.332 471.142C422.76 469.012 423.188 466.882 423.617 464.753C423.983 462.937 423.983 462.937 424.355 461.085C424.851 458.712 425.412 456.352 426 454C445.47 452.02 464.94 450.04 485 448C450.313 447.843 415.792 447.954 381.14 449.289C365.418 449.887 349.734 450.129 334 450C335.095 444.907 336.252 439.87 337.727 434.871C338.036 433.817 338.346 432.763 338.664 431.678C339.14 430.074 339.14 430.074 339.625 428.437C339.95 427.333 340.275 426.229 340.61 425.092C341.404 422.394 342.201 419.696 343 417C365.947 413.562 388.901 411.223 412 409C390.55 408.01 369.1 407.02 347 406C347.669 400.653 348.326 396.287 349.756 391.223C349.932 390.591 350.109 389.96 350.29 389.31C350.874 387.226 351.467 385.144 352.059 383.062C352.48 381.566 352.9 380.07 353.32 378.574C354.451 374.549 355.589 370.527 356.729 366.505C357.917 362.306 359.099 358.106 360.281 353.906C361.981 347.871 363.682 341.836 365.387 335.803C368.144 326.041 370.89 316.276 373.627 306.508C374.855 302.126 376.085 297.744 377.314 293.362C378.277 289.926 379.24 286.491 380.203 283.055C381.27 279.247 382.34 275.44 383.41 271.633C383.717 270.538 384.023 269.443 384.339 268.315C384.921 266.249 385.51 264.185 386.108 262.124C386.746 259.89 387.352 257.646 387.936 255.397C388.258 254.222 388.58 253.046 388.912 251.835C389.193 250.766 389.474 249.697 389.763 248.595C391 246 391 246 393.299 244.707C395.964 244.009 398.602 243.368 401.307 242.846C402.357 242.641 403.406 242.436 404.488 242.225C405.628 242.007 406.767 241.79 407.942 241.566C409.147 241.333 410.353 241.099 411.595 240.859C414.893 240.221 418.192 239.588 421.492 238.958C423.573 238.561 425.653 238.161 427.733 237.761C488.678 226.045 549.796 215.376 610.991 205.062C613.012 204.721 615.033 204.381 617.054 204.04C619.612 203.608 622.17 203.178 624.728 202.748C630.022 201.856 635.313 200.953 640.593 199.979C641.4 199.831 642.207 199.683 643.038 199.531C645.077 199.153 647.115 198.766 649.152 198.378C652 198 652 198 654 199Z"
            fill="#FD5309" />
        <path
            d="M286.625 491.687C297.4 495.339 310.035 494.156 321.303 494.199C324.15 494.211 326.996 494.231 329.843 494.252C337.926 494.313 346.008 494.368 354.091 494.401C359.06 494.422 364.029 494.457 368.997 494.502C370.882 494.516 372.767 494.525 374.651 494.528C377.281 494.533 379.91 494.556 382.539 494.583C383.311 494.58 384.082 494.577 384.877 494.574C389.653 494.648 392.96 495.434 397 498C400.949 503.122 402.812 507.53 402 514C399.831 523.145 395.433 530.271 387.621 535.633C381.571 539.121 377.065 540.127 370.047 540.098C369.387 540.096 368.727 540.095 368.046 540.093C365.948 540.088 363.849 540.075 361.75 540.062C360.323 540.057 358.896 540.053 357.469 540.049C353.979 540.038 350.49 540.02 347 540C346.926 540.891 346.926 540.891 346.85 541.801C346.261 548.28 345.243 554.605 344.063 561C343.36 564.997 342.674 568.997 342 573C341.874 573.747 341.749 574.494 341.619 575.264C335.782 611.766 336.143 661.171 357.914 692.25C369.591 707.644 386.572 714.967 405.31 717.701C415.467 718.828 425.794 718.594 436 718.687C438.529 718.721 441.058 718.755 443.586 718.791C449.724 718.875 455.862 718.944 462 719C457.469 727.019 452.89 734.981 447.938 742.75C447.428 743.553 446.919 744.357 446.394 745.185C442.749 750.903 438.999 756.522 435 762C440.355 757.597 445.215 752.838 450.059 747.879C452.887 745.047 455.894 742.447 458.918 739.828C462.361 736.805 465.676 733.651 469 730.5C470.495 729.088 471.99 727.677 473.485 726.266C474.236 725.556 474.986 724.846 475.76 724.115C484.485 715.877 493.246 707.678 502.074 699.551C508.405 693.716 514.676 687.817 520.952 681.923C524.962 678.158 528.977 674.396 532.991 670.634C536.376 667.461 539.76 664.287 543.141 661.109C551.045 653.684 558.984 646.303 567 639C556.431 637.911 545.863 637.681 535.25 637.437C533.474 637.394 531.698 637.35 529.922 637.307C525.615 637.201 521.308 637.099 517 637C520.964 632.046 525.298 627.828 530.011 623.585C534.211 619.779 538.24 615.829 542.227 611.801C543.137 610.882 543.137 610.882 544.066 609.945C546.563 607.42 549.056 604.891 551.546 602.359C553.393 600.481 555.247 598.609 557.102 596.738C557.949 595.871 557.949 595.871 558.812 594.987C560.171 593.62 561.581 592.304 563 591C563.66 591 564.32 591 565 591C565.66 589.68 566.32 588.36 567 587C576.876 586.906 586.753 586.836 596.629 586.793C601.217 586.772 605.805 586.744 610.393 586.698C614.834 586.654 619.275 586.631 623.717 586.62C625.397 586.613 627.077 586.599 628.758 586.577C643.669 586.391 657.355 588.817 671.375 594.062C672.153 594.353 672.931 594.643 673.732 594.942C685.698 599.626 709.976 609.951 716 622C708.355 622.631 700.709 623.255 693.063 623.875C691.93 623.967 690.797 624.059 689.629 624.153C674.033 625.412 658.44 626.563 642.815 627.404C641.604 627.47 640.393 627.537 639.145 627.605C637.603 627.685 637.603 627.685 636.031 627.766C632.659 628.026 629.346 628.509 626 629C626.816 629.089 627.631 629.178 628.471 629.27C698.197 636.896 698.197 636.896 721.813 639.937C722.605 640.039 723.397 640.14 724.214 640.244C739.687 642.229 739.687 642.229 742.75 646.183C743.531 647.19 743.531 647.19 744.328 648.217C745.156 649.316 745.156 649.316 746 650.437C746.575 651.197 747.149 651.957 747.741 652.74C765.309 676.36 783 708.682 783 739C776.38 739.75 769.832 740.176 763.172 740.281C762.221 740.299 761.269 740.317 760.289 740.336C757.11 740.395 753.93 740.448 750.75 740.5C748.484 740.54 746.219 740.58 743.953 740.621C709.971 741.211 675.985 741.592 642 742C642.846 742.073 642.846 742.073 643.708 742.147C657.046 743.303 670.343 744.639 683.625 746.312C684.475 746.419 685.325 746.526 686.2 746.636C697.503 748.065 708.772 749.628 720 751.562C721.114 751.748 722.227 751.933 723.374 752.124C730.663 753.446 736.928 755.158 742.5 760.312C744.464 763.831 744.497 766.022 744 770C742.179 774.121 739.666 776.434 736 779C732.823 780.059 730.586 780.123 727.249 780.12C726.05 780.122 724.851 780.123 723.615 780.124C722.298 780.121 720.981 780.117 719.625 780.113C718.225 780.113 716.826 780.113 715.426 780.114C711.625 780.114 707.823 780.108 704.022 780.101C700.05 780.095 696.078 780.094 692.107 780.093C684.584 780.09 677.062 780.082 669.54 780.072C660.976 780.061 652.413 780.055 643.85 780.05C626.233 780.04 608.617 780.022 591 780C590.982 782.251 590.969 784.503 590.959 786.754C590.951 788.008 590.943 789.262 590.935 790.554C591.111 799.89 594.609 808.252 601 815C601.502 815.541 602.003 816.083 602.52 816.641C609.485 823.352 618.069 826.288 627.625 826.5C637.169 826.129 644.05 824.403 651.406 818.207C653 817 653 817 655 817C655.268 816.437 655.536 815.873 655.813 815.293C657.504 812.027 659.549 809.001 661.563 805.926C663.56 802.151 663.56 802.151 665 794C685.295 795.485 685.295 795.485 706 797C702.302 821.036 692.033 838.996 672.938 853.969C663.374 860.582 653.194 864.253 642 867C641.376 867.175 640.751 867.35 640.107 867.53C627.459 870.348 613.004 868.294 601 864C599.981 863.661 598.961 863.322 597.91 862.973C578.53 855.816 564.413 840.55 555.207 822.48C549.079 808.999 545.919 794.687 549 780C547.544 780.004 547.544 780.004 546.058 780.008C522.421 780.075 498.785 780.124 475.148 780.155C463.717 780.171 452.287 780.192 440.856 780.226C430.892 780.256 420.928 780.275 410.963 780.282C405.688 780.286 400.414 780.295 395.139 780.317C390.171 780.337 385.203 780.344 380.234 780.339C378.414 780.34 376.594 780.346 374.774 780.357C363.2 780.427 353.662 780.3 344 773C343.072 772.319 342.144 771.639 341.188 770.937C337.441 767.753 334.548 763.855 331.485 760.031C327.21 754.815 322.627 749.904 318 745C317.198 744.144 316.397 743.288 315.571 742.406C308.935 735.531 301.68 729.654 294 724C293.072 723.315 292.144 722.631 291.188 721.926C271.975 708.746 244.19 706.069 221.688 710.187C208.697 712.877 197.116 717.59 185.408 723.697C179.937 726.456 176.139 727.683 170 727C166.655 725.327 164.657 723.971 162.563 720.875C161.066 713.227 162.778 707.07 167.016 700.633C180.911 682.197 199.18 669.313 221 662C221.94 661.682 221.94 661.682 222.899 661.358C236.353 657.027 250.01 657.58 264 658C264.165 657.419 264.33 656.839 264.5 656.241C266.519 649.313 268.889 642.561 271.438 635.812C271.894 634.604 272.35 633.396 272.819 632.151C278.416 617.502 284.681 603.123 290.918 588.737C294.666 580.067 298.373 571.393 301.606 562.516C301.855 561.851 302.104 561.186 302.36 560.501C303.868 556.214 304.366 552.529 304 548C301.798 544.461 299.835 542.539 296 541C293.833 540.673 291.653 540.435 289.469 540.254C288.183 540.138 286.896 540.023 285.571 539.904C282.889 539.677 280.206 539.455 277.524 539.232C262.55 537.885 251.841 536.017 241.766 524.308C236.346 517.221 235.081 508.728 236 500C237.364 494.995 239.018 491.802 243.063 488.5C256.361 481.709 273.537 486.889 286.625 491.687Z"
            fill="#52229E" />
        <path
            d="M629.328 131.707C632.342 134.356 635.18 137.147 638 140C638.739 140.728 639.477 141.457 640.238 142.207C644.344 146.504 647.47 151.131 650.438 156.25C650.78 156.841 651.123 157.432 651.476 158.04C653.322 161.365 654.348 164.276 655 168C655.694 167.894 656.388 167.788 657.103 167.679C663.775 166.659 670.448 165.645 677.122 164.635C680.55 164.116 683.977 163.596 687.404 163.072C701.403 160.93 715.403 158.861 729.473 157.231C730.523 157.109 731.573 156.987 732.656 156.861C757.509 154.086 757.509 154.086 766.477 160.875C774.682 167.961 774.682 167.961 775.336 172.156C775.349 172.93 775.362 173.703 775.375 174.5C775.403 175.273 775.432 176.047 775.461 176.844C775 179 775 179 773.362 180.54C763.346 186.731 746.806 186.161 735.389 187.39C716.503 189.434 697.671 191.755 678.875 194.5C677.963 194.631 677.051 194.763 676.111 194.898C662.532 196.864 649.024 199.195 635.517 201.602C624.956 203.484 614.388 205.316 603.812 207.113C602.273 207.375 600.734 207.637 599.195 207.899C596.858 208.296 594.521 208.694 592.183 209.091C560.089 214.546 528.018 220.109 496 226C494.853 226.211 493.707 226.421 492.525 226.638C483.744 228.251 474.965 229.871 466.188 231.5C464.949 231.73 463.71 231.96 462.433 232.197C449.414 234.617 436.409 237.089 423.434 239.734C422.376 239.949 421.319 240.164 420.23 240.386C415.296 241.391 410.365 242.409 405.438 243.447C403.711 243.804 401.985 244.16 400.258 244.516C399.487 244.683 398.716 244.85 397.921 245.022C393.981 245.825 390.884 246.161 387 245C387.25 241.75 387.25 241.75 387.605 239.559C388.061 236.932 388.061 236.932 388.113 233.973C388.685 229.952 389.289 228.077 392 225C397.574 222.727 403.636 222.088 409.547 221.156C416.483 220.04 422.7 217.833 429.198 215.233C434.788 213 434.788 213 438 213C436.583 204.609 434.103 199.104 427 194C424.763 193.004 422.489 192.087 420.188 191.25C419.026 190.822 417.865 190.394 416.668 189.953C415.347 189.481 415.347 189.481 414 189C421.73 170.228 442.019 152.922 458 141C459.038 140.207 460.075 139.414 461.145 138.598C480.378 124.179 501.535 114.984 525 110C525.991 109.774 526.983 109.549 528.004 109.316C561.1 102.926 602.932 109.545 629.328 131.707Z"
            fill="#06954D" />
        <path
            d="M283.813 739.313C285.233 740.513 286.627 741.745 288 743C289.338 744.201 289.338 744.201 290.703 745.426C306.376 760.221 314.52 779.728 315.375 801.125C314.991 819.002 308.664 836.376 297 850C296.527 850.627 296.054 851.253 295.567 851.899C284.492 865.873 265.435 875.559 248 878C226.848 879.872 207.158 875.383 190 862.5C188.648 861.355 187.314 860.189 186 859C185.34 858.432 184.68 857.863 184 857.277C174.616 848.645 168.121 836.958 164 825C163.682 824.129 163.363 823.257 163.035 822.359C157.146 803.361 160.716 782.156 169.661 764.803C179.98 745.889 195.73 732.818 216.393 726.509C239.552 719.791 264.539 725.096 283.813 739.313Z"
            fill="#52229E" />
        <path
            d="M255.188 770.289C263.262 776.009 270.132 784.04 272 794C272.859 805.975 271.499 815.525 263.836 825.113C257.176 831.957 249.665 836.13 240.037 836.482C228.853 836.573 220.873 833.898 212.5 826.125C205.169 818.125 202.45 808.588 202.688 797.867C203.847 787.225 209.241 778.923 217.313 772.187C228.355 764.126 243.267 763.264 255.188 770.289Z"
            fill="#EBE3FE" />
        <path
            d="M651.289 519.672C656.518 523.731 660.09 528.632 662 535C662.863 542.109 662.43 548.199 658 554C652.89 559.459 648.249 563.639 640.493 564.172C637.413 564.231 634.339 564.225 631.258 564.195C629.573 564.191 629.573 564.191 627.853 564.187C624.277 564.176 620.701 564.151 617.125 564.125C614.695 564.115 612.266 564.106 609.836 564.098C603.891 564.076 597.945 564.042 592 564C593.713 559.647 595.724 555.552 597.879 551.402C600.34 546.13 600.682 540.753 600 535C597.864 531.414 595.312 529.442 592 527C637.358 511.325 637.358 511.325 651.289 519.672Z"
            fill="#52229E" />
        <path
            d="M403.75 178.125C406 179 406 179 407 181C407.326 186.429 406.453 190.825 405 196C405.33 195.175 405.66 194.35 406 193.5C408 191 408 191 411.5 190.437C418.745 190.906 426.968 193.663 432 199C434.762 202.822 436.586 206.163 436 211C430.556 213.891 425.39 215.996 419.438 217.562C418.657 217.771 417.876 217.981 417.071 218.196C414.718 218.815 412.361 219.413 410 220C409.319 220.169 408.638 220.339 407.936 220.514C385.188 226.011 385.188 226.011 377.312 221.375C372.802 216.743 371.555 212.316 371.5 205.937C371.696 195.99 374.504 187.578 381 180C382.797 180.183 382.797 180.183 385 181C386.703 183.285 386.703 183.285 388.25 186.062C388.771 186.982 389.292 187.901 389.828 188.848C390.215 189.558 390.602 190.268 391 191C391.454 190.095 391.454 190.095 391.918 189.172C397.849 177.857 397.849 177.857 403.75 178.125Z"
            fill="#FC5508" />
        <path
            d="M878.977 733.902C881.126 733.904 883.275 733.906 885.424 733.907C891.016 733.91 896.609 733.92 902.201 733.931C907.934 733.942 913.666 733.946 919.398 733.951C930.599 733.962 941.799 733.979 953 734C953 734.33 953 734.66 953 735C938.328 735.816 923.655 736.62 908.981 737.407C902.425 737.759 895.869 738.119 889.314 738.495C862.199 740.037 835.156 740.23 808 740C808 739.34 808 738.68 808 738C811.942 737.586 815.885 737.177 819.829 736.773C821.804 736.57 823.779 736.362 825.754 736.154C843.514 734.343 861.134 733.856 878.977 733.902Z"
            fill="white" />
        <path
            d="M905 684C905 684.33 905 684.66 905 685C897.797 686.037 890.601 686.405 883.336 686.754C881.992 686.82 880.648 686.886 879.304 686.952C875.73 687.126 872.157 687.294 868.582 687.46C866.374 687.562 864.166 687.666 861.958 687.77C839.298 688.828 816.687 689.439 794 689C794 688.67 794 688.34 794 688C814.353 685.402 834.62 684.623 855.125 684.312C856.338 684.294 857.55 684.275 858.8 684.256C874.2 684.031 889.598 683.956 905 684Z"
            fill="white" />
    </g>
    <defs>
        <clipPath id="clip0_1266_8349">
            <rect fill="white" height="1024" width="1024" />
        </clipPath>
    </defs>
</svg>
